<?xml version="1.0" encoding="utf-8"?>
<!-- Generator: Adobe Illustrator 23.0.1, SVG Export Plug-In . SVG Version: 6.00 Build 0)  -->
<svg version="1.1" id="Calque_1" xmlns="http://www.w3.org/2000/svg" xmlns:xlink="http://www.w3.org/1999/xlink" x="0px" y="0px"
	 viewBox="0 0 1326 472" style="enable-background:new 0 0 1326 472;" xml:space="preserve">
<style type="text/css">
	.st0{fill:#FFFFFF;}
	.st1{fill:#FF6E14;}
	.st2{fill:#3C3C3C;}
</style>
<g>
	<path class="st2" d="M407.09,407.49c-29.85,0-52.36-22.65-52.36-52.81c0-30.15,22.5-52.96,52.36-52.96
		c13.95,0,26.85,5.55,37.06,15.9l-12.6,13.8c-7.2-7.2-15.3-10.8-24.45-10.8c-17.85,0-31.2,14.55-31.2,34.05s13.35,33.9,31.2,33.9
		c13.2,0,23.85-7.65,27.6-20.4h-29.86v-18.3H456c0.15,1.35,0.3,3.75,0.3,6.6C456.3,385.59,435.15,407.49,407.09,407.49z
		 M479.99,303.23h33.91c21.9,0,37.35,12,37.35,30.9c0,13.5-7.2,22.8-18,27.45l24,44.4H535.5l-20.85-39.3H500.1v39.3h-20.1V303.23z
		 M500.1,321.53v27.01h14.55c9.9,0,15.9-5.4,15.9-13.5c0-8.1-6-13.5-15.9-13.5H500.1z M625.65,301.73
		c29.85,0,52.36,22.8,52.36,52.96c0,30.16-22.5,52.81-52.36,52.81c-29.86,0-52.36-22.65-52.36-52.81
		C573.29,324.53,595.8,301.73,625.65,301.73z M625.65,320.63c-17.85,0-31.2,14.55-31.2,34.05s13.35,33.9,31.2,33.9
		c17.85,0,31.2-14.4,31.2-33.9S643.5,320.63,625.65,320.63z M741.6,407.49c-25.05,0-40.66-16.35-40.66-42.46v-61.8h20.55v61.5
		c0,15.16,7.35,24,20.1,24c12.6,0,20.1-8.85,20.1-24v-61.5h20.55v61.8C782.26,391.14,766.51,407.49,741.6,407.49z M811.5,303.23
		h31.95c24.15,0,39.31,12.6,39.31,33.45c0,20.7-15.45,33.45-39.31,33.45h-11.85v35.85h-20.1V303.23z M831.61,321.53v30.46h12
		c11.85,0,18.45-5.7,18.45-15.3c0-9.45-6.75-15.16-18.45-15.16H831.61z M906.6,303.23h64.66v18.3h-44.11v22.8h40.21v18.3h-40.21
		v25.05h44.11v18.3H906.6V303.23z"/>
	<path class="st1" d="M1077.56,257.7V149.45c0-12.28,8.02-19.54,17.54-19.54s17.54,7.27,17.54,19.54v4.76h0.5
		c9.52-14.78,24.05-24.31,42.6-24.31c26.06,0,40.09,18.54,40.09,46.61v81.18h-37.59v-70.66c0-16.54-7.77-22.05-17.54-22.05
		c-14.53,0-25.56,12.28-25.56,38.34v54.37H1077.56z M1038.22,129.91c-10.27,0-18.79,8.02-18.79,20.8V257.7h37.59V150.71
		C1057.02,137.93,1048.5,129.91,1038.22,129.91 M1038.22,110.11c12.78,0,22.8-10.52,22.8-22.8s-10.02-22.8-22.8-22.8
		c-13.03,0-23.05,10.52-23.05,22.8C1015.17,100.34,1025.69,110.11,1038.22,110.11 M938.5,228.13c-16.79,0-27.06-13.28-27.06-33.08
		s10.27-33.08,27.06-33.08s27.06,13.28,27.06,33.08S955.29,228.13,938.5,228.13 M938.5,260.21c39.59,0,65.15-27.06,65.15-65.15
		s-25.56-65.15-65.15-65.15s-65.15,27.06-65.15,65.15S898.91,260.21,938.5,260.21 M791.42,195.06c0,20.55,10.02,32.57,26.31,32.57
		c10.77,0,18.79-5.26,22.8-12.53h0.5l27.31,17.54c-9.52,18.54-29.32,27.56-51.87,27.56c-39.09,0-63.14-27.06-63.14-65.15
		s24.05-65.15,63.14-65.15c22.55,0,42.35,9.02,51.87,27.56l-27.31,17.54h-0.5c-4.01-7.27-12.03-12.53-22.8-12.53
		C801.44,162.48,791.42,174.51,791.42,195.06 M621.03,257.7V149.45c0-12.28,8.02-19.54,17.54-19.54s17.54,7.27,17.54,19.54v4.76h0.5
		c9.52-14.78,24.05-24.31,42.6-24.31c26.06,0,40.09,18.54,40.09,46.61v81.18h-37.59v-70.66c0-16.54-7.77-22.05-17.54-22.05
		c-14.53,0-25.56,12.28-25.56,38.34v54.37H621.03z M540.85,228.13c-16.79,0-27.06-13.28-27.06-33.08s10.27-33.08,27.06-33.08
		c16.79,0,27.06,13.28,27.06,33.08S557.64,228.13,540.85,228.13 M540.85,260.21c39.59,0,65.15-27.06,65.15-65.15
		s-25.56-65.15-65.15-65.15c-39.59,0-65.15,27.06-65.15,65.15S501.26,260.21,540.85,260.21 M399.03,228.13
		c-16.79,0-27.06-13.28-27.06-33.08s10.27-33.08,27.06-33.08s27.06,13.28,27.06,33.08S415.82,228.13,399.03,228.13 M411.56,129.91
		c-15.28,0-28.57,6.26-39.09,19.8h-0.5V89.82c0-12.78-8.52-20.8-18.79-20.8s-18.79,8.02-18.79,20.8V257.7h35.08v-19.04h0.5
		c8.52,13.53,23.05,21.55,40.34,21.55c32.32,0,54.37-27.81,54.37-65.65C464.68,157.47,443.63,129.91,411.56,129.91 M301.23,208.88
		c-4.91,9.4-17.17,20.66-32.17,20.66c-8.47,0-13.43-3.66-16.94-6.71l66.49-47.68c-7.71-25.18-26.24-45.25-60.76-45.25
		c-39.78,0-58.71,33.05-58.71,59.62c0,11.26,2.18,21.56,6.03,30.61c-8.53,4.66-15.1,8.14-21.11,8.14
		c-11.16,0-16.43-6.54-16.43-18.72l-0.01-120.07c0-12.73-8.49-20.72-18.73-20.72c-10.24,0-18.72,7.99-18.72,20.73l0.01,123.27
		c0,28.33,19.87,47.17,48.06,47.17c13.93,0,27.98-4.74,44.32-15.57c11.48,10.09,26.23,15.84,42.06,15.84
		c32.44,0,51.87-14.25,61.33-33.49L301.23,208.88z M257.86,159.91c12.44,0,16.96,7.5,19.22,10.89l-41.67,31.02
		c-1.49-3.87-2.76-10.03-2.76-14.2C232.65,168.62,246,159.91,257.86,159.91z"/>
</g>
</svg>
