<?xml version="1.0" encoding="utf-8"?>
<!-- Generator: Adobe Illustrator 25.1.0, SVG Export Plug-In . SVG Version: 6.00 Build 0)  -->
<svg version="1.1" id="Calque_1" xmlns="http://www.w3.org/2000/svg" xmlns:xlink="http://www.w3.org/1999/xlink" x="0px" y="0px"
	 viewBox="0 0 395.6 395.6" style="enable-background:new 0 0 395.6 395.6;" xml:space="preserve">
<style type="text/css">
	.st0{fill:#AAAAAA;}
</style>
<path class="st0" d="M197.8,0C88.6,0,0,88.6,0,197.8s88.6,197.8,197.8,197.8S395.6,307,395.6,197.8S307,0,197.8,0z M163.5,256H131
	V151.6h32.5V256z M163.7,127.7c-1.7,2.9-4.1,5.2-7,7c-2.9,1.7-6,2.6-9.3,2.6c-5.1,0-9.6-1.9-13.3-5.6c-3.7-3.7-5.6-8.1-5.6-13.3
	c0-5.1,1.9-9.5,5.6-13.3c3.7-3.7,8.1-5.6,13.3-5.6c5.1,0,9.5,1.9,13.3,5.6c3.7,3.7,5.6,8.2,5.6,13.3
	C166.3,121.7,165.4,124.8,163.7,127.7z M285,256h-32.5v-51c0-4-0.1-7.2-0.3-9.6c-0.2-2.4-0.8-5.2-1.7-8.4c-0.9-3.1-2.6-5.5-5.1-7.2
	c-2.4-1.6-5.6-2.4-9.6-2.4c-7.7,0-12.9,2.4-15.5,7.3c-2.7,4.9-4,11.4-4,19.6V256h-32.5V151.6h31.4v14.3h0.3
	c2.3-4.7,6.2-8.7,11.5-12.1c5.4-3.4,11.8-5.1,19.2-5.1c7.9,0,14.5,1.2,19.7,3.7c5.2,2.4,9.2,6.1,11.9,10.8c2.7,4.8,4.5,10,5.6,15.5
	s1.6,12.2,1.6,19.9V256z"/>
</svg>
