<?xml version="1.0" encoding="utf-8"?>
<!-- Generator: Adobe Illustrator 25.1.0, SVG Export Plug-In . SVG Version: 6.00 Build 0)  -->
<svg version="1.1" id="Calque_1" xmlns="http://www.w3.org/2000/svg" xmlns:xlink="http://www.w3.org/1999/xlink" x="0px" y="0px"
	 viewBox="0 0 395.6 395.6" style="enable-background:new 0 0 395.6 395.6;" xml:space="preserve">
<style type="text/css">
	.st0{fill:#AAAAAA;}
</style>
<path class="st0" d="M197.8,0C88.6,0,0,88.6,0,197.8s88.6,197.8,197.8,197.8S395.6,307,395.6,197.8S307,0,197.8,0z M268.7,161.5
	c0.2,0.9,0.3,2.4,0.3,4.5c0,12.3-2.3,24.6-7,36.9c-4.7,12.2-11.2,23.4-19.7,33.5c-8.5,10.1-19.5,18.3-33,24.6
	c-13.5,6.3-28.4,9.4-44.7,9.4c-20.5,0-39.2-5.5-56.2-16.4c2.6,0.2,5.5,0.3,8.7,0.3c17,0,32.3-5.2,45.8-15.7
	c-8.2,0-15.3-2.4-21.5-7.2c-6.2-4.8-10.4-10.8-12.7-18c2.3,0.2,4.5,0.3,6.6,0.3c3.3,0,6.5-0.3,9.8-1c-5.6-1.2-10.6-3.5-15-7
	c-4.4-3.5-7.9-7.7-10.5-12.7c-2.6-5-3.8-10.4-3.8-16.2v-0.7c5.1,3,10.6,4.7,16.4,4.9c-10.9-7.5-16.4-17.7-16.4-30.7
	c0-6.5,1.7-12.7,5.2-18.5c9.1,11.4,20.2,20.5,33.4,27.2c13.2,6.8,27.2,10.5,42.1,11.2c-0.5-2.8-0.7-5.6-0.7-8.4
	c0-10,3.5-18.6,10.7-25.8c7.1-7.2,15.7-10.8,25.7-10.8c10.7,0,19.7,3.8,26.9,11.5c8.4-1.6,16.2-4.5,23.4-8.7
	c-2.8,8.6-8.2,15.4-16.1,20.3c7-0.9,14-2.9,21-5.9C282.1,149.7,275.9,156.1,268.7,161.5z"/>
</svg>
