<?xml version="1.0" encoding="utf-8"?>
<!-- Generator: Adobe Illustrator 25.1.0, SVG Export Plug-In . SVG Version: 6.00 Build 0)  -->
<svg version="1.1" id="Calque_1" xmlns="http://www.w3.org/2000/svg" xmlns:xlink="http://www.w3.org/1999/xlink" x="0px" y="0px"
	 viewBox="0 0 328 328" style="enable-background:new 0 0 328 328;" xml:space="preserve">
<style type="text/css">
	.st0{fill:#FFFFFF;}
</style>
<g>
	<path class="st0" d="M275.8,0H52.2C23.37,0,0,23.37,0,52.2v223.6C0,304.63,23.37,328,52.2,328h223.6c28.83,0,52.2-23.37,52.2-52.2
		V52.2C328,23.37,304.63,0,275.8,0z M236.19,245.1c0,15.68-12.71,28.39-28.38,28.39h-47.85v-0.02
		c-37.57-0.52-68.15-31.4-68.15-69.09v0c0-38.01,31.1-69.11,69.11-69.11V245.1L236.19,245.1L236.19,245.1z M236.19,222.02h-50.6
		V93.57c0-21.57,17.49-39.06,39.06-39.06h11.54V222.02z"/>
</g>
</svg>
