<?xml version="1.0" encoding="utf-8"?>
<!-- Generator: Adobe Illustrator 25.1.0, SVG Export Plug-In . SVG Version: 6.00 Build 0)  -->
<svg version="1.1" id="Calque_1" xmlns="http://www.w3.org/2000/svg" xmlns:xlink="http://www.w3.org/1999/xlink" x="0px" y="0px"
	 viewBox="0 0 395.6 395.6" style="enable-background:new 0 0 395.6 395.6;" xml:space="preserve">
<style type="text/css">
	.st0{fill:#AAAAAA;}
</style>
<path class="st0" d="M197.8,0C88.6,0,0,88.6,0,197.8s88.6,197.8,197.8,197.8S395.6,307,395.6,197.8S307,0,197.8,0z M152.4,218.4
	c0,4.7-1.6,8.6-4.9,11.7c-3.3,3.1-7.1,4.7-11.5,4.7c-4.4,0-8.3-1.6-11.5-4.7c-3.3-3.1-4.9-7-4.9-11.5s1.6-8.4,4.9-11.7
	c3.3-3.3,7.1-4.9,11.5-4.9h16.4V218.4z M193.6,259.6c0,4.4-1.6,8.3-4.9,11.5c-3.3,3.3-7.2,4.9-11.7,4.9s-8.4-1.6-11.5-4.9
	c-3.1-3.3-4.7-7.1-4.7-11.5v-41.2c0-4.4,1.6-8.3,4.7-11.5c3.1-3.3,7-4.9,11.5-4.9s8.4,1.6,11.7,4.9c3.3,3.3,4.9,7.1,4.9,11.5V259.6z
	 M188.7,188.7c-3.3,3.3-7.1,4.9-11.5,4.9H136c-4.4,0-8.3-1.6-11.5-4.9c-3.3-3.3-4.9-7.1-4.9-11.5c0-3,0.8-5.8,2.3-8.4
	c1.5-2.6,3.5-4.5,5.9-5.9c2.4-1.4,5.2-2.1,8.2-2.1h41.2c4.4,0,8.3,1.6,11.5,4.7c3.3,3.1,4.9,7,4.9,11.5S192,185.5,188.7,188.7z
	 M193.6,152.4h-16.4c-4.7,0-8.6-1.6-11.7-4.9c-3.1-3.3-4.7-7.1-4.7-11.5c0-4.4,1.6-8.3,4.7-11.5c3.1-3.3,7-4.9,11.5-4.9
	s8.4,1.6,11.7,4.9c3.3,3.3,4.9,7.1,4.9,11.5V152.4z M202,136c0-4.4,1.6-8.3,4.9-11.5c3.3-3.3,7.1-4.9,11.5-4.9c3,0,5.8,0.8,8.4,2.3
	c2.6,1.5,4.5,3.5,5.9,5.9c1.4,2.4,2.1,5.2,2.1,8.2v41.2c0,4.4-1.6,8.3-4.7,11.5c-3.1,3.3-7,4.9-11.5,4.9c-4.5,0-8.4-1.6-11.7-4.9
	c-3.3-3.3-4.9-7.1-4.9-11.5V136z M230.1,271.2c-3.1,3.3-7,4.9-11.5,4.9c-4.5,0-8.4-1.6-11.7-4.9c-3.3-3.3-4.9-7.1-4.9-11.5v-16.4
	h16.4c4.7,0,8.6,1.6,11.7,4.9c3.1,3.3,4.7,7.1,4.7,11.5C234.8,264.1,233.3,267.9,230.1,271.2z M271.2,230.1
	c-3.3,3.1-7.1,4.7-11.5,4.7h-41.2c-4.4,0-8.3-1.6-11.5-4.7c-3.3-3.1-4.9-7-4.9-11.5s1.6-8.4,4.9-11.7c3.3-3.3,7.1-4.9,11.5-4.9h41.2
	c4.4,0,8.3,1.6,11.5,4.9c3.3,3.3,4.9,7.2,4.9,11.7S274.4,227,271.2,230.1z M271.2,188.7c-3.3,3.3-7.1,4.9-11.5,4.9h-16.4v-16.4
	c0-4.7,1.6-8.6,4.9-11.7c3.3-3.1,7.1-4.7,11.5-4.7c4.4,0,8.3,1.6,11.5,4.7c3.3,3.1,4.9,7,4.9,11.5S274.4,185.5,271.2,188.7z"/>
</svg>
