<svg xmlns="http://www.w3.org/2000/svg">
  <defs>
    <style>
      .cls-1 {
        fill: #28283e;
      }

      .cls-1, .cls-2 {
        fill-rule: evenodd;
      }

      .cls-2 {
        fill: #0096cd;
      }
    </style>
  </defs>
  <title>Asset 11</title>
  <g id="Layer_2" data-name="Layer 2">
    <g id="Layer_1-2" data-name="Layer 1">
      <g>
        <path class="cls-1" d="M0,2.13V0H2.13V2.13ZM0,23.39V21.26H2.13v2.13ZM21.26,2.13V0h2.13V2.13Zm0,21.26V21.26h2.13v2.13ZM42.52,2.13V0h2.13V2.13Zm0,21.26V21.26h2.13v2.13ZM63.78,2.13V0h2.13V2.13Zm0,21.26V21.26h2.13v2.13ZM0,44.65V42.52H2.13v2.13ZM0,65.91V63.78H2.13v2.13ZM21.26,44.65V42.52h2.13v2.13Zm0,21.26V63.78h2.13v2.13ZM42.52,44.65V42.52h2.13v2.13Zm0,21.26V63.78h2.13v2.13ZM63.78,44.65V42.52h2.13v2.13Zm0,21.26V63.78h2.13v2.13Z"/>
        <path class="cls-2" d="M25.62,11.84c1,0,2,.06,3,.07a1.69,1.69,0,0,1-1-.28,1.64,1.64,0,0,1-.43-.4,1.2,1.2,0,0,1-.18-.31,2.21,2.21,0,0,0,.05.32c.09.71.13,1.44.17,2.15.15,2.34.07,4.74.12,7.08A98.41,98.41,0,0,1,27,31.4a1.94,1.94,0,0,1,.34-.69,2,2,0,0,1,.35-.36,1.77,1.77,0,0,1,.41-.26,1.57,1.57,0,0,1,.23-.09l-.35.05-.77.07-.23,0h-.26l-.69,0c-2.09.12-4.18.19-6.27.25-3.36.16-6.77.07-10.14.21a1.65,1.65,0,0,1,.95.3,1.41,1.41,0,0,1,.38.39c.08.15,0,.09,0,0a11,11,0,0,1-.25-1.9c-.12-2-.11-3.9-.1-5.86,0-.3,0-.68,0-1,0-1.5,1.08-11.71-1.08-11.73s-2.3,10-2.43,11.58c0,.3,0,.69-.07,1-.14,2.07-.22,4.11-.16,6.19a14.61,14.61,0,0,0,.29,2.64,3.88,3.88,0,0,0,.48,1.22,2.56,2.56,0,0,0,.68.71,2.31,2.31,0,0,0,1.3.42c3.28.13,6.92,0,10.23,0,2.12,0,4.27-.09,6.4-.16l.73,0a1.43,1.43,0,0,0,.29,0h.26l.93-.1a8.13,8.13,0,0,0,.84-.13c.19,0,.36-.13.55-.19a2.6,2.6,0,0,0,.5-.31,2.34,2.34,0,0,0,.38-.39,2.29,2.29,0,0,0,.35-.72c.49-2.45.29-9.47.25-12.09-.05-2.43-.12-4.86-.31-7.28,0-.86-.19-1.67-.29-2.52a8.28,8.28,0,0,0-.25-1A2.72,2.72,0,0,0,30.16,9a2,2,0,0,0-.52-.49,1.9,1.9,0,0,0-1.06-.31c-1,0-2,0-3,.07A48.16,48.16,0,0,0,14.53,9.63c-.4.31-1.24.11-1.26.89s.83.78,1.43.91C14.83,11.55,25,11.83,25.62,11.84Z"/>
        <path class="cls-2" d="M64.05,18.55a12.24,12.24,0,0,0-.6-2.15A12.75,12.75,0,0,0,60.63,12a13,13,0,0,0-4.35-3A13.28,13.28,0,0,0,42,11.66l-.18.2h0l-.19.19A13.25,13.25,0,0,0,38,21.34a13,13,0,0,0,1,5,13.07,13.07,0,0,0,7.37,7.17,11.8,11.8,0,0,0,2.15.61,12.35,12.35,0,0,0,2.78.19,11.73,11.73,0,0,0,4.77-1.21c.7-.2,4.21-2.78,3.21-3.78-.62-.53-3.28.88-4.25,1.19a11.16,11.16,0,0,1-3.73.43,9.85,9.85,0,0,1-2-.32,10.25,10.25,0,0,1-1.53-.53,9.54,9.54,0,0,1-3-2.13,9.36,9.36,0,0,1-2-3.12,9.28,9.28,0,0,1,.09-6.95A9.39,9.39,0,0,1,44.68,15a.81.81,0,0,0,.12-.14h0l.14-.12a9.34,9.34,0,0,1,2.88-1.91,9.1,9.1,0,0,1,3.45-.71,9.21,9.21,0,0,1,6.61,2.62A9.57,9.57,0,0,1,60,17.78a10.15,10.15,0,0,1,.53,1.53,9.87,9.87,0,0,1,.32,2,11.13,11.13,0,0,1-.43,3.72c-.31,1-1.72,3.63-1.19,4.25,1.19,1,3.41-2.56,3.77-3.2a11.66,11.66,0,0,0,1.22-4.77A11.85,11.85,0,0,0,64.05,18.55Z"/>
        <path class="cls-2" d="M21.4,62.71c3,.24,6,.39,9,.41a2.43,2.43,0,0,0,.92-.18,2.49,2.49,0,0,0,.75-.49,2.29,2.29,0,0,0,.53-.74,2.2,2.2,0,0,0,.21-.91,18,18,0,0,0-1.65-7.31,56.15,56.15,0,0,0-3.41-6.75l-.12-.18a1.28,1.28,0,0,0-.11-.2c0-.07-.1-.16-.13-.23-1.23-2-2.51-3.89-3.88-5.79-.4-.59-.87-1.17-1.3-1.74l-.39-.49-.13-.17-.11-.12a1.71,1.71,0,0,0-.2-.18,2.34,2.34,0,0,0-.47-.3,2.1,2.1,0,0,0-1-.2,2,2,0,0,0-1.06.34,2.17,2.17,0,0,0-.8.9c-1.51,3.23-4.58,7.52-6.52,10.78-.42.71-6.17,10.4-3.52,11,1.4.24,5.92-7.8,6.73-9a129.82,129.82,0,0,0,7.24-11,2.14,2.14,0,0,1-.8.91,2,2,0,0,1-1.06.34,2.1,2.1,0,0,1-1-.2,2.05,2.05,0,0,1-.47-.3,1.41,1.41,0,0,1-.18-.17l-.06-.06.05.06s.3.4.32.43c.39.55.79,1.1,1.18,1.67,1.26,1.83,2.45,3.67,3.6,5.59l.12.21.12.17a1.14,1.14,0,0,0,.1.19,56.36,56.36,0,0,1,3.25,6.15,15.11,15.11,0,0,1,1.49,5.45,1.58,1.58,0,0,1,.16-.68,1.77,1.77,0,0,1,1-.93,1.93,1.93,0,0,1,.69-.13s-5.9,0-8.82,0c-1,0-11-.21-11,1.62C10.78,62.2,20.26,62.61,21.4,62.71Z"/>
        <path class="cls-2" d="M61.71,48.61c.91.84,1.88,1.77,2.81,2.59a1.88,1.88,0,0,1-.67-.88,1.82,1.82,0,0,1-.11-.69,2,2,0,0,1,.1-.6A1.44,1.44,0,0,1,64,48.7a.32.32,0,0,1,.08-.12s0,.05,0,.05-.36.4-.38.43c-.51.53-1,1.1-1.51,1.64C60.58,52.33,59,54,57.44,55.58s-3.14,3.12-4.83,4.54a14.18,14.18,0,0,1-1.48,1.1c-.18.1-.1,0,0,0l.28,0a1.74,1.74,0,0,1,.39,0,2,2,0,0,1,.83.45s.2.21.2.21l-.1-.14c-3.54-4.22-8.59-7-11.83-11.86a1.8,1.8,0,0,1,.22,1,1.91,1.91,0,0,1-.09.44l-.1.21a2.51,2.51,0,0,1,.2-.29s1.15-1.36,1.24-1.47c1-1.16,2.07-2.3,3.11-3.44.34-.38.72-.77,1-1.16.94-1,7.57-7.2,5.94-8.6s-7.26,5.06-8.43,6.18L43,43.91c-1.14,1.1-2.25,2.22-3.35,3.36-.51.53-1,1.08-1.46,1.63a5.67,5.67,0,0,0-.5.68,2.67,2.67,0,0,0-.25.51,2.71,2.71,0,0,0-.12.55,2,2,0,0,0,.23,1.11c3.68,6,8.17,8,12,12.72l.08.09a1.88,1.88,0,0,0,.24.25,2.34,2.34,0,0,0,1.07.58,3.2,3.2,0,0,0,.56.06,2.38,2.38,0,0,0,.53,0,4.09,4.09,0,0,0,1.25-.5,15.4,15.4,0,0,0,2.11-1.57c1.76-1.54,3.4-3.21,5-4.9s3.16-3.37,4.69-5.1c.51-.57,1-1.17,1.5-1.75.15-.17.29-.35.44-.53l.16-.21a1.37,1.37,0,0,0,.13-.2,2.6,2.6,0,0,0,.16-.34,1.78,1.78,0,0,0,.11-.61,1.83,1.83,0,0,0-.12-.69,1.86,1.86,0,0,0-.66-.88l-2.72-2.21c-.3-.25-3.69-3-3.68-3a50.94,50.94,0,0,0-4.63-3.4,6.41,6.41,0,0,0-1.7-.93,1,1,0,0,0-.6-.13.29.29,0,0,0-.22,0s-.09.05-.1.05l0,0,0,0s0,0,0,0l0,0,0,0s0,0,0,.06,0,.06-.05.11a.37.37,0,0,0,0,.23,1.06,1.06,0,0,0,.21.59,6.7,6.7,0,0,0,1.14,1.57,52.06,52.06,0,0,0,4,4.13C59.29,46.46,60.56,47.56,61.71,48.61Z"/>
      </g>
    </g>
  </g>
</svg>
