<?xml version="1.0" encoding="utf-8"?>
<!-- Generator: Adobe Illustrator 25.1.0, SVG Export Plug-In . SVG Version: 6.00 Build 0)  -->
<svg version="1.1" id="Calque_1" xmlns="http://www.w3.org/2000/svg" xmlns:xlink="http://www.w3.org/1999/xlink" x="0px" y="0px"
	 viewBox="0 0 198 197" style="enable-background:new 0 0 198 197;" xml:space="preserve">
<style type="text/css">
	.st0{fill:#3080E3;}
</style>
<g>
	<path class="st0" d="M65.16,85H28.84C17.88,85,9,76.12,9,65.16V28.84C9,17.88,17.88,9,28.84,9h36.31C76.12,9,85,17.88,85,28.84
		v36.31C85,76.12,76.12,85,65.16,85z"/>
	<path class="st0" d="M65.16,94H28.84C12.94,94,0,81.06,0,65.16V28.84C0,12.94,12.94,0,28.84,0h36.32C81.06,0,94,12.94,94,28.84
		v36.31C94,81.06,81.06,94,65.16,94z M28.84,18C22.86,18,18,22.86,18,28.84v36.31C18,71.14,22.86,76,28.84,76h36.32
		C71.14,76,76,71.14,76,65.16V28.84C76,22.86,71.14,18,65.16,18H28.84z"/>
</g>
<g>
	<path class="st0" d="M169.16,94h-36.31C116.94,94,104,81.06,104,65.16V28.84C104,12.94,116.94,0,132.84,0h36.31
		C185.06,0,198,12.94,198,28.84v36.31C198,81.06,185.06,94,169.16,94z M132.84,18C126.86,18,122,22.86,122,28.84v36.31
		c0,5.98,4.86,10.84,10.84,10.84h36.31c5.98,0,10.84-4.86,10.84-10.84V28.84c0-5.98-4.86-10.84-10.84-10.84H132.84z"/>
</g>
<g>
	<path class="st0" d="M65.16,197H28.84C12.94,197,0,184.06,0,168.16v-36.31C0,115.94,12.94,103,28.84,103h36.32
		C81.06,103,94,115.94,94,131.84v36.31C94,184.06,81.06,197,65.16,197z M28.84,121C22.86,121,18,125.86,18,131.84v36.31
		c0,5.98,4.86,10.84,10.84,10.84h36.32c5.98,0,10.84-4.86,10.84-10.84v-36.31c0-5.98-4.86-10.84-10.84-10.84H28.84z"/>
</g>
<g>
	<path class="st0" d="M169.16,197h-36.31c-15.9,0-28.84-12.94-28.84-28.84v-36.31c0-15.9,12.94-28.84,28.84-28.84h36.31
		c15.9,0,28.84,12.94,28.84,28.84v36.31C198,184.06,185.06,197,169.16,197z M132.84,121c-5.98,0-10.84,4.86-10.84,10.84v36.31
		c0,5.98,4.86,10.84,10.84,10.84h36.31c5.98,0,10.84-4.86,10.84-10.84v-36.31c0-5.98-4.86-10.84-10.84-10.84H132.84z"/>
</g>
</svg>
