<svg id="Calque_2" data-name="Calque 2" xmlns="http://www.w3.org/2000/svg" viewBox="0 0 1530 990"><defs><style>.cls-1{fill:#f1852b;}.cls-2{fill:#f0c400;}.cls-3{fill:#282828;}.cls-4{fill:#088cfa;}.cls-5{fill:#8ffff7;}.cls-6{fill:#cf4227;}.cls-7{fill:#fff;}.cls-8{fill:#941b03;}</style></defs><path class="cls-1" d="M960.88,390.62c60.5-25.08,122-50.42,187.31-58.45s136.18,3.43,186.06,44.87c31.94,26.53,54,68.22,44.23,107.74-11.73,47.24-63,75.86-82.66,120.6a99.12,99.12,0,0,0-6.44,58.75c6.53,32.85,29.53,61.44,33.37,94.68,5.33,46.28-29.45,90.26-73,110.49s-93.82,21.22-142,18.21c-24.42-1.52-48.93-4-72.43-10.54-79.53-22.15-139.37-90.22-165.16-166-26.49-77.88-20.57-165.53,16.17-239.45C904.18,435.62,933.12,402.12,960.88,390.62Z"/><path class="cls-2" d="M1094.8,410c33.15-58.49,36.44-132.67,8.6-193.81-6.46-14.2-14.9-28.14-27.85-37-25.45-17.34-60-10.19-89,.32s-59.48,24-89.58,17.12c-30.7-7-54.8-34.18-86.19-36.8-13.31-1.12-26.55,2.41-39.24,6.56-17.92,5.88-35.51,13.17-51.28,23.45-56.08,36.57-82.09,110.34-67.86,175.39S717.18,484.7,778.89,510.86c21.25,9,43.7,15,66.31,19.73,30.7,6.46,62.15,10.77,93.45,8.42s62.59-11.73,87.63-30.5C1061,482.51,1077.65,440.26,1094.8,410Z"/><path class="cls-3" d="M890.44,265.71A1033.16,1033.16,0,0,0,871.59,160.8c-1.8-7.71-3.84-15.69-8.94-21.75-7.87-9.36-20.41-11.57-33.1-11.39l-.53-5.38a11.9,11.9,0,0,0-13-10.66l-6.3.61a11.91,11.91,0,0,0-10.67,13l.59,6c-8.43,2.19-16,6-20.28,13.37-3.48,6.07-3.83,13.38-4.09,20.37q-.6,16.28-1.21,32.56c-6.25,1.9-12.14,5.74-15.11,11.53-2.22,4.35-2.64,9.37-2.92,14.24-1,17.49-.92,35.13,1.85,52.43,1.12,7,3,14.52,8.54,19,3.75,3,8.45,4.05,13.33,4.2,3.14,5.86,7.64,10.66,13.83,13.29,9.62,4.1,20.64,1.79,30.77-.79q22.59-5.73,44.8-12.85c7.34-2.35,15.26-5.28,19.22-11.9C892.05,280.51,891.34,272.8,890.44,265.71ZM807,124.44a3.89,3.89,0,0,1,3.49-4.24l6.3-.62.38,0a3.89,3.89,0,0,1,3.87,3.51l.49,5c-2.12.16-4.21.37-6.26.59-2.54.27-5.15.58-7.76,1Z"/><path class="cls-4" d="M845.67,91.94l-56.4,3.92a2.49,2.49,0,0,0-3.49.24l-6.76.47a2.5,2.5,0,0,0,.18,5h.17l5.94-.41,1.58,32a2.5,2.5,0,0,0,2.49,2.37h.13a2.5,2.5,0,0,0,2.37-2.62l-1.58-32.1,42.32-2.94a234.24,234.24,0,0,1,2.78,28.22,2.51,2.51,0,0,0,2.5,2.4h.1a2.49,2.49,0,0,0,2.4-2.59,241.27,241.27,0,0,0-2.78-28.38l8.4-.59a2.5,2.5,0,1,0-.35-5Z"/><path class="cls-5" d="M874.36,285.17l-6.18-60.73c-2.74-27-5.58-54.89-13.86-81.32-1.56-5-3.63-10.59-8.36-13.82s-10.88-3.13-16.7-2.7c-10.21.76-20.53,1.78-30.7,3-8.16,1-16,2.31-22.07,7.27-9,7.3-10.51,19.81-10.25,29,.09,3.39.39,6.82.68,10.14.57,6.52,1.16,13.26.16,19.73a37.31,37.31,0,0,0-5.53,2.35c-6.22,3.3-13.39,10.14-12.24,24.06a1.43,1.43,0,0,0,.14.5,1.47,1.47,0,0,0-.25.88l1.08,32a1.51,1.51,0,0,0,1.5,1.45h.05a1.5,1.5,0,0,0,1.45-1.55l-1.08-32,69.85-5.09a1.57,1.57,0,0,0,1.07-.56c.41,2.34.74,4.77,1,7.23l8.46,70c.51,4.17,1,8.49,0,12.53-1,4.2-3.82,7.47-7.13,8.33a1.5,1.5,0,0,0,.37,2.95,1.24,1.24,0,0,0,.38-.05,10.92,10.92,0,0,0,3.85-1.9,1.45,1.45,0,0,0,.81.24,1.5,1.5,0,0,0,.62-.13c4.65-2.1,9.71-2.76,15.06-3.46,2.4-.31,4.88-.63,7.3-1.1,5.83-1.12,16.12-4.33,19.61-13.29C875.31,294.57,874.81,289.58,874.36,285.17Zm-52.53-69.8-69.62,5.09c-.35-9.1,3.26-15.71,10.74-19.67,6.65-3.52,14.33-4.47,21.75-5.39a100.22,100.22,0,0,1,12.11-.92c6.76,0,13.06,1.23,17.88,5.41,4.47,3.87,6.66,9.41,8,15.67A1.53,1.53,0,0,0,821.83,215.37Zm48.89,82.72c-3,7.62-12.16,10.43-17.38,11.44-2.33.44-4.76.76-7.12,1.07a70.93,70.93,0,0,0-12.64,2.46,16.69,16.69,0,0,0,2-4.76c1.11-4.57.53-9.37,0-13.6l-8.46-70c-1.23-10.17-3-20.63-10.47-27.07-8.57-7.43-21.18-6.58-32.33-5.2a105.15,105.15,0,0,0-14.1,2.42c.78-6.37.23-12.81-.32-19.06-.28-3.27-.58-6.66-.67-10-.25-8.53,1.15-20.08,9.15-26.61,5.45-4.45,12.82-5.67,20.54-6.61,10.11-1.24,20.39-2.25,30.55-3,5.51-.41,10.79-.55,14.78,2.18s5.78,7.73,7.2,12.24c8.18,26.15,11,53.9,13.74,80.74l6.17,60.73C871.79,289.55,872.26,294.16,870.72,298.09Z"/><path class="cls-5" d="M863.45,157.69A1.5,1.5,0,0,1,862,156.5l-1.9-9a1.5,1.5,0,1,1,2.93-.62l1.91,9a1.5,1.5,0,0,1-1.16,1.78Z"/><path class="cls-5" d="M868.33,180.49a1.5,1.5,0,0,1-1.47-1.23l-1.63-9a1.5,1.5,0,1,1,2.95-.53l1.63,8.95a1.5,1.5,0,0,1-1.21,1.75Z"/><path class="cls-5" d="M871.86,201.39a1.5,1.5,0,0,1-1.48-1.25L869,192a1.5,1.5,0,1,1,3-.5l1.36,8.15a1.48,1.48,0,0,1-1.23,1.72A1.06,1.06,0,0,1,871.86,201.39Z"/><path class="cls-5" d="M874.3,224.74a1.51,1.51,0,0,1-1.49-1.36l-.81-9a1.49,1.49,0,0,1,1.36-1.63,1.51,1.51,0,0,1,1.63,1.36l.81,8.95a1.49,1.49,0,0,1-1.36,1.63Z"/><path class="cls-5" d="M877.83,250.8a1.51,1.51,0,0,1-1.48-1.25l-1.89-11.4a1.5,1.5,0,1,1,2.95-.5l1.9,11.4a1.5,1.5,0,0,1-1.23,1.73Z"/><path class="cls-5" d="M881.09,274.69a1.49,1.49,0,0,1-1.47-1.22l-1.9-10.05a1.5,1.5,0,1,1,2.95-.55l1.9,10a1.51,1.51,0,0,1-1.2,1.75A1.33,1.33,0,0,1,881.09,274.69Z"/><path class="cls-6" d="M804.76,227a1.49,1.49,0,0,1-1.49-1.43,77.2,77.2,0,0,0-1.42-12.19,1.5,1.5,0,0,1,1.29-1.8c2.19-.27,4.68-.58,7.18.41a1.5,1.5,0,0,1,.94,1.25,72.18,72.18,0,0,1,.56,12.08,1.5,1.5,0,0,1-1.42,1.4l-5.56.28Zm5.57-1.78h0Zm-5.22-10.84a79.48,79.48,0,0,1,1.07,9.55l2.71-.14a73.11,73.11,0,0,0-.51-9.27A10.19,10.19,0,0,0,805.11,214.37Z"/><path class="cls-6" d="M762.57,231.09a1.54,1.54,0,0,1-.9-.3,1.49,1.49,0,0,1-.59-1,120,120,0,0,0-1.86-13.47,1.47,1.47,0,0,1,.3-1.26,1.49,1.49,0,0,1,1.16-.56,21.13,21.13,0,0,1,7.71,1,1.5,1.5,0,0,1,1,1.18,110.11,110.11,0,0,0,2.13,11.27,1.51,1.51,0,0,1-.18,1.19,1.49,1.49,0,0,1-1,.68l-7.46,1.34Zm-.05-13.63c.59,3.16,1,6.44,1.38,10.37l4.28-.77c-.64-2.74-1.16-5.94-1.65-9.1A16.2,16.2,0,0,0,762.52,217.46Z"/><path class="cls-6" d="M785.07,154.51a1.5,1.5,0,0,1-.2-3l55.51-7.34a1.5,1.5,0,1,1,.39,3l-55.5,7.34Z"/><path class="cls-6" d="M787.16,166.3a1.5,1.5,0,0,1-.12-3c18.43-1.4,37-3.6,55.26-6.55a1.5,1.5,0,0,1,.48,3c-18.32,3-37,5.18-55.51,6.58Z"/><path class="cls-6" d="M862.07,318.37a1.5,1.5,0,0,1-1.47-1.17l-3.54-15.68a1.51,1.51,0,0,1,1.14-1.8,1.5,1.5,0,0,1,1.79,1.14l3.54,15.68a1.51,1.51,0,0,1-1.13,1.8A1.93,1.93,0,0,1,862.07,318.37Z"/><g id="Fond_bleu" data-name="Fond bleu"><path class="cls-4" d="M454.76,451.68c-21.06.55-41.31,8.67-60.9,16.52-3.25,1.3-6.5,2.6-9.75,3.87-22.35,8.72-48.55,16.75-73.42,10.24A58,58,0,0,1,280,461.46a147.82,147.82,0,0,0,5.13,65.47c9.72,8.07,23.25,14,40,14.83,24.95,1.18,49.31-9,67.74-18,5.42-2.65,10.89-5.47,16.19-8.2,15.68-8.07,31.89-16.42,49.1-21.57a143,143,0,0,1,57-4.79c-17-9.39-40.36-11.58-64-5.73-13.25,3.27-26.23,8.33-38.78,13.23-9.7,3.78-19.73,7.7-29.87,10.78-13.76,4.2-26.51,6.29-38.14,6.29-12.69,0-24.07-2.49-34-7.46a1.5,1.5,0,0,1,1.34-2.69c9.87,4.93,21.4,7.29,34.28,7.11a131.26,131.26,0,0,0,35.69-6.12c10-3.05,20-6.94,29.65-10.71,12.64-4.93,25.72-10,39.15-13.35,27.15-6.7,54-3.1,71.94,9.62,2.83.46,5.63,1,8.43,1.63C513.78,466.94,483.64,450.91,454.76,451.68Z"/><path class="cls-4" d="M379.57,569.74c14.38-5.91,28.38-13.37,41.92-20.59,14.17-7.56,28.83-15.37,44-21.46,45.86-18.41,93.66-18.24,129.91.06-20.47-18.3-46.44-30.24-73.58-34.64a1.74,1.74,0,0,1-.45-.06A141,141,0,0,0,459,496.87c-16.94,5.06-33,13.35-48.59,21.36-5.31,2.73-10.79,5.56-16.24,8.22-17.74,8.67-40.9,18.4-65,18.4-1.39,0-2.77,0-4.16-.1A74.47,74.47,0,0,1,290,534.14c-1.14-.71-2.24-1.44-3.32-2.2A152.61,152.61,0,0,0,315,581.44C331.6,583,353,580.67,379.57,569.74Z"/><path class="cls-4" d="M1119.5,433.25c-12.72-38.34-40.23-76-80-83.09-41.82-7.44-83,20.89-125.3,17.34-36-3-65.68-28.18-93.36-51.4-41.1-34.47-84.5-67.73-134.75-86.52s-108.84-21.48-156,4.09c-54.72,29.66-85.61,91.46-139,123.47-30.64,18.37-68.63,27-91.06,54.82-10.42,12.92-16.4,29-19.4,45.3a54.73,54.73,0,0,0,30.81,22.15c24,6.29,49.67-1.59,71.57-10.13,3.24-1.27,6.48-2.57,9.73-3.87,19.83-8,40.33-16.16,61.93-16.73,30.83-.83,63.11,16.88,80.31,44.05a.2.2,0,0,1,0,.08c26.45,6.64,51.14,20.34,70,40.05a1.5,1.5,0,1,1-2.16,2.08l-.09-.1a1.5,1.5,0,0,1-1.07-.18c-36.21-22-86.7-23.6-135.08-4.19-15,6-29.62,13.81-43.72,21.33-13.6,7.25-27.67,14.74-42.19,20.72-22.14,9.1-40.82,12.37-56.22,12.37-2.29,0-4.5-.08-6.65-.22a140.46,140.46,0,0,0,16,15.1c28.48,22.79,66.42,36.29,84.38,68,13.25,23.42,12.75,52.4,24.31,76.69,15.29,32.14,49.92,51.46,84.9,58s70.94,2.43,106.4-.61,72-4.84,105.85,6.12c28,9.05,52.53,26.32,79.76,37.36,70.25,28.5,155.11,11.21,213.2-37.49s88.55-125.49,94.64-187.92S1139.28,492.84,1119.5,433.25Z"/></g><path class="cls-2" d="M462.11,532.35c8.74,22.49,32.73,37.73,56.82,36.42s47.71-23.27,54-46.58C542,512.49,499.71,516,462.11,532.35Z"/><path class="cls-3" d="M1022.31,475.44l10-3.1-6.67-15.63a3.67,3.67,0,0,0-4.48-1.95l-12.78,4.16a87.4,87.4,0,0,0-17.57-12.68l5.28-13.61a5.3,5.3,0,0,0-2.74-6.75l-12.27-5.65a5.32,5.32,0,0,0-7.18,2.88l-5.74,14.57a87.55,87.55,0,0,0-33.52-.95l-5.37-17.07a4.55,4.55,0,0,0-6-2.89l-16.65,6.36a4.57,4.57,0,0,0-2.6,6c2,4.94,4,10.24,6,15.62a87.9,87.9,0,0,0-24.25,17.92l-11-11a3.71,3.71,0,0,0-5.28,0L856.43,464.9a3.72,3.72,0,0,0,.43,5.58l15.07,11.27a86.52,86.52,0,0,0-8.53,23.48l-11.79-1.34a3.47,3.47,0,0,0-3.9,2.84c-.64,4.57-1.73,12.94-1.88,18.21a3.59,3.59,0,0,0,3.35,3.57l12.67,1.18a87.39,87.39,0,1,0,160.46-54.25Z"/><path class="cls-5" d="M957,584.16a67.9,67.9,0,1,1,67.89-67.9A68,68,0,0,1,957,584.16Zm0-132.8a64.9,64.9,0,1,0,64.89,64.9A65,65,0,0,0,957,451.36Z"/><path class="cls-5" d="M957,605.16c-45.75,0-84.4-35.38-88.53-80.79L857,523.3a5.09,5.09,0,0,1-4.7-5.1c.15-5.33,1.25-13.8,1.9-18.37a5,5,0,0,1,5.55-4.12l10.43,1.18a88.37,88.37,0,0,1,7.8-21.41L864,465a5.22,5.22,0,0,1-.6-7.84l13.06-13.27a5.18,5.18,0,0,1,3.7-1.56h0a5.15,5.15,0,0,1,3.69,1.53l9.93,10a88.94,88.94,0,0,1,22.4-16.51c-1.76-4.75-3.63-9.72-5.49-14.34a6,6,0,0,1,3.46-7.93l16.65-6.37a6.06,6.06,0,0,1,7.94,3.85l5,15.83a89.38,89.38,0,0,1,31.55.9l5.28-13.38a6.81,6.81,0,0,1,9.2-3.69l12.27,5.63a6.84,6.84,0,0,1,3.51,8.67l-4.81,12.39a89,89,0,0,1,16.07,11.65l11.94-3.88a5.16,5.16,0,0,1,6.31,2.75l6.69,15.67a1.5,1.5,0,0,1-.94,2l-8.14,2.51A88.88,88.88,0,0,1,957,605.16ZM859.18,498.67a1.94,1.94,0,0,0-2,1.57c-.64,4.52-1.72,12.86-1.87,18a2.08,2.08,0,0,0,2,2L870,521.5a1.51,1.51,0,0,1,1.36,1.38c3.4,44.46,41,79.28,85.64,79.28a85.88,85.88,0,0,0,72.06-132.61,1.51,1.51,0,0,1,.82-2.25l8.43-2.6-6-14.09a2.16,2.16,0,0,0-2.63-1.12c-3.23,1.06-8.42,2.74-12.79,4.15a1.49,1.49,0,0,1-1.48-.32,86.46,86.46,0,0,0-17.27-12.46,1.5,1.5,0,0,1-.68-1.86l5.28-13.61a3.82,3.82,0,0,0-2-4.85l-12.27-5.64a3.81,3.81,0,0,0-5.15,2.07l-5.74,14.57a1.5,1.5,0,0,1-1.73.91,86.27,86.27,0,0,0-32.94-.93,1.51,1.51,0,0,1-1.68-1l-5.37-17.07a3,3,0,0,0-1.59-1.84,3.06,3.06,0,0,0-2.43-.11l-16.64,6.37a3,3,0,0,0-1.72,1.63,3,3,0,0,0,0,2.37c2,5.08,4.09,10.53,6,15.68a1.5,1.5,0,0,1-.74,1.86A86.11,86.11,0,0,0,894.86,457a1.51,1.51,0,0,1-1.07.47,1.64,1.64,0,0,1-1.08-.44l-11-11a2.28,2.28,0,0,0-1.58-.65,2.22,2.22,0,0,0-1.57.66L865.5,459.26a2.15,2.15,0,0,0-.63,1.71,2.2,2.2,0,0,0,.89,1.61l15.07,11.27a1.5,1.5,0,0,1,.42,1.91,85.2,85.2,0,0,0-8.39,23.08,1.5,1.5,0,0,1-1.64,1.19l-11.78-1.34Z"/><path class="cls-3" d="M1456.53,289.09c-6.63-4.61-15.74-.65-22.3,4.07-15.84,11.4-28.21,26.89-40.22,42.27-6.68,8.55-14,18.22-21.82,28.62a1426.94,1426.94,0,0,0-153.4,20.76c-2.49.48-5.1,1-7,2.64s-2.92,4.72-1.4,6.75c1.17,1.57,3.31,2,5.24,2.28l109.31,16.73a52.61,52.61,0,0,0,10.6.86c-34.23,47.41-69,97.2-86.7,123.26q-26.67-.47-53.36,0c-2.3,0-5.44,1-5.08,3.27.24,1.55,2,2.24,3.55,2.63l43.3,11.21.17,0c-.22.36-.41.66-.52.87-2.79,5.1-3.55,15.53,2.21,16.27,4.35.56,8.18-2.69,11.34-5.72l2.6-2.51c.23.46.48.9.73,1.33a278.76,278.76,0,0,0,26.67,38.51,4.26,4.26,0,0,0,2.5,1.83c1.39.16,2.61-1.18,2.88-2.6a9.08,9.08,0,0,0-.57-4.26q-7.67-25.34-16.37-50.32a1380.29,1380.29,0,0,0,101-112.1c.36,1.08.75,2.15,1.14,3.21l38,103.83c.68,1.84,1.51,3.86,3.28,4.69,2.29,1.08,5.13-.48,6.34-2.71s1.22-4.88,1.19-7.42a1426.28,1426.28,0,0,0-9.92-153.75q23.23-31.78,44.62-64.87c3-4.63,6-9.42,7-14.84S1461.06,292.24,1456.53,289.09Z"/><g id="Avion"><path class="cls-5" d="M1449.08,286.48c-8.43-5.86-19.61.9-24,4.08-16.63,12-29.88,28.94-40.53,42.57-6,7.7-12.87,16.68-20.36,26.68a1.49,1.49,0,0,0-1.23.6l-.66.89A1435.12,1435.12,0,0,0,1210.2,382c-2.41.46-5.42,1-7.72,3s-3.74,6-1.64,8.8c1.61,2.16,4.5,2.6,6.22,2.87l30,4.59-.79,11a1.51,1.51,0,0,0,1.39,1.61l11,.79h.11a1.5,1.5,0,0,0,1.49-1.39l.71-9.89,11.12,1.7-.74,10.18a1.49,1.49,0,0,0,.36,1.09,1.47,1.47,0,0,0,1,.51l11,.79h.11a1.5,1.5,0,0,0,1.5-1.39l.65-9.07,12.86,2-.73,10.15a1.49,1.49,0,0,0,.36,1.09,1.52,1.52,0,0,0,1,.52l11,.78h.11a1.49,1.49,0,0,0,1.49-1.39l.65-9,13.65,2.09c2.27.35,4.42.65,6.51.8l0,0a1.5,1.5,0,0,0,.08,1.89c-32,44.44-65.2,92-83.23,118.4-17.73-.29-35.42-.29-52.6,0-1.93,0-4.44.62-5.74,2.16a3.47,3.47,0,0,0-.8,2.85c.43,2.75,3.62,3.57,4.67,3.84l41.06,10.63a1.5,1.5,0,0,0,.15,1c-1.64,4.14-2.18,10-.39,13.47a5.8,5.8,0,0,0,4.52,3.31c4.75.61,8.81-2.54,12.49-6.05l.13,0a1.56,1.56,0,0,0,1.06-.43l.36-.36A281.39,281.39,0,0,0,1271,602.8a5.62,5.62,0,0,0,3.47,2.36l.43,0c2.09,0,3.74-1.91,4.11-3.82a10.28,10.28,0,0,0-.61-5c-4.91-16.22-10.26-32.7-15.9-49l2.4-2.36a1.46,1.46,0,0,0,.43-1.17A1389,1389,0,0,0,1361,437.42l.26.69,7,19.14-9.58,4.87a1.51,1.51,0,0,0-.65,2l5,9.8a1.51,1.51,0,0,0,2,.66l8.07-4.11,3.88,10.6-7.93,4a1.53,1.53,0,0,0-.74.88,1.46,1.46,0,0,0,.09,1.14l5,9.8a1.51,1.51,0,0,0,2,.66l6.42-3.27,4.5,12.26-6.94,3.53a1.53,1.53,0,0,0-.74.88,1.46,1.46,0,0,0,.09,1.14l5,9.8a1.51,1.51,0,0,0,2,.66l5.42-2.76,8.1,22.11c.6,1.64,1.61,4.38,4,5.53,3.19,1.5,6.79-.57,8.3-3.35s1.41-5.69,1.38-8.15a1432,1432,0,0,0-9.87-153.33c15.37-21,30.28-42.73,44.32-64.46,2.74-4.24,6.15-9.51,7.24-15.39C1455.72,297.33,1454.38,290.16,1449.08,286.48Zm-201.69,125-8-.58.67-9.27,7.93,1.21Zm.83-11.64-7.93-1.21.29-3.95,8,.58Zm24.22,14.63-8-.57.61-8.45,7.93,1.22Zm.78-10.81-7.93-1.21.34-4.77,8,.57Zm26,14.88-8-.58.61-8.42,7.93,1.22Zm.78-10.78-7.94-1.22.35-4.8,8,.58Zm16.85,2.58-13.88-2.13.52-7.18a1.51,1.51,0,0,0-1.39-1.6l-11-.79a1.49,1.49,0,0,0-1.09.36,1.52,1.52,0,0,0-.52,1l-.43,6.06-12.87-2,.52-7.15a1.49,1.49,0,0,0-1.39-1.6l-11-.79a1.51,1.51,0,0,0-1.6,1.39l-.44,6-11.11-1.7.45-6.31a1.49,1.49,0,0,0-.36-1.09,1.51,1.51,0,0,0-1-.52l-11-.78a1.51,1.51,0,0,0-1.6,1.38l-.37,5.2-29.8-4.56c-1.72-.26-3.47-.61-4.27-1.69-1-1.36-.2-3.57,1.16-4.71,1.57-1.32,3.72-1.81,6.35-2.31a1432.68,1432.68,0,0,1,149.11-20.4L1325,411.22A64.68,64.68,0,0,1,1316.82,410.35ZM1183.54,539a.47.47,0,0,1,.13-.45,5.29,5.29,0,0,1,3.49-1.09c16.57-.29,33.62-.29,50.72,0L1228,551.27l-42-10.88C1184,539.86,1183.58,539.28,1183.54,539Zm91.94,58.27a7.93,7.93,0,0,1,.53,3.54c-.14.75-.77,1.44-1.23,1.39s-1.14-.83-1.52-1.29a278.38,278.38,0,0,1-26.44-38.15l13.25-13C1265.53,565.54,1270.72,581.51,1275.48,597.25Zm89.54-126-3.63-7.13,7.92-4,2.77,7.57Zm7-12.54,3.88-2,3.63,7.13-4.73,2.41Zm3.4,35.54-3.63-7.13,6.27-3.2,2.77,7.57Zm5.33-11.7,5.53-2.81,3.63,7.13-6.38,3.25Zm5,36.7-3.63-7.13,5.27-2.69,2.78,7.57Zm4.34-11.19,6.52-3.32,3.63,7.13-7.38,3.76ZM1410,536c0,2.68,0,4.88-1,6.69-.85,1.56-2.86,2.78-4.39,2.07-1.22-.58-1.9-2.22-2.5-3.85l-8.22-22.46,9-4.6a1.57,1.57,0,0,0,.75-.87,1.53,1.53,0,0,0-.09-1.15l-5-9.8a1.5,1.5,0,0,0-2-.66l-7.54,3.84-4.5-12.26,8-4.1a1.51,1.51,0,0,0,.74-.87,1.48,1.48,0,0,0-.08-1.15l-5-9.8a1.5,1.5,0,0,0-2-.66l-6.54,3.33-3.89-10.59,6.4-3.26a1.51,1.51,0,0,0,.66-2l-5-9.8a1.49,1.49,0,0,0-2-.66l-4.89,2.49-6.89-18.79c-.3-.83-.6-1.68-.9-2.53l37.31-48.73A1431.71,1431.71,0,0,1,1410,536Zm41.74-233.75c-1,5.29-4.08,10.08-6.81,14.3-13.76,21.29-28.36,42.54-43.39,63.18a1.38,1.38,0,0,0-.49.41l-42.2,55.12a1.19,1.19,0,0,0-.09.15,1385.41,1385.41,0,0,1-99.28,110,1.48,1.48,0,0,0-.43,1.09l-14.25,14h-.11a1.51,1.51,0,0,0-1,.42l-1,1-1.59,1.53c-2.94,2.83-6.4,5.81-10.11,5.32a2.78,2.78,0,0,1-2.22-1.69c-1.56-3-.69-9,1.13-12.37.11-.19.27-.47.48-.8a1.52,1.52,0,0,0,.21-1l13.23-18.64a1.54,1.54,0,0,0,.28-.89c19-27.77,52.49-75.7,84.35-119.81a1.54,1.54,0,0,0,.1-1.6,1,1,0,0,0-.15-.2l35.49-47.59h.14a1.56,1.56,0,0,0,1.09-.6c8.06-10.78,15.4-20.4,21.79-28.59,10.54-13.48,23.64-30.26,39.92-42,3.9-2.8,13.7-8.82,20.57-4C1451.56,291.86,1452.59,297.73,1451.75,302.26Z"/><path class="cls-4" d="M1405,367.2a1.5,1.5,0,0,1-1.17-2.44l7.46-9.24a1.5,1.5,0,0,1,2.33,1.89l-7.45,9.23A1.5,1.5,0,0,1,1405,367.2Z"/><path class="cls-4" d="M1387.85,389.59a1.5,1.5,0,0,1-1.14-2.47l7.23-8.62a1.5,1.5,0,1,1,2.3,1.92l-7.24,8.63A1.47,1.47,0,0,1,1387.85,389.59Z"/><path class="cls-4" d="M1370.6,414.08a1.53,1.53,0,0,1-.91-.3,1.5,1.5,0,0,1-.29-2.1l7.79-10.3a1.5,1.5,0,0,1,2.4,1.81l-7.8,10.3A1.48,1.48,0,0,1,1370.6,414.08Z"/><path class="cls-4" d="M1349.44,438.3a1.45,1.45,0,0,1-.92-.32,1.5,1.5,0,0,1-.26-2.1l8.91-11.41a1.5,1.5,0,0,1,2.36,1.84l-8.91,11.41A1.48,1.48,0,0,1,1349.44,438.3Z"/><path class="cls-4" d="M1329.68,462.8a1.5,1.5,0,0,1-1.09-2.53l8.9-9.47a1.5,1.5,0,0,1,2.19,2.06l-8.91,9.46A1.47,1.47,0,0,1,1329.68,462.8Z"/><path class="cls-4" d="M1312.81,483.75a1.49,1.49,0,0,1-1.19-2.41l6.65-8.65a1.5,1.5,0,0,1,2.38,1.83l-6.65,8.65A1.52,1.52,0,0,1,1312.81,483.75Z"/><path class="cls-4" d="M1295.77,470.35a1.5,1.5,0,0,1-1.16-2.45l9.51-11.65a1.5,1.5,0,1,1,2.32,1.89l-9.51,11.66A1.5,1.5,0,0,1,1295.77,470.35Z"/><path class="cls-4" d="M1314.26,445.73a1.52,1.52,0,0,1-.94-.33,1.5,1.5,0,0,1-.23-2.11l8.05-10a1.5,1.5,0,1,1,2.34,1.88l-8,10A1.53,1.53,0,0,1,1314.26,445.73Z"/><path class="cls-4" d="M1332.49,419.39a1.45,1.45,0,0,1-1-.36,1.49,1.49,0,0,1-.16-2.11l9.76-11.4a1.5,1.5,0,0,1,2.28,2l-9.76,11.4A1.49,1.49,0,0,1,1332.49,419.39Z"/><path class="cls-4" d="M1351.67,393.76a1.49,1.49,0,0,1-1-.35,1.5,1.5,0,0,1-.18-2.11l10.3-12.25a1.5,1.5,0,0,1,2.3,1.93l-10.3,12.25A1.51,1.51,0,0,1,1351.67,393.76Z"/><path class="cls-4" d="M1370.13,369.34a1.51,1.51,0,0,1-1.21-2.39l7.57-10.27a1.5,1.5,0,1,1,2.41,1.78l-7.56,10.27A1.52,1.52,0,0,1,1370.13,369.34Z"/><path class="cls-4" d="M1385.54,348.32a1.48,1.48,0,0,1-.93-.32,1.51,1.51,0,0,1-.25-2.11l6.4-8.08a1.5,1.5,0,0,1,2.35,1.86l-6.39,8.08A1.5,1.5,0,0,1,1385.54,348.32Z"/><path class="cls-4" d="M1279.86,492.15a1.48,1.48,0,0,1-.95-.34,1.51,1.51,0,0,1-.22-2.11l8.57-10.57a1.5,1.5,0,0,1,2.33,1.89L1281,491.59A1.49,1.49,0,0,1,1279.86,492.15Z"/><path class="cls-4" d="M1292.71,504.72a1.51,1.51,0,0,1-1.11-2.51l7.42-8.28a1.5,1.5,0,0,1,2.24,2l-7.43,8.29A1.51,1.51,0,0,1,1292.71,504.72Z"/><path class="cls-4" d="M1442.84,307.48a1.5,1.5,0,0,1-1.5-1.45,8.75,8.75,0,0,0-11.87-7.89,1.5,1.5,0,0,1-1.07-2.8,11.75,11.75,0,0,1,15.94,10.59,1.51,1.51,0,0,1-1.45,1.55Z"/></g><path class="cls-5" d="M1113.05,834.39c-25,0-50-7.38-70.27-22.22a1.5,1.5,0,0,1,1.77-2.42c40.57,29.79,101,28.75,140.49-2.42,36.41-28.71,47.15-83.73,26.1-133.79C1199.2,645.15,1194,627.09,1226.4,586a1.5,1.5,0,0,1,2.36,1.85c-31.4,39.88-26.69,56.42-14.86,84.56,10.06,23.91,13.34,50.33,9.23,74.39-4.42,26-17,47.71-36.24,62.92C1166.05,826.13,1139.54,834.39,1113.05,834.39Z"/><path class="cls-7" d="M562.37,790.42A992.81,992.81,0,0,0,520,679.69a29.15,29.15,0,0,0,14.19-6.19,493,493,0,0,1,41,86.23Z"/><path class="cls-7" d="M562.37,791.92h-.07a1.49,1.49,0,0,1-1.36-1,996,996,0,0,0-42.28-110.56,1.54,1.54,0,0,1,.05-1.34,1.51,1.51,0,0,1,1.11-.77,27.43,27.43,0,0,0,13.46-5.87,1.51,1.51,0,0,1,1.2-.31,1.55,1.55,0,0,1,1,.71,494.9,494.9,0,0,1,41.1,86.49,1.57,1.57,0,0,1,0,1.09L563.75,791A1.49,1.49,0,0,1,562.37,791.92ZM522.19,680.83a999.23,999.23,0,0,1,40.37,105.24l11-26.38a492.33,492.33,0,0,0-39.79-84A30.52,30.52,0,0,1,522.19,680.83Z"/><path class="cls-7" d="M578.48,789.29c7.87-46.9,33.61-90.57,70.56-120.5l11.17,9.13a282.92,282.92,0,0,0-43,108.59Z"/><path class="cls-7" d="M578.48,790.79A1.5,1.5,0,0,1,577,789c7.88-46.95,33.79-91.2,71.1-121.41a1.49,1.49,0,0,1,1.89,0l11.17,9.12a1.51,1.51,0,0,1,.31,2,280.51,280.51,0,0,0-42.74,108,1.49,1.49,0,0,1-1.37,1.24l-38.77,2.77ZM649,670.73c-35.74,29.33-60.7,71.78-68.76,116.92L616,785.1a283,283,0,0,1,42.23-106.87Z"/><path class="cls-7" d="M583.18,771.26a277.26,277.26,0,0,1,34.08,10.16"/><path class="cls-7" d="M617.26,782.92a1.54,1.54,0,0,1-.52-.09,277.14,277.14,0,0,0-33.9-10.11,1.5,1.5,0,0,1,.67-2.93A280.9,280.9,0,0,1,617.78,780a1.5,1.5,0,0,1-.52,2.91Z"/><path class="cls-7" d="M604,741.75l7.88,5.16"/><path class="cls-7" d="M611.85,748.41a1.53,1.53,0,0,1-.82-.24L603.14,743a1.5,1.5,0,0,1,1.65-2.51l7.88,5.15a1.5,1.5,0,0,1-.82,2.76Z"/><path class="cls-7" d="M611.24,725.53a31.61,31.61,0,0,1,7.13,5"/><path class="cls-7" d="M618.37,732a1.49,1.49,0,0,1-1-.41,30.52,30.52,0,0,0-6.79-4.76,1.5,1.5,0,1,1,1.37-2.67,32.89,32.89,0,0,1,7.46,5.24,1.5,1.5,0,0,1-1,2.6Z"/><path class="cls-7" d="M620.34,709.46l5.91,4.55"/><path class="cls-7" d="M626.25,715.51a1.47,1.47,0,0,1-.91-.31l-5.91-4.55a1.5,1.5,0,1,1,1.82-2.38l5.92,4.55a1.5,1.5,0,0,1-.92,2.69Z"/><path class="cls-7" d="M649.8,669.33a31.83,31.83,0,0,1-19.94-9.91c-2-2.17-3.82-4.9-3.62-7.86s3.3-5.76,6.06-4.66a37.08,37.08,0,0,1-25.73-27.11c-1.06-4.77-.59-10.78,3.7-13.13,3.6-2,8.33-.17,11,3S625,616.9,626,620.89c.64-4.39,6.07-6.93,10.3-5.56s7,5.57,8,9.9.38,8.85-.2,13.26c1.08-2.22,4.53-2.25,6.36-.6s2.42,4.26,2.7,6.71A55.68,55.68,0,0,1,649.8,669.33Z"/><path class="cls-7" d="M649.8,670.83h-.15a33.43,33.43,0,0,1-20.89-10.37c-2.86-3.08-4.21-6.1-4-9a7.15,7.15,0,0,1,2.46-4.79,38.84,38.84,0,0,1-22.1-26.56c-1.18-5.32-.64-12,4.44-14.76,4.47-2.44,10-.12,12.84,3.31a22.2,22.2,0,0,1,4,8,9.19,9.19,0,0,1,2-1.65,10.3,10.3,0,0,1,8.35-1.11c4.36,1.41,7.81,5.63,9,11a32.57,32.57,0,0,1,.23,10.46l.14,0a6.39,6.39,0,0,1,5.33,1.43c2.28,2.05,2.9,5.17,3.18,7.66,1.15,10.1-1.2,19.39-3.37,25.41A1.51,1.51,0,0,1,649.8,670.83ZM631,648.15a2.57,2.57,0,0,0-1.38.45,4.13,4.13,0,0,0-1.9,3.06c-.14,2,.94,4.3,3.21,6.74a30.42,30.42,0,0,0,17.83,9.29,53.73,53.73,0,0,0,2.82-22.92c-.22-2-.67-4.39-2.21-5.77a3.31,3.31,0,0,0-2.74-.72,1.72,1.72,0,0,0-1.27.86,1.5,1.5,0,0,1-2.84-.85c.56-4.23,1.14-8.6.23-12.73-.75-3.41-3-7.51-7-8.8a7.19,7.19,0,0,0-5.84.8,5.12,5.12,0,0,0-2.52,3.55,1.5,1.5,0,0,1-2.94.14c-.9-3.62-1.92-7.72-4.39-10.65C617.94,608,614,606.37,611,608c-3.61,2-3.85,7.42-3,11.48a35.67,35.67,0,0,0,24,25.78,5.13,5.13,0,0,1,.87.26,1.5,1.5,0,0,1-1,2.84l-.6-.17Z"/><path class="cls-7" d="M650.9,670.58a94.67,94.67,0,0,1,12.23-16.86,15.68,15.68,0,0,1,5.43-4.3c2.16-.87,4.9-.69,6.48,1s1.2,5-1,5.83a45.28,45.28,0,0,1,19.21-3.71c3.16.09,6.62.67,8.7,3.06s1.47,7-1.62,7.73c4.77-.45,9.83-.85,14.08,1.35s7,8,4.17,11.94c-1.84,2.56-5.31,3.37-8.46,3.41a26.81,26.81,0,0,1-18.23-6.89c0,3.21-2.52,6-5.52,7.18s-6.34,1-9.53.55C670.8,680.06,664.86,678.34,650.9,670.58Z"/><path class="cls-7" d="M681.11,682.73a33,33,0,0,1-4.45-.35c-6.57-.9-12.74-2.84-26.49-10.49a1.52,1.52,0,0,1-.72-.91,1.5,1.5,0,0,1,.14-1.15A97.15,97.15,0,0,1,662,652.71a17.1,17.1,0,0,1,6-4.68c2.48-1,6-1,8.14,1.39a5.37,5.37,0,0,1,1.36,4,46.42,46.42,0,0,1,15.81-2.31c2.94.09,7.16.55,9.79,3.58a7.07,7.07,0,0,1,1.24,6.66,2.25,2.25,0,0,1-.08.24c3.57-.17,7.44.05,10.86,1.83a11.73,11.73,0,0,1,5.86,7.46,8.09,8.09,0,0,1-1.16,6.68c-2.34,3.26-6.55,4-9.66,4a28.19,28.19,0,0,1-17.25-5.63,10.39,10.39,0,0,1-6,5.82A16,16,0,0,1,681.11,682.73ZM653,670c12.41,6.8,18.11,8.57,24.11,9.4,2.77.38,6,.62,8.78-.47,2.22-.86,4.59-3,4.56-5.77a1.5,1.5,0,0,1,2.51-1.12,25.11,25.11,0,0,0,17.19,6.5c2,0,5.58-.42,7.27-2.79a5.09,5.09,0,0,0,.68-4.23,8.79,8.79,0,0,0-4.31-5.5c-4-2.06-9.13-1.58-13.26-1.18a1.5,1.5,0,0,1-.47-3,2.11,2.11,0,0,0,1.47-1.53,4.11,4.11,0,0,0-.65-3.76c-1.42-1.62-3.84-2.43-7.61-2.54a43.94,43.94,0,0,0-18.29,3.47l-.35.15a1.5,1.5,0,0,1-1.13-2.78l.22-.09a1.69,1.69,0,0,0,.76-1.12,2.53,2.53,0,0,0-.5-2.23c-1.2-1.3-3.34-1.25-4.83-.65a14.24,14.24,0,0,0-4.87,3.92A93.74,93.74,0,0,0,653,670Z"/><path class="cls-7" d="M541.82,727.74l17.81-6"/><path class="cls-7" d="M541.82,729.24a1.5,1.5,0,0,1-.48-2.92l17.81-6a1.5,1.5,0,0,1,1,2.85l-17.81,6A1.31,1.31,0,0,1,541.82,729.24Z"/><path class="cls-7" d="M562.72,761.77l5.91-.45"/><path class="cls-7" d="M562.72,763.27a1.5,1.5,0,0,1-.12-3l5.92-.46a1.5,1.5,0,0,1,.23,3l-5.91.46Z"/><path class="cls-7" d="M687.48,680.27a45,45,0,0,1,15,3.5,6.49,6.49,0,0,1,3.6,3c.64,1.46-.19,3.59-1.79,3.65a25.92,25.92,0,0,1,20.6,11.74c1.79,2.8,3,6.46,1.43,9.39-1.43,2.66-4.72,3.77-7.74,3.89-6.34.24-12.3-2.8-17.92-5.76,1.78,1.42,1.6,4.44,0,6a6.31,6.31,0,0,1-6.37,1.08,13.73,13.73,0,0,1-5.45-4,34.34,34.34,0,0,1-6.15-9.45c.51,3.07-2.43,6-5.54,6.14s-6-1.89-7.67-4.53a21.76,21.76,0,0,1-2.67-8.86c-.36-2.76-.59-5.61-1.78-8.12s-8.8-5.55-11.58-5.51l6.09-8.31Z"/><path class="cls-7" d="M696.59,718.66a9,9,0,0,1-2.86-.48,15.42,15.42,0,0,1-6.06-4.37,35.49,35.49,0,0,1-4.6-6.24c-.12.19-.26.37-.4.55a7.69,7.69,0,0,1-5.52,2.87c-3.42.18-6.88-1.83-9-5.23a23,23,0,0,1-2.89-9.47l-.13-1a21.8,21.8,0,0,0-1.52-6.65c-.83-1.76-7.58-4.65-10.15-4.65h-.07a1.5,1.5,0,0,1-1.21-2.38l6.09-8.32a1.51,1.51,0,0,1,1.53-.58l27.9,6.09a45.68,45.68,0,0,1,15.36,3.62c1.59.71,3.52,1.77,4.37,3.75a4.41,4.41,0,0,1,.12,3.06,27.42,27.42,0,0,1,18.57,12.12c2.55,4,3.09,7.95,1.49,10.91-1.49,2.77-4.86,4.52-9,4.68-5.48.21-10.68-1.89-15.22-4.15a6,6,0,0,1-1.74,4A7.24,7.24,0,0,1,696.59,718.66Zm-14-16.81a1.49,1.49,0,0,1,1.37.9,32.94,32.94,0,0,0,5.89,9,11.92,11.92,0,0,0,4.82,3.56,4.88,4.88,0,0,0,4.85-.74,3,3,0,0,0,.83-2.23,2,2,0,0,0-.69-1.53,1.51,1.51,0,0,1-.32-2,1.49,1.49,0,0,1,2-.5c5.18,2.72,11,5.83,17.17,5.58,3.07-.12,5.49-1.28,6.47-3.1,1.51-2.8-.46-6.44-1.38-7.87A24.26,24.26,0,0,0,704.2,691.9a1.5,1.5,0,0,1,0-3c.14,0,.26-.15.34-.27a1.52,1.52,0,0,0,.13-1.29,5.4,5.4,0,0,0-2.84-2.2,42.88,42.88,0,0,0-14.47-3.38.64.64,0,0,1-.2,0l-27-5.9L656,681.38c3.76,1,9.08,3.43,10.27,6a24.31,24.31,0,0,1,1.79,7.56l.12,1a20.58,20.58,0,0,0,2.46,8.27c1.54,2.44,4,3.94,6.33,3.83a4.76,4.76,0,0,0,3.32-1.76,3.36,3.36,0,0,0,.81-2.64,1.5,1.5,0,0,1,1.05-1.69A1.59,1.59,0,0,1,682.62,701.85Z"/><path class="cls-7" d="M626.68,656.51a46,46,0,0,0-17.13-8.36c-1.76-.44-3.94-.64-5.08.77a3.46,3.46,0,0,0,.12,4,10.25,10.25,0,0,0,3.26,2.72A50.66,50.66,0,0,0,591,650.7a15.87,15.87,0,0,0-7.54.58c-2.36.94-4.4,3.09-4.5,5.64-.11,2.84,2.11,5.23,4.44,6.86,6,4.17,13.33,5.63,20.47,7a3.74,3.74,0,0,0-4.72,2.43,5.17,5.17,0,0,0,1.8,5.33,8.45,8.45,0,0,0,5.6,1.7c4.42-.09,8.42-2.47,12.19-4.78a3.16,3.16,0,0,0-.33,4.12,6.58,6.58,0,0,0,3.75,2.37,14.88,14.88,0,0,0,13.55-3l16.53-7.67Z"/><path class="cls-7" d="M626.11,684a16.08,16.08,0,0,1-4.35-.6,8,8,0,0,1-4.59-3,4.93,4.93,0,0,1-.75-1.83,21.33,21.33,0,0,1-9.83,3.15,10,10,0,0,1-6.58-2,6.61,6.61,0,0,1-2.28-6.94,5,5,0,0,1,.79-1.52c-5.48-1.19-11.16-2.85-16-6.22-2.4-1.67-5.22-4.45-5.08-8.15a8.26,8.26,0,0,1,5.45-7,17.22,17.22,0,0,1,8.25-.68,52,52,0,0,1,11.33,2.56,4.53,4.53,0,0,1,.8-3.79c1.3-1.62,3.53-2.06,6.62-1.29a47.58,47.58,0,0,1,17.6,8.58L653,670a1.51,1.51,0,0,1,.75,1.36,1.49,1.49,0,0,1-.87,1.29l-16.34,7.59A16.33,16.33,0,0,1,626.11,684Zm-7.36-10a1.5,1.5,0,0,1,.94,2.67,1.72,1.72,0,0,0,0,2.11,5,5,0,0,0,2.92,1.76,13.42,13.42,0,0,0,12.16-2.68,1.59,1.59,0,0,1,.35-.22L649,671.14l-23.07-13.33-.17-.11a44.8,44.8,0,0,0-16.57-8.1c-1-.26-2.89-.57-3.55.26a2,2,0,0,0,.2,2.21,8.86,8.86,0,0,0,2.8,2.28,1.5,1.5,0,0,1-1.45,2.62,49,49,0,0,0-16.35-4.77,14.53,14.53,0,0,0-6.82.48,5.3,5.3,0,0,0-3.55,4.29c-.1,2.48,2.34,4.56,3.8,5.58,5.41,3.79,12.31,5.29,18.58,6.49a4.73,4.73,0,0,1,1.61.34,1.5,1.5,0,0,1-.86,2.86l-1-.19a2.31,2.31,0,0,0-.72.2,2.42,2.42,0,0,0-1.29,1.4,3.71,3.71,0,0,0,1.33,3.73,7,7,0,0,0,4.61,1.35c4.13-.08,8-2.46,11.43-4.56A1.62,1.62,0,0,1,618.75,674Z"/><path class="cls-7" d="M524.38,677.63a63.17,63.17,0,0,1-13-26.67,13.13,13.13,0,0,1-.23-6.19c.55-2,2.22-3.86,4.3-4s4.14,2.09,3.38,4a46.17,46.17,0,0,1,8.26-28.43,14.07,14.07,0,0,1,4.29-4.33,6,6,0,0,1,5.86-.26c2.07,1.22,2.83,3.82,3.26,6.19a63.12,63.12,0,0,1,.63,18.76,13,13,0,0,1,4.73-2,4.41,4.41,0,0,1,4.5,1.89c1.06,1.95-.1,4.33-1.32,6.18a64.5,64.5,0,0,1-12.56,13.92,10.36,10.36,0,0,1,4-2.13,3.57,3.57,0,0,1,3.93,1.56c.73,1.45,0,3.17-.82,4.58C540.73,665.7,536.89,670.14,524.38,677.63Z"/><path class="cls-7" d="M524.38,679.13a1.5,1.5,0,0,1-1.15-.54A64.59,64.59,0,0,1,510,651.28a14.28,14.28,0,0,1-.21-6.91,6.64,6.64,0,0,1,5.65-5.09,4.75,4.75,0,0,1,2,.34,47.43,47.43,0,0,1,8.48-24.1,15.38,15.38,0,0,1,4.77-4.77,7.39,7.39,0,0,1,7.36-.25c2.63,1.55,3.51,4.67,4,7.21a64.51,64.51,0,0,1,.91,16.35,9.64,9.64,0,0,1,2.76-.84,5.87,5.87,0,0,1,6,2.65c1.69,3.1-.62,6.58-1.39,7.73a65.38,65.38,0,0,1-7.71,9.52,4.56,4.56,0,0,1,3.15,2.33c1.08,2.15,0,4.45-.86,6-3.12,5.45-7.36,10.06-19.75,17.48A1.51,1.51,0,0,1,524.38,679.13Zm-8.72-36.86h-.08c-1.43.08-2.57,1.51-2.94,2.88a11.44,11.44,0,0,0,.25,5.48,61.57,61.57,0,0,0,11.84,25c11-6.68,14.79-10.86,17.57-15.72.85-1.48,1.1-2.51.78-3.16a2.18,2.18,0,0,0-2.29-.76,9.37,9.37,0,0,0-3.38,1.86,1.5,1.5,0,0,1-1.85-2.36,62.46,62.46,0,0,0,12.27-13.59c1.37-2.07,1.8-3.63,1.25-4.63a3,3,0,0,0-3-1.12,11.68,11.68,0,0,0-4.17,1.84,1.5,1.5,0,0,1-2.26-1.46,61.51,61.51,0,0,0-.61-18.32c-.36-1.91-1-4.23-2.56-5.17a4.45,4.45,0,0,0-4.34.28,12.7,12.7,0,0,0-3.81,3.88,44.5,44.5,0,0,0-8,25.42,3.92,3.92,0,0,1-.05,2.7,1.5,1.5,0,0,1-2.9-.48c0-.53,0-1.06,0-1.59l-.1-.14A2.06,2.06,0,0,0,515.66,642.27Z"/><path class="cls-7" d="M527.79,668.79c3.2-1.87,19.52-7.8,23-9.09,1.29-.48,2.76-.91,4-.31a3.69,3.69,0,0,1,1.61,4.16,10.85,10.85,0,0,1-2.43,4.13c6.4-1.07,12.94-2.13,19.36-1.16,3.08.47,6.38,1.64,7.87,4.37s-.38,7.08-3.47,6.78c2.88.26,5.93.57,8.26,2.29s3.53,5.33,1.69,7.56c-1.35,1.64-3.71,2-5.83,2a59.41,59.41,0,0,1-25.43-4.83c1.88,1.15,4,3.42,2.67,5.17-1.08,1.43-3.31.81-4.94.06l-14-6.45Z"/><path class="cls-7" d="M557.15,692.24a8.66,8.66,0,0,1-3.63-.94l-14-6.45a1.55,1.55,0,0,1-.52-.39l-12.38-14.7a1.48,1.48,0,0,1-.33-1.23,1.52,1.52,0,0,1,.72-1c2.68-1.55,13.13-5.47,21.93-8.71l1.31-.49c1.05-.38,3.22-1.19,5.17-.25,2.24,1.07,2.91,3.76,2.42,5.86a7.81,7.81,0,0,1-.65,1.73c5.35-.83,10.83-1.43,16.34-.59,4.47.68,7.48,2.41,9,5.14a6.64,6.64,0,0,1-.35,6.57,12.24,12.24,0,0,1,4.72,2,8.12,8.12,0,0,1,3.15,5.33,5.71,5.71,0,0,1-1.19,4.41c-1.75,2.12-4.62,2.48-6.94,2.56A60.9,60.9,0,0,1,561,688a3.46,3.46,0,0,1-.66,2.76A3.76,3.76,0,0,1,557.15,692.24Zm-16-10,13.68,6.31c1.51.7,2.77.86,3.12.4a.47.47,0,0,0,.09-.43,5.13,5.13,0,0,0-2.35-2.57,1.5,1.5,0,0,1,1.38-2.65A58.09,58.09,0,0,0,581.8,688c1.79-.06,3.75-.28,4.72-1.47a2.74,2.74,0,0,0,.53-2.13,5.06,5.06,0,0,0-1.94-3.28c-2.05-1.5-4.92-1.76-7.46-2h-.07a1.5,1.5,0,0,1,.28-3h0a1.89,1.89,0,0,0,1.68-1,3.72,3.72,0,0,0,.29-3.59c-1.26-2.32-4.38-3.24-6.78-3.6-6.24-1-12.67.12-18.88,1.15a1.52,1.52,0,0,1-1.55-.73,1.5,1.5,0,0,1,.14-1.7,9.65,9.65,0,0,0,2.13-3.52,2.27,2.27,0,0,0-.8-2.47c-.7-.34-1.77,0-2.83.37l-1.31.48c-4,1.48-15.16,5.58-19.84,7.7Z"/><path class="cls-7" d="M515,663.68a64.41,64.41,0,0,0-13-14.71c-2.14-1.79-4.71-3.52-7.47-3.16s-4.94,4.05-3,6a24.06,24.06,0,0,0-21.46-13.35,13.69,13.69,0,0,0-7.53,2,7.59,7.59,0,0,0-3.55,6.65c.35,4.21,4.84,6.8,9,7.71s8.63,1,12.13,3.33a13.76,13.76,0,0,0-5.53,2.26,5.51,5.51,0,0,0-2.23,5.27c.75,3.28,4.86,4.31,8.22,4.57a136.36,136.36,0,0,0,21.86,0c-2.18-.87-4.12,2.41-3,4.5s3.58,2.93,5.86,3.46a127.48,127.48,0,0,0,20.11,2.58Z"/><path class="cls-7" d="M525.38,682.3h0a129.75,129.75,0,0,1-20.43-2.62c-2.48-.58-5.5-1.58-6.86-4.24a4.68,4.68,0,0,1-.27-3.38,137.11,137.11,0,0,1-17.32-.26c-7-.54-9-3.42-9.56-5.74a6.92,6.92,0,0,1,2.76-6.78,11.29,11.29,0,0,1,2.29-1.35,39.71,39.71,0,0,0-4.81-1c-1.14-.18-2.32-.37-3.47-.63-4.41-1-9.71-3.91-10.14-9a9.09,9.09,0,0,1,4.2-8A15.11,15.11,0,0,1,470.1,637a25.66,25.66,0,0,1,20.23,10,6,6,0,0,1,4.06-2.63c3.4-.45,6.39,1.63,8.62,3.48a65.84,65.84,0,0,1,13.29,15.06l0,0L526.67,680a1.48,1.48,0,0,1,0,1.52A1.5,1.5,0,0,1,525.38,682.3Zm-24.11-10.44-.09.08a2.13,2.13,0,0,0-.44,2.14c.79,1.55,2.91,2.22,4.87,2.68a133.8,133.8,0,0,0,17,2.4l-8.87-14.69a62.89,62.89,0,0,0-12.68-14.35c-1.76-1.47-4.06-3.12-6.31-2.82a3.12,3.12,0,0,0-2.31,2,1.85,1.85,0,0,0-.13.72c.21.38.41.76.6,1.15a1.5,1.5,0,0,1-2.43,1.7,4.16,4.16,0,0,1-1-1.83A22.73,22.73,0,0,0,470.13,640a12.27,12.27,0,0,0-6.71,1.76,6,6,0,0,0-2.88,5.28c.29,3.5,4.38,5.62,7.79,6.37,1.07.23,2.15.4,3.3.59,3.21.51,6.52,1,9.35,3a1.48,1.48,0,0,1,.64,1.51,1.5,1.5,0,0,1-1.14,1.19,12.18,12.18,0,0,0-4.94,2,4,4,0,0,0-1.69,3.76c.57,2.54,4.55,3.23,6.87,3.41a135.1,135.1,0,0,0,19.61.1,3.41,3.41,0,0,1,2.68,0,1.49,1.49,0,0,1-.43,2.88Z"/><path class="cls-7" d="M503,677.7a99.06,99.06,0,0,0-19.23,8c-1.49.81-3.15,2-3.13,3.66s2,2.95,3.75,2.81a9.71,9.71,0,0,0,4.67-2.26,28.29,28.29,0,0,0-13.2,14.37c-1.19,2.91-1.8,6.49.07,9,2.09,2.84,6.5,3,9.59,1.3s5.18-4.72,7.15-7.64c-2.4,1.74-1.13,6.09,1.69,7s6-.8,7.64-3.25,2.25-5.46,2.89-8.36,1.44-5.9,3.42-8.11c-.68,1.43,1.18,3,2.73,2.68s2.59-1.76,3.38-3.13c2.3-4,3.83-8.36,1.74-13Z"/><path class="cls-7" d="M481.23,717.15a7.83,7.83,0,0,1-6.48-3c-1.88-2.54-2-6.27-.25-10.48a29.81,29.81,0,0,1,7.34-10.54,5.34,5.34,0,0,1-1.3-.86,4,4,0,0,1-1.37-2.93c0-2.56,2.22-4.08,3.91-5a101.69,101.69,0,0,1,19.52-8.08,1.55,1.55,0,0,1,.77,0l13.15,3a1.5,1.5,0,0,1,1,.85c2.57,5.69.2,10.93-1.8,14.38-.9,1.54-2.21,3.38-4.36,3.84a4,4,0,0,1-3.39-.91,23.72,23.72,0,0,0-1.61,5.21l-.12.55c-.63,2.85-1.27,5.8-3,8.33-1.86,2.72-5.58,5.07-9.34,3.83a5.92,5.92,0,0,1-3.35-3.07,15.71,15.71,0,0,1-4.3,3.58A10.59,10.59,0,0,1,481.23,717.15Zm5.39-24a26.9,26.9,0,0,0-9.34,11.7c-.76,1.85-1.78,5.3-.11,7.56s5.26,2.19,7.66.88a17,17,0,0,0,5.37-5.34,4.53,4.53,0,0,1,1.62-2.21,1.5,1.5,0,0,1,2.12,2.06l-1,1.44a2.83,2.83,0,0,0,0,.83,3.15,3.15,0,0,0,1.89,2.49c2.17.71,4.67-.84,5.93-2.67,1.41-2.05,2-4.59,2.54-7.28l.13-.56c.64-2.94,1.52-6.3,3.77-8.79a1.5,1.5,0,0,1,2.47,1.65.81.81,0,0,0,.31.35,1.06,1.06,0,0,0,.74.21c1-.22,1.82-1.41,2.4-2.42,2.52-4.33,3.13-7.75,1.94-11l-12-2.79A98.26,98.26,0,0,0,484.51,687c-1.56.85-2.35,1.63-2.34,2.33a1,1,0,0,0,.39.74,2.38,2.38,0,0,0,1.73.58,3.87,3.87,0,0,0,.93-.2,31,31,0,0,1,3.18-1.9,1.5,1.5,0,0,1,1.57,2.55A15.53,15.53,0,0,1,486.62,693.11Z"/><path class="cls-3" d="M604.9,759.39a30.46,30.46,0,0,1,9.37,3.85,1.28,1.28,0,0,0,.66.18,1.25,1.25,0,0,0,.66-2.31A33.24,33.24,0,0,0,605.46,757a1.25,1.25,0,0,0-1.5.94A1.26,1.26,0,0,0,604.9,759.39Z"/><path class="cls-3" d="M623,742.08l-7.89-5.16a1.25,1.25,0,0,0-1.37,2.09l7.89,5.16a1.22,1.22,0,0,0,.68.2,1.25,1.25,0,0,0,1-.57A1.23,1.23,0,0,0,623,742.08Z"/><path class="cls-3" d="M622.29,720.63a1.25,1.25,0,1,0-1.14,2.23,30.12,30.12,0,0,1,6.84,4.8,1.23,1.23,0,0,0,.85.34,1.27,1.27,0,0,0,.92-.4,1.25,1.25,0,0,0-.07-1.77A33.24,33.24,0,0,0,622.29,720.63Z"/><path class="cls-3" d="M631.58,704.68a1.25,1.25,0,1,0-1.53,2l5.92,4.55a1.25,1.25,0,0,0,1.52-2Z"/><path class="cls-3" d="M642,691l3.49,2.73a1.3,1.3,0,0,0,.77.26,1.25,1.25,0,0,0,.77-2.23l-3.49-2.73a1.25,1.25,0,0,0-1.54,2Z"/><path class="cls-3" d="M655,676.22a1.25,1.25,0,0,0-1.93,1.59l2.88,3.48a1.27,1.27,0,0,0,1,.46,1.19,1.19,0,0,0,.79-.29,1.25,1.25,0,0,0,.17-1.76Z"/><path class="cls-3" d="M586,768.19l-15.9,2.7a1.26,1.26,0,0,0-.86.62q-3.64-10.93-7.56-21.8a1.29,1.29,0,0,0,.61.16,1.23,1.23,0,0,0,.53-.11,74.36,74.36,0,0,1,17-5.65q2.39,6.1,4.61,12.26a1.25,1.25,0,0,0,2.36-.85q-2.19-6.06-4.54-12.06a1.25,1.25,0,0,0,.43-1.16,1.23,1.23,0,0,0-1.29-1,494.41,494.41,0,0,0-28-58.92l10.63,4.91a8.59,8.59,0,0,0,3.52.91,3.51,3.51,0,0,0,2.94-1.35,3.2,3.2,0,0,0,.61-2.59,2.6,2.6,0,0,0-.1-.4,60.75,60.75,0,0,0,21.3,3.14c2.26-.08,5.07-.42,6.75-2.47a5.48,5.48,0,0,0,1.13-4.22,7.73,7.73,0,0,0-3-5.15,12.19,12.19,0,0,0-5-2,2.43,2.43,0,0,0,.14-.2,6.4,6.4,0,0,0,.42-6.42c-1.44-2.66-4.4-4.35-8.78-5-5.65-.86-11.27-.2-16.77.67a7.63,7.63,0,0,0,.87-2.12c.47-2-.17-4.56-2.29-5.58-1.62-.78-3.35-.33-5,.27-1.82.67-3.62,1.44-5.39,2.28.77-1.47,1.49-3.43.57-5.25a4.4,4.4,0,0,0-3.43-2.28,64.69,64.69,0,0,0,8-9.82c.74-1.11,3-4.5,1.38-7.47a5.66,5.66,0,0,0-5.77-2.53,10.25,10.25,0,0,0-3.08,1,64.2,64.2,0,0,0-.87-16.72c-.46-2.49-1.32-5.55-3.87-7.05a7.12,7.12,0,0,0-7.1.26,15.23,15.23,0,0,0-4.7,4.69,47.37,47.37,0,0,0-8.46,24.35,4.48,4.48,0,0,0-2.23-.48,6.4,6.4,0,0,0-5.43,4.91,14.17,14.17,0,0,0,.22,6.79,59.28,59.28,0,0,0,1.59,5.84,65.49,65.49,0,0,0-8.95-9.06c-2.19-1.83-5.13-3.87-8.43-3.43a5.79,5.79,0,0,0-4.07,2.82,25.16,25.16,0,0,0-20.24-10.14,14.83,14.83,0,0,0-8.22,2.21,8.83,8.83,0,0,0-4.09,7.8c.42,5,5.62,7.87,9.94,8.82,1.15.25,2.33.44,3.47.62a33.82,33.82,0,0,1,5.5,1.19,11,11,0,0,0-2.87,1.58,6.65,6.65,0,0,0-2.67,6.53c.72,3.2,3.95,5.12,9.34,5.54a138.4,138.4,0,0,0,17.64.25,4.48,4.48,0,0,0,.15,3.53,6,6,0,0,0,1.7,2,101,101,0,0,0-16.79,7.23c-1.64.89-3.81,2.35-3.79,4.78a3.77,3.77,0,0,0,1.29,2.75,5.09,5.09,0,0,0,1.6,1A29.63,29.63,0,0,0,485.2,700c-1.68,4.13-1.6,7.76.23,10.24a7.58,7.58,0,0,0,6.27,2.9,10.4,10.4,0,0,0,4.93-1.25,15.91,15.91,0,0,0,4.49-3.81,5.7,5.7,0,0,0,3.35,3.28c3.64,1.21,7.25-1.09,9.06-3.73s2.35-5.42,3-8.25l.12-.55a22.6,22.6,0,0,1,1.79-5.56,3.86,3.86,0,0,0,3.41,1.08c2.06-.45,3.32-2.22,4.19-3.72,1.86-3.2,4-8,2.19-13.17l1.66.07A996.64,996.64,0,0,1,571.65,787a1.25,1.25,0,0,0,1.19.87,1.28,1.28,0,0,0,.38,0,1.25,1.25,0,0,0,.81-1.57c-1.36-4.34-2.77-8.67-4.2-13a1.14,1.14,0,0,0,.49.11h.21l15.9-2.7a1.25,1.25,0,0,0-.42-2.47Zm-24.25-20.7a1.21,1.21,0,0,0-.62.68q-4.15-11.55-8.62-23l.18,0,16.75-5.66q5,11,9.49,22.27A77.46,77.46,0,0,0,561.76,747.49ZM543,701.63a121.9,121.9,0,0,0,14.34-6.78q5.79,11,11,22.34l-16.5,5.58a1.3,1.3,0,0,0-.26.14Q547.46,712.21,543,701.63Zm18.66-44.55a4.22,4.22,0,0,1,3-.35,2.48,2.48,0,0,1,.93,2.75,9.84,9.84,0,0,1-2.18,3.62,1.27,1.27,0,0,0-.11,1.42,1.25,1.25,0,0,0,1.29.6c6.23-1,12.68-2.1,19-1.15,2.46.37,5.65,1.32,7,3.73a4,4,0,0,1-.3,3.85,2.18,2.18,0,0,1-1.91,1.09h-.05a1.26,1.26,0,0,0-1.35,1.13,1.23,1.23,0,0,0,1.12,1.36h.07c2.57.23,5.47.5,7.58,2a5.27,5.27,0,0,1,2,3.44,3,3,0,0,1-.58,2.32c-1,1.27-3.06,1.5-4.9,1.56a58.34,58.34,0,0,1-24.9-4.73,1.25,1.25,0,0,0-1.15,2.21,5.33,5.33,0,0,1,2.47,2.73.71.71,0,0,1-.14.63c-.52.69-2.11.28-3.42-.32l-13.77-6.36c-1-1.74-2-3.48-3-5.21,1.66-.21,3.32-.38,5-.5a1.16,1.16,0,0,0,.27.18,36.54,36.54,0,0,1,8.22,4.23,1.25,1.25,0,0,0,1.74-.32,1.25,1.25,0,0,0-.32-1.74,38.33,38.33,0,0,0-4.32-2.56,91.9,91.9,0,0,1,16.95,1.39l.22,0a1.25,1.25,0,0,0,.22-2.48,94.82,94.82,0,0,0-19.82-1.38l3.85-6.36a1.25,1.25,0,1,0-2.14-1.29l-4.71,7.79c-2.18.15-4.36.38-6.54.67l-1.2-2a1.26,1.26,0,0,0-.68-.52,38.75,38.75,0,0,0,7.59-7.28A64.15,64.15,0,0,1,561.7,657.08Zm-38.83-15.77c.4-1.46,1.62-3,3.17-3.07h.1a2.31,2.31,0,0,1,1.77,1l.14.22c0,.55,0,1.1.05,1.65a1.25,1.25,0,0,0,2.41.4,3.72,3.72,0,0,0,0-2.57,44.71,44.71,0,0,1,8.08-25.6,13.07,13.07,0,0,1,3.88-4,4.73,4.73,0,0,1,4.61-.27c1.67,1,2.3,3.37,2.67,5.34a61.65,61.65,0,0,1,.61,18.39,1.25,1.25,0,0,0,1.89,1.21,11.92,11.92,0,0,1,4.26-1.87,3.22,3.22,0,0,1,3.22,1.25c.61,1.1.19,2.7-1.26,4.89a62.71,62.71,0,0,1-12.32,13.64,1.27,1.27,0,0,0-.19,1.74,1.25,1.25,0,0,0,1.73.23,9.74,9.74,0,0,1,3.48-1.91,2.41,2.41,0,0,1,2.57.9c.37.74.12,1.82-.79,3.4a31.4,31.4,0,0,1-2,3.06l-.41.23a1.22,1.22,0,0,0-.6,1c-2.3,2.75-5.55,5.58-10.94,9.12-.15-2.94-.21-5.87-.2-8.81l4.78-4.74a1.25,1.25,0,1,0-1.76-1.77l-3,2.94q.21-8,1.17-15.88h0l6.87-6.29a1.25,1.25,0,0,0-1.69-1.85l-4.69,4.3a165.47,165.47,0,0,1,3.29-16.59,1.25,1.25,0,1,0-2.42-.61q-2.06,8.16-3.29,16.45a30.57,30.57,0,0,1-3.1-6.5,1.25,1.25,0,1,0-2.36.8,32.63,32.63,0,0,0,5,9.36,169,169,0,0,0-1.32,19.35h0l-6.38-8a1.25,1.25,0,0,0-2,1.56l7.26,9.09a1.31,1.31,0,0,0,.9.47h.07l.12,0q0,4.15.28,8.29c-.48.31-1,.61-1.48.92a61.83,61.83,0,0,1-12-25.3A11.8,11.8,0,0,1,522.87,641.31Zm-31.7,24c-2.39-.19-6.48-.9-7.09-3.61a4.26,4.26,0,0,1,1.77-4,12.49,12.49,0,0,1,5-2,1.25,1.25,0,0,0,.42-2.26c-2.79-1.88-6.07-2.41-9.25-2.92-1.1-.17-2.24-.35-3.32-.59-3.5-.77-7.68-3-8-6.59a6.31,6.31,0,0,1,3-5.51A12.41,12.41,0,0,1,480.6,636a23,23,0,0,1,19.58,11.22,3.75,3.75,0,0,0,1,1.74,1.25,1.25,0,0,0,2-1.41c-.2-.4-.4-.8-.62-1.19a2.41,2.41,0,0,1,.13-.87,3.39,3.39,0,0,1,2.52-2.19c2.33-.31,4.7,1.37,6.5,2.87a63,63,0,0,1,12.74,14.42,1.24,1.24,0,0,0,.88.55,63.89,63.89,0,0,0,5,8.73A169.12,169.12,0,0,0,515,659a1.24,1.24,0,0,0-.06-1L509.57,648a1.25,1.25,0,1,0-2.2,1.19l4.11,7.64A169.57,169.57,0,0,0,490.11,646a1.25,1.25,0,0,0-1,2.31A165.79,165.79,0,0,1,509,658.26a66.33,66.33,0,0,0-9.11,3,1.25,1.25,0,0,0,.47,2.4,1.35,1.35,0,0,0,.47-.09,65.71,65.71,0,0,1,11.33-3.41A165,165,0,0,1,532,674.38c-.54.11-1.08.21-1.62.28a1.23,1.23,0,0,0-.68.34A71.79,71.79,0,0,1,516,673.21c-2-.47-4.2-1.17-5-2.81a2.32,2.32,0,0,1,.47-2.41.85.85,0,0,1,.17-.16l1.39-.11a1.25,1.25,0,0,0,.36-2.41,3.15,3.15,0,0,0-2.52.06A136.36,136.36,0,0,1,491.17,665.27ZM515.3,681a79.76,79.76,0,0,0-10.15-.17,1.25,1.25,0,0,0,.12,2.5c2.26-.11,4.52-.12,6.75,0a48.22,48.22,0,0,0-6.3,5.74,1.06,1.06,0,0,0-.35,0l-2.92.79c-1.8.48-3.66,1-5.46,1.57a1.25,1.25,0,0,0,.79,2.38c1.68-.56,3.38-1,5.17-1.49a44.85,44.85,0,0,0-2.62,3.75,1.25,1.25,0,1,0,2.11,1.33c.69-1.09,1.42-2.15,2.2-3.18l.24,5.1a1.25,1.25,0,0,0,1.25,1.19h.05a1.26,1.26,0,0,0,1.2-1.31l-.37-7.86a47.7,47.7,0,0,1,6.61-6.09c-.49,1.57-.9,3.17-1.23,4.77a1.26,1.26,0,0,0,1,1.48l.25,0a1.25,1.25,0,0,0,1.22-1,45.85,45.85,0,0,1,2.29-7.71,46,46,0,0,1,8.8-4.32c1,3.19.37,6.57-2.09,10.81-.61,1.06-1.45,2.3-2.56,2.54a1.38,1.38,0,0,1-1.22-.52q-.18-.24-.12-.39a1.25,1.25,0,0,0-2.05-1.38c-2.21,2.44-3,5.63-3.72,8.68l-.12.55c-.56,2.6-1.15,5.28-2.58,7.37s-3.91,3.53-6.21,2.77a3.39,3.39,0,0,1-2.06-2.69,2.82,2.82,0,0,1,0-1c.35-.5.68-1,1-1.48a1.25,1.25,0,0,0-1.77-1.71,4.28,4.28,0,0,0-1.54,2.11,17.25,17.25,0,0,1-5.47,5.45c-2.5,1.36-6.27,1.39-8-.95s-.7-5.9.08-7.81A27.15,27.15,0,0,1,497,689.1a15.75,15.75,0,0,0,3.32-2A1.25,1.25,0,0,0,499,685a28.4,28.4,0,0,0-3.18,1.9,4.14,4.14,0,0,1-1,.22,2.64,2.64,0,0,1-1.92-.64,1.32,1.32,0,0,1-.48-.93c0-.81.8-1.64,2.48-2.55a98.49,98.49,0,0,1,18.81-7.81c.6.2,1.21.36,1.78.49A74.46,74.46,0,0,0,523,677,48.93,48.93,0,0,0,515.3,681Zm29.05-9.47q6.18,10.38,11.87,21.08a121,121,0,0,1-14.15,6.68q-4.76-11.3-9.76-22.46A30.25,30.25,0,0,0,544.35,671.56Z"/><path class="cls-3" d="M544.4,687a1.24,1.24,0,0,0,.68-1.63,1.26,1.26,0,0,0-1.63-.68L540.12,686a1.25,1.25,0,0,0-.68,1.63,1.23,1.23,0,0,0,1.15.78,1.36,1.36,0,0,0,.48-.09Z"/><path class="cls-3" d="M552.42,712.75l5-2a1.26,1.26,0,0,0,.7-1.63,1.24,1.24,0,0,0-1.62-.7l-5,2a1.25,1.25,0,0,0-.71,1.62,1.26,1.26,0,0,0,1.17.79A1.19,1.19,0,0,0,552.42,712.75Z"/><path class="cls-3" d="M568.74,731.06,563,732a1.25,1.25,0,0,0,.2,2.49l.2,0,5.76-.94a1.25,1.25,0,1,0-.4-2.46Z"/><path class="cls-3" d="M573.1,756.74a1.25,1.25,0,0,0,.09,2.49h.1l5.91-.46a1.25,1.25,0,0,0-.19-2.49Z"/><path class="cls-3" d="M736.38,697.68a27.17,27.17,0,0,0-18.7-12,4.29,4.29,0,0,0,0-3.17c-.83-1.89-2.7-2.93-4.25-3.62a43.2,43.2,0,0,0-12.63-3.33,9.3,9.3,0,0,0,2.47-3.78,28.12,28.12,0,0,0,17.37,5.79c3.06,0,7.18-.77,9.46-3.94a7.82,7.82,0,0,0,1.12-6.48,11.5,11.5,0,0,0-5.73-7.3c-3.5-1.81-7.47-2-11.13-1.78a5.17,5.17,0,0,0,.23-.59,6.84,6.84,0,0,0-1.19-6.42c-2.57-3-6.72-3.4-9.61-3.49a46.52,46.52,0,0,0-16.08,2.41,5.21,5.21,0,0,0-1.27-4.13c-2.09-2.26-5.46-2.3-7.87-1.33a16.85,16.85,0,0,0-5.88,4.62,96.73,96.73,0,0,0-10,13.14,55.34,55.34,0,0,0,2.14-21.56c-.28-2.45-.88-5.51-3.11-7.5a6.14,6.14,0,0,0-5.11-1.38l-.48.12a32.8,32.8,0,0,0-.18-10.73c-.91-4.15-3.71-9.18-8.82-10.83a10,10,0,0,0-8.14,1.09,8.82,8.82,0,0,0-2.23,1.95,22.37,22.37,0,0,0-4.07-8.36c-2.82-3.35-8.18-5.63-12.53-3.25-4.95,2.7-5.48,9.26-4.32,14.49a38.64,38.64,0,0,0,22.34,26.55,6.89,6.89,0,0,0-2.69,4.87,8.62,8.62,0,0,0,.21,2.41,47.46,47.46,0,0,0-15.35-7c-3-.75-5.12-.34-6.36,1.2a4.39,4.39,0,0,0-.64,4,52,52,0,0,0-11.71-2.7,17.06,17.06,0,0,0-8.13.66,8,8,0,0,0-5.29,6.75c-.15,3.59,2.62,6.3,5,7.94,4.89,3.42,10.69,5.08,16.27,6.26a5,5,0,0,0-1,1.75,6.45,6.45,0,0,0,2.2,6.68,9.74,9.74,0,0,0,6.42,2c3.67-.08,7.06-1.62,10-3.31a4.83,4.83,0,0,0,.76,2.09,7.72,7.72,0,0,0,4.45,2.87,15.64,15.64,0,0,0,4.29.59,16.4,16.4,0,0,0,5.87-1.11,202.3,202.3,0,0,0-33.19,44.77,1.24,1.24,0,0,0-1.08.6,1.26,1.26,0,0,0,0,1.31,202.48,202.48,0,0,0-8.82,18.82,1.25,1.25,0,0,0-.52.59,1.16,1.16,0,0,0,0,.78,193.69,193.69,0,0,0-11.14,39.59,1.24,1.24,0,0,0,1,1.44,1.26,1.26,0,0,0,1.44-1q1.42-8.52,3.65-16.9a275.16,275.16,0,0,1,32.66,9.72q-.78,3.79-1.45,7.62a1.25,1.25,0,0,0,1,1.45l.22,0a1.26,1.26,0,0,0,1.23-1c1.4-7.94,3.16-15.84,5.22-23.68l.31.18a1.23,1.23,0,0,0,.64.17,1.27,1.27,0,0,0,1.08-.61,1.25,1.25,0,0,0-.44-1.71l-.91-.53A303.43,303.43,0,0,1,652,710.09l.14,0a1.26,1.26,0,0,0,1-.47A1.23,1.23,0,0,0,653,708a301.29,301.29,0,0,1,15.15-27.55,1.24,1.24,0,0,0,.88.37h.08c2.3,0,4.25,2,5.18,3.93a21.88,21.88,0,0,1,1.54,6.73l.13,1a22.63,22.63,0,0,0,2.86,9.37c2.08,3.32,5.45,5.29,8.78,5.11a7.44,7.44,0,0,0,5.34-2.77,8.28,8.28,0,0,0,.61-.89,35.25,35.25,0,0,0,4.77,6.56,15.18,15.18,0,0,0,6,4.31,8.71,8.71,0,0,0,2.78.46,7,7,0,0,0,4.87-1.83,5.72,5.72,0,0,0,1.67-4.21c4.59,2.31,9.93,4.52,15.45,4.3,4.06-.16,7.35-1.85,8.8-4.55C739.41,705.46,738.87,701.57,736.38,697.68Zm-61.85-46.91a14.41,14.41,0,0,1,5-4c1.56-.63,3.82-.67,5.1.71a2.78,2.78,0,0,1,.55,2.46,1.88,1.88,0,0,1-.89,1.28l-.22.1a1.25,1.25,0,0,0,.93,2.32l.33-.14a44.07,44.07,0,0,1,18.41-3.5c3.85.11,6.33,1,7.79,2.63a4.35,4.35,0,0,1,.71,4,2.41,2.41,0,0,1-1.66,1.69,1.25,1.25,0,0,0,.39,2.47c4.16-.4,9.33-.89,13.39,1.21a9.06,9.06,0,0,1,4.45,5.67,5.35,5.35,0,0,1-.72,4.43c-1.67,2.33-5,2.86-7.47,2.9a25.61,25.61,0,0,1-17.37-6.58,1.25,1.25,0,0,0-2.09.94c0,2.86-2.42,5.12-4.72,6-2.85,1.1-6.1.86-8.9.48-5.77-.8-11.28-2.47-22.65-8.6,2.5-.64,5-1.18,7.54-1.64a68.92,68.92,0,0,1,10,4.41,1.17,1.17,0,0,0,.6.16,1.25,1.25,0,0,0,.59-2.35c-2-1.1-4.11-2.1-6.24-3a107.77,107.77,0,0,1,13.78-.94,4.83,4.83,0,0,0,.47.53l4.81,4.65a1.22,1.22,0,0,0,.87.36,1.28,1.28,0,0,0,.9-.38,1.26,1.26,0,0,0,0-1.77L694.67,664a107.71,107.71,0,0,1,22.14,2.93,1.25,1.25,0,1,0,.58-2.43,110,110,0,0,0-22.67-3l5-4.61a1.25,1.25,0,1,0-1.69-1.84l-6.51,6a3.51,3.51,0,0,0-.4.43,109.22,109.22,0,0,0-17.68,1.5l6.86-7.84a1.24,1.24,0,0,0-.11-1.76,1.26,1.26,0,0,0-1.77.11L670.06,663a1.2,1.2,0,0,0-.28.59q-2.92.58-5.82,1.33A94.23,94.23,0,0,1,674.53,650.77ZM669,674.39c-3.56,5.49-6.93,11.14-10.13,16.88L646,678.83q6.39-6.35,13.35-12.06a1.19,1.19,0,0,0,0,.77,1.25,1.25,0,0,0,1.19.89,1.49,1.49,0,0,0,.36,0l.55-.15.3.16ZM640,644.6a2.89,2.89,0,0,1,1.52-.49l.33,0,.62.17a1.25,1.25,0,0,0,.79-2.36,4.94,4.94,0,0,0-.83-.25,36,36,0,0,1-24.14-26c-.92-4.15-.66-9.72,3.08-11.76,3.07-1.68,7.2,0,9.42,2.68,2.51,3,3.54,7.11,4.45,10.75a1.21,1.21,0,0,0,1.27,1,1.26,1.26,0,0,0,1.18-1.07,5.33,5.33,0,0,1,2.63-3.72,7.44,7.44,0,0,1,6.05-.83c4.1,1.32,6.38,5.51,7.15,9,.91,4.18.34,8.57-.22,12.82a1.25,1.25,0,0,0,2.36.71,1.94,1.94,0,0,1,1.44-1,3.58,3.58,0,0,1,3,.78c1.6,1.43,2.07,3.92,2.29,5.92a53.79,53.79,0,0,1-2.76,22.81,1.27,1.27,0,0,0-.83.27l0,0-.14,0a93.75,93.75,0,0,0-3-10.69l3.8-9.81a1.25,1.25,0,1,0-2.33-.91l-2.78,7.19A93.9,93.9,0,0,0,644,630.72a57.54,57.54,0,0,1,2.49-10.12,1.25,1.25,0,1,0-2.36-.82,59.51,59.51,0,0,0-2.18,8.11,93.4,93.4,0,0,0-14.27-15.15,1.25,1.25,0,1,0-1.62,1.91,90.59,90.59,0,0,1,14.23,15.2,26.4,26.4,0,0,0-9.33-.59,1.25,1.25,0,0,0,.29,2.49A23.87,23.87,0,0,1,642.09,633a1.2,1.2,0,0,0,.42.08h0A91.49,91.49,0,0,1,652,651a18.77,18.77,0,0,0-8.72-2.53,1.25,1.25,0,0,0-.09,2.5,16.18,16.18,0,0,1,10,3.92,1.18,1.18,0,0,0,.32.19c.94,2.77,1.74,5.59,2.41,8.44a30.65,30.65,0,0,1-14.63-8.69c-2.31-2.49-3.42-4.82-3.28-6.93A4.44,4.44,0,0,1,640,644.6Zm5.41,29.62A13.75,13.75,0,0,1,633,677a5.25,5.25,0,0,1-3.06-1.87,2,2,0,0,1,.08-2.44,1.25,1.25,0,0,0-1.44-2c-3.45,2.11-7.36,4.51-11.56,4.6a7.16,7.16,0,0,1-4.77-1.42,4,4,0,0,1-1.42-4,2.76,2.76,0,0,1,1.43-1.56,2.31,2.31,0,0,1,.84-.22l1,.2a1.25,1.25,0,0,0,.71-2.38,4,4,0,0,0-1.53-.33c-6.3-1.21-13.24-2.71-18.7-6.53-1.5-1.05-4-3.2-3.91-5.79a5.56,5.56,0,0,1,3.72-4.52,14.62,14.62,0,0,1,6.93-.5,49.21,49.21,0,0,1,16.43,4.8,1.25,1.25,0,0,0,1.21-2.19,9.08,9.08,0,0,1-2.88-2.35,2.25,2.25,0,0,1-.18-2.51c.71-.88,2.46-.67,3.8-.34a44.94,44.94,0,0,1,16.67,8.14,1.27,1.27,0,0,0,1,.23,20.89,20.89,0,0,0,2,2.55,33.37,33.37,0,0,0,16.79,9.64l-1.53,1.29h0a146.66,146.66,0,0,0-17.27-6.86l-8.9-9.43a1.25,1.25,0,0,0-1.82,1.72l5.87,6.21a147.36,147.36,0,0,0-28.21-5.21,1.25,1.25,0,1,0-.21,2.49,144.3,144.3,0,0,1,29.23,5.57l-4.94,2.61a1.25,1.25,0,0,0-.52,1.69,1.23,1.23,0,0,0,1.1.67,1.26,1.26,0,0,0,.59-.15l7.12-3.77a146.74,146.74,0,0,1,15.89,6.26q-2.82,2.49-5.53,5.07A1.23,1.23,0,0,0,645.38,674.22Zm-1.16,6.38,13.22,12.75a1,1,0,0,0,.22.13q-3.48,6.36-6.64,12.89l-17.56-13.88Q638.59,686.33,644.22,680.6Zm-1.33,44a1.12,1.12,0,0,0-.3-.27,114.63,114.63,0,0,1-21-16.16q4.83-7.09,10.25-13.77l18,14.27Q646.17,716.54,642.89,724.61Zm-6.69,17a247.82,247.82,0,0,0-24.7-16.86q4.05-7.38,8.7-14.42a116.93,116.93,0,0,0,21.11,16.19,1.24,1.24,0,0,0,.64.18l.12,0q-3,7.54-5.63,15.21A1.27,1.27,0,0,0,636.2,741.57ZM627,776.05a281.08,281.08,0,0,0-32.53-9.66A191.17,191.17,0,0,1,601,747.12a250.32,250.32,0,0,1,29.51,14.47Q628.59,768.79,627,776.05Zm-25.12-31.24a195.54,195.54,0,0,1,8.4-17.9,245,245,0,0,1,24.35,16.64,1.2,1.2,0,0,0,1.15.19q-2.54,7.62-4.65,15.35A251.72,251.72,0,0,0,601.92,744.81Zm133.74-37.66c-1,1.9-3.53,3.11-6.69,3.23-6.19.25-12.08-2.87-17.29-5.61a1.25,1.25,0,0,0-1.36,2.08,2.33,2.33,0,0,1,.79,1.72,3.25,3.25,0,0,1-.91,2.42,5.14,5.14,0,0,1-5.1.8,12.1,12.1,0,0,1-4.93-3.63,33.08,33.08,0,0,1-5.94-9.1,1.25,1.25,0,0,0-2.37.71,3.63,3.63,0,0,1-.86,2.84,5,5,0,0,1-3.51,1.85c-2.39.11-5-1.43-6.55-4a20.76,20.76,0,0,1-2.49-8.37l-.13-1a24.05,24.05,0,0,0-1.76-7.49,8.8,8.8,0,0,0-7.06-5.32l.57-.89a1.22,1.22,0,0,0,.83.89,164.16,164.16,0,0,1,21,7.78,55,55,0,0,1,4.93,9,1.24,1.24,0,0,0,1.15.75,1.24,1.24,0,0,0,1.14-1.74,57.52,57.52,0,0,0-3-6q6.33,3.06,12.38,6.67l0,0,4.46,7.47a1.26,1.26,0,0,0,1.08.6,1.23,1.23,0,0,0,.64-.17,1.26,1.26,0,0,0,.43-1.72l-2-3.35c2.42,1.55,4.79,3.16,7.13,4.83a1.25,1.25,0,0,0,.73.24,1.23,1.23,0,0,0,1-.52,1.25,1.25,0,0,0-.28-1.75q-4.17-3-8.49-5.7l6.28-1.23A1.25,1.25,0,1,0,719,691l-9,1.74q-6.51-3.9-13.36-7.18c2.16-.31,4.31-.71,6.42-1.21a1.25,1.25,0,0,0,.92-1.51,1.23,1.23,0,0,0-1.5-.92,68.82,68.82,0,0,1-10.09,1.61l-.09,0a166.86,166.86,0,0,0-20.73-7.63,1.27,1.27,0,0,0-.58,0c.24-.36.46-.73.7-1.1a1.23,1.23,0,0,0,.07-1.23,50.4,50.4,0,0,0,15.37,4.76,32.56,32.56,0,0,0,4.41.35,15.67,15.67,0,0,0,5.73-1l.21-.09a1.15,1.15,0,0,0,.33.09,43.35,43.35,0,0,1,14.55,3.4c1.2.54,2.5,1.24,3,2.33a1.77,1.77,0,0,1-.15,1.53.7.7,0,0,1-.54.38,1.25,1.25,0,0,0,0,2.5A24.58,24.58,0,0,1,734.27,699C735.21,700.49,737.23,704.23,735.66,707.15Z"/><circle class="cls-2" cx="358.04" cy="193.53" r="13.5"/><circle class="cls-6" cx="1349.27" cy="832.9" r="13.5"/><circle class="cls-3" cx="415.21" cy="236.88" r="8.5"/><circle class="cls-4" cx="933.49" cy="141.65" r="14.59"/><circle class="cls-6" cx="197.81" cy="551.51" r="14.59"/><circle class="cls-4" cx="344.54" cy="718.67" r="14.59"/><circle class="cls-3" cx="797.96" cy="909.14" r="14.59"/><circle class="cls-4" cx="1417.92" cy="781.45" r="14.59"/><circle class="cls-4" cx="72.69" cy="479.8" r="14.59"/><circle class="cls-2" cx="1202.32" cy="180.03" r="3.98"/><circle class="cls-2" cx="1006.28" cy="129.52" r="3.98"/><circle class="cls-2" cx="257.08" cy="658.17" r="3.98"/><circle class="cls-3" cx="644.55" cy="842.03" r="3.98"/><circle class="cls-4" cx="1298.17" cy="270.03" r="3.98"/><circle class="cls-3" cx="747.18" cy="102.3" r="3.98"/><circle class="cls-3" cx="1403.95" cy="695.21" r="3.98"/><circle class="cls-3" cx="1020.67" cy="905.16" r="3.98"/><circle class="cls-3" cx="190.49" cy="636.69" r="3.98"/><circle class="cls-3" cx="106.02" cy="312.39" r="3.98"/><circle class="cls-3" cx="1072.88" cy="87.7" r="9.49"/><circle class="cls-3" cx="1399.3" cy="615.34" r="9.49"/><circle class="cls-6" cx="1166.72" cy="254.38" r="9"/><circle class="cls-1" cx="1335.77" cy="312.39" r="9"/><circle class="cls-1" cx="891.17" cy="58.39" r="9"/><circle class="cls-1" cx="521.87" cy="853.16" r="9"/><circle class="cls-1" cx="87.39" cy="557.66" r="9"/><path class="cls-6" d="M1013.58,468.37c-47.25-3.41-95.39,16.85-126.85,52.28s-45.85,85.07-39.38,132,33.39,90.46,71.83,118.15c26.13,18.83,57.73,30.59,89.93,30.93,49.47.51,97.41-26.82,125.66-67.42s37.43-93,28.87-141.73c-4.68-26.67-14.84-53.09-33.51-72.7C1100.28,488.52,1055.9,471.42,1013.58,468.37Z"/><path class="cls-8" d="M1190.25,738.24a281.79,281.79,0,0,1-31.6-2.15,737.82,737.82,0,0,1-73.35-12.86c-4.07-1-9.69-2.17-16.81-3.71-56.61-12.25-189.16-40.94-291.77-94.46-26.54-13.84-38-25.29-35.06-35,6.59-21.76,87.4-20.07,109.67-17.65a2.5,2.5,0,1,1-.54,5c-33.26-3.61-99.79-.92-104.35,14.13-1.18,3.91,1.47,12.89,32.59,29.12,102,53.2,234.11,81.8,290.51,94,7.15,1.54,12.79,2.76,16.89,3.72a730.49,730.49,0,0,0,72.79,12.76c48.14,5.58,56.4-1.21,57.71-4.4,1.45-3.52-.66-15.1-51.52-46.51A2.5,2.5,0,1,1,1168,676c53.76,33.2,56.29,46,53.52,52.68C1218.9,735.05,1208.59,738.24,1190.25,738.24Z"/><path class="cls-8" d="M1194.12,753.49q-20.82,0-51-4c-159.8-20.85-208-37.88-268.95-59.43-12.55-4.43-25.53-9-40.14-13.87-27.11-9-56.39-23.26-78.34-38.18-18.27-12.41-39.4-30.68-36.32-47.23,4.06-21.89,48.68-31,132.61-27a2.5,2.5,0,1,1-.24,5c-106.27-5-125.47,12.23-127.46,22.94-4.22,22.73,56.38,61.53,111.32,79.76,14.66,4.86,27.66,9.45,40.24,13.9,60.7,21.45,108.65,38.4,267.93,59.18,75.51,9.85,90.11-1.37,92.1-8.93,4.73-18-43.91-52.81-70.06-63.38a2.5,2.5,0,1,1,1.88-4.63c23.93,9.67,79.15,45.93,73,69.28C1237.77,748,1222.43,753.49,1194.12,753.49Z"/><path class="cls-7" d="M1092.79,622.42a4.68,4.68,0,0,0-4.41-1.2c-1.77.5-3.19,2.14-4,4.63-7.88,24.36-34.14,42.41-62.45,42.91h-1c-26.05,0-49.49-18.25-57.22-44.69-4.16-14.25-3-28.94,3.35-41.39,5.9,1,11.94,2,18,3.1a4.22,4.22,0,0,0,.79.07,4.54,4.54,0,0,0,3.54-1.79c1.89-2.31,2.4-6.72,1.15-9.83a5.87,5.87,0,0,0-4.73-3.89c-17.3-2.13-34.35-4.72-48.74-7a4.42,4.42,0,0,0-4.19,1.71c-1.71,2.14-2.16,6.11-1,9a5.73,5.73,0,0,0,4.45,3.8c5.67.84,11.75,1.75,18.11,2.74-10.39,27.63-4.15,61.78,16.4,84.62,13.21,14.69,31.93,22.34,51.23,22.34a74.93,74.93,0,0,0,38.81-10.94,76.06,76.06,0,0,0,33.79-42.87C1095.35,631.67,1096.27,625.44,1092.79,622.42Z"/><path class="cls-7" d="M1100.2,584.59a9.88,9.88,0,1,0,9.88,9.88A9.89,9.89,0,0,0,1100.2,584.59Z"/><path class="cls-8" d="M1134.85,681.44a.72.72,0,0,0,.09-.14c.15-.21.3-.41.47-.61a10,10,0,0,1,1-1.07,9.22,9.22,0,0,1,2.18-1.46,8.68,8.68,0,0,1,2.68-.82c.9-.12,1.11-1.46,1.09-2.19,0-.52-.2-2.29-1.09-2.18a11.16,11.16,0,0,0-8,5.19c-1.22,1.92-2.2,4.56-1.11,6.72a7.45,7.45,0,0,0,3.34,3.32c1.59.77,3.65,1,5.12-.15a2.82,2.82,0,0,0,.79-2.44c0-.57-.27-2-1.09-1.93s-1.36.1-2,.1a6.73,6.73,0,0,1-1.93-.28,5.38,5.38,0,0,1-.95-.42l-.47-.29-.29-.21a3.51,3.51,0,0,0-.26-.25h0c.11-.22.23-.45.36-.67Z"/><path class="cls-8" d="M1039.05,626.45A8.83,8.83,0,0,0,1034,622a10.35,10.35,0,0,0-6.62.17,10.08,10.08,0,0,0-5.69,5,3.46,3.46,0,0,0,0,2.9c.38.73,1.07.75,1.45,0,1.64-3.27,5.73-4.74,9.26-4.08a7.49,7.49,0,0,1,4.44,2.73,4.67,4.67,0,0,1,.6.92c.12.22.21.44.32.65,0,0,0,0,0,.09l.11.3c.07.23.13.46.2.69a.35.35,0,0,1,0,.06,1.73,1.73,0,0,0,0,.2c0,.21.05.42.08.63h0c0,.14,0,.27,0,.4s0,.61,0,.57c0,.21,0,.42-.09.64h0c0,.15-.07.29-.11.43s-.13.43-.21.64c0,0-.2.44-.24.51l-.29.52c-.34.53-.75,1-1.09,1.55a3.4,3.4,0,0,0-.16,2.45c.14.46.55,1.25,1.14.93a6,6,0,0,0,2.14-2.75,12.12,12.12,0,0,0,1.09-3.82A13.65,13.65,0,0,0,1039.05,626.45Z"/><path class="cls-8" d="M1063,498.9c0-.58-.31-2.27-1.22-2.16a18.54,18.54,0,0,0-3.3,1,15,15,0,0,1-3.18.69,7.12,7.12,0,0,1-5-1.18,3.77,3.77,0,0,1-.76-.69,2.56,2.56,0,0,1-.47-.69l0-.11,0-.07a1.31,1.31,0,0,1,0-.15c-.07.32,0,0,.07-.17,0,0,.17-.35.17-.34s.26-.43.2-.34a9.43,9.43,0,0,1,.94-1.15,20.69,20.69,0,0,1,2-1.77,3,3,0,0,0,.78-2.75c-.06-.43-.58-2.18-1.37-1.56-2,1.51-3.8,3.15-4.66,5.53a8.42,8.42,0,0,0,1.15,7.84,7.9,7.9,0,0,0,5.73,3,12.12,12.12,0,0,0,4.18-.58,13,13,0,0,0,3.91-1.63A3.12,3.12,0,0,0,1063,498.9Z"/><path class="cls-8" d="M964.89,772.14a12.73,12.73,0,0,0-.78-3.76,3.46,3.46,0,0,0-2.1-2.2,5.88,5.88,0,0,0-3.68.67,13.59,13.59,0,0,0-5.27,4,3.81,3.81,0,0,0-.43,3.29c.2.67.94,1.73,1.64.86a11.49,11.49,0,0,1,4.09-3.23,8,8,0,0,1,2.55-.85,1.7,1.7,0,0,1,1,.16s.38.39.2.22a1.27,1.27,0,0,0,.08.17l0,0c0,.09.08.4.09.39l.06.46c0,.26,0,.52.08.79,0,.12,0,.16,0,.19v.2c0,.54,0,1.06,0,1.6,0,.26,0,.53,0,.79a1.88,1.88,0,0,0,0,.19s0,.08,0,.2a25.34,25.34,0,0,1-.42,3c0,.16,0,.18,0,0l-.09.38c-.06.26-.13.51-.2.76a9.24,9.24,0,0,0-.47,2.46c0,.76.69,3.54,1.88,2.16a5.26,5.26,0,0,0,.92-2.4c.17-.72.33-1.44.46-2.17a31.17,31.17,0,0,0,.46-4.1A33.52,33.52,0,0,0,964.89,772.14Z"/><path class="cls-8" d="M862.3,608.23c-.65-.75-1.34.13-1.52.8a3.5,3.5,0,0,0,.4,3c.14.16.28.33.41.5l.16.24h0a8.81,8.81,0,0,1,.49,1c0,.08.12.33.14.41s.06.19.08.28v0c0,.07,0,.17,0,.21s0,.19,0,.28v0s0,0,0,.16a.31.31,0,0,0,0,.1s0,0,0,0v.49l0,.25c0,.09,0,.18,0,.27l0-.08,0,.09h0c0,.2,0,.12,0,0-.06.16-.09.35-.14.51l-.09.28h0c-.08.18-.16.37-.25.55-.19.41-.44.79-.64,1.19a3.53,3.53,0,0,0-.16,2.46c.12.35.61,1.36,1.14.93a6.49,6.49,0,0,0,1.87-3.13,11.84,11.84,0,0,0,.54-3.87A10.94,10.94,0,0,0,862.3,608.23Z"/><path class="cls-8" d="M862.51,616.27v0Z"/><path class="cls-8" d="M862.58,615.2c0-.05,0-.11,0-.16a1.19,1.19,0,0,0,0,.22v-.06Z"/><path class="cls-8" d="M873.8,602.14c-2.09,0-2.11,6,0,6S875.91,602.14,873.8,602.14Z"/><path class="cls-8" d="M1061.82,508.64c-2.09,0-2.11,6,0,6S1063.93,508.64,1061.82,508.64Z"/><path class="cls-8" d="M1115.39,682.5c-2.09,0-2.1,6,0,6S1117.5,682.5,1115.39,682.5Z"/><path class="cls-8" d="M977.92,773c-2.09,0-2.11,6,0,6S980,773,977.92,773Z"/><path class="cls-8" d="M1013.3,760.84c-2.09,0-2.11,6,0,6S1015.41,760.84,1013.3,760.84Z"/><path class="cls-8" d="M1016.33,603.66c-2.09,0-2.11,6,0,6S1018.44,603.66,1016.33,603.66Z"/><path class="cls-8" d="M1113.88,543.51c-2.09,0-2.11,6,0,6S1116,543.51,1113.88,543.51Z"/><path class="cls-8" d="M928.39,524.31c-2.1,0-2.11,6,0,6S930.49,524.31,928.39,524.31Z"/><path class="cls-8" d="M918.78,734.06c-2.09,0-2.1,6,0,6S920.89,734.06,918.78,734.06Z"/><path class="cls-5" d="M1178.94,573.88a1.46,1.46,0,0,1-1-.37,1.49,1.49,0,0,1-.16-2.11l12.73-14.72a1.5,1.5,0,0,1,2.27,2l-12.73,14.72A1.5,1.5,0,0,1,1178.94,573.88Z"/><path class="cls-5" d="M1189.67,601.72a1.49,1.49,0,0,1-1.21-2.37l19.09-26.65a1.5,1.5,0,1,1,2.44,1.75l-19.1,26.64A1.49,1.49,0,0,1,1189.67,601.72Z"/><path class="cls-5" d="M1232.23,625.19a1.55,1.55,0,0,1-.89-.29,1.5,1.5,0,0,1-.31-2.1l16.7-22.67a1.5,1.5,0,0,1,2.42,1.78l-16.71,22.67A1.49,1.49,0,0,1,1232.23,625.19Z"/><path class="cls-5" d="M1256.1,631.55a1.49,1.49,0,0,1-1.21-2.38l10.73-14.72a1.5,1.5,0,1,1,2.43,1.77l-10.74,14.72A1.49,1.49,0,0,1,1256.1,631.55Z"/><path class="cls-4" d="M264.46,535.6A57.39,57.39,0,0,1,255,523.47c-5.18-8.89-7.63-20.3-3.12-30,1.55-3.33-3.21,0-3.93.52-2.94,2.27-6.45,5.49-8,8.94-4.37,9.45-3.32,19.69,1,29,2.3,5,5.4,9.42,8.36,14,2.65,4.09,5.88,12.43,10.9,13.45,3.33.67,13-8.86,12.88-12.21C272.77,542.05,268,539,264.46,535.6Z"/><path class="cls-4" d="M761.31,839.38c-1.31-3.78-6.89-6.29-10.3-8.19a75.79,75.79,0,0,0-11.4-5.15,82.15,82.15,0,0,0-24.28-4.67c-3.21-.14-7.72,5.52-9.63,7.66-.65.73-5.57,6.52-3.18,6.63a70.26,70.26,0,0,1,24.21,5.41A74.56,74.56,0,0,1,737,846.38c3.37,2.1,6.78,6,10.61,6.74C751.07,853.84,762.55,842.93,761.31,839.38Z"/><path class="cls-4" d="M474.4,246c-4.49,1-9,5.2-12.54,8A101.67,101.67,0,0,0,451,264a117.25,117.25,0,0,0-18.57,26.35c-.57,1.1-4.73,8.26-2.94,9.32s5.87-6.72,6.22-7.38a54.27,54.27,0,0,1,12-15C453.29,272.18,460,269.37,466,265c3.42-2.47,5.93-8.12,7.57-11.89C474,252.16,476.9,245.49,474.4,246Z"/><path class="cls-4" d="M280.72,575c-2.12-1.86-6-2-8.71-2.59-1.19-.26-2.21.47-3.2,1.11a34.75,34.75,0,0,0-5.63,4.77,34.25,34.25,0,0,0-4.77,5.64c-.21.32-1.91,3-1.12,3.19,3.39.77,6.94,2,10.42,1.61,1.28-.13,3.06-1.6,3.94-2.31a44.56,44.56,0,0,0,4.51-4.18C276.9,581.45,282.08,576.19,280.72,575Z"/><path class="cls-4" d="M955,864.36c-4.92.06-9.89,1.71-14.64,2.88L924.89,871c-3.79.92-7.26,5-9.75,7.76-.53.59-5.32,7.22-3.22,6.72,10.82-2.6,22.11-4.53,32.48-8.62,3.22-1.26,6.28-4.81,8.41-7.37C953.3,868.93,957,864.34,955,864.36Z"/><path class="cls-4" d="M886.8,874.9a46.71,46.71,0,0,0-6.68-4.22c-.89-.49-2.52.71-3.1,1.08a33.53,33.53,0,0,0-5.46,4.63c-.53.54-7.23,7.87-5.71,8.56a56.56,56.56,0,0,0,7.83,3.08C876.82,889,888.62,876.34,886.8,874.9Z"/><path class="cls-1" d="M1236.27,889.31c-8.57,2.78-16.48,7-25.37,8.88a95.89,95.89,0,0,1-27.77,1.72c-3.11-.25-7.77,5.59-9.6,7.64-.67.75-5.56,6.42-3.17,6.61,19.37,1.51,40.47-2.21,56.74-13.26a34.65,34.65,0,0,0,7.72-7.33C1235,893.29,1238.06,888.73,1236.27,889.31Z"/><path class="cls-1" d="M1349.19,706.26c-1.67-4.69-5.67-8.4-8.68-12.3a112.41,112.41,0,0,1-8.32-12.3,115.05,115.05,0,0,1-11.43-27.31c-.43-1.54-8.31,5.36-8.83,5.88-1.76,1.76-6.67,5.92-5.89,8.83a116.11,116.11,0,0,0,11.22,27.53c4.29,7.51,10.62,19.32,19.16,22.44C1339.49,720.15,1350.27,709.28,1349.19,706.26Z"/><path class="cls-1" d="M1325.32,607.17a24.64,24.64,0,0,0-5.81,4.26c-3.21,2.92-8.12,7-9.18,11.53-.59,2.53-1.3,5.07-1.79,7.63-.33,1.79-.92,4.25,0,5.89.74,1.28,6.17-3.53,6.41-3.75a32.6,32.6,0,0,0,7.18-8.44c2.74-5.19,3.93-11,5.31-16.67C1327.83,606.11,1325.7,607,1325.32,607.17Z"/><path class="cls-7" d="M1097.19,278.06c-.62-1.51-7.59,4.87-8.12,5.41-1.39,1.39-6.39,5.71-5.41,8.11,4.15,10.09,4.92,20.21,6.41,30.86.29,2.07,4.87-2.12,5.4-2.59,2.13-1.88,5.65-4.85,6.24-7.84C1104,300.52,1101.58,288.75,1097.19,278.06Z"/><path class="cls-7" d="M888.77,819.85c-11.53-.24-22.57,0-33.88-2.8a84.25,84.25,0,0,1-30.41-14.23c-2.37-1.76-12.85,10.37-11.44,11.44,17.85,13.63,42.61,22.76,65.14,17.41,3.08-.73,6-4.07,8-6.33C886.65,824.75,890.74,819.89,888.77,819.85Z"/><path class="cls-7" d="M781.1,778.25a59.47,59.47,0,0,0-10.25-5.87c-.89-.43-2.33.63-2.94,1a32.37,32.37,0,0,0-5.17,4.39c-.52.52-6.87,7.41-5.41,8.11a69.39,69.39,0,0,0,11.44,4.68C771.76,791.44,782.78,779.53,781.1,778.25Z"/><path class="cls-7" d="M1196.65,355.48c-2.68-4.2-12.85-4.43-17.44-4.82a84,84,0,0,0-20,.81c-3.89.61-7.87,5.47-10.33,8.22-.57.64-5.78,7.47-3.4,7.12a82.75,82.75,0,0,1,19-.75c6.43.52,13.31,3.46,19.67,2.66C1186.73,368.39,1198.54,358.44,1196.65,355.48Z"/><path class="cls-7" d="M1133.19,348.26a12.31,12.31,0,0,0-2.92,2.15c-1.76,1.59-3.84,3.5-4.63,5.81s-1.61,4.72-2.41,7.09c-.27.78,1,.27,1.08.22a12.55,12.55,0,0,0,2.92-2.14c1.76-1.6,3.84-3.5,4.63-5.81l2.42-7.09C1134.54,347.71,1133.3,348.21,1133.19,348.26Z"/><path class="cls-7" d="M1301.29,777.39c-.2-3.08-7.27,3.2-7.93,3.8-2.31,2-9.43,7.77-9.16,11.5a31.88,31.88,0,0,1-1.88,14c-.29.73-1.83,3-2.34,4.15l-2.19,1.65a37.85,37.85,0,0,0-7.4,7.61c-.31.43-2.92,4-1,3.85,4.09-.29,8.51-4.69,11.4-7.24a79.22,79.22,0,0,0,12.85-14.22C1298.78,795.07,1301.89,786.51,1301.29,777.39Z"/><path class="cls-5" d="M358.78,493.51a1.5,1.5,0,0,1-.32-3c11.91-2.63,23.82-6.77,35.34-10.77,20.84-7.24,42.39-14.73,64.74-13.55A1.51,1.51,0,0,1,460,467.8a1.53,1.53,0,0,1-1.58,1.42c-21.78-1.16-43,6.24-63.59,13.38-11.6,4-23.6,8.21-35.69,10.87A1.12,1.12,0,0,1,358.78,493.51Z"/><path class="cls-5" d="M351.87,557a1.5,1.5,0,0,1-.14-3c23-2.21,44.19-13.72,64.64-24.85l3.77-2c22-11.94,45.58-23.53,71-22.72a1.49,1.49,0,0,1,1.45,1.54A1.52,1.52,0,0,1,491,507.4c-24.61-.75-47.81,10.62-69.45,22.36l-3.77,2C397.09,543.08,375.67,554.74,352,557Z"/><path class="cls-7" d="M783.36,493.74c-4.79,1.41-9.89-.18-14.58-1.88a306.52,306.52,0,0,1-71.5-37.07c7.63-11.76,16.39-22.26,24.11-33.45s14.53-23.42,16.6-36.85c22.39,13.41,47.13,24,75.23,31.83C808,437.93,801.08,459.11,783.36,493.74Z"/><path class="cls-3" d="M764.77,496.84c-3.77,0-7.54-1.22-11.15-2.52a308.09,308.09,0,0,1-71.84-37.25,1.51,1.51,0,0,1-.4-2.05c4.39-6.77,9.21-13.18,13.86-19.39,3.44-4.59,7-9.33,10.28-14.09,6.45-9.35,14.15-21.92,16.35-36.23a1.47,1.47,0,0,1,.84-1.13,1.5,1.5,0,0,1,1.41.07c22.66,13.57,47.15,23.93,74.86,31.67a1.5,1.5,0,0,1,1,1.8c-5.19,21.65-12.27,43.16-30,77.75a1.52,1.52,0,0,1-.91.76A15.63,15.63,0,0,1,764.77,496.84Zm3.94-2h0Zm-84-39.35a305.28,305.28,0,0,0,69.94,36.06c4.32,1.56,8.87,3,13,2,17-33.23,24-54.24,29.1-75.09a304.1,304.1,0,0,1-72.32-30.48c-2.69,14-10.16,26.16-16.47,35.3-3.32,4.82-6.9,9.58-10.35,14.19C693.3,443.22,688.82,449.2,684.7,455.44Z"/><path class="cls-3" d="M770.36,431.36a1.6,1.6,0,0,1-.63-.14L738.4,416.77a1.5,1.5,0,1,1,1.26-2.72L771,428.5a1.5,1.5,0,0,1-.63,2.86Z"/><path class="cls-3" d="M766.71,449.87a1.44,1.44,0,0,1-.63-.14l-36.43-17.07a1.5,1.5,0,0,1,1.27-2.72L767.35,447a1.5,1.5,0,0,1-.64,2.86Z"/><path class="cls-3" d="M760.62,469.1a1.52,1.52,0,0,1-.79-.22,254.53,254.53,0,0,0-38.18-19.31,1.5,1.5,0,0,1,1.12-2.78,257.33,257.33,0,0,1,38.64,19.54,1.5,1.5,0,0,1-.79,2.77Z"/><path class="cls-2" d="M445,564.62a1.5,1.5,0,0,1-.85-2.74l13.52-9.34a1.5,1.5,0,1,1,1.71,2.47l-13.52,9.34A1.51,1.51,0,0,1,445,564.62Z"/><path class="cls-2" d="M480.79,585.74a1.32,1.32,0,0,1-.34,0,1.49,1.49,0,0,1-1.12-1.8,131,131,0,0,1,3.82-13.16,1.5,1.5,0,0,1,2.84,1,124.44,124.44,0,0,0-3.74,12.86A1.49,1.49,0,0,1,480.79,585.74Z"/><path class="cls-2" d="M530.38,590a1.49,1.49,0,0,1-1.48-1.28L527,575.86a1.5,1.5,0,0,1,3-.45l1.93,12.87a1.49,1.49,0,0,1-1.26,1.7A.9.9,0,0,1,530.38,590Z"/><path class="cls-2" d="M575.75,567.6a1.41,1.41,0,0,1-.63-.14L561,560.85a1.5,1.5,0,0,1,1.27-2.72l14.16,6.61a1.51,1.51,0,0,1,.72,2A1.49,1.49,0,0,1,575.75,567.6Z"/><path class="cls-2" d="M591.31,540.87a1.4,1.4,0,0,1-.49-.08,48.81,48.81,0,0,0-14.6-2.7,1.51,1.51,0,0,1-1.46-1.55,1.48,1.48,0,0,1,1.55-1.45A51.49,51.49,0,0,1,591.8,538a1.49,1.49,0,0,1-.49,2.91Z"/><circle class="cls-2" cx="194.47" cy="263.38" r="3.98"/><path class="cls-7" d="M655.63,236.89c-4.36-4.23-13.83-5-19.66-5.56a68.39,68.39,0,0,0-21.86,1.61c-3.79.88-7.31,5-9.78,7.78-.53.6-5.35,7.23-3.23,6.74a68.73,68.73,0,0,1,21-1.66c7.24.57,13.87,3.77,20.94,4.42C645.54,250.45,657.6,238.8,655.63,236.89Z"/><path class="cls-3" d="M649.76,423.75c-18.79,27.12-38,52.2-66.35,61.06-10.73,3.35-21.85,4.05-32.88,4.05-4,0-8.07-.09-12.07-.19l-6.31-.15c-17.75-24.77-48.26-40.63-77.47-39.85-21.6.58-42.1,8.79-61.93,16.74-3.25,1.3-6.49,2.6-9.73,3.86-21.9,8.54-47.53,16.43-71.57,10.14a54.83,54.83,0,0,1-30.81-22.15c-.13.67-.25,1.35-.36,2a140.71,140.71,0,0,0-1.93,22.53c-20.09-1.16-40.22-2.9-60.1-5.78-19.2-2.77-41.39-7.06-60.46-17.88-20.36-11.55-34.52-29.95-37.87-49.23a1.47,1.47,0,0,1,.32-1.21,1.5,1.5,0,0,1,1.13-.55q20.26-.35,40.48-.54c11.39-15.53,23-31.34,34.47-47.25l-10-.08a1.48,1.48,0,0,1-1.15-.55,1.52,1.52,0,0,1-.3-1.25l1.65-8.12a1.52,1.52,0,0,1,1.54-1.2l15.79.75c6.6-9.21,13.16-18.45,19.59-27.66a1.49,1.49,0,0,1,1.27-.64l15.77.41L251,305.56a1.49,1.49,0,0,1,1.29-.65l114.07,4a1.5,1.5,0,0,1,1.45,1.55l-.5,14.87c20.45.79,41,1.62,61,2.46,18.11.75,35.8,1.52,52.6,2.27,8.78-11.79,15.41-21.33,21.05-31a1.49,1.49,0,0,1,1.36-.75c12.71.51,25.86,1,38.8,2.07a1.51,1.51,0,0,1,1.37,1.65l-3.22,30.83c40.14,2,67.78,3.58,71.52,4.28a1.46,1.46,0,0,1,1,.65,1.49,1.49,0,0,1,.25.86c.14,4.28,5.72,63.94,7.76,80.84q13.9.94,27.77,1.95a1.5,1.5,0,0,1,1.12,2.35Z"/><path class="cls-5" d="M554.76,481.56a86.07,86.07,0,0,1-17.36-1.75,1.51,1.51,0,0,1-1.17-1.77,1.49,1.49,0,0,1,1.77-1.17,84.74,84.74,0,0,0,63.29-12.19c18.81-12.42,31.3-32,36.18-56.72-173-3.59-351.83-7.31-529.72-11.82-2.38,21.77,13.86,41.28,30.28,50.36,18.8,10.39,97.65,20.64,127.31,22.37a1.5,1.5,0,1,1-.18,3c-28.37-1.65-108.56-11.67-128.58-22.74-17.62-9.74-35-31-31.63-54.72a1.47,1.47,0,0,1,1.52-1.29c178.94,4.53,358.85,8.27,532.83,11.89a1.49,1.49,0,0,1,1.45,1.77C636,433.12,622.89,454,602.94,467.18A87.73,87.73,0,0,1,554.76,481.56Z"/><path class="cls-5" d="M209.25,364.79h0l-29.76-.9a1.48,1.48,0,0,1-1.44-1.66c.44-3.94.59-7.21.74-10.37a1.49,1.49,0,0,1,1.5-1.43c8.77,0,19.11.09,29.25.75a1.49,1.49,0,0,1,1.4,1.47c0,3.33.1,6.75-.15,10.74A1.5,1.5,0,0,1,209.25,364.79Zm-28.09-3.85,26.67.81c.13-2.75.12-5.25.09-7.66-7.31-.45-15.32-.65-26.24-.66C181.56,355.76,181.43,358.19,181.16,360.94Z"/><path class="cls-5" d="M373.45,325.89c-8.83,0-36.08-.73-122.76-4.23a1.47,1.47,0,0,1-1.28-.82,1.51,1.51,0,0,1,.1-1.52c5.61-8.15,10.84-15.35,15.55-21.41a1.48,1.48,0,0,1,1.26-.57c35.75,1.79,72.72,3.64,110.31,5.91a1.51,1.51,0,0,1,1.41,1.58,56.53,56.53,0,0,0,.38,9.52,59.85,59.85,0,0,1,.4,10,1.48,1.48,0,0,1-.92,1.3C377.66,325.75,377.32,325.89,373.45,325.89Zm3.88-1.63h0Zm-123.8-5.48c93.14,3.75,117.27,4.24,122.35,4.1a59.37,59.37,0,0,0-.44-8.22,63.5,63.5,0,0,1-.45-8.5c-36.8-2.21-73-4-108-5.79C262.84,305.68,258.34,311.86,253.53,318.78Zm123.41,4Z"/><path class="cls-4" d="M250.38,410.42a1.47,1.47,0,0,0-1.08-.41l-7.36.19a1.5,1.5,0,0,0-1.44,1.31c-.46,3.57-.69,7.62-.91,11.53a1.5,1.5,0,0,0,1.36,1.58c.76.07,1.58.1,2.44.1,2,0,4.18-.16,6.33-.31a1.5,1.5,0,0,0,1.39-1.53l-.27-11.41A1.51,1.51,0,0,0,250.38,410.42Z"/><path class="cls-4" d="M284.17,410.91l-10.27-.7a1.48,1.48,0,0,0-1.6,1.59,60.43,60.43,0,0,1-.45,11.17,1.5,1.5,0,0,0,1.13,1.61,49.6,49.6,0,0,0,10.61.91h0a1.5,1.5,0,0,0,1.5-1.44l.46-11.58A1.51,1.51,0,0,0,284.17,410.91Z"/><path class="cls-4" d="M320.78,411.8,308,412a1.46,1.46,0,0,0-1.1.5,1.49,1.49,0,0,0-.37,1.14,67.13,67.13,0,0,1-.23,11.39,1.5,1.5,0,0,0,1.39,1.61c3.84.29,7.95.35,11.92.42h0a1.51,1.51,0,0,0,1.5-1.36l1.13-12.26a1.49,1.49,0,0,0-.4-1.15A1.58,1.58,0,0,0,320.78,411.8Z"/><path class="cls-4" d="M259.44,356.19l-7.36-.08a1.55,1.55,0,0,0-1.49,1.25c-.59,3.55-1,7.58-1.33,11.49l1.49.14-1.49-.14a1.49,1.49,0,0,0,1.29,1.63,32,32,0,0,0,4.18.22c1.49,0,3.06-.05,4.6-.11a1.5,1.5,0,0,0,1.44-1.48l.16-11.4a1.51,1.51,0,0,0-.43-1.07A1.47,1.47,0,0,0,259.44,356.19Z"/><path class="cls-4" d="M294.26,358.37,284,357.29a1.53,1.53,0,0,0-1.18.39,1.51,1.51,0,0,0-.48,1.15A59.67,59.67,0,0,1,281.5,370h0a1.49,1.49,0,0,0,1.07,1.65,50.27,50.27,0,0,0,10.56,1.3h.09a1.5,1.5,0,0,0,1.49-1.39l.88-11.55A1.5,1.5,0,0,0,294.26,358.37Z"/><path class="cls-4" d="M330.8,360.61l-12.73-.28a1.51,1.51,0,0,0-1.53,1.6,67.8,67.8,0,0,1-.65,11.36h0a1.51,1.51,0,0,0,1.32,1.66c3.83.43,7.93.64,11.9.85h.08a1.51,1.51,0,0,0,1.49-1.31l1.58-12.2a1.5,1.5,0,0,0-1.46-1.7Z"/><path class="cls-4" d="M473.55,366l-7.36-.08h0a1.5,1.5,0,0,0-1.48,1.26c-.58,3.54-1,7.58-1.33,11.49a1.5,1.5,0,0,0,1.3,1.62,32,32,0,0,0,4.18.22c1.49,0,3.06-.05,4.59-.1a1.5,1.5,0,0,0,1.45-1.48l.15-11.41a1.49,1.49,0,0,0-1.48-1.52Z"/><path class="cls-4" d="M508.36,368.23l-10.24-1.09a1.5,1.5,0,0,0-1.66,1.54,60.53,60.53,0,0,1-.85,11.13h0a1.5,1.5,0,0,0,1.07,1.66,50.28,50.28,0,0,0,10.56,1.29h.08a1.5,1.5,0,0,0,1.5-1.38l.88-11.56A1.49,1.49,0,0,0,508.36,368.23Z"/><path class="cls-4" d="M544.91,370.47l-12.74-.28a1.47,1.47,0,0,0-1.11.46,1.52,1.52,0,0,0-.42,1.13,66.73,66.73,0,0,1-.64,11.36h0a1.5,1.5,0,0,0,1.32,1.66c3.83.43,7.93.65,11.9.86h.08a1.49,1.49,0,0,0,1.48-1.31l1.59-12.2A1.55,1.55,0,0,0,546,371,1.48,1.48,0,0,0,544.91,370.47Z"/><path class="cls-4" d="M576.22,371.41a1.55,1.55,0,0,0-1.06-.45l-7.36-.07h0a1.49,1.49,0,0,0-1.48,1.25c-.59,3.54-1,7.58-1.33,11.49a1.5,1.5,0,0,0,1.29,1.63,34,34,0,0,0,4.19.22c1.49,0,3-.06,4.59-.11a1.5,1.5,0,0,0,1.44-1.48l.16-11.41A1.53,1.53,0,0,0,576.22,371.41Z"/><path class="cls-4" d="M366.73,361.87l-7.36-.08h0a1.5,1.5,0,0,0-1.48,1.26c-.58,3.54-1,7.58-1.33,11.48a1.5,1.5,0,0,0,1.3,1.63,32,32,0,0,0,4.18.22c1.49,0,3.05-.05,4.59-.11a1.49,1.49,0,0,0,1.45-1.47l.15-11.41a1.49,1.49,0,0,0-1.48-1.52Z"/><path class="cls-4" d="M401.54,364.06,391.3,363a1.5,1.5,0,0,0-1.66,1.54,60.53,60.53,0,0,1-.85,11.13h0a1.49,1.49,0,0,0,1.07,1.65,49.61,49.61,0,0,0,10.56,1.3h.08a1.5,1.5,0,0,0,1.5-1.38l.88-11.56A1.49,1.49,0,0,0,401.54,364.06Z"/><path class="cls-4" d="M438.09,366.29,425.35,366a1.42,1.42,0,0,0-1.11.46,1.52,1.52,0,0,0-.42,1.13,66.85,66.85,0,0,1-.64,11.37,1.5,1.5,0,0,0,1.32,1.66c3.83.43,7.93.65,11.9.86h.08a1.51,1.51,0,0,0,1.49-1.31l1.58-12.2a1.53,1.53,0,0,0-.35-1.17A1.49,1.49,0,0,0,438.09,366.29Z"/><path class="cls-4" d="M500.61,415.38a1.41,1.41,0,0,0-1.07-.41l-7.36.19a1.51,1.51,0,0,0-1.45,1.31c-.45,3.57-.68,7.61-.9,11.53a1.5,1.5,0,0,0,1.35,1.58c.76.07,1.59.1,2.45.1,2,0,4.18-.16,6.33-.31a1.51,1.51,0,0,0,1.39-1.54l-.27-11.4A1.49,1.49,0,0,0,500.61,415.38Z"/><path class="cls-4" d="M534.41,415.87l-10.28-.71a1.51,1.51,0,0,0-1.6,1.6,59.51,59.51,0,0,1-.44,11.16,1.5,1.5,0,0,0,1.13,1.62,50.21,50.21,0,0,0,10.6.91h0a1.51,1.51,0,0,0,1.5-1.45l.46-11.57A1.51,1.51,0,0,0,534.41,415.87Z"/><path class="cls-4" d="M571,416.76l-12.74.19a1.53,1.53,0,0,0-1.1.5,1.51,1.51,0,0,0-.37,1.15,67.15,67.15,0,0,1-.23,11.39,1.5,1.5,0,0,0,1.38,1.6c3.84.3,7.95.36,11.92.42h0a1.5,1.5,0,0,0,1.49-1.36l1.13-12.25a1.49,1.49,0,0,0-.39-1.16A1.57,1.57,0,0,0,571,416.76Z"/><path class="cls-5" d="M618,346.51H618l-405.6-15.23a1.5,1.5,0,0,1,.11-3l405.6,15.23a1.5,1.5,0,0,1,0,3Z"/><path class="cls-5" d="M703.86,122.71A27.78,27.78,0,0,0,688,108.35c-8.53-3.13-18-1.9-26.5.74-8.67,2.69-16.66,7-24.91,10.65l-1.14.5-.21.09-.62.26c-.89.36-1.79.72-2.7,1q-2.73,1-5.54,1.86c-1.81.53-3.63,1-5.48,1.37-.88.18-1.76.34-2.65.48l-.7.11c.07,0,.45-.06,0,0s-1,.13-1.58.18a44.37,44.37,0,0,1-5.53.18c-.78,0-1.57-.08-2.35-.16l-.51-.06-.22,0-1.46-.27c-.8-.16-1.59-.36-2.37-.59q-.54-.17-1.08-.36l-1-.36a24.1,24.1,0,0,1-4.22-2.41l-.09-.07c-.18-.13-.34-.27-.51-.41s-.59-.51-.88-.78a24.83,24.83,0,0,1-2-2.19,50.36,50.36,0,0,1-3-4.46c-2.13-3.42-4.29-7-7.48-9.53-7.1-5.66-16.68-5.24-24.88-2.43a65.92,65.92,0,0,0-21,12.24,70.2,70.2,0,0,0-15.23,18.23,71.09,71.09,0,0,0-5.2,11.11c-1.48,4-2.29,8.24-3.49,12.36a26.11,26.11,0,0,1-2.3,5.73,12.62,12.62,0,0,1-3.21,3.77,9.46,9.46,0,0,1-4.39,1.93,6,6,0,0,1-4.38-1.28c-1.57-1.14-2.95-2.63-4.55-3.79a11.87,11.87,0,0,0-5.86-2.23c-4-.41-8,1.52-10.8,4.22-7.11,6.81-5.55,17.41-3.64,26a209.48,209.48,0,0,0,7.53,25.89c5.82,16.06,30.93,66.59,40.78,67.37a3.5,3.5,0,0,0,3.49-3.49c-.41-3.6-.69-7.21-.74-10.83,0-1.91,0-3.81.11-5.71,0-.83.11-1.66.19-2.48,0-.44.09-.88.14-1.32,0,0,0-.2,0-.32s.07-.49.07-.53a45.76,45.76,0,0,1,1.14-5.32c.22-.8.47-1.59.75-2.36.12-.34.25-.67.38-1a2.42,2.42,0,0,0,.11-.25l.2-.44a26.33,26.33,0,0,1,2.44-4.16c.1-.13.38-.5.46-.59.25-.29.51-.58.78-.86a23.32,23.32,0,0,1,1.71-1.59L534,242c.13-.1.26-.2.4-.29q.48-.34,1-.66a17.8,17.8,0,0,1,2.37-1.24l1-.39c.51-.17,1-.33,1.54-.48,1.11-.31,2.23-.58,3.34-.87,4.38-1.11,8.73-2.71,11.72-6.26,5.45-6.48,5.56-15.31,6.11-23.33,0-.48.07-1,.12-1.43,0-.22,0-.44.08-.65s0-.13,0-.18,0-.11,0-.19c.17-1,.34-2,.57-2.93a22.85,22.85,0,0,1,1.79-5.16,20.3,20.3,0,0,1,1.43-2.36s.51-.62.61-.73c.3-.32.61-.64.94-.93l.3-.25.27-.17c.37-.23.75-.44,1.14-.65l.05,0a7,7,0,0,1,.77-.26l.28-.07c16.57,6.54,34.53,13.27,52.58,9.58,14.31-2.92,28-12.76,31.3-27.62.84-3.81,1.14-7.72,2-11.54.21-.93.44-1.85.73-2.76.15-.46.31-.91.49-1.36.1-.22.2-.44.31-.66a13.72,13.72,0,0,1,.71-1.24l.17-.25c9.39,8.89,25.15,10.08,36.1,3.43C707.07,152.29,709.9,135.67,703.86,122.71Z"/><path class="cls-5" d="M550.08,331.28c-6.1,0-57-.91-58.88-1.06a1.5,1.5,0,0,1-1.1-2.37c8.41-11.81,15.56-23.53,22.47-34.86l.37-.61a1.48,1.48,0,0,1,1.4-.71c12.65,1,25.69,2.11,38.29,4a1.5,1.5,0,0,1,1.28,1.58c-.4,6-.67,11.26-.94,16.33s-.54,10.32-.93,16.34a1.49,1.49,0,0,1-1.39,1.39Zm.46-1.5h0Zm-56.38-2.47c10.44.25,47.43.9,55,1,.35-5.42.6-10.23.85-14.9s.5-9.52.84-15c-11.78-1.67-24-2.69-35.8-3.66C508.56,305.33,501.89,316.25,494.16,327.31Z"/><path class="cls-3" d="M982.38,285.49c36.23-11.61,73.79-24,101.35-50.22,16.29-15.51,28.12-35,39.76-54.27a114.52,114.52,0,0,0-13.33-19.07,102.94,102.94,0,0,0-10.79,2.15,43.26,43.26,0,0,0,4.26-10.68c-7-9.54-13.59-18.44-20.14-27.33-18.45,20.66-36.8,41.5-58,59.22S980,217.66,952.84,224.46a240,240,0,0,0,9.33,26.36l14.59-2.27c-3.31,4.36-6.62,8.71-9.91,12.78C969.57,270.77,974.37,279.59,982.38,285.49Z"/><path class="cls-4" d="M1027.44,228a1.5,1.5,0,0,0-2-.62l-6.78,3.59a109.53,109.53,0,0,0-10.65-5,1.5,1.5,0,1,0-1.17,2.76c2.89,1.23,5.84,2.49,8.64,3.93l-9,4.78a27.2,27.2,0,0,0-3.66-1.43,1.5,1.5,0,0,0-.94,2.85l1.17.4-1.4.75a1.5,1.5,0,0,0,.7,2.82,1.57,1.57,0,0,0,.7-.17l.57-.3-.14.35a1.5,1.5,0,0,0,.87,1.93,1.46,1.46,0,0,0,.53.1,1.51,1.51,0,0,0,1.41-1l1.35-3.56,9.23-4.89-2,9.7a1.5,1.5,0,0,0,1.16,1.78,1.63,1.63,0,0,0,.31,0,1.51,1.51,0,0,0,1.47-1.19l2.54-12.15,6.55-3.47A1.5,1.5,0,0,0,1027.44,228Z"/><path class="cls-5" d="M1136.93,180.26a115.73,115.73,0,0,0-13.51-19.32,1.5,1.5,0,0,0-1.32-.5c-2.78.37-5.33.88-7.77,1.44a45.1,45.1,0,0,0,2.89-8.12,1.47,1.47,0,0,0-.25-1.25c-6.58-8.92-12.73-17.28-18.86-25.6l-1.28-1.73a1.47,1.47,0,0,0-1.13-.61,1.5,1.5,0,0,0-1.19.5l-2.36,2.64c-17.34,19.44-35.27,39.53-55.49,56.43-23.56,19.7-47.8,32.78-72.05,38.86a1.52,1.52,0,0,0-.93.7,1.56,1.56,0,0,0-.15,1.16,244.19,244.19,0,0,0,9.39,26.53,1.49,1.49,0,0,0,1.62.91l10.91-1.69c-2.53,3.32-5.1,6.66-7.63,9.78a1.51,1.51,0,0,0-.27,1.36c3.18,11,8.59,19.44,16.08,24.95a1.5,1.5,0,0,0,.89.29,1.83,1.83,0,0,0,.46-.07c34.48-11.05,73.57-23.58,101.92-50.57a152.94,152.94,0,0,0,15.39-17.22,1.37,1.37,0,0,0,.75-.33,1.48,1.48,0,0,0,.51-1.29c8.65-11.39,16.08-23.69,23.36-35.73A1.5,1.5,0,0,0,1136.93,180.26ZM1111.69,215l-3.13-3.58a1.5,1.5,0,1,0-2.26,2l3.53,4a150,150,0,0,1-15,16.77c-27.65,26.32-66,38.75-100,49.64-6.46-5-11.22-12.43-14.15-22.16,3.13-3.9,6.31-8.08,9.44-12.2a1.5,1.5,0,0,0-1.43-2.39l-13.41,2.09a244.44,244.44,0,0,1-8.41-23.63c24.19-6.35,48.32-19.5,71.75-39.09A353.58,353.58,0,0,0,1065,161.72l3.91,4.32a1.47,1.47,0,0,0,1.11.49,1.49,1.49,0,0,0,1.11-2.5l-4-4.47c9.42-9.79,18.45-19.91,27.33-29.85l1.12-1.27.18.25c6,8.14,12,16.32,18.45,25a41.86,41.86,0,0,1-3.94,9.63,1.5,1.5,0,0,0,1.67,2.19c3.1-.73,6.3-1.49,9.83-2A112.6,112.6,0,0,1,1133.88,181C1127,192.45,1119.85,204.13,1111.69,215Z"/><path class="cls-5" d="M1078.39,178.79a1.51,1.51,0,0,0,1.2.59,1.47,1.47,0,0,0,.91-.31,1.5,1.5,0,0,0,.28-2.1l-4.39-5.74a1.5,1.5,0,0,0-2.38,1.82Z"/><path class="cls-5" d="M1086.71,184.92a1.5,1.5,0,0,0-2.17,2.08l5.07,5.28a1.51,1.51,0,0,0,2.12.05,1.5,1.5,0,0,0,0-2.12Z"/><path class="cls-5" d="M1098.84,198.82a1.5,1.5,0,1,0-2.2,2l5.06,5.51a1.51,1.51,0,0,0,1.11.48,1.47,1.47,0,0,0,1-.4,1.49,1.49,0,0,0,.09-2.11Z"/><path class="cls-5" d="M1044.17,211.86a1.5,1.5,0,0,0,.76-.21,86,86,0,0,0,25.62-23.28,1.5,1.5,0,0,0-2.42-1.77,83.33,83.33,0,0,1-24.72,22.47,1.5,1.5,0,0,0,.76,2.79Z"/><path class="cls-5" d="M1080.67,202.58a444.54,444.54,0,0,1-40.45,34.61,1.5,1.5,0,0,0,.9,2.7,1.47,1.47,0,0,0,.91-.31,449,449,0,0,0,40.73-34.84,1.5,1.5,0,1,0-2.09-2.16Z"/><path class="cls-6" d="M862,326.85a6.62,6.62,0,0,1-.77,0,8.26,8.26,0,0,1-7.09-8.45,8.16,8.16,0,0,1,3.21-5.87,7.77,7.77,0,0,1,6.32-1.44,8,8,0,0,1-1.67,15.8Zm0-13a4.68,4.68,0,0,0-2.87,1,5,5,0,1,0,3.91-.87h0A4.85,4.85,0,0,0,862,313.89Z"/><path class="cls-6" d="M778.17,398.79a8.9,8.9,0,0,0-3.91-2.26,56.4,56.4,0,0,0,2.36-9.84,1.49,1.49,0,0,0-.83-1.56c-1-.48-2-1-3-1.44-1.37-.63-2.79-1.28-4.16-2a1.48,1.48,0,0,0-1.3,0,1.5,1.5,0,0,0-.84,1,84.33,84.33,0,0,1-3.05,9.69,6.62,6.62,0,0,0-3.57-.46,4.48,4.48,0,0,0-3.55,2.93,4.63,4.63,0,0,0,.9,4.2,9.19,9.19,0,0,0,2.79,2.23,32.23,32.23,0,0,0,3.59,1.76l-2.16,7a1.5,1.5,0,0,0,1,1.88,1.39,1.39,0,0,0,.44.07,1.49,1.49,0,0,0,1.43-1.06l2.12-6.81a32.66,32.66,0,0,0,7.9,1.45l.65,0a4.56,4.56,0,0,0,3.44-1.21C779.88,402.74,779.44,400.22,778.17,398.79Zm-9.28-13.59c.87.42,1.74.83,2.6,1.22l2,.92a53,53,0,0,1-3.15,11.18,13.36,13.36,0,0,1-5.21-2.33A99.7,99.7,0,0,0,768.89,385.2Zm7.31,17c-.35.36-1.41.29-1.77.28a29.61,29.61,0,0,1-13-3.85,6.56,6.56,0,0,1-1.92-1.47,1.75,1.75,0,0,1-.41-1.45,1.54,1.54,0,0,1,1.21-.89,3.78,3.78,0,0,1,2,.29l-.38,1a1.51,1.51,0,0,0,.41,1.71,16.37,16.37,0,0,0,8.81,3.86h.13a1.49,1.49,0,0,0,1.38-.91c.2-.47.39-.94.58-1.42a6.74,6.74,0,0,1,2.7,1.45C776.32,401.23,776.46,402,776.2,402.24Z"/><path class="cls-7" d="M787.59,317.93c-4-7.28-10.09-13.74-15.91-19.57a131,131,0,0,0-19.24-16.11c-1.86-1.27-9,7.53-8.14,8.14a177.26,177.26,0,0,1,20,15.34c6.24,5.66,11.4,12.25,17.38,18.12C782.49,324.64,788.27,319.19,787.59,317.93Z"/><path class="cls-7" d="M812.93,334.05c-2.88-.23-5.74-.24-8.62-.26-.57,0-1.56.85-1.92,1.13a21.35,21.35,0,0,0-2.63,2.49c-.28.32-2.61,3.13-1.49,3.13,3,0,6-.05,9.07-.26,1.51-.1,3.27-2.3,4.2-3.34C811.84,336.61,814,334.13,812.93,334.05Z"/></svg>