<?xml version="1.0" encoding="utf-8"?>
<!-- Generator: Adobe Illustrator 25.1.0, SVG Export Plug-In . SVG Version: 6.00 Build 0)  -->
<svg version="1.1" id="Capa_1" xmlns="http://www.w3.org/2000/svg" xmlns:xlink="http://www.w3.org/1999/xlink" x="0px" y="0px"
	 viewBox="0 0 340.3 512" style="enable-background:new 0 0 340.3 512;" xml:space="preserve">
<style type="text/css">
	.st0{fill:#FFFFFF;}
</style>
<g>
	<g>
		<path class="st0" d="M340.3,169.1C340.3,75.9,263.9,0,170.1,0S0,75.9,0,169.1c0,40.1,21,90.6,62.3,150.2
			c26.3,37.9,52.9,67.6,59.9,75.2v39.8h-2.6c-4.1,0-7.5,3.4-7.5,7.5s3.4,7.5,7.5,7.5h2.6v45c0,9.7,7.9,17.6,17.6,17.6h60.6
			c9.7,0,17.6-7.9,17.6-17.6v-45h2.6c4.1,0,7.5-3.4,7.5-7.5s-3.4-7.5-7.5-7.5H218v-39.8c5-5.4,19.7-21.8,37.6-44.8
			c2.5-3.3,1.9-8-1.3-10.5c-3.3-2.5-8-1.9-10.5,1.3c-9.6,12.4-18.3,22.9-25.1,30.7c7.8-13.6,17.8-32,27.7-52.9
			c28.1-59.3,42.4-109.5,42.4-149.2c0-44.7-12-86.8-33.9-118.5c-5-7.3-10.4-13.9-16.2-19.7c51.2,25.2,86.6,77.7,86.6,138.2
			c0,36.9-21,86.5-60.9,143.4c-2.4,3.4-1.5,8.1,1.9,10.4c3.4,2.4,8.1,1.5,10.4-1.9C318.9,260.8,340.3,209.6,340.3,169.1L340.3,169.1
			z M15,169.1c0-60.5,35.3-113,86.6-138.2c-5.7,5.8-11.2,12.4-16.2,19.7c-21.8,31.8-33.9,73.9-33.9,118.5c0,25.8,6.2,56.5,18.4,91.3
			c1.4,3.9,5.6,6,9.6,4.6c3.9-1.4,6-5.6,4.6-9.6c-11.6-33.2-17.5-62.2-17.5-86.3c0-69.8,31.3-128.9,74.2-147.8
			c-5,8.2-9.5,18.6-13.4,31.2c-9.8,31.2-15.1,72.6-15.1,116.5c0,79.4,26.7,182.9,35.5,214.7h-1.1c-7.1-11.5-30.4-50.2-49.9-96.1
			c-1.6-3.8-6-5.6-9.8-4c-3.8,1.6-5.6,6-4,9.8c13.2,31,28,58.8,38.7,77.5C90.2,334.7,15,239.9,15,169.1L15,169.1z M203,398.9v35.5
			h-65.8v-35.5H203z M203,494.4c0,1.4-1.2,2.6-2.6,2.6h-60.6c-1.4,0-2.6-1.2-2.6-2.6v-45H203V494.4z M273.8,169.1
			c0,81.4-67,193.7-80,214.7h-1.1c8.8-31.9,35.5-135.4,35.5-214.7c0-13-0.5-26-1.4-38.6c-0.3-4.1-3.9-7.2-8-6.9
			c-4.1,0.3-7.2,3.9-6.9,8c0.9,12.2,1.4,24.8,1.4,37.4c0,80.2-29,189.4-36.1,214.7h-13.9c-7-25.3-36.1-134.6-36.1-214.7
			c0-95.5,25-154.1,43-154.1c11.9,0,28.7,25.8,37.7,82.5c0.6,4.1,4.5,6.9,8.6,6.2c4.1-0.6,6.9-4.5,6.2-8.6c-4.3-27-10.8-50-19-66.3
			c-1.3-2.7-2.7-5.1-4.1-7.5C242.4,40.3,273.8,99.3,273.8,169.1L273.8,169.1z"/>
	</g>
</g>
</svg>
