<?xml version="1.0" encoding="utf-8"?>
<!-- Generator: Adobe Illustrator 25.1.0, SVG Export Plug-In . SVG Version: 6.00 Build 0)  -->
<svg version="1.1" id="Calque_1" xmlns="http://www.w3.org/2000/svg" xmlns:xlink="http://www.w3.org/1999/xlink" x="0px" y="0px"
	 viewBox="0 0 279.5 383.8" style="enable-background:new 0 0 279.5 383.8;" xml:space="preserve">
<style type="text/css">
	.st0{fill:#FFFFFF;}
</style>
<g>
	<path class="st0" d="M142.8,0c57.7,0,112.2,39.8,130.6,97.7c10.3,32.5,7.8,63.9-8.7,94.2c-20.8,38.3-48.1,71.5-78.1,102.7
		c-12.8,13.3-26.3,26-39.6,38.9c-5.5,5.3-8.5,5.3-14.1,0.1c-36.3-33.6-70.5-69.1-98.5-110c-13-19-24.7-38.7-30.9-61.2
		c-4.8-17.5-4.3-35.1-0.1-52.4c10.9-45.7,38-78.5,80.7-98.2C101.7,3.6,120.5,0.3,142.8,0z M139.3,289.9c0.4,0,0.8,0,1.2,0
		c1-2.7,2.3-5.3,3-8.1c7.4-30.2,15-60.4,22-90.7c7.8-33.8,9.5-67.8,2.3-102c-4.3-20.4-11.3-39.7-22.7-57.2c-3.9-6-6.4-6.2-10.1,0
		c-5.4,9.1-10.6,18.5-14.4,28.4c-14.9,39.2-16.9,79.7-8.2,120.4c7.3,34.5,16.3,68.6,24.5,102.9C137.4,285.8,138.5,287.8,139.3,289.9
		z M95.1,41.1c-1.3,0.1-1.8,0-2.2,0.1c-1.1,0.5-2.1,1-3.1,1.6C74.9,51.7,61.2,62,51.5,76.6c-21.7,32.5-28.2,66.1-8.2,102.3
		c12.1,21.9,26.6,41.8,42.4,61c7.2,8.7,14.8,17.2,22.2,25.8c0.4-0.2,0.9-0.3,1.3-0.5C76.1,192.4,62.6,118.4,95.1,41.1z M184.4,40.4
		c0.5,2.3,0.6,3.3,1,4.1c9.3,18.8,13.5,38.9,15.9,59.5c2.1,18.1,3.1,36.2,0.9,54.3c-3.6,30.1-12.3,58.9-23.2,87.1
		c-2.4,6.3-4.9,12.6-7.4,18.9c1.9-1.1,3.2-2.5,4.5-3.9c23.7-25.9,45.3-53.2,61.9-84.4c13.2-24.9,13.3-50,3.4-75.7
		c-10-25.8-28.6-44.1-52-58C188.2,41.6,186.8,41.3,184.4,40.4z"/>
	<path class="st0" d="M141.8,354c8.5,0,17-0.1,25.5,0c8.7,0.1,15.2,6.3,15.4,14.4c0.2,8.1-6,15-14.7,15.2c-17.5,0.3-35,0.3-52.5,0
		c-8.7-0.1-14.9-7.1-14.7-15.2c0.2-8.2,6.7-14.3,15.4-14.4c0.2,0,0.3,0,0.5,0C125.1,354,133.4,354,141.8,354z"/>
</g>
</svg>
