<?xml version="1.0" encoding="utf-8"?>
<!-- Generator: Adobe Illustrator 25.1.0, SVG Export Plug-In . SVG Version: 6.00 Build 0)  -->
<svg version="1.1" id="Calque_1" xmlns="http://www.w3.org/2000/svg" xmlns:xlink="http://www.w3.org/1999/xlink" x="0px" y="0px"
	 viewBox="0 0 955.45 906.22" style="enable-background:new 0 0 955.45 906.22;" xml:space="preserve">
<style type="text/css">
	.st0{fill:#FFFFFF;}
	.st1{fill:none;}
</style>
<g>
	<g>
		<g>
			<path class="st0" d="M536.22,185.73c1.5,0.04,3,0.02,4.5,0.15c2.35,0.21,4.34-2.34,6.22-5.24c1.16-1.71,2.1-4.17,1.72-8.81
				c-2.21-20.72-9.07-40.89-19.72-58.72c-3.25-5.35-6.78-10.57-10.69-15.47c-1.88-2.51-3.96-4.85-5.96-7.26
				c-1.01-1.19-2.09-2.32-3.13-3.48c-1.04-1.16-2.07-2.33-3.17-3.43c-4.55-4.94-10.09-9.25-14.99-12.48
				c-8.82-5.63-17.79-10.81-27.35-14.83c-10.66-4.54-21.8-8.36-33.35-9.93c-0.99-0.13-1.96-0.26-2.94-0.36
				c-0.98-0.06-1.96-0.13-2.94-0.19c-1.97-0.12-3.95-0.34-6.03-0.51c-7.71-0.91-15.51-1.03-23.29-0.56
				c-7.77,0.48-15.55,1.56-23.14,3.45c-22.2,5.34-42.96,16.37-59.99,31.48c-1.78,1.49-3.59,2.99-5.22,4.61
				c-7.87,7.99-14.92,16.72-21.04,26.1c-1.59,2.31-2.94,4.77-4.38,7.17c-0.74,1.19-1.34,2.46-2.01,3.69
				c-0.65,1.24-1.33,2.47-1.94,3.73c-2.41,5.06-4.67,10.22-6.39,15.57c-3.01,8.95-5.5,18.06-7.02,27.41
				c-1.52,9.33-2.05,18.89-1.09,28.42c1.13,11.06,2.5,22.41,6.17,32.89c3.14,8.93,6.8,17.64,11.26,25.95
				c4.46,8.3,9.72,16.2,15.94,23.31l3.2,3.58c1.07,1.19,2.21,2.32,3.32,3.48l1.66,1.74c0.56,0.58,1.15,1.12,1.72,1.68l3.46,3.36
				c4.76,4.32,9.66,8.54,14.89,12.4c6.81,5.06,14.36,9.13,22.2,12.33c7.85,3.2,16,5.55,24.21,7.32c8.25,1.79,16.57,2.93,24.85,4.3
				c2.75,0.51,4.91,0.51,6.47,0.22c1.56-0.29,2.53-0.93,2.95-1.94c0.9-2.16,1.04-4.39,0.15-6.64c-1.61-4.04-3.06-8.09-4.09-12.14
				c-0.34-1.34-0.44-2.02-1.2-2.37c-0.76-0.36-2.17-0.5-5.11-0.7c-0.98-0.05-1.95-0.12-2.92-0.26c-1.3-0.18-2.6-0.34-3.9-0.47
				c-1.29-0.19-2.58-0.37-3.87-0.56c-2.6-0.29-5.14-0.84-7.73-1.27c-5.1-1.09-10.23-2.38-15.07-4.61c-0.94-0.43-1.93-0.78-2.88-1.22
				c-0.96-0.43-1.93-0.83-2.91-1.19c-1.97-0.68-3.87-1.42-5.74-1.86c-0.72-0.18-1.43-0.38-2.1-0.65c-0.66-0.28-1.31-0.6-1.94-0.94
				c-1.26-0.69-2.54-1.38-3.79-2.18c-1.36-0.86-2.7-1.79-4.03-2.73c-1.3-0.99-2.58-2.01-3.89-2.94c-1.33-0.92-2.57-1.93-3.93-2.72
				c-0.67-0.41-1.37-0.78-2.07-1.13c-0.68-0.37-1.39-0.7-2.12-0.99c-0.41-0.16-1.29-0.95-1.56-1.38c-0.8-1.23-1.71-2.17-2.75-2.95
				c-1.02-0.8-2.15-1.43-3.14-2.27c-1.31-1.12-2.62-2.21-3.9-3.38c-1.24-1.21-2.43-2.51-3.57-3.95
				c-6.16-8.09-11.36-16.84-16.25-25.68c-3.12-5.81-4.95-12.07-6.37-18.32l-1.01-4.7c-0.27-1.58-0.56-3.16-0.89-4.73l-0.25-1.18
				l-0.2-1.19c-0.14-0.79-0.29-1.58-0.46-2.37c-0.17-0.79-0.34-1.58-0.54-2.37c-0.15-0.8-0.32-1.6-0.5-2.4
				c-0.14-0.62-0.13-1.56-0.02-2.1c0.26-1.37,0.48-2.78,0.58-4.21c0.11-1.43,0.04-2.87,0.01-4.32c-0.03-2.91-0.42-5.86-0.5-8.69
				c-0.35-5.36-0.63-10.39,1.4-15.56c0.41-0.92,0.78-2.19,1.05-3.48c0.26-1.29,0.42-2.6,0.46-3.59c0.06-1.91,0.36-3.64,0.87-5.28
				c0.54-1.64,1.17-3.23,1.71-4.94c2.7-7.9,6.63-15.32,9.28-23.15c0.36-1,0.87-1.74,1.53-2.23c1.4-1.08,2.63-2.65,3.6-4.29
				c0.49-0.81,0.89-1.66,1.29-2.4c0.4-0.75,0.75-1.44,1.03-2.01c0.43-0.85,0.9-1.66,1.39-2.43c0.5-0.77,1.08-1.47,1.61-2.17
				c1.1-1.39,2.12-2.76,3.05-4.1c1.16-1.72,2.38-2.76,3.68-3.61c1.29-0.86,2.55-1.64,3.67-3.01c5.79-6.75,12.68-12.71,20.55-17.23
				c2.19-1.33,4.54-2.37,6.78-3.61c1.12-0.61,2.28-1.16,3.39-1.81c1.12-0.63,2.19-1.37,3.29-2.06c1.37-0.9,3.17-1.4,4.68-1.51
				c1.56-0.06,3.17-0.68,4.79-1.32c6.09-2.22,12.35-3.93,18.7-5.18c6.35-1.26,12.82-1.89,19.29-2.19l2.62-0.09
				c0.87-0.04,1.75-0.07,2.63-0.04l5.25,0.06l5.24,0.33c1.75,0.13,3.48,0.39,5.22,0.58c6.93,0.94,13.78,2.58,20.3,5.09
				c1.07,0.43,2.62,1.22,3.35,0.96c2.12-0.76,3.96,0.58,5.99,1.79c1.8,1.16,3.97,1.98,5.85,3c1.06,0.65,2.16,1.22,3.27,1.74
				l1.68,0.76l1.65,0.82c1.1,0.55,2.19,1.1,3.25,1.71c1.05,0.61,2.02,1.35,2.95,2.14c5.49,4.76,11.29,9.25,16.68,14.27l2.54,2.41
				c0.82,0.83,1.61,1.69,2.41,2.53c1.64,1.66,3.1,3.47,4.61,5.24c0.77,0.87,1.46,1.81,2.17,2.73l2.12,2.77l1.97,2.87
				c0.65,0.96,1.34,1.9,1.93,2.9l2.18,3.49c0.71,1.17,1.35,2.38,2.04,3.57l1.02,1.78l0.93,1.83c0.61,1.22,1.26,2.43,1.85,3.67
				c2.32,4.96,4.36,10.06,5.96,15.29c2.65,8.62,4.79,17.39,5.55,26.41c0.11,1.53,0.25,2.76,0.36,3.76c0.09,1,0.22,1.78,0.43,2.41
				c0.42,1.25,1.15,1.91,2.5,2.61C530.94,186.69,533.58,186.01,536.22,185.73z"/>
		</g>
		<g>
			<g>
				<path class="st0" d="M885.51,840.1c0.07-1.5,0.04-3,0.22-4.49c0.28-2.34-3.07-4.39-6.65-6.35c-2.12-1.16-5.13-2.33-10.94-2.29
					c-26.06,0.17-52.12,0.33-78.19,0.39c-15.72,0.03-31.55,0.16-47.11-0.34c-8.39-0.27-17.1-0.17-24.46,0.22
					c-13.11,0.7-26.13,0.73-39.18,0.95c-14.64,0.25-29.35-0.24-44.03,0.2c-5.03,0.15-9.83,0.59-15.14,0.49
					c-19.68-0.35-39.41-0.6-59.13-0.65c-28.78-0.08-57.57,0.05-86.36,0.07c-2.93,0-5.89-0.23-8.79-0.17
					c-28.29,0.6-56.54-0.26-84.82-0.19c-23.8,0.05-47.34-1.56-71.29-0.96c-13.96,0.35-28.12-0.37-41.96,0
					c-23.67,0.64-47.23-0.25-70.87,0.11c-16.03,0.24-32.18,0.04-48.36-0.44c-21.17-0.63-42.35,0.67-63.49,1.3
					c-10.61,0.32-21.25,0.43-31.76-0.35c-6.99-0.52-10.79,0.05-11.85,2.1c-1.13,2.19-1.36,4.41-0.15,6.64
					c2.17,4,4.35,8.01,6.08,12.03c1.15,2.67,0.8,2.68,9.66,2.66c1.47,0,2.94-0.06,4.4-0.04c15.76,0.11,31.22-1.21,47.1-0.8
					c6.17,0.16,12.74-0.03,18.26-0.93c4.28-0.7,8.44-0.56,12.82-0.58c9.48-0.05,19.48,1.09,28.15-1.01
					c0.61-0.15,2.34-0.13,3.04,0.02c4.13,0.88,7.72,0.02,11.48-0.25c5-0.35,9.87-0.77,15.22-0.6c14.72,0.47,29.59,0.79,44.29,0.29
					c19.15-0.64,37.53,2.14,56.69,0.86c0.92-0.06,2.3,0.07,3.07,0.25c7.83,1.86,17.01,1.29,25.36,0.85
					c7.93-0.42,15.14-1.27,23.13,0.06c2.86,0.48,7.82,0.59,10.71,0.18c5.56-0.78,10.32-0.18,15.63-0.08
					c12.31,0.25,24.89,0.9,36.93-0.59c1.55-0.19,2.85-0.12,3.98,0.22c4.85,1.43,11.85,0.65,15.56,0.26
					c5.57-0.59,10.84-0.11,15.64-0.54c6.05-0.54,9.33,1.22,14.56,0.95c13.17-0.68,26.39-1.01,39.78-0.6
					c7.56,0.23,15.13,0.77,22.77-0.06c2.4-0.26,5.11,0.04,7.24,0.54c2.17,0.52,4.76,0.52,7.35,0.53c19.32,0.05,38.65,0.21,57.96,0.1
					c20.85-0.12,41.69-0.63,62.52,0.15c1.72,0.06,4.3,0.32,5.19-0.16c2.58-1.39,5.8-0.89,9.28-0.49c3.14,0.37,6.59,0.19,9.77,0.35
					c7.39,0.38,14.7-0.74,21.88-0.05c10.74,1.03,21.79,1.01,32.83,0.98c13.99-0.04,27.94,0.13,41.91,0.27
					c16.49,0.17,33.01,0.03,49.5,0.16c13.62,0.11,27.14-0.38,40.7-0.4c9.23-0.02,11.14-0.24,13.21-2.88
					C886.9,845.41,885.87,842.75,885.51,840.1z"/>
			</g>
			<g>
				<path class="st0" d="M882.68,832.09c-0.15-0.07-0.25-0.17-0.39-0.25l-0.1-0.06l-0.05-0.02l-0.3-0.18
					c-0.45-0.27-0.91-0.53-1.39-0.76c-5.61-2.79-10.38-6.83-15.41-10.5c-5.33-3.88-11.1-7.13-16.3-11.2
					c-3.92-3.07-8.07-5.81-11.16-10.09c-0.61-0.85-1.76-0.94-2.66-1.4c-0.36-0.18-0.96-0.26-0.05-1.72
					c2.72-4.34,5.13-8.86,8.38-12.94c1.38-1.73,2.22-2.16,2.73-1.73c4.17,3.55,8.36,7.06,12.46,10.72c1.88,1.68,3.14,4.29,5.41,5.35
					c4.11,1.92,7.49,4.94,11.27,7.36c3,1.92,6.23,3.5,9.4,5.17c1.58,0.84,3.15,1.69,4.67,2.63c0.76,0.47,1.5,0.96,2.23,1.47
					c0.36,0.26,0.72,0.52,1.08,0.79l0.53,0.41l0.91,0.68c3.41,2.56,6.65,5.04,9.87,7.4c3.23,2.36,6.45,4.61,10.03,6.84l1.8,1.11
					c-3.58,3.31-7.05,6.82-11.14,10.32l-5.32,4.62l-2.65,2.35l-1.33,1.19l-0.76,0.71l-5.76,5.52c-3.52,3.39-7.3,6.47-11.65,8.9
					c-4.25,2.39-8.33,5.05-10.53,9.88c-0.27,0.59-1.6-0.07-1.12,1.35l0.02-0.01l0.07,0.7l0.03,0.01c-2.13,0.47-2.65,2.8-4.1,4.06
					c-1.5,1.31-2.79,2.86-4.23,4.25c-0.72,0.69-1.47,1.34-2.31,1.9c-0.42,0.28-0.86,0.54-1.31,0.76c-0.29,0.08-0.54,0.09-0.8,0.04
					c-0.23-0.06-0.4-0.12-0.48-0.23c-0.12-0.04-0.24-0.03-0.3,0.01c-0.12,0.09-0.04,0.32,0.31,0.51c0.27,0.14,0.04,0.15,0.01,0.19
					c-0.04,0.03,0.12,0.01,0.63,0.05c0.57,0.07,0.27,0.06-0.31-0.25c-0.6-0.29-1.57-0.76-2.49-1.29c-0.7-0.4-1.29-0.68-1.86-0.85
					c-0.18-0.06-0.36-0.1-0.52-0.13l-0.24-0.04l-0.13-0.02l-0.25-0.06c-0.33-0.08-0.66-0.14-1-0.2c-0.38-0.07-0.58-0.08-1.25-0.21
					c-1.17-0.23-2.69-0.54-4.25-0.92c-0.85-0.21-1.37-0.32-2.07-0.53c-0.67-0.19-1.37-0.43-2.08-0.73c-0.14-0.06-0.3-0.12-0.49-0.18
					c-0.17-0.05-0.48-0.14-0.61-0.15c-0.32-0.04-0.6-0.02-0.84,0.05c-0.47,0.13-0.84,0.56-1.05,0.92c-0.46,0.91-0.41,1.57-0.54,1.92
					c-0.25,0.67-0.49,0.74-0.73,0.52c-0.24-0.23-0.48-0.81-0.61-1.67c-0.15-0.85-0.15-2.01-0.02-3.1c0.12-1.1,0.39-2.22,0.78-3.3
					c0.79-2.17,2.04-4.16,3.64-5.96c0.74-0.83,1.45-1.51,2.11-2.11l1.43-1.25c3.58-3.08,7.38-5.91,11.06-8.88
					c5.02-4.06,9.45-8.82,14.41-12.96c4.84-4.04,10.58-7.04,14.83-11.75c0.32-0.35,0.64-0.7,0.97-1.03l0.5-0.5l0.11-0.11l0-0.01
					l-0.01-0.02c-0.01-0.05-0.01-0.07,0.04-0.07c0.09,0,0.34,0.08,0.92,0.1c0.75,0.01,1.31-0.21,1.87-0.46
					c-0.01-0.14-0.05-0.29-0.05-0.49c0-0.16-0.01-0.37-0.23-0.51C883.74,831.89,883.32,831.83,882.68,832.09L882.68,832.09z"/>
			</g>
		</g>
		<g>
			<path class="st0" d="M493.42,837.78c-0.09,1.5-0.05,3-0.31,4.5c-0.42,2.35,4.68,4.28,10.31,6.09c3.33,1.17,8.07,1.87,17.13,1.17
				c40.51-4.15,79.97-17.42,114.89-38.21l1.99-1.15c0.66-0.39,1.29-0.82,1.94-1.23l3.87-2.49l3.87-2.49l1.93-1.25l1.88-1.34
				l7.5-5.34c1.27-0.87,2.48-1.81,3.68-2.77l3.62-2.84c4.91-3.68,9.47-7.79,14.14-11.73c2.31-2,4.49-4.14,6.74-6.19l3.35-3.1
				c1.13-1.02,2.16-2.14,3.24-3.2c2.31-2.32,4.62-4.68,6.91-7.06c2.18-2.47,4.33-4.96,6.44-7.42c2.15-2.42,4.06-4.98,5.92-7.45
				c0.93-1.24,1.84-2.46,2.74-3.66c0.89-1.21,1.79-2.37,2.56-3.58c11.56-16.88,21.76-34.47,29.83-53.11l1.72-3.91
				c0.59-1.3,1.05-2.65,1.59-3.97l3.12-7.96c0.55-1.32,0.99-2.67,1.45-4.02l1.38-4.05l1.38-4.05c0.47-1.35,0.93-2.7,1.3-4.08
				l2.36-8.23c0.37-1.38,0.82-2.74,1.13-4.13l0.96-4.18l1.87-8.36c0.49-2.81,0.94-5.63,1.39-8.45c0.3-1.93,0.6-3.84,0.85-5.75
				c0.18-1.92,0.37-3.83,0.55-5.76c0.35-3.85,0.88-7.74,1.15-11.85c1.62-15.18,1.71-30.53,0.69-45.79
				c-1.05-15.26-3.24-30.51-6.97-45.38c-0.57-2.74-1.37-5.42-2.13-8.12l-2.29-8.08l-2.68-7.96c-0.9-2.65-1.75-5.32-2.83-7.9
				l-3.08-7.81l-0.77-1.95c-0.27-0.64-0.57-1.28-0.86-1.92l-1.73-3.82c-1.17-2.54-2.27-5.12-3.51-7.63l-3.83-7.47
				c-10.29-19.89-23.28-38.31-38.02-55.11c-2.91-3.5-6.03-6.89-9.16-10.14c-15.46-15.65-32.69-29.47-51.16-41.37l-3.46-2.24
				c-1.14-0.77-2.36-1.41-3.54-2.12l-7.12-4.16l-1.78-1.04l-1.83-0.95l-3.66-1.9c-2.45-1.25-4.86-2.58-7.34-3.76l-7.5-3.44
				l-3.75-1.71c-1.27-0.53-2.55-1.03-3.83-1.54l-7.67-3.04c-1.27-0.53-2.58-0.95-3.88-1.4l-3.91-1.32
				c-17.55-5.92-35.49-10.45-53.8-13.11c-18.3-2.66-36.95-3.46-55.58-1.87c-21.68,1.87-43.71,5.22-64.26,12.05
				c-17.55,5.84-34.57,13.06-50.77,21.86c-16.19,8.79-31.54,19.18-45.54,31.21c-2.35,2.07-4.7,4.13-7.05,6.2
				c-2.34,2.08-4.54,4.32-6.83,6.46l-3.4,3.25c-1.13,1.09-2.18,2.26-3.28,3.38l-6.54,6.8l-6.24,7.09c-1.03,1.19-2.11,2.34-3.1,3.57
				l-2.97,3.68l-2.98,3.68c-0.98,1.23-2.02,2.43-2.93,3.72l-5.63,7.63c-9.63,13.47-17.68,28.07-24.21,43.26
				c-6.54,15.2-11.56,30.99-15.33,47.01c-3.8,16.09-6.16,32.47-8.1,48.73c-0.17,1.35-0.31,2.63-0.43,3.83
				c-0.06,0.6-0.11,1.18-0.16,1.75c-0.02,0.57-0.03,1.11-0.05,1.64c-0.04,2.11,0,3.93,0.12,5.46c0.26,3.06,0.86,4.95,1.87,5.78
				c2.14,1.76,4.36,2.08,6.63,0.27c4.09-3.27,8.17-6.38,12.26-8.72c1.35-0.78,2.03-1.03,2.41-2.68c0.4-1.65,0.68-4.67,1.13-10.98
				c0.09-1.04,0.11-2.1,0.24-3.14l0.38-3.12c0.37-2.79,0.71-5.58,1.04-8.36c0.38-2.77,0.9-5.53,1.32-8.29
				c0.75-5.55,2.06-10.98,3.14-16.47c2.63-10.86,5.63-21.73,10.17-32.17c0.42-1.02,0.84-2.05,1.26-3.09c0.41-1.04,0.82-2.08,1.3-3.1
				c0.92-2.05,1.81-4.12,2.67-6.17c1.61-4.15,3.46-8.07,4.84-11.82c0.55-1.44,1.11-2.88,1.77-4.26c0.69-1.36,1.4-2.71,2.14-4.05
				c0.75-1.33,1.51-2.67,2.27-4.01c0.77-1.34,1.53-2.7,2.41-4.01c1.84-2.88,3.76-5.76,5.68-8.64c2.05-2.8,4.13-5.57,6.12-8.37
				c0.5-0.7,1-1.4,1.49-2.09c0.52-0.68,1.03-1.35,1.55-2.03c1.02-1.35,2.01-2.71,2.96-4.08c0.96-1.36,1.85-2.75,2.75-4.11
				c0.93-1.33,1.81-2.67,2.64-4.03c0.47-0.76,2.12-2.64,2.89-3.31c2.24-2.01,4.22-3.97,5.99-6.04c1.8-2.04,3.37-4.22,5.23-6.2
				c2.5-2.62,4.96-5.23,7.51-7.84c2.64-2.51,5.43-4.96,8.4-7.44c1.01-0.87,2.08-1.68,3.16-2.47l3.21-2.41l3.2-2.42l1.6-1.21
				l1.65-1.14c4.43-3.01,8.76-6.18,13.35-8.94c2.27-1.41,4.5-2.9,6.8-4.27l6.95-4.02c1.16-0.67,2.3-1.37,3.47-2.01l3.54-1.87
				c2.35-1.26,4.7-2.52,7.05-3.78c12.4-6.26,25.36-10.66,38.45-14.16c3.29-0.82,6.58-1.65,9.87-2.47c3.33-0.67,6.65-1.37,9.97-2.1
				l2.49-0.56l2.52-0.44c1.68-0.31,3.36-0.62,5.04-0.94c1.68-0.34,3.36-0.68,5.05-1.02c1.7-0.28,3.4-0.56,5.11-0.85
				c1.32-0.23,3.3-0.35,4.42-0.31c1.43,0.07,2.87,0.02,4.35,0.08c1.48,0.05,2.97,0.07,4.48,0.05c1.51-0.01,3.03-0.06,4.56-0.12
				c1.53-0.04,3.07-0.21,4.62-0.2c3.1-0.06,6.22-0.19,9.32-0.36c0.77-0.04,1.55-0.09,2.32-0.13c0.77-0.04,1.54-0.02,2.31-0.04
				c1.53-0.02,3.05-0.03,4.55-0.05c11.41-0.27,21.91,0.07,33.12,2.92c1.99,0.6,4.73,1.24,7.49,1.77c1.38,0.26,2.77,0.5,4.07,0.69
				c1.3,0.18,2.5,0.45,3.53,0.56c1.99,0.26,3.89,0.59,5.74,0.96c0.93,0.19,1.84,0.38,2.74,0.59l1.35,0.32l1.32,0.39
				c3.51,1.07,6.95,2.22,10.6,3.31c16.87,5.47,33.14,13.23,48.99,20.36c2.03,0.95,3.62,1.95,4.86,3.04
				c0.67,0.59,1.39,1.17,2.16,1.74c0.39,0.28,0.78,0.56,1.18,0.85c0.39,0.3,0.79,0.6,1.2,0.9c1.62,1.19,3.35,2.33,5.08,3.39
				c1.71,1.08,3.46,2.01,4.98,2.98c1.54,0.94,2.93,1.8,4.07,2.5c1.72,1.04,3.38,2.12,4.99,3.21c1.6,1.11,3.08,2.33,4.57,3.48
				c2.95,2.34,5.86,4.5,8.56,6.67c1.74,1.33,3.19,2.6,4.49,3.83c1.3,1.23,2.44,2.42,3.47,3.67c2.09,2.47,4.04,4.84,6.86,7.34
				c13.86,12.89,26.16,27.69,36.16,44.17c2.94,4.58,5.34,9.48,8.04,14.21c0.69,1.17,1.28,2.41,1.91,3.62
				c0.63,1.21,1.26,2.42,1.91,3.62c1.28,2.42,2.73,4.75,3.99,7.2c1.65,3.04,3.01,6.71,3.78,9.71c0.66,3.09,2.02,6.55,3.38,10.01
				c4.77,13,8.49,26.37,11.19,39.94l1.81,10.22c0.49,3.42,0.88,6.86,1.33,10.29c0.52,3.42,0.66,6.89,0.96,10.33l0.41,5.17
				c0.13,1.73,0.12,3.46,0.18,5.19l0.17,5.6l0.09,2.8c0.02,0.93-0.03,1.87-0.04,2.8l-0.22,11.21l-0.78,11.19
				c-0.08,1.87-0.4,3.71-0.6,5.57l-0.68,5.56c-2.05,14.8-5.47,29.42-10.43,43.48c-0.85,2.32-2.27,5.73-2.23,7.1
				c0.1,2-0.49,4.01-1.31,6.1c-0.83,2.09-1.92,4.25-3.02,6.49c-0.47,1.02-1.02,2.04-1.54,3.09c-0.52,1.05-1.02,2.12-1.52,3.2
				c-1,2.15-1.96,4.32-2.99,6.35c-1.3,2.31-2.5,4.66-3.66,7.02c-0.57,1.19-1.15,2.37-1.72,3.55c-0.59,1.17-1.24,2.31-1.85,3.47
				c-1.24,2.3-2.49,4.6-3.78,6.85c-1.31,2.24-2.83,4.35-4.34,6.44c-9.19,12.38-18.87,24.85-29.65,36.38l-5.16,5.43
				c-1.77,1.76-3.61,3.45-5.41,5.18c-3.55,3.51-7.4,6.69-11.18,9.94c-1.86,1.66-3.86,3.15-5.83,4.69l-5.91,4.58l-6.13,4.29
				c-2.05,1.42-4.05,2.9-6.19,4.19l-7.45,4.72c-2.51,1.53-5.1,2.93-7.64,4.41l-3.83,2.2l-3.93,2.01c-2.63,1.32-5.22,2.72-7.87,3.99
				c-5.38,2.39-10.68,4.96-16.21,6.99l-4.11,1.61l-2.06,0.8l-2.09,0.7l-8.37,2.79c-1.14,0.41-2.32,0.72-3.48,1.05l-3.5,0.99
				c-2.33,0.65-4.65,1.36-6.99,1.99l-7.06,1.69c-2.35,0.55-4.69,1.2-7.07,1.6l-7.12,1.36c-1.19,0.22-2.37,0.47-3.57,0.66l-3.59,0.49
				l-7.19,0.98c-0.6,0.08-1.2,0.17-1.8,0.23l-1.81,0.14l-3.62,0.28c-3.29,0.27-5.92,0.49-8.07,0.67c-2.15,0.12-3.82,0.27-5.17,0.5
				c-2.7,0.46-4.11,1.21-5.6,2.57C491.4,832.53,492.87,835.14,493.42,837.78z"/>
		</g>
		<g>
			<path class="st0" d="M223.93,565.17c0.12-0.23,0.38-0.34,0.34-0.71l-0.02-0.18l0-0.04c0-0.01-0.01-0.01,0-0.03l0.06-0.1
				l0.26-0.41c0.35-0.54,0.71-1.06,1.09-1.58c0.75-1.03,1.55-2.02,2.38-3c1.66-1.94,3.42-3.81,5.09-5.74
				c3.54-4.1,6.47-8.68,10.19-12.64c2.8-2.98,5.29-6.21,9.24-8.29c0.78-0.41,0.85-1.4,1.26-2.12c0.16-0.29,0.22-0.81,1.61,0.22
				c4.12,3.04,8.4,5.85,12.28,9.31c1.65,1.47,2.06,2.28,1.67,2.66c-3.25,3.13-6.46,6.28-9.81,9.33c-1.54,1.4-3.96,2.12-4.91,3.95
				c-1.72,3.33-4.49,5.84-6.68,8.8c-1.74,2.35-3.16,4.95-4.67,7.48c-0.75,1.27-1.53,2.51-2.38,3.71l-0.69,0.93l-1.22,1.55
				c-0.82,1.02-1.67,2.02-2.52,2.98c-2.3,2.56-4.52,4.98-6.64,7.42c-2.13,2.45-4.15,4.92-6.2,7.75l-1.01,1.43
				c-2.5-3.07-5.17-5.98-7.79-9.53c-4.33-5.85-10.3-13.42-12.25-15.52c-2.61-3.05-4.89-6.34-6.49-10.14
				c-1.57-3.72-3.42-7.28-7.57-9.13c-0.5-0.22,0.31-1.42-1.08-0.96l0.01,0.01l-0.66,0.08l-0.01,0.03c-0.11-1.88-2.2-2.29-3.15-3.55
				c-0.99-1.3-2.23-2.41-3.3-3.66c-0.53-0.62-1.02-1.28-1.42-2.01c-0.19-0.36-0.37-0.75-0.5-1.15c0-0.22,0.06-0.4,0.19-0.59
				c0.12-0.17,0.33-0.21,0.35-0.36c0.05-0.12,0.06-0.22,0.03-0.28c-0.05-0.12-0.27-0.04-0.49,0.27c-0.17,0.25-0.13,0.02-0.13-0.02
				c0-0.06,0.01,0.08-0.16,0.58c-0.22,0.58-0.13,0.28,0.32-0.33c0.43-0.62,1.12-1.62,1.83-2.56c0.54-0.71,0.95-1.32,1.29-1.94
				c0.11-0.2,0.2-0.38,0.29-0.56l0.12-0.27l0.06-0.14l0.11-0.23c0.29-0.62,0.54-1.22,0.81-1.92c0.27-0.7,0.54-1.44,0.89-2.24
				c0.15-0.34,0.45-0.98,0.69-1.42c0.25-0.47,0.48-0.87,0.69-1.13c0.18-0.28,0.27-0.43,0.4-0.75c0.15-0.37,0.33-0.85,0.54-1.44
				c0.21-0.63,0.43-1.31,0.68-2.06c0.06-0.19,0.12-0.39,0.19-0.6c0.06-0.2,0.16-0.47,0.1-0.44c-0.05-0.08-0.11-0.15-0.17-0.22
				c-0.58-0.57-1.21-0.69-1.52-0.89c-0.62-0.4-0.83-0.66-0.76-0.87c0.07-0.2,0.44-0.33,1.08-0.35c0.63-0.03,1.54,0.1,2.39,0.31
				c0.86,0.21,1.74,0.53,2.58,0.93c0.85,0.41,1.67,0.9,2.43,1.47c0.78,0.58,1.46,1.15,2.22,1.93c0.7,0.72,1.27,1.4,1.75,2.01
				l0.96,1.26c2.32,3.11,4.36,6.42,6.56,9.62c3,4.37,6.75,8.2,9.84,12.5c1.51,2.1,2.74,4.41,4.06,6.65
				c0.66,1.12,1.34,2.22,2.09,3.28c0.38,0.53,0.77,1.04,1.18,1.54c0.19,0.23,0.45,0.53,0.61,0.69c0.04-0.01,0.09-0.02,0.14-0.04
				c0.48-0.21,0.25-0.33,0.16,0.85c-0.05,0.76,0.09,1.29,0.26,1.81c0.11,0.04,0.24,0.04,0.4,0.11c0.13,0.05,0.3,0.11,0.43-0.07
				C224.03,566.27,224.11,565.87,223.93,565.17L223.93,565.17z"/>
		</g>
		<g>
			<path class="st0" d="M539.48,185.28c0.08-0.25,0.32-0.4,0.22-0.76l-0.05-0.17l-0.01-0.04c0-0.01-0.01,0,0-0.03l0.05-0.11
				l0.19-0.44c0.25-0.59,0.53-1.17,0.81-1.74c0.57-1.14,1.2-2.25,1.85-3.35c1.31-2.19,2.74-4.32,4.06-6.51
				c2.81-4.63,4.94-9.63,7.95-14.15c2.27-3.4,4.19-7,7.74-9.71c0.7-0.53,0.61-1.53,0.89-2.3c0.11-0.31,0.08-0.83,1.62-0.05
				c4.57,2.32,9.25,4.37,13.66,7.15c1.87,1.18,2.41,1.91,2.09,2.35c-2.69,3.62-5.33,7.27-8.12,10.83c-1.28,1.63-3.56,2.74-4.19,4.71
				c-1.14,3.57-3.46,6.5-5.13,9.78c-1.33,2.61-2.3,5.41-3.36,8.15c-0.53,1.37-1.09,2.73-1.73,4.05l-0.52,1.03l-0.95,1.73
				c-0.64,1.15-1.31,2.27-2,3.35c-1.84,2.9-3.63,5.66-5.32,8.42c-1.69,2.77-3.28,5.54-4.82,8.67l-0.76,1.58
				c-2.97-2.61-6.09-5.04-9.26-8.11c-5.24-5.06-12.38-11.53-14.65-13.28c-3.08-2.58-5.87-5.44-8.08-8.92
				c-2.16-3.41-4.58-6.62-8.98-7.75c-0.53-0.14,0.07-1.45-1.23-0.77l0.01,0.01l-0.64,0.19l0,0.03c-0.42-1.83-2.55-1.9-3.69-2.98
				c-1.19-1.12-2.6-2.01-3.86-3.06c-0.63-0.52-1.22-1.09-1.73-1.74c-0.25-0.32-0.49-0.68-0.69-1.05c-0.04-0.22-0.01-0.41,0.09-0.61
				c0.09-0.19,0.29-0.26,0.29-0.41c0.03-0.13,0.02-0.23-0.01-0.28c-0.07-0.1-0.27,0-0.44,0.35c-0.13,0.27-0.12,0.04-0.13,0
				c-0.01-0.06,0.02,0.07-0.06,0.6c-0.12,0.61-0.08,0.3,0.26-0.38c0.32-0.69,0.84-1.78,1.38-2.83c0.42-0.79,0.72-1.46,0.95-2.12
				c0.07-0.21,0.14-0.41,0.19-0.6l0.08-0.28l0.03-0.15l0.07-0.25c0.18-0.66,0.33-1.3,0.48-2.03c0.15-0.74,0.29-1.51,0.51-2.36
				c0.09-0.36,0.28-1.04,0.44-1.51c0.17-0.5,0.33-0.94,0.49-1.23c0.13-0.31,0.19-0.47,0.27-0.81c0.09-0.39,0.19-0.89,0.29-1.51
				c0.1-0.66,0.21-1.36,0.33-2.15c0.03-0.2,0.06-0.41,0.09-0.62c0.03-0.2,0.08-0.49,0.02-0.45c-0.06-0.07-0.13-0.13-0.21-0.18
				c-0.66-0.47-1.3-0.48-1.64-0.63c-0.68-0.3-0.93-0.52-0.89-0.73c0.04-0.21,0.38-0.4,1.01-0.52c0.62-0.13,1.54-0.16,2.4-0.09
				c0.88,0.07,1.8,0.23,2.7,0.49c0.91,0.26,1.79,0.62,2.64,1.05c0.87,0.44,1.63,0.89,2.51,1.54c0.81,0.59,1.48,1.17,2.06,1.7
				l1.16,1.08c2.8,2.68,5.37,5.61,8.07,8.4c3.69,3.81,8.02,6.96,11.78,10.7c1.84,1.83,3.43,3.9,5.1,5.89c0.84,1,1.69,1.97,2.61,2.89
				c0.46,0.46,0.93,0.9,1.42,1.32c0.23,0.19,0.53,0.45,0.72,0.58c0.04-0.01,0.08-0.03,0.13-0.06c0.44-0.29,0.19-0.36,0.29,0.81
				c0.07,0.76,0.31,1.25,0.56,1.74c0.12,0.02,0.24,0,0.41,0.04c0.14,0.03,0.31,0.06,0.41-0.14
				C539.76,186.35,539.77,185.94,539.48,185.28L539.48,185.28z"/>
		</g>
		<g>
			<g>
				<path class="st1" d="M610.2,583.69l0.08-24.03c0.03-7.44-5.99-13.5-13.43-13.52l-19.87-0.07c-1.72-5.97-4.08-11.74-7.03-17.23
					l14.07-13.97c5.28-5.24,5.31-13.78,0.07-19.06l-16.94-17.05c-5.24-5.28-13.78-5.31-19.06-0.07l-14.15,14.05
					c-5.18-2.8-10.62-5.08-16.23-6.79l0.07-19.42c0.03-7.44-5.99-13.5-13.43-13.52l-24.03-0.08c-7.44-0.03-13.5,5.99-13.52,13.43
					l-0.07,19.43c-5.33,1.59-10.51,3.68-15.46,6.24l-13.62-13.71c-5.24-5.28-13.78-5.31-19.06-0.07l-17.05,16.94
					c-5.28,5.24-5.31,13.78-0.07,19.06l13.17,13.26c-2.99,5.34-5.41,10.95-7.22,16.74l-18.99-0.07c-7.44-0.03-13.5,5.99-13.52,13.43
					l-0.08,24.03c-0.03,7.44,5.99,13.5,13.43,13.52l18.63,0.06c1.81,6.26,4.31,12.3,7.47,18.03l-13.27,13.18
					c-5.28,5.24-5.31,13.78-0.07,19.06l16.94,17.05c5.24,5.28,13.78,5.31,19.06,0.07l13.71-13.62c5.3,2.79,10.88,5.04,16.66,6.7
					l-0.07,19.07c-0.03,7.44,5.99,13.5,13.43,13.52l24.03,0.08c7.44,0.03,13.5-5.99,13.52-13.43l0.07-19.81
					c5.18-1.62,10.21-3.73,15.03-6.29l14.05,14.14c5.24,5.28,13.78,5.31,19.06,0.07l17.05-16.94c5.28-5.24,5.31-13.78,0.07-19.06
					l-13.97-14.07c2.79-5.1,5.06-10.44,6.78-15.94l20.23,0.07C604.12,597.15,610.18,591.13,610.2,583.69z M544.79,570.83
					c-0.1,29.14-23.89,52.77-53.03,52.67c-29.14-0.1-52.77-23.89-52.67-53.03s23.89-52.77,53.03-52.67
					C521.27,517.9,544.89,541.69,544.79,570.83z"/>
				<g>
					<path class="st0" d="M544.3,570.6c0.6,0.03,1.2,0.01,1.8,0.09c0.94,0.12,1.7-1.25,2.41-2.79c0.21-0.46,0.42-1.01,0.55-1.77
						c0.06-0.38,0.13-0.81,0.13-1.29c-0.02-0.48-0.07-1.03-0.17-1.64c-1.46-11.07-6.31-21.61-13.59-30
						c-4.39-5.07-9.66-9.41-15.39-12.79c-1.53-0.93-3.21-1.68-4.8-2.46c-0.79-0.41-1.64-0.64-2.44-0.93
						c-0.81-0.26-1.59-0.52-2.34-0.76c-1.32-0.47-2.71-0.7-4.06-1.03c-1.36-0.29-2.7-0.69-4.08-0.83l-4.12-0.58
						c-1.38-0.11-2.77-0.13-4.15-0.2c-6.18-0.09-12.49,0.39-18.43,2.38c-1.02,0.31-1.96,0.77-2.94,1.16
						c-0.98,0.39-1.97,0.78-3.01,1.2c-7.69,3.17-14.69,8.09-20.28,14.3c-4.06,4.55-7.44,9.72-9.87,15.32
						c-2.38,5.63-3.85,11.62-4.42,17.69c-0.07,1.24-0.23,2.49-0.27,3.72c0.06,5.99,0.76,11.98,2.43,17.76
						c1.74,5.74,4.32,11.23,7.74,16.17l2.24,3.05c0.74,1.02,1.63,1.92,2.43,2.89c1.58,1.98,3.49,3.63,5.3,5.41
						c0.95,0.83,1.97,1.59,2.96,2.38l1.5,1.17c0.52,0.36,1.07,0.69,1.6,1.03c1.08,0.68,2.16,1.35,3.26,2
						c1.15,0.56,2.31,1.11,3.47,1.64c0.69,0.29,1.34,0.67,2.05,0.9l2.11,0.78c1.41,0.52,2.8,1.11,4.26,1.45
						c1.45,0.38,2.89,0.83,4.35,1.13c1.48,0.24,2.95,0.46,4.42,0.65l0.94,0.12l0.95,0.04l1.89,0.08l1.89,0.08
						c0.63,0.04,1.26,0.06,1.89,0.01c2.52-0.15,5.05-0.12,7.54-0.57c5.03-0.55,9.9-2.08,14.56-4.02
						c6.28-2.76,12.11-6.59,17.24-11.26c0.89-0.71,1.62-1.58,2.41-2.4c0.77-0.84,1.56-1.66,2.28-2.53l2.01-2.75l0.99-1.38
						c0.31-0.47,0.58-0.98,0.87-1.46l1.68-2.95c0.57-0.98,0.96-2.05,1.44-3.07c0.44-1.04,0.96-2.04,1.32-3.11l1.08-3.2l0.54-1.6
						l0.4-1.64l0.83-3.27c0.29-1.09,0.41-2.21,0.64-3.31c0.19-1.1,0.47-2.2,0.64-3.31c0.38-2.96,0.23-4.6-0.57-5.05
						c-0.85-0.48-1.74-0.56-2.65-0.09c-1.65,0.85-3.3,1.63-4.94,2.17c-0.54,0.18-0.82,0.23-0.97,0.64c-0.08,0.2-0.13,0.49-0.16,0.93
						c-0.01,0.22-0.03,0.47-0.05,0.77c-0.05,0.3-0.1,0.64-0.16,1.03l-0.23,1.55c-0.92,5.5-2.24,11-5.16,15.93
						c-0.61,0.93-1.2,1.9-1.74,2.88c-0.13,0.25-0.26,0.49-0.39,0.74c-0.14,0.23-0.29,0.46-0.43,0.69c-0.28,0.46-0.53,0.92-0.76,1.37
						c-0.35,0.7-0.77,1.35-1.22,1.98c-0.5,0.59-1.04,1.15-1.57,1.74c-0.59,0.63-1.17,1.28-1.81,1.88c-0.67,0.56-1.34,1.13-1.98,1.71
						c-1.24,1.21-2.58,2.24-3.6,3.53c-0.14,0.18-0.66,0.55-0.9,0.66c-1.44,0.56-2.41,1.47-3.53,2.29c-0.73,0.57-1.53,1-2.34,1.45
						c-0.81,0.44-1.65,0.87-2.55,1.27c-5.1,1.91-10.45,3.04-15.82,3.65c-0.88,0.07-1.75,0.12-2.63,0.16
						c-0.44,0.01-0.87,0.06-1.31,0.02l-1.3-0.11c-1.73-0.19-3.45-0.25-5.13-0.69c-1.68-0.37-3.37-0.63-5.01-1.18
						c-0.83-0.23-1.66-0.45-2.5-0.65c-0.84-0.2-1.65-0.53-2.5-0.75c-0.33-0.09-0.78-0.32-1.01-0.48c-1.23-0.78-2.52-1.64-3.92-2.32
						c-1.43-0.63-2.79-1.42-4.13-2.13c-0.63-0.35-1.29-0.63-1.87-1.01c-0.58-0.38-1.16-0.76-1.72-1.16
						c-0.56-0.4-1.12-0.82-1.65-1.27c-0.51-0.47-0.97-1.04-1.42-1.62c-0.62-0.86-1.97-2.03-2.73-2.74
						c-0.79-0.64-1.43-1.33-2.03-2.03l-0.45-0.53l-0.38-0.58c-0.26-0.38-0.52-0.77-0.79-1.17l-0.96-1.37l-0.48-0.68
						c-0.15-0.24-0.28-0.49-0.42-0.73c-0.55-0.98-1.11-1.94-1.69-2.9c-0.58-0.95-1-1.99-1.55-2.95c-0.27-0.49-0.54-0.97-0.82-1.44
						c-0.29-0.47-0.49-0.98-0.76-1.47c-0.26-0.5-0.4-0.96-0.41-1.39c-0.16-1.8-0.97-4.16-1.48-5.43c-0.41-0.94-0.54-1.92-0.68-2.86
						c-0.14-0.94-0.27-1.84-0.49-2.69c-0.4-2.18,0.31-3.41,0.09-5.29c-0.15-4.75,0.33-9.61,1.9-14.21c0.98-2.57,2.08-5.05,3.09-7.64
						c0.28-0.83,0.8-1.67,1.42-2.21c0.59-0.56,1.08-1.35,1.57-2.15c0.24-0.36,0.43-0.75,0.7-1.1l0.79-1.04l1.58-2.08
						c1.1-1.34,2.34-2.57,3.5-3.86l1.94-1.74l0.97-0.87c0.31-0.3,0.64-0.58,1-0.83l2.09-1.55l1.04-0.78
						c0.35-0.25,0.74-0.46,1.1-0.69c6.28-4.04,13.52-6.79,21-7.27c0.62-0.03,1.55,0.05,1.86-0.16c0.9-0.59,2.08-0.47,3.33-0.34
						c1.13,0.21,2.37,0.21,3.51,0.33c1.33,0.08,2.63,0.3,3.94,0.43c0.65,0.07,1.31,0.15,1.95,0.24c0.64,0.12,1.26,0.34,1.87,0.56
						c0.91,0.35,1.83,0.66,2.75,0.96c0.9,0.37,1.8,0.74,2.71,1.12c1.86,0.64,3.58,1.61,5.36,2.44c4.4,2.36,8.39,5.42,11.86,8.99
						c4.08,4.23,7.46,9.17,9.71,14.58c1.81,4.48,3.25,9.1,3.81,13.92c0.2,3.29,0.29,3.95,1.4,4.7
						C542.21,571.11,543.25,570.75,544.3,570.6z"/>
				</g>
				<g>
					<path class="st0" d="M610.64,584.39c-0.59-0.11-1.19-0.11-1.78-0.32c-0.48-0.16-0.89,0.64-1.52,1.7
						c-0.64,1.06-1.54,2.39-2.73,3.38c-0.69,0.59-1.56,1.22-2.76,1.87c-0.3,0.17-0.64,0.29-0.98,0.47c-0.37,0.12-0.72,0.3-1.15,0.4
						c-0.82,0.25-1.76,0.45-2.86,0.46l-23.88-0.03l-1.29,4.05l-0.67,2.01l-0.42,1.17c-0.47,1.28-0.97,2.55-1.5,3.81
						c-0.53,1.26-1.09,2.5-1.69,3.73l-0.57,1.15l-0.97,1.87l-2,3.73l11.82,11.87l4.67,4.69c1.01,1.05,1.76,2.32,2.18,3.71
						c0.38,1.4,0.47,2.89,0.16,4.32c-0.32,1.41-0.93,2.76-1.9,3.86c-0.36,0.43-1.29,1.34-2.05,2.1l-2.36,2.34l-4.71,4.69l-4.7,4.68
						l-2.35,2.34l-1.18,1.17c-0.22,0.23-0.32,0.3-0.47,0.43l-0.41,0.37c-1.15,0.9-2.49,1.53-3.92,1.81
						c-1.44,0.24-2.94,0.18-4.33-0.27c-1.39-0.48-2.61-1.18-3.7-2.32c-1.55-1.57-3.1-3.14-4.65-4.71
						c-3.9-3.97-7.79-7.93-11.67-11.88c-1.08,0.56-2.14,1.11-3.19,1.65l-1.58,0.8l-0.79,0.4l-0.67,0.32l-1.56,0.71
						c-1.04,0.46-2.09,0.91-3.15,1.34c-1.06,0.42-2.12,0.83-3.19,1.21l-0.7,0.25l-0.84,0.28l-1.69,0.56
						c-1.13,0.36-2.25,0.72-3.37,1.08c0,3.64,0.01,7.22,0.01,10.7c0.03,2.35,0.05,4.63,0.07,6.81c0.02,1.91,0.05,3.81,0.07,5.72
						c0.03,1.32-0.21,2.54-0.72,3.71c-0.99,2.32-3.05,4.21-5.47,4.99l-0.92,0.25l-0.95,0.14l-1.01,0.05l-1.42,0l-5.69,0.01
						c-3.79,0.01-7.59,0.01-11.39,0.02l-2.85,0l-1.42,0l-0.71,0l-0.36,0l-0.26-0.01c-1.31-0.03-2.59-0.34-3.75-0.9
						c-2.34-1.12-4.19-3.29-4.85-5.8c-0.17-0.62-0.29-1.26-0.31-1.92l-0.02-0.49c-0.02-0.13,0-0.45,0-0.66l0.01-1.43l0.02-5.71
						l0.01-14.59c-1.67-0.49-3.36-0.96-5.01-1.48l-1.92-0.61l-1.26-0.42c-1.86-0.65-3.67-1.32-5.46-2.08l-1.34-0.58l-0.67-0.3
						l-0.34-0.15l-0.58-0.28c-1.69-0.81-3.38-1.69-5.08-2.56c-1.85,1.84-3.8,3.78-5.81,5.78l-6.13,6.02l-3.07,3.01l-0.77,0.75
						l-0.59,0.52c-0.18,0.18-0.39,0.31-0.59,0.46c-0.2,0.14-0.4,0.3-0.62,0.41c-1.69,1.05-3.73,1.48-5.71,1.31
						c-1.98-0.2-3.88-1-5.34-2.35l-0.27-0.25c-0.09-0.07-0.18-0.16-0.32-0.31l-0.75-0.77l-1.51-1.53l-3.02-3.06l-6.05-6.12
						l-3.03-3.06l-1.51-1.53l-0.76-0.76c-0.23-0.24-0.34-0.39-0.52-0.58c-1.3-1.48-2.06-3.37-2.2-5.33
						c-0.08-0.86,0.02-1.73,0.17-2.58c0.17-0.85,0.5-1.65,0.88-2.42c0.43-0.74,0.92-1.46,1.53-2.08l0.11-0.12l0.17-0.17l0.34-0.33
						l0.67-0.67l1.35-1.34l13.02-12.93l-2.17-4.02l-0.99-1.93l-0.51-1.04c-0.67-1.39-1.3-2.81-1.89-4.23
						c-0.59-1.43-1.14-2.87-1.66-4.33l-0.38-1.1l-0.66-2.05l-1.3-4.37l-15.82-0.05l-3.17-0.01l-1.58,0l-0.79,0l-0.4,0l-0.29-0.02
						c-1.45-0.05-2.87-0.42-4.14-1.1c-1.26-0.7-2.36-1.7-3.19-2.89c-0.83-1.19-1.33-2.57-1.53-4c-0.08-0.35-0.05-0.72-0.08-1.08
						c-0.02-0.14-0.01-0.48-0.01-0.72l0-0.79l0.01-3.17l0.02-6.33c0.01-3.41,0.12-6.86,0.1-10.23l-0.01-2.7
						c-0.01-0.25,0.01-0.38,0.02-0.54l0.02-0.46c0-0.31,0.09-0.61,0.11-0.91c0.21-1.2,0.67-2.36,1.35-3.39
						c1.34-2.08,3.56-3.55,5.98-3.99c0.31-0.03,0.61-0.11,0.92-0.12l0.98-0.04l2.69,0.01l5.39,0.02l13.87,0.07l1.3-4.04l0.69-2
						l0.39-1.06c0.51-1.35,1.05-2.69,1.63-4.01s1.19-2.63,1.83-3.92l0.55-1.07l1-1.88l2.07-3.75l-15.39-15.58
						c-1.49-1.54-2.41-3.51-2.61-5.62c-0.18-2.11,0.39-4.25,1.58-5.97l0.42-0.57l0.48-0.53c0.12-0.15,0.4-0.42,0.64-0.66l0.75-0.74
						l2.98-2.95l5.98-5.87l5.98-5.85c1.14-1.13,1.65-1.57,2.45-2.11c0.78-0.48,1.64-0.84,2.53-1.07c1.78-0.45,3.71-0.35,5.4,0.33
						c0.84,0.34,1.65,0.77,2.34,1.36c0.19,0.12,0.33,0.31,0.51,0.46l0.25,0.23l0.35,0.36l1.46,1.5c1.96,1.99,3.91,3.99,5.87,5.99
						c2.78,2.82,5.57,5.64,8.36,8.46l3.51-1.79l1.76-0.87l1.29-0.61c1.14-0.53,2.29-1.03,3.45-1.51s2.33-0.93,3.52-1.36l0.89-0.32
						l0.73-0.25l0.94-0.3l3.76-1.18c0.44-0.13,0.87-0.27,1.31-0.41c0.01-5.17,0.01-10.35,0.02-15.54l0.04-6.04
						c0.01-0.48,0-1.06,0.02-1.46c0.04-0.33,0.02-0.66,0.08-0.98c0.1-0.64,0.23-1.28,0.47-1.88c0.45-1.21,1.17-2.33,2.11-3.23
						c0.94-0.89,2.07-1.58,3.28-1.99c0.6-0.22,1.24-0.33,1.87-0.42l0.99-0.05l1.5,0c1.99-0.01,3.98-0.01,5.97-0.02
						c4.77-0.01,9.54-0.02,14.3-0.03l1.79,0l0.44,0l0.29,0.02l0.59,0.03c0.76,0.12,1.54,0.24,2.25,0.55
						c1.46,0.53,2.73,1.53,3.71,2.73c0.96,1.23,1.61,2.68,1.8,4.22c0.08,0.38,0.06,0.77,0.09,1.16c0.01,0.47,0,1.16,0,1.72
						l-0.02,3.57l-0.1,17.75l4.12,1.29l2.04,0.68l1.17,0.41c1.3,0.47,2.59,0.98,3.87,1.51s2.54,1.1,3.79,1.7l1.11,0.54l1.92,0.98
						l3.82,2.03c2.66-2.65,5.32-5.31,7.98-7.97l4.95-4.95l2.48-2.48l1.22-1.21c0.3-0.24,0.55-0.54,0.88-0.74
						c2.4-1.9,5.87-2.25,8.67-1.06c0.69,0.32,1.36,0.68,1.95,1.17c0.32,0.22,0.56,0.51,0.87,0.77l1.23,1.26l4.94,5.03
						c3.28,3.37,6.57,6.73,9.86,10.1l0.46,0.47c0.15,0.16,0.33,0.33,0.39,0.42c0.17,0.22,0.38,0.41,0.54,0.64
						c0.15,0.23,0.33,0.45,0.48,0.68c0.13,0.25,0.28,0.48,0.41,0.72c0.49,0.99,0.79,2.08,0.88,3.18c0.17,2.22-0.54,4.47-1.96,6.17
						l-0.59,0.66l-0.93,0.93l-1.86,1.87l-3.7,3.74l-9.88,9.97l2.17,4.05l1.03,2.02l0.5,1.01c0.64,1.32,1.25,2.65,1.82,4
						c0.57,1.35,1.11,2.72,1.61,4.1l0.37,1.05l0.69,2.15l1.3,4.27c5.52-0.03,11.05-0.06,16.56-0.1l4.63-0.03l1.16-0.01l0.58,0
						l0.29,0l0.21,0.01l0.79,0.03l0.78,0.12c2.05,0.4,3.97,1.52,5.32,3.15c1.33,1.64,2.05,3.71,2.03,5.81
						c-0.04,3.02-0.11,6.13-0.2,9.17c-0.23,8.13-0.02,12.56,0.79,13.8c0.87,1.32,1.76,1.59,2.65,0.19c1.61-2.53,3.22-5.05,4.84-7.06
						c1.07-1.33,1.08-0.92,1.1-11.24c-0.01-1.75-0.01-3.5-0.02-5.24c-0.06-4.63-2.03-9.22-5.29-12.45
						c-3.23-3.27-7.78-5.21-12.34-5.3c-0.63-0.03-0.99-0.02-1.42-0.02l-1.27,0.01l-2.54,0.02l-5.08,0.04l-5.09,0.03l-1.27,0.01
						l-0.17,0l-0.03,0l-0.06,0c-0.08,0.01-0.16,0.01-0.24,0.01l-0.11-0.3c-0.39-1.17-0.81-2.33-1.24-3.48
						c-0.87-2.31-1.83-4.6-2.87-6.85l-0.44-0.95l-0.04-0.09l-0.09-0.18c1.24-1.27,2.49-2.56,3.7-3.8c1.96-2.04,3.84-4.04,5.55-5.94
						l1.26-1.38c0.43-0.47,0.8-0.84,1.37-1.5c1.08-1.18,1.94-2.54,2.67-3.95c0.72-1.43,1.21-2.96,1.54-4.54
						c0.29-1.58,0.38-3.21,0.25-4.85c-0.17-1.77-0.6-3.53-1.28-5.2c-0.67-1.68-1.66-3.22-2.82-4.61l-0.89-1l-0.73-0.75l-1.47-1.5
						c-0.98-1-1.96-1.99-2.93-2.98c-3.91-3.94-7.8-7.73-11.66-11.02c-0.31-0.28-0.9-0.81-1.5-1.35c-0.66-0.56-1.38-1.1-1.79-1.4
						c-2.48-1.78-5.33-2.69-8.11-2.78c-2.78-0.11-5.49,0.47-7.97,1.66c-1.66,0.77-3.18,1.81-4.46,3.07l-0.49,0.46l-0.38,0.39
						l-0.75,0.78c-0.51,0.52-1.01,1.04-1.52,1.57c-2.04,2.1-4.13,4.21-6.36,6.37l-2.52,2.45c-0.31,0.28-0.6,0.58-0.9,0.83
						l-0.67-0.37l-0.33-0.18l-0.89-0.44c-1.36-0.67-2.74-1.3-4.14-1.89c-1.4-0.6-2.81-1.16-4.24-1.68l-1.28-0.46l-0.66-0.22
						c0.01-3.66,0.03-7.32,0.04-10.97l0-3.36l0-1.68l0-0.84c0-0.29-0.03-0.68-0.04-1.01c-0.05-1.39-0.35-2.77-0.73-4.11
						c-0.46-1.32-0.99-2.61-1.76-3.78c-1.82-2.96-4.56-5.27-7.7-6.65c-1.58-0.67-3.26-1.1-4.96-1.29l-1.28-0.08l-0.32-0.02l-0.26,0
						l-0.52-0.01l-2.06-0.03c-5.49-0.1-10.95-0.2-16.41-0.31l-4.1-0.08c-0.6-0.03-1.56,0.01-2.41,0.05
						c-0.86,0.11-1.73,0.2-2.57,0.43c-3.4,0.79-6.52,2.73-8.82,5.37c-1.14,1.33-2.1,2.83-2.81,4.45c-0.68,1.63-1.12,3.36-1.3,5.12
						l-0.06,1.32l-0.01,0.33l0,0.26l0,0.52l0.02,2.08c0.02,1.39,0.04,2.78,0.06,4.17c0.02,1.08-0.04,2.67-0.11,3.57
						c-0.12,1.41-0.22,2.85-0.29,4.33l-0.03,0.55l-0.01,0.28c0,0.08-0.01,0.05-0.01,0.08l-0.04,0.19l-0.07,0.34l-0.33,0.06
						l-0.15,0.04l-0.04,0.01l-0.13,0.04l-0.52,0.17c-1.37,0.47-2.74,0.98-4.1,1.54c-1.35,0.55-2.7,1.15-4.01,1.77
						c-0.91,0.43-0.7,0.35-0.85,0.43l-0.3,0.19c-0.08-0.05-0.17-0.13-0.25-0.2l-0.13-0.11l-0.07-0.06l-0.32-0.31
						c-3.31-3.22-6.51-6.25-9.64-9.36l-1.17-1.17c-0.16-0.17-0.48-0.45-0.73-0.68l-0.79-0.71c-1.12-0.87-2.3-1.69-3.62-2.29
						c-2.59-1.27-5.53-1.9-8.56-1.82c-1.09,0.02-2.37,0.2-3.73,0.54c-1.33,0.4-2.76,0.92-4.04,1.71c-1.32,0.74-2.47,1.72-3.48,2.68
						c-0.75,0.76-1.43,1.48-2,2.1c-4.37,4.78-8.47,8.52-12.89,12.84l-1.92,1.87c-0.14,0.13-0.35,0.35-0.55,0.57l-0.59,0.65
						c-0.41,0.42-0.73,0.92-1.09,1.38c-1.36,1.92-2.34,4.12-2.84,6.43c-1.04,4.61-0.1,9.64,2.57,13.58
						c0.35,0.48,0.68,0.97,1.06,1.42c0.38,0.43,0.81,0.91,1.16,1.28l1.9,1.9c1.27,1.25,2.54,2.51,3.81,3.75
						c1.28,1.23,2.56,2.46,3.83,3.69l0.96,0.91l0.12,0.11l0.06,0.06l0.01,0.01l0.05,0.04l0.11,0.07c0.14,0.1,0.31,0.21,0.47,0.34
						l-0.01,0.03c-0.05,0.16-0.13,0.33-0.22,0.48l-0.07,0.1c-0.01,0.01-0.03,0.04-0.03,0.04l-0.12,0.22
						c-0.19,0.32-0.37,0.62-0.55,0.92c-1.1,1.78-2.18,3.94-3.11,6.2c-0.23,0.57-0.46,1.14-0.67,1.71l-0.32,0.86l-0.26,0.73
						c-0.04,0.15-0.07,0.3-0.09,0.48c-0.12,0.03-0.24,0.05-0.35,0.08c-0.08,0.01-0.08,0.03-0.22,0.04c-0.36,0.01-0.7,0.02-1.02,0.03
						c-3.24,0.11-6.4,0.11-9.44,0.1c-1.52,0-3.01,0-4.48,0c-0.32-0.01-0.82,0.02-1.28,0.04c-0.47,0.03-0.93,0.04-1.39,0.13
						c-0.46,0.08-0.91,0.14-1.36,0.24c-0.44,0.12-0.88,0.24-1.31,0.36c-2.17,0.69-3.95,1.66-5.46,2.74
						c-1.51,1.08-2.77,2.26-3.81,3.6c-1.04,1.32-1.92,2.75-2.53,4.39c-0.62,1.62-1.06,3.43-1.06,5.43
						c0.04,3.87,0.08,7.74,0.12,11.62c0.02,3.84,0.05,7.69,0.07,11.55l0.01,1.48c0.03,0.62,0.04,1.25,0.12,1.86
						c0.16,1.24,0.42,2.47,0.83,3.65c0.81,2.37,2.14,4.55,3.86,6.37c1.71,1.83,3.83,3.28,6.17,4.21c1.17,0.46,2.39,0.83,3.63,1.03
						l0.94,0.15l0.94,0.07l0.93,0.05l0.73,0.01c4.92,0.07,9.85,0.14,14.8,0.2l0.48,1.29c0.51,1.41,1.07,2.81,1.68,4.19
						c0.58,1.34,1.19,2.77,1.79,4.16c0.3,0.7,0.59,1.39,0.87,2.05c0.07,0.17,0.14,0.33,0.21,0.49l0.1,0.24
						c0.02,0.05,0.01,0.05,0.02,0.08c0.02,0.08,0.03,0.15,0.03,0.22c-0.01,0.12-0.01,0.22,0.01,0.3c-0.12,0.08-0.22,0.15-0.31,0.22
						c-0.04,0.03-0.01,0-0.1,0.09l-0.55,0.55l-1.11,1.1l-5.99,5.94l-3,2.97c-1.31,1.33-2.43,2.85-3.3,4.51
						c-1.7,3.34-2.37,7.2-1.77,10.9c0.29,1.84,0.83,3.66,1.68,5.34c0.85,1.67,1.95,3.21,3.25,4.55l11.89,11.99l2.97,2.99l1.49,1.49
						c0.27,0.26,0.45,0.47,0.78,0.78l1.04,0.94c1.44,1.19,3.06,2.18,4.8,2.9c1.74,0.7,3.59,1.11,5.45,1.25
						c3.41,0.25,6.9-0.51,9.9-2.16c1.51-0.8,2.87-1.91,4.08-3.06l2.73-2.73l8.66-8.67l1.35,0.64c1.43,0.66,2.87,1.28,4.32,1.86
						c1.46,0.58,2.93,1.13,4.41,1.64l1.34,0.44l-0.08,8.72l-0.07,5.99l-0.01,0.75l-0.01,0.37l0.01,0.49
						c0.03,0.66,0.03,1.33,0.14,1.99c0.08,0.66,0.18,1.32,0.36,1.97c0.08,0.32,0.16,0.65,0.25,0.97l0.33,0.95
						c0.43,1.27,1.19,2.78,2.05,4.03c0.87,1.25,1.82,2.22,2.39,2.62c1.63,1.19,3.49,2.39,5.69,3.3c1.1,0.44,2.27,0.83,3.52,1.09
						c0.62,0.11,1.25,0.26,1.9,0.3c0.64,0.06,1.36,0.12,1.8,0.13c3.65,0.16,7.67,0.1,11.37,0.18c2.15,0.05,4.29,0.05,6.43,0.04
						c1.07-0.01,2.14-0.02,3.2-0.02l1.6-0.02l0.8-0.01l1.02-0.05c5.65-0.28,10.9-3.41,14.04-7.96c1.7-2.47,2.84-5.42,3.08-8.48
						l0.08-1.15l0.03-0.9l0.04-1.72c0.02-1.15,0.04-2.3,0.06-3.45c0.03-2.31,0.06-4.62,0.09-6.94l0.03-3.39l0.01-0.12l0.09-0.03
						l1.84-0.68c1.73-0.66,3.45-1.38,5.15-2.15l1.36-0.63l0.77-0.37l0.09-0.05l5.11,5.16l3.79,3.83l1.89,1.91l0.47,0.48
						c0.16,0.16,0.29,0.3,0.54,0.53c0.45,0.41,0.88,0.84,1.36,1.21c3.8,3.08,8.88,4.48,13.72,3.86c2.42-0.3,4.78-1.09,6.9-2.32
						c0.54-0.3,1.05-0.63,1.54-1c0.5-0.35,0.98-0.73,1.43-1.14l0.68-0.61l0.5-0.49l0.96-0.95l10.24-10.12l5.11-5.07l0.32-0.32
						l0.41-0.44l0.82-0.91c0.49-0.65,1.02-1.29,1.43-2c0.9-1.38,1.52-2.92,2.03-4.48c0.91-3.15,1.02-6.53,0.21-9.72
						c-0.75-3.2-2.49-6.15-4.76-8.49l-10.14-10.24c-1.87-1.89-1.14-1.15-1.28-1.3l0,0l0,0l0.38-0.79c0.66-1.37,1.29-2.76,1.88-4.17
						c0.59-1.4,1.15-2.82,1.66-4.25l0.3-0.84l0-0.01l0-0.03c0.01-0.01,0.02-0.01,0.04-0.02l2.55-0.01l6.15-0.01l6.14,0l1.54,0
						c0.22,0.01,0.6-0.01,0.94-0.03l1.04-0.05c0.69-0.07,1.38-0.18,2.06-0.3c0.67-0.17,1.36-0.31,2.01-0.55
						c3.48-1.17,5.85-3.02,7.46-4.75c1.62-1.74,2.55-3.37,3.11-4.73c1.11-2.75,1.04-4.41,0.74-5.98c-0.41-1.57-0.95-1.89-1.47-1.84
						C611.74,583.77,611.18,584.2,610.64,584.39z"/>
				</g>
			</g>
		</g>
	</g>
	<g>
		<g>
			<path class="st0" d="M127.18,239.15c-0.45,0.4-0.86,0.83-1.35,1.19c-0.77,0.56-0.03,2.39,0.88,4.32
				c0.27,0.57,0.63,1.23,1.22,2.02c0.59,0.79,1.45,1.63,2.66,2.67c10.89,9.23,22.36,17.27,33.9,25.22
				c6.96,4.78,14.07,9.43,20.97,14.13c3.71,2.54,7.67,5.02,11.1,6.99c2.19,1.29,4.38,2.57,6.56,3.86l1.63,0.97l0.41,0.24
				c0.1,0.06,0.06,0.03,0.08,0.04l0.02,0.01l0.1,0.05l0.43,0.22l-0.16,0.3l-0.09,0.16l-0.04,0.08l-0.35,0.54
				c-4.24,6.48-8.9,12.7-13.43,19.01c-1.57,2.15-2.98,4.26-4.73,6.46c-6.55,8.09-13.38,15.98-20.45,23.62
				c-10.34,11.14-21.25,21.75-32.95,31.38l-0.91,0.72l-0.11,0.09c-0.03,0.02-0.02,0.01-0.03,0.02l-0.04,0.02l-0.07,0.04
				c-0.1,0.05-0.18,0.1-0.25,0.17c-0.1,0-0.22-0.09-0.33-0.14l-0.09-0.04l-0.54-0.32l-1.21-0.71c-1.62-0.94-3.2-1.94-4.79-2.92
				c-1.6-0.98-3.17-1.98-4.74-3.01c-1.57-1.02-3.14-2.02-4.69-3.08c-6.23-4.14-12.31-8.49-18.35-12.9
				c-10.19-7.41-19.48-15.71-29.2-23.81c-2.81-2.39-5.58-4.87-8.28-7.41c-1.37-1.25-2.71-2.53-4.04-3.8l-2.02-1.89l-0.83-0.76
				l-0.24-0.2c-0.28-0.23-0.58-0.48-0.86-0.74c-0.03-0.03-0.1-0.08-0.09-0.08l0.02-0.02l0.04-0.04l0.1-0.09l0.96-0.84
				c0.62-0.53,1.23-1.07,1.81-1.6l3.56-3.21c4.67-4.31,9.31-8.64,13.79-13.12c6.09-6.06,12.29-12.1,18.52-18.12
				c8.16-7.88,15.7-16.38,23.29-24.82c1.92-2.11,3.83-4.23,5.75-6.34c0.97-1.05,1.94-2.09,2.93-3.12c0.98-1.04,1.96-2.08,2.96-3.1
				c1.34-1.33,2.28-2.5,2.87-3.42c0.59-0.92,0.81-1.6,0.68-2.08c-0.28-1.03-0.91-1.67-2.02-1.73c-2-0.1-3.97-0.24-5.77-0.59
				c-1.2-0.23-1.04-0.37-4.13,3.12c-0.51,0.58-1,1.17-1.52,1.74c-5.6,6.15-10.89,12.48-16.85,18.46c-2.33,2.32-4.7,4.89-6.5,7.24
				c-1.39,1.82-2.98,3.37-4.61,5.04c-3.54,3.61-7.61,7.06-10.3,10.92c-0.19,0.27-0.85,0.92-1.15,1.14
				c-1.81,1.31-2.93,2.89-4.28,4.37c-1.8,1.98-3.53,3.91-5.63,5.84c-5.75,5.33-11.55,10.73-17.18,16.07
				c-0.46,0.44-0.92,0.86-1.38,1.27l-1.7,1.49c-1.63,1.38-3.29,2.66-4.93,3.98l-1.25,0.99c-0.05,0.04-0.12,0.08-0.14,0.12l0.13,0.13
				l0.25,0.25l0.5,0.51l2.02,2.04l4.1,4.17l2.86,2.87c0.9,0.88,1.81,1.77,2.72,2.66c1.86,1.73,3.76,3.44,5.76,5.06
				c0.39,0.31,0.91,0.84,1.17,1.17c2.65,3.36,6.56,6.43,10.13,9.17c3.38,2.62,6.62,4.78,9.65,7.88c1.1,1.1,3.18,2.78,4.51,3.61
				c2.57,1.57,4.47,3.31,6.74,5.05c5.27,4.03,10.68,8.15,16.38,11.31c0.73,0.4,1.31,0.81,1.74,1.26c1.85,1.93,5.18,3.75,6.96,4.68
				c2.64,1.44,4.95,3.09,7.24,4.31c1.44,0.77,2.45,1.53,3.41,2.26l0.72,0.55l0.36,0.27l0.18,0.13l0.32,0.21
				c0.94,0.62,1.95,1.25,3.07,1.89l2.1,1.2c0.09,0.1,0.16-0.06,0.24-0.1l0.24-0.2l0.47-0.4l0.94-0.79l3.44-2.91
				c1.35-1.17,2.73-2.32,4.06-3.52c2.7-2.36,5.41-4.72,8.14-7.1c1.56-1.32,3.09-2.68,4.6-4.07c1.51-1.39,2.99-2.81,4.33-4.39
				c0.85-0.98,1.97-1.93,2.94-2.59c0.99-0.67,1.96-1.68,2.94-2.68c7.32-7.45,14.36-15.18,21-23.21c7.17-8.68,13.85-17.73,20.6-26.73
				c0.57-0.74,1.44-1.83,1.55-2.34c0.34-1.47,1.48-2.78,2.68-4.24c0.55-0.65,1.04-1.39,1.55-2.13c0.89-1.32,1.79-2.65,2.64-3.92
				c1.02-1.47,2.01-2.96,2.96-4.42c-2.45-1.45-4.89-2.89-7.31-4.33l-1.43-0.87l-0.94-0.58c-0.62-0.39-1.22-0.8-1.81-1.23
				c-4.63-3.37-9.59-6.52-14.53-9.69c-6.26-4.01-12.4-8.17-18.52-12.37c-7.2-4.98-14.4-9.97-21.38-15.19
				c-1.43-1.08-2.86-2.17-4.28-3.25l-2.15-1.6l-2.1-1.64c-1.4-1.1-2.81-2.18-4.19-3.28l-4.04-3.41c-0.93-0.77-1.61-1.42-2.19-1.93
				c-0.58-0.51-1.04-0.89-1.45-1.16c-0.81-0.55-1.38-0.7-2.15-0.69C128.16,237.16,127.79,238.27,127.18,239.15z"/>
		</g>
		<g>
			<path class="st0" d="M120.59,271.04c-0.35,0.49-0.7,0.98-1.05,1.46c-0.56,0.75-0.81,1.58-1.02,2.39
				c-0.12,0.48-0.19,1.01,0.21,1.27c1.8,1.2,3.6,2.39,5.38,3.62c1.07,0.74,2.17,1.46,3.11,2.37c0.51,0.49,1.12,0.88,1.71,1.1
				c1.05,0.4,1.94,1.02,2.87,1.57c1.05,0.62,1.93,1.49,3.02,2.05c0.38,0.19,0.8,0.28,1.14,0.57c1.25,1.06,2.53,2.09,3.85,3.05
				c1.93,1.41,3.91,2.75,5.86,4.12c0.2,0.14,0.35,0.36,0.56,0.48c2.05,1.16,3.77,2.8,5.69,4.13c1.62,1.12,2.84,2.78,4.6,3.73
				c1.03,0.56,1.82,1.47,2.84,2.01c1.75,0.93,3.14,2.35,4.82,3.36c1.14,0.69,2.19,1.53,3.17,2.46c1.29,1.22,3.02,1.81,4.6,2.62
				c0.79,0.41,1.54,0.88,2.07,1.64c0.35,0.5,0.74,0.5,1.29-0.12c0.58-0.66,1.11-1.38,1.55-2.16c0.78-1.41,1.56-2.82,2.37-4.22
				c0.54-0.93,0.57-0.91-0.04-1.33c-0.1-0.07-0.21-0.12-0.31-0.2c-1.04-0.79-2.39-1.1-3.37-2c-0.38-0.35-0.87-0.6-1.45-0.57
				c-0.45,0.02-0.7-0.22-1-0.43c-0.65-0.44-1.07-1.29-2.14-1.02c-0.08,0.02-0.19-0.07-0.2-0.15c-0.08-0.48-0.52-0.38-0.83-0.47
				c-0.42-0.13-0.85-0.22-1.17-0.54c-0.89-0.86-1.82-1.68-2.93-2.22c-1.44-0.71-2.04-2.5-3.64-3c-0.08-0.02-0.14-0.13-0.15-0.23
				c-0.1-0.98-0.85-1.24-1.52-1.49c-0.63-0.24-1.32-0.31-1.55-1.13c-0.08-0.29-0.39-0.57-0.68-0.57c-0.56-0.01-0.74-0.43-1.08-0.72
				c-0.77-0.67-1.48-1.49-2.64-1.58c-0.15-0.01-0.22-0.1-0.22-0.26c0-0.7-0.65-0.78-0.99-0.83c-0.51-0.07-0.76-0.49-1.18-0.57
				c-0.54-0.11-0.35-0.85-0.76-1.01c-1.05-0.41-2.02-0.94-2.83-1.71c-0.46-0.44-0.85-0.98-1.55-1.07c-0.22-0.03-0.34-0.26-0.36-0.52
				c-0.03-0.27-0.2-0.4-0.37-0.53c-1.3-0.94-2.57-1.92-3.9-2.81c-1.44-0.96-2.97-1.8-4.2-3.05c-0.1-0.1-0.22-0.31-0.39-0.2
				c-0.5,0.33-0.6,0.01-0.74-0.29c-0.13-0.27-0.4-0.38-0.58-0.58c-0.41-0.48-1.17-0.46-1.49-1.03c-0.49-0.85-1.24-1.38-1.99-1.9
				c-0.96-0.66-1.86-1.38-2.77-2.1c-1.08-0.84-2.23-1.59-3.31-2.43c-0.9-0.69-1.92-1.18-2.85-1.82c-0.63-0.44-0.81-0.46-1.56,0.31
				C121.73,269.25,121.18,270.16,120.59,271.04z"/>
		</g>
		<g>
			<path class="st0" d="M105.54,292.55l-1.05,1.46c-0.56,0.75-0.8,1.59-1.01,2.4c-0.12,0.48-0.18,1.01,0.23,1.29
				c1.85,1.23,3.71,2.46,5.53,3.73c0.62,0.43,1.25,0.85,1.85,1.3l5.34-7.53c-0.47-0.35-0.93-0.73-1.36-1.14
				c-0.33-0.32-0.71-0.6-1.09-0.81l-5.54,7.81c0.23,0.13,0.45,0.24,0.66,0.32c1.07,0.42,1.99,1.05,2.95,1.62
				c1.08,0.64,1.99,1.53,3.11,2.11c0.39,0.2,0.82,0.29,1.17,0.59c1.29,1.09,2.61,2.14,3.97,3.13c1.99,1.45,4.02,2.83,6.03,4.24
				c0.2,0.14,0.36,0.37,0.57,0.49c2.11,1.2,3.88,2.87,5.86,4.25c1.67,1.16,2.94,2.85,4.74,3.83c1.05,0.57,1.87,1.51,2.92,2.07
				c1.8,0.96,3.23,2.41,4.96,3.46c1.17,0.71,2.25,1.57,3.27,2.53c1.33,1.25,3.1,1.87,4.72,2.71c0.81,0.42,1.58,0.91,2.13,1.68
				c0.37,0.51,0.76,0.52,1.31-0.1c0.58-0.66,1.12-1.37,1.55-2.16c0.78-1.41,1.55-2.83,2.36-4.23c0.54-0.93,0.57-0.91-0.06-1.35
				c-0.1-0.07-0.22-0.13-0.32-0.2c-1.07-0.81-2.45-1.15-3.46-2.07c-0.39-0.36-0.89-0.62-1.49-0.6c-0.46,0.02-0.72-0.23-1.03-0.44
				c-0.67-0.45-1.1-1.32-2.19-1.06c-0.08,0.02-0.19-0.07-0.21-0.16c-0.08-0.49-0.53-0.39-0.86-0.49c-0.43-0.13-0.86-0.24-1.2-0.56
				c-0.92-0.88-1.88-1.72-3.02-2.28c-1.48-0.74-2.12-2.55-3.75-3.08c-0.08-0.03-0.14-0.14-0.16-0.23c-0.11-0.99-0.89-1.26-1.57-1.53
				c-0.65-0.26-1.35-0.33-1.6-1.16c-0.09-0.3-0.41-0.58-0.7-0.59c-0.57-0.02-0.76-0.45-1.11-0.75c-0.8-0.69-1.52-1.52-2.71-1.63
				c-0.15-0.01-0.23-0.1-0.23-0.27c-0.01-0.7-0.67-0.8-1.02-0.85c-0.52-0.08-0.78-0.5-1.21-0.6c-0.55-0.12-0.37-0.86-0.79-1.03
				c-1.07-0.43-2.07-0.97-2.91-1.77c-0.47-0.45-0.88-1-1.6-1.1c-0.23-0.03-0.35-0.26-0.38-0.54c-0.03-0.28-0.21-0.41-0.39-0.54
				c-1.33-0.97-2.64-1.98-4.01-2.89c-1.48-0.99-3.05-1.85-4.32-3.14c-0.11-0.11-0.23-0.32-0.4-0.2c-0.5,0.33-0.61,0.01-0.76-0.3
				c-0.13-0.27-0.42-0.39-0.6-0.6c-0.43-0.49-1.19-0.48-1.53-1.06c-0.31-0.54-0.73-0.95-1.19-1.31l-5.53,7.8
				c0.28,0.22,0.58,0.43,0.87,0.63c0.56,0.39,1.11,0.8,1.65,1.21l5.59-7.88l-1.21-0.94c-1.11-0.87-2.29-1.64-3.41-2.5
				c-0.92-0.71-1.98-1.22-2.93-1.88c-0.65-0.45-0.83-0.47-1.59,0.29C106.67,290.75,106.13,291.67,105.54,292.55z"/>
		</g>
		<g>
			<path class="st0" d="M86.14,313.77c-0.35,0.49-0.7,0.98-1.06,1.46c-0.56,0.75-0.8,1.59-1,2.4c-0.12,0.48-0.18,1.01,0.23,1.29
				c1.86,1.24,3.72,2.48,5.56,3.75c1.11,0.77,2.24,1.51,3.22,2.45c0.52,0.5,1.16,0.9,1.76,1.14c1.08,0.42,2,1.06,2.96,1.63
				c1.08,0.65,2,1.53,3.12,2.12c0.39,0.2,0.82,0.3,1.17,0.59c1.3,1.09,2.62,2.15,3.98,3.14c1.99,1.45,4.04,2.84,6.05,4.26
				c0.21,0.14,0.36,0.37,0.58,0.49c2.12,1.21,3.89,2.89,5.89,4.27c1.68,1.16,2.95,2.86,4.76,3.85c1.06,0.58,1.88,1.52,2.93,2.08
				c1.8,0.97,3.24,2.42,4.98,3.48c1.18,0.71,2.26,1.58,3.28,2.54c1.34,1.25,3.12,1.88,4.74,2.72c0.81,0.42,1.59,0.91,2.14,1.69
				c0.37,0.52,0.77,0.52,1.31-0.1c0.58-0.66,1.12-1.37,1.55-2.16c0.77-1.41,1.55-2.83,2.36-4.23c0.54-0.93,0.57-0.92-0.06-1.35
				c-0.1-0.07-0.22-0.13-0.32-0.2c-1.08-0.82-2.46-1.15-3.48-2.07c-0.39-0.36-0.9-0.62-1.49-0.6c-0.46,0.02-0.72-0.24-1.03-0.45
				c-0.67-0.45-1.11-1.32-2.2-1.07c-0.08,0.02-0.19-0.07-0.21-0.16c-0.09-0.49-0.54-0.39-0.86-0.49c-0.43-0.13-0.87-0.24-1.2-0.56
				c-0.92-0.88-1.89-1.72-3.03-2.29c-1.49-0.74-2.13-2.56-3.76-3.09c-0.08-0.03-0.15-0.14-0.16-0.23c-0.12-1-0.89-1.26-1.58-1.53
				c-0.65-0.26-1.35-0.34-1.6-1.17c-0.09-0.3-0.41-0.58-0.71-0.59c-0.57-0.02-0.76-0.45-1.11-0.75c-0.8-0.69-1.53-1.53-2.72-1.64
				c-0.15-0.01-0.23-0.1-0.23-0.27c-0.01-0.71-0.68-0.8-1.03-0.85c-0.53-0.08-0.78-0.5-1.22-0.6c-0.55-0.12-0.37-0.86-0.8-1.03
				c-1.08-0.43-2.08-0.98-2.92-1.78c-0.47-0.45-0.88-1-1.61-1.11c-0.23-0.03-0.35-0.27-0.38-0.54c-0.03-0.28-0.21-0.41-0.39-0.54
				c-1.34-0.97-2.65-1.99-4.03-2.91c-1.49-0.99-3.06-1.86-4.34-3.15c-0.11-0.11-0.23-0.32-0.4-0.2c-0.5,0.33-0.61,0-0.76-0.3
				c-0.13-0.28-0.42-0.39-0.6-0.6c-0.43-0.49-1.2-0.49-1.54-1.07c-0.51-0.87-1.29-1.41-2.07-1.95c-0.99-0.68-1.92-1.43-2.87-2.17
				c-1.11-0.87-2.3-1.65-3.42-2.51c-0.93-0.71-1.99-1.22-2.94-1.89c-0.65-0.45-0.83-0.48-1.59,0.29
				C87.27,311.97,86.72,312.89,86.14,313.77z"/>
		</g>
	</g>
	<g>
		<g>
			<path class="st0" d="M780.88,72.43c-0.29-0.53-0.63-1.02-0.85-1.59c-0.34-0.89-2.86-0.31-5.46,0.37
				c-0.77,0.2-1.67,0.48-2.82,0.98c-1.15,0.5-2.63,1.14-4.46,2.16c-16.48,9.13-34.01,16.87-51.59,24.31
				c-10.62,4.47-21.39,8.83-32.12,12.76c-5.78,2.13-11.74,4.43-16.75,6.47c-3.22,1.32-6.45,2.58-9.69,3.82l-4.86,1.83l-9.13,3.3
				c1.57,3.87,3.13,7.74,4.7,11.61c4.19,10.02,8.38,20.1,13.18,29.88c1.67,3.34,3.38,6.46,5.07,10.02
				c6.37,13.13,13.29,26.04,20.79,38.61c10.97,18.33,23.06,36.03,36.49,52.72c0.69,0.87,1.38,1.75,2.07,2.62
				c1.26,1.57,2.52,3.14,3.76,4.69l0.14,0.18l0.07,0.09c0.02,0.03,0.07-0.01,0.1-0.02l0.43-0.15l0.86-0.31l1.72-0.61l3.24-1.15
				l3.71-1.32c2.48-0.86,4.92-1.8,7.39-2.69c2.47-0.89,4.92-1.81,7.37-2.74c2.45-0.94,4.91-1.83,7.34-2.81
				c9.77-3.78,19.44-7.84,28.98-12.19c16.06-7.29,31.93-14.66,47.34-23.52c8.96-5.2,18.14-10.32,26.76-15.89
				c3.15-2.02,6.3-4.04,9.45-6.06l0.67-0.43l0.33-0.21l0.08-0.05c0-0.02-0.04-0.05-0.05-0.07l-0.13-0.15l-1.01-1.22l-2.02-2.45
				l-2.02-2.44l-1.02-1.23l-0.74-0.98c-2.59-3.34-5.09-6.86-7.59-10.36c-4.94-7.08-9.83-14.22-14.72-21.39
				c-6.67-9.69-13.14-19.65-19.44-29.73c-8.25-13.19-17.04-26.03-25.34-39.13c-2.06-3.29-4.16-6.59-6.1-9.94
				c-0.97-1.68-1.94-3.36-2.9-5.03c-0.93-1.69-1.82-3.39-2.7-5.09c-1.19-2.26-2.08-3.97-2.86-5.14c-0.78-1.18-1.42-1.83-1.97-1.98
				c-1.16-0.32-2.04-0.08-2.42,1.11c-0.68,2.13-1.34,4.31-2.14,6.22c-0.53,1.27-0.69,1.08,2.59,6.81l1.64,2.84
				c5.86,10.14,12.32,19.56,18.4,29.59c2.38,3.89,5.02,7.96,7.52,11.19c1.94,2.51,3.54,5.13,5.29,7.84
				c3.81,5.86,7.45,12.3,11.68,17.18c0.3,0.34,0.99,1.41,1.22,1.88c1.38,2.74,3.15,4.75,4.76,7c2.15,3,4.3,5.89,6.45,9.19
				c5.93,9.11,12.01,18.24,18.62,26.93c1.6,2.11,3.19,4.2,4.77,6.28l0.24,0.33c0.01,0.01,0.02,0.03,0.03,0.04l-0.05,0.03l-0.1,0.05
				l-0.2,0.11l-0.76,0.41l-0.36,0.19c-0.08,0.04-0.07,0.03-0.22,0.12l-0.55,0.33l-2.21,1.32c-2.97,1.73-5.95,3.44-8.91,5.22
				c-2.99,1.72-5.95,3.53-8.92,5.4c-0.58,0.36-1.48,0.81-2,1.02c-5.33,2.21-11.09,5.66-16.4,8.69c-5.03,2.89-9.58,5.59-15.04,7.75
				c-1.97,0.75-5.24,2.31-7.06,3.39c-3.54,2.03-6.78,3.32-10.32,4.91c-8.22,3.68-16.76,7.09-24.68,11c-1.02,0.5-1.92,0.82-2.73,1.01
				c-3.5,0.8-8.14,2.97-10.63,4.07c-3.72,1.7-7.4,2.83-10.65,4.2c-2.04,0.87-3.69,1.33-5.28,1.73c-0.79,0.2-1.57,0.4-2.37,0.63
				c-0.34,0.1-0.69,0.2-1.05,0.31c-0.06,0.01-0.12,0.03-0.19,0.07l-0.26,0.14c-0.07-0.03-0.13-0.1-0.2-0.16l-0.11-0.1l-0.06-0.05
				l-0.03-0.03c-0.01-0.01-0.01,0-0.07-0.08l-1.16-1.38c-1.55-1.84-3.11-3.68-4.58-5.59c-1.48-1.91-2.96-3.82-4.45-5.74
				c-1.44-1.96-2.85-3.94-4.26-5.93c-1.61-2.24-3.11-4.56-4.68-6.84c-1.57-2.28-3.19-4.53-4.85-6.78c-1.06-1.4-2.05-3.11-2.75-4.52
				c-0.72-1.42-1.72-3.03-2.73-4.63c-7.58-11.89-14.63-24.13-21.3-36.56c-7.2-13.42-14-27.07-19.78-41.15
				c-0.5-1.16-1.12-2.94-1.55-3.46c-1.24-1.52-1.97-3.77-2.81-6.18c-0.39-1.08-0.8-2.21-1.24-3.34c-0.22-0.56-0.44-1.13-0.66-1.68
				l-0.16-0.42c-0.03-0.07-0.02-0.05-0.02-0.08l-0.02-0.1c-0.02-0.14-0.06-0.25-0.12-0.38c0.09-0.04,0.17-0.1,0.27-0.15
				c0.18-0.09-0.16,0.01,1.18-0.49c1.92-0.73,3.83-1.42,5.77-2.03c7.59-2.34,15.23-5.23,22.83-8.17
				c9.64-3.72,19.23-7.49,28.82-11.34c11.29-4.6,22.51-9.48,33.65-14.55c2.28-1.09,4.57-2.18,6.84-3.26l3.41-1.65l3.37-1.74
				l6.73-3.5l6.67-3.71c1.52-0.81,2.71-1.56,3.68-2.19c0.96-0.62,1.7-1.12,2.27-1.56c1.14-0.88,1.63-1.52,2.01-2.37
				C782.93,73.66,781.68,73.18,780.88,72.43z"/>
		</g>
		<g>
			<path class="st0" d="M780.63,117.42c-0.23-0.55-0.47-1.1-0.7-1.66c-0.35-0.87-1.02-1.47-1.71-2.02
				c-0.41-0.33-0.91-0.62-1.51-0.34c-2.71,1.25-5.41,2.51-8.13,3.72c-1.64,0.73-3.28,1.5-4.99,2.03c-0.92,0.28-1.82,0.72-2.53,1.2
				c-1.26,0.86-2.62,1.46-3.96,2.14c-1.5,0.76-3.11,1.25-4.58,2.09c-0.5,0.29-0.94,0.66-1.51,0.87c-2.12,0.77-4.23,1.58-6.3,2.46
				c-3.03,1.29-6.03,2.65-9.04,3.97c-0.31,0.13-0.65,0.18-0.95,0.34c-2.87,1.51-5.97,2.49-8.92,3.81c-2.49,1.11-5.21,1.59-7.63,2.91
				c-1.41,0.77-3.01,1.15-4.4,1.92c-2.38,1.32-4.99,2.07-7.41,3.28c-1.64,0.82-3.37,1.49-5.14,2.05c-2.32,0.74-4.33,2.18-6.45,3.38
				c-1.06,0.6-2.16,1.13-3.38,1.32c-0.82,0.13-1.12,0.51-0.91,1.31c0.23,0.85,0.56,1.68,1.05,2.44c0.87,1.37,1.74,2.74,2.56,4.13
				c0.55,0.93,0.51,0.95,1.44,0.54c0.15-0.07,0.3-0.15,0.45-0.22c1.67-0.68,3.08-1.87,4.81-2.45c0.67-0.22,1.33-0.59,1.77-1.18
				c0.34-0.45,0.8-0.59,1.25-0.8c0.99-0.45,2.22-0.49,2.79-1.66c0.04-0.08,0.22-0.15,0.32-0.13c0.57,0.13,0.81-0.35,1.16-0.61
				c0.47-0.36,0.91-0.73,1.5-0.91c1.62-0.5,3.23-1.06,4.69-1.92c1.9-1.11,4.28-0.93,6.08-2.28c0.09-0.06,0.25-0.08,0.36-0.05
				c1.12,0.33,1.99-0.3,2.79-0.85c0.76-0.52,1.38-1.16,2.43-1.04c0.38,0.04,0.91-0.14,1.15-0.42c0.46-0.54,1.05-0.54,1.63-0.74
				c1.33-0.47,2.75-0.81,3.78-1.91c0.13-0.14,0.28-0.17,0.45-0.1c0.74,0.3,1.35-0.3,1.67-0.62c0.49-0.47,1.12-0.53,1.55-0.91
				c0.55-0.48,1.17,0.02,1.68-0.32c1.27-0.85,2.6-1.58,4.07-2.04c0.83-0.26,1.71-0.41,2.38-1.06c0.21-0.2,0.54-0.22,0.85-0.13
				c0.31,0.09,0.58-0.03,0.86-0.14c2.03-0.87,4.09-1.69,6.09-2.61c2.17-1,4.27-2.14,6.58-2.8c0.19-0.06,0.5-0.08,0.52-0.3
				c0.05-0.63,0.46-0.59,0.9-0.6c0.39-0.01,0.72-0.23,1.08-0.32c0.84-0.2,1.42-0.94,2.29-1.02c1.29-0.11,2.45-0.62,3.6-1.14
				c1.46-0.65,2.95-1.23,4.44-1.82c1.75-0.69,3.47-1.5,5.21-2.2c1.44-0.58,2.78-1.38,4.2-2.01c0.96-0.43,1.13-0.6,0.92-1.66
				C781.63,119.3,781.09,118.37,780.63,117.42z"/>
		</g>
		<g>
			<path class="st0" d="M794.9,150.68l-0.7-1.66c-0.35-0.87-1.03-1.47-1.73-2.02c-0.41-0.32-0.93-0.61-1.55-0.33
				c-2.78,1.29-5.57,2.57-8.37,3.82c-0.95,0.42-1.89,0.86-2.85,1.25l3.69,8.46c0.75-0.31,1.51-0.6,2.28-0.84
				c0.61-0.19,1.2-0.44,1.73-0.72l-3.83-8.78c-0.32,0.17-0.61,0.34-0.87,0.51c-1.3,0.87-2.7,1.5-4.07,2.19
				c-1.54,0.78-3.2,1.29-4.72,2.14c-0.52,0.29-0.97,0.68-1.55,0.89c-2.18,0.8-4.35,1.63-6.48,2.54c-3.12,1.33-6.2,2.73-9.3,4.09
				c-0.32,0.14-0.67,0.19-0.98,0.35c-2.96,1.55-6.14,2.57-9.18,3.92c-2.56,1.14-5.36,1.66-7.84,3c-1.45,0.79-3.09,1.19-4.53,1.97
				c-2.45,1.35-5.13,2.13-7.63,3.38c-1.69,0.84-3.46,1.53-5.29,2.11c-2.38,0.77-4.46,2.24-6.64,3.46c-1.09,0.61-2.22,1.16-3.48,1.37
				c-0.84,0.14-1.16,0.52-0.94,1.33c0.23,0.85,0.56,1.68,1.04,2.44c0.87,1.37,1.75,2.73,2.58,4.13c0.55,0.92,0.52,0.95,1.47,0.52
				c0.16-0.07,0.31-0.16,0.47-0.22c1.72-0.7,3.17-1.91,4.95-2.51c0.69-0.23,1.37-0.61,1.82-1.2c0.35-0.46,0.82-0.6,1.29-0.81
				c1.02-0.46,2.28-0.52,2.88-1.69c0.04-0.08,0.23-0.16,0.33-0.14c0.59,0.13,0.84-0.36,1.2-0.63c0.48-0.36,0.94-0.75,1.55-0.93
				c1.66-0.52,3.32-1.1,4.83-1.98c1.96-1.14,4.39-0.98,6.25-2.35c0.09-0.07,0.26-0.08,0.37-0.05c1.14,0.31,2.04-0.33,2.87-0.88
				c0.79-0.53,1.43-1.18,2.5-1.07c0.38,0.04,0.94-0.15,1.18-0.44c0.48-0.55,1.08-0.55,1.67-0.76c1.37-0.49,2.83-0.84,3.89-1.95
				c0.14-0.14,0.29-0.18,0.46-0.11c0.75,0.3,1.38-0.32,1.72-0.64c0.51-0.48,1.15-0.55,1.6-0.93c0.57-0.48,1.2,0.01,1.72-0.34
				c1.31-0.87,2.69-1.61,4.2-2.09c0.85-0.27,1.75-0.43,2.45-1.09c0.22-0.21,0.56-0.23,0.87-0.14c0.32,0.09,0.6-0.03,0.88-0.15
				c2.09-0.89,4.2-1.74,6.27-2.69c2.23-1.03,4.4-2.19,6.77-2.89c0.2-0.06,0.51-0.09,0.53-0.3c0.06-0.63,0.48-0.6,0.92-0.61
				c0.4-0.01,0.74-0.24,1.11-0.33c0.86-0.21,1.47-0.96,2.35-1.05c0.82-0.08,1.58-0.31,2.33-0.6l-3.82-8.76
				c-0.46,0.18-0.91,0.38-1.37,0.58c-0.86,0.39-1.73,0.74-2.6,1.09l3.86,8.85l1.96-0.78c1.8-0.72,3.57-1.54,5.37-2.27
				c1.49-0.6,2.87-1.42,4.33-2.06c0.99-0.44,1.16-0.61,0.96-1.68C795.9,152.56,795.37,151.63,794.9,150.68z"/>
		</g>
		<g>
			<path class="st0" d="M815.13,184.78c-0.23-0.55-0.47-1.1-0.7-1.66c-0.34-0.87-1.04-1.47-1.74-2.01
				c-0.41-0.32-0.93-0.61-1.55-0.32c-2.8,1.29-5.59,2.58-8.41,3.84c-1.7,0.75-3.39,1.55-5.16,2.1c-0.95,0.3-1.88,0.75-2.61,1.24
				c-1.31,0.88-2.71,1.5-4.09,2.2c-1.55,0.78-3.22,1.3-4.74,2.15c-0.52,0.29-0.97,0.68-1.56,0.9c-2.19,0.8-4.36,1.64-6.51,2.55
				c-3.13,1.33-6.23,2.74-9.34,4.11c-0.32,0.14-0.67,0.19-0.98,0.35c-2.97,1.56-6.17,2.58-9.22,3.94c-2.57,1.14-5.38,1.66-7.88,3.02
				c-1.46,0.79-3.11,1.19-4.54,1.98c-2.46,1.35-5.16,2.14-7.66,3.39c-1.7,0.85-3.48,1.54-5.31,2.12c-2.39,0.77-4.48,2.25-6.67,3.48
				c-1.1,0.62-2.23,1.16-3.5,1.37c-0.84,0.14-1.16,0.53-0.95,1.33c0.23,0.85,0.56,1.68,1.04,2.44c0.88,1.37,1.75,2.73,2.58,4.12
				c0.55,0.92,0.52,0.95,1.47,0.52c0.16-0.07,0.31-0.16,0.47-0.22c1.73-0.7,3.19-1.92,4.97-2.52c0.69-0.23,1.38-0.61,1.83-1.2
				c0.35-0.46,0.82-0.6,1.3-0.82c1.02-0.47,2.28-0.52,2.89-1.7c0.04-0.08,0.23-0.16,0.33-0.14c0.59,0.13,0.84-0.36,1.2-0.63
				c0.49-0.37,0.95-0.75,1.55-0.94c1.67-0.52,3.33-1.11,4.84-1.98c1.97-1.14,4.41-0.99,6.28-2.36c0.09-0.07,0.26-0.08,0.37-0.05
				c1.15,0.31,2.05-0.33,2.88-0.89c0.79-0.53,1.44-1.18,2.51-1.07c0.39,0.04,0.94-0.15,1.19-0.44c0.48-0.55,1.09-0.56,1.68-0.77
				c1.37-0.49,2.84-0.84,3.91-1.96c0.14-0.14,0.29-0.18,0.47-0.11c0.75,0.29,1.39-0.32,1.73-0.64c0.51-0.48,1.16-0.55,1.61-0.94
				c0.57-0.49,1.21,0.01,1.73-0.34c1.32-0.87,2.7-1.62,4.21-2.1c0.86-0.27,1.76-0.43,2.46-1.1c0.22-0.21,0.56-0.23,0.87-0.14
				c0.32,0.09,0.6-0.03,0.88-0.15c2.1-0.9,4.22-1.75,6.29-2.7c2.24-1.03,4.42-2.2,6.8-2.9c0.2-0.06,0.52-0.09,0.54-0.31
				c0.06-0.63,0.49-0.6,0.93-0.62c0.4-0.01,0.74-0.24,1.11-0.33c0.86-0.21,1.47-0.97,2.36-1.05c1.33-0.13,2.52-0.66,3.71-1.19
				c1.51-0.68,3.05-1.27,4.58-1.88c1.81-0.72,3.58-1.55,5.39-2.28c1.49-0.6,2.88-1.42,4.34-2.07c1-0.44,1.17-0.61,0.97-1.68
				C816.13,186.66,815.59,185.73,815.13,184.78z"/>
		</g>
	</g>
	<path class="st0" d="M597.13,26.83c-3.99-1.2-7.08-4.47-8.07-8.53c-0.11-0.48-0.92-0.48-1.03,0c-0.99,4.06-4.08,7.33-8.07,8.53
		c-0.22,0.07-0.38,0.27-0.38,0.51s0.15,0.44,0.38,0.51c3.99,1.2,7.08,4.47,8.07,8.53c0.06,0.24,0.27,0.4,0.52,0.4
		s0.46-0.17,0.52-0.4c0.99-4.06,4.08-7.33,8.07-8.53c0.22-0.07,0.38-0.27,0.38-0.51S597.35,26.9,597.13,26.83z"/>
	<path class="st0" d="M909.83,285.77c-3.99-1.2-7.08-4.47-8.07-8.53c-0.11-0.48-0.92-0.48-1.03,0c-0.99,4.06-4.08,7.33-8.07,8.53
		c-0.22,0.07-0.38,0.27-0.38,0.51s0.15,0.44,0.38,0.51c3.99,1.2,7.08,4.47,8.07,8.53c0.06,0.24,0.27,0.4,0.52,0.4
		s0.46-0.17,0.52-0.4c0.99-4.06,4.08-7.33,8.07-8.53c0.22-0.07,0.38-0.27,0.38-0.51S910.06,285.84,909.83,285.77z"/>
	<path class="st0" d="M165.62,139.64c-3.99-1.2-7.08-4.47-8.07-8.53c-0.11-0.48-0.92-0.48-1.03,0c-0.99,4.06-4.08,7.33-8.07,8.53
		c-0.22,0.07-0.38,0.27-0.38,0.51c0,0.23,0.15,0.44,0.38,0.51c3.99,1.2,7.08,4.47,8.07,8.53c0.06,0.24,0.27,0.4,0.52,0.4
		s0.46-0.17,0.52-0.4c0.99-4.06,4.08-7.33,8.07-8.53c0.22-0.07,0.38-0.27,0.38-0.51C166,139.91,165.84,139.71,165.62,139.64z"/>
	<path class="st0" d="M85.44,551.63c-3.99-1.2-7.08-4.47-8.07-8.53c-0.11-0.48-0.92-0.48-1.03,0c-0.99,4.06-4.08,7.33-8.07,8.53
		c-0.22,0.07-0.38,0.27-0.38,0.51s0.15,0.44,0.38,0.51c3.99,1.2,7.08,4.47,8.07,8.53c0.06,0.24,0.27,0.4,0.52,0.4
		c0.24,0,0.46-0.17,0.52-0.4c0.99-4.06,4.08-7.33,8.07-8.53c0.22-0.07,0.38-0.27,0.38-0.51S85.66,551.69,85.44,551.63z"/>
	<path class="st0" d="M894.67,649.59c-3.99-1.2-7.08-4.47-8.07-8.53c-0.11-0.48-0.92-0.48-1.03,0c-0.99,4.06-4.08,7.33-8.07,8.53
		c-0.22,0.07-0.38,0.27-0.38,0.51s0.15,0.44,0.38,0.51c3.99,1.2,7.08,4.47,8.07,8.53c0.06,0.24,0.27,0.4,0.52,0.4
		s0.46-0.17,0.52-0.4c0.99-4.06,4.08-7.33,8.07-8.53c0.22-0.07,0.38-0.27,0.38-0.51S894.89,649.65,894.67,649.59z"/>
	<path class="st0" d="M818.72,355.05c-7.55-2.28-13.41-8.47-15.27-16.15c-0.22-0.9-1.73-0.9-1.95,0
		c-1.87,7.68-7.72,13.87-15.27,16.15c-0.42,0.13-0.71,0.52-0.71,0.96c0,0.44,0.29,0.83,0.71,0.96c7.55,2.28,13.41,8.47,15.27,16.15
		c0.11,0.45,0.51,0.77,0.98,0.77c0.46,0,0.87-0.32,0.98-0.77c1.87-7.68,7.72-13.87,15.27-16.15c0.42-0.13,0.71-0.52,0.71-0.96
		C819.43,355.57,819.14,355.18,818.72,355.05z"/>
	<path class="st0" d="M156.32,703.37c-7.55-2.28-13.41-8.47-15.27-16.15c-0.22-0.9-1.73-0.9-1.95,0
		c-1.87,7.68-7.72,13.87-15.27,16.15c-0.42,0.13-0.71,0.52-0.71,0.96c0,0.44,0.29,0.83,0.71,0.96c7.55,2.28,13.41,8.47,15.27,16.15
		c0.11,0.45,0.51,0.77,0.98,0.77c0.46,0,0.87-0.32,0.98-0.77c1.87-7.68,7.72-13.87,15.27-16.15c0.42-0.13,0.71-0.52,0.71-0.96
		C157.04,703.89,156.75,703.5,156.32,703.37z"/>
	<path class="st0" d="M111.47,56.28C103.92,54,98.06,47.81,96.2,40.12c-0.22-0.9-1.73-0.9-1.95,0C92.38,47.81,86.53,54,78.98,56.28
		c-0.42,0.13-0.71,0.52-0.71,0.96s0.29,0.83,0.71,0.96c7.55,2.28,13.41,8.47,15.27,16.15c0.11,0.45,0.51,0.77,0.98,0.77
		c0.46,0,0.87-0.32,0.98-0.77c1.87-7.68,7.72-13.87,15.27-16.15c0.42-0.13,0.71-0.52,0.71-0.96S111.89,56.4,111.47,56.28z"/>
</g>
</svg>
