<svg xmlns="http://www.w3.org/2000/svg" viewBox="0 0 1530 990"><defs><style>.cls-1{fill:#282828;}.cls-2{fill:#f1852b;}.cls-3{fill:#cf4227;}.cls-4{fill:#8ffff7;}.cls-5{fill:#088cfa;}.cls-6{fill:#79be70;}.cls-7{fill:#f0c400;}</style></defs><g id="Décor_ferroviaire" data-name="Décor ferroviaire"><path class="cls-1" d="M82.9,795.31a1.5,1.5,0,0,1-.13-3,589.55,589.55,0,0,0,199.41-53.54C294.58,733,307,726.61,319,720.48c19.66-10.06,40-20.45,60.88-28.79,40-16,74.9-21.24,106.66-16.11a1.5,1.5,0,0,1-.47,3c-31.22-5-65.59.18-105.08,15.94-20.75,8.29-41,18.65-60.63,28.67-12,6.15-24.47,12.51-36.92,18.33A592.31,592.31,0,0,1,83,795.3Z"/><path class="cls-1" d="M82.9,736a1.5,1.5,0,0,1-.08-3c42.29-2.23,96.86-20.39,166.84-55.51,69.1-34.68,151.35-69.15,237.61-61.91a1.5,1.5,0,1,1-.25,3c-85.51-7.18-167.29,27.11-236,61.6C180.65,715.49,125.69,733.76,83,736Z"/><path class="cls-2" d="M438.78,689.62a1.49,1.49,0,0,1-1.49-1.35c-2.62-25.93-5.33-52.75-11.33-77.52a1.5,1.5,0,0,1,.23-1.23,1.55,1.55,0,0,1,1.09-.62l19.28-1.7a1.51,1.51,0,0,1,1.63,1.35,761.51,761.51,0,0,0,11.28,78.56,1.49,1.49,0,0,1-.3,1.22,1.52,1.52,0,0,1-1.12.57l-19.22.72Zm-9.5-77.88c5.66,24,8.32,49.82,10.85,74.83l16.06-.6a762.76,762.76,0,0,1-10.85-75.65Z"/><path class="cls-2" d="M400.12,701.33a1.49,1.49,0,0,1-1.37-.9c-11.83-27-22.8-54.73-32.63-82.38a1.5,1.5,0,0,1,.09-1.21,1.53,1.53,0,0,1,.94-.75c4.74-1.24,9.64-2.52,16.93-4.14a1.51,1.51,0,0,1,1.74,1L414.76,695a1.5,1.5,0,0,1-.95,1.92l-13.23,4.3A1.47,1.47,0,0,1,400.12,701.33ZM369.5,618.58C379,645.23,389.58,671.93,401,698l10.47-3.39-28-79.42C377.68,616.46,373.45,617.55,369.5,618.58Z"/><path class="cls-2" d="M302.5,740.53a1.62,1.62,0,0,1-.58-.11,1.5,1.5,0,0,1-.82-.84l-37.41-95.46a1.51,1.51,0,0,1,.12-1.34,1.55,1.55,0,0,1,1.16-.7,77.36,77.36,0,0,0,9.06-1.44,50.23,50.23,0,0,1,10.14-1.37,1.49,1.49,0,0,1,1.37.92l37.26,90.14a1.5,1.5,0,0,1-.8,1.95l-18.91,8.13A1.52,1.52,0,0,1,302.5,740.53Zm-35.3-95.66L303.33,737l16.13-6.93-36.3-87.82a59.55,59.55,0,0,0-8.54,1.29C272.21,644.06,269.74,644.56,267.2,644.87Z"/><path class="cls-2" d="M253.35,767.3a1.49,1.49,0,0,1-1.33-.81c-14.88-28.64-28.9-58.1-41.69-87.54a1.51,1.51,0,0,1,.73-2c5-2.38,10.21-4.85,15.58-7.32a1.5,1.5,0,0,1,2,.73l42,89.5a1.5,1.5,0,0,1-.89,2.06l-15.93,5.26A1.6,1.6,0,0,1,253.35,767.3Zm-39.69-88.22c12.44,28.55,26,57.1,40.43,84.89l13.11-4.33L226.54,673C222.13,675.06,217.84,677.1,213.66,679.08Z"/><path class="cls-2" d="M200,780.78a1.51,1.51,0,0,1-1.33-.81,536.31,536.31,0,0,1-35.07-85.6,1.5,1.5,0,0,1,.85-1.83c4.18-1.74,8.48-3.54,13.65-4.28a1.5,1.5,0,0,1,1.57.84l40.88,86.42a1.49,1.49,0,0,1-1.11,2.12l-19.2,3.12Zm-33.13-86a533.19,533.19,0,0,0,34,82.84L216.94,775l-39.55-83.6A50.4,50.4,0,0,0,166.82,694.78Z"/><path class="cls-2" d="M137.93,803.25a1.49,1.49,0,0,1-1.45-1.11c-7.66-29-15.57-58.91-23.73-88.29A1.51,1.51,0,0,1,114,712l16.23-2.32a1.49,1.49,0,0,1,1.66,1.11l22.8,89.86a1.49,1.49,0,0,1-.25,1.26,1.47,1.47,0,0,1-1.13.61l-15.29.77ZM116.1,714.69c7.9,28.49,15.55,57.45,23,85.5l12.24-.61-22-86.78Z"/><rect class="cls-3" x="132.79" y="461.78" width="16" height="30.91" transform="translate(-342.52 358.96) rotate(-59.81)"/><rect class="cls-3" x="134.3" y="503.5" width="16" height="26.42" transform="translate(-372.13 366.37) rotate(-58.31)"/><rect class="cls-3" x="140.31" y="537.58" width="16" height="35.19" transform="translate(-390.07 354.27) rotate(-54.58)"/><rect class="cls-3" x="141.41" y="580.71" width="16" height="28.49" transform="translate(-403.85 330.01) rotate(-50.31)"/><path class="cls-3" d="M161.05,644.77a66.43,66.43,0,0,0-21-12.41l5.48-15a82,82,0,0,1,26,15.39Z"/><rect class="cls-3" x="151.5" y="658.54" width="16" height="27.33" transform="translate(-499.67 465.32) rotate(-59.23)"/><rect class="cls-3" x="153.51" y="699.24" width="16" height="25.52" transform="translate(-523.61 459.73) rotate(-57)"/><rect class="cls-3" x="158.87" y="736.98" width="16" height="24.88" transform="translate(-581.63 578.48) rotate(-64.58)"/><rect class="cls-3" x="164.2" y="772.08" width="16" height="28.02" transform="translate(-617.01 628.78) rotate(-66.37)"/><path class="cls-1" d="M190.22,862.82h-.08c-5.78-.29-12.62-.34-19.24-.39s-13.46-.09-19.29-.38h-.15c-1.37-.12-1.37-1.25-1.37-2.55,0-.69,0-1.68,0-2.91,0-2.46,0-5.85,0-9.61,0-7.53.1-16.53.13-22.44,0-3.69,0-6.17,0-6.32a1.5,1.5,0,0,1,1.63-1.51h0c.34,0,1.81,0,3.51,0,8.19-.05,27.37-.17,36.08.68a1.5,1.5,0,0,1,1.14.74c.36.6.4.68-.36,20.58-.36,9.31-.8,20.87-.67,22.29a1.47,1.47,0,0,1-.23,1.2A1.5,1.5,0,0,1,190.22,862.82Zm1.38-2.08Zm0,0Zm-38.51-1.62c5.46.24,11.74.28,17.83.32s12.27.09,17.74.32c0-2.48.18-8,.69-21.18.28-7.26.59-15.33.62-18.33-9.06-.71-26.71-.6-34.46-.55-.91,0-1.63,0-2.21,0V820l0,4.6C153.22,833.73,153.09,853.7,153.09,859.11Z"/><path class="cls-1" d="M170.71,846.3a6.5,6.5,0,1,1,6.5-6.5A6.5,6.5,0,0,1,170.71,846.3Zm0-10a3.5,3.5,0,1,0,3.5,3.5A3.5,3.5,0,0,0,170.71,836.3Z"/><path class="cls-1" d="M167.43,819.66a1.51,1.51,0,0,1-1.49-1.36C157.59,732.05,130.58,454,130.58,454a1.48,1.48,0,0,1,.9-1.52c.46-.2,2-.49,8.06-1.53,1.89-.32,3.67-.63,4.19-.74a1.51,1.51,0,0,1,1.81,1.36c4.71,61.89,10.65,123.71,16.4,183.49,5.73,59.61,11.65,121.24,16.36,183a1.5,1.5,0,1,1-3,.23c-4.7-61.73-10.63-123.35-16.36-182.94-5.7-59.26-11.59-120.53-16.28-181.89l-2.62.45c-1.91.33-4.77.81-6.36,1.12,2,20.74,27.22,280.22,35.24,363a1.5,1.5,0,0,1-1.35,1.64Z"/><rect class="cls-3" x="1400.14" y="318.72" width="30.91" height="16" transform="translate(27.69 756.09) rotate(-30.19)"/><rect class="cls-3" x="1400.87" y="358.19" width="26.42" height="16" transform="translate(18.45 797.39) rotate(-31.69)"/><rect class="cls-3" x="1390.49" y="396.65" width="35.19" height="16" transform="matrix(0.81, -0.58, 0.58, 0.81, 26.09, 891)"/><rect class="cls-3" x="1392.73" y="436.44" width="28.49" height="16" transform="translate(40.41 1000.85) rotate(-39.68)"/><path class="cls-3" d="M1395.33,494.25l-10.52-12.05a82.35,82.35,0,0,1,26-15.4l5.48,15A66.68,66.68,0,0,0,1395.33,494.25Z"/><rect class="cls-3" x="1383.22" y="513.69" width="27.33" height="16" transform="translate(-70.25 788.06) rotate(-30.77)"/><rect class="cls-3" x="1382.11" y="553.48" width="25.52" height="16" transform="translate(-80.8 850.12) rotate(-32.99)"/><rect class="cls-3" x="1377.08" y="590.9" width="24.88" height="16" transform="translate(-122.55 654.35) rotate(-25.42)"/><rect class="cls-3" x="1370.18" y="627.57" width="28.02" height="16" transform="translate(-138.7 608.19) rotate(-23.63)"/><path class="cls-1" d="M1366.17,712.3a1.52,1.52,0,0,1-1.24-.64,1.5,1.5,0,0,1-.22-1.2c.13-1.42-.32-13-.67-22.29-.77-19.91-.72-20-.37-20.58a1.51,1.51,0,0,1,1.15-.74c8.71-.85,27.88-.73,36.08-.68,1.69,0,3.16,0,3.51,0h0a1.51,1.51,0,0,1,1.47.8,1.61,1.61,0,0,1,.17.71h0c0,.15,0,2.65,0,6.35,0,5.92.09,14.91.13,22.43,0,3.76,0,7.14,0,9.59V709c0,1.3,0,2.43-1.37,2.55a.37.37,0,0,1-.15,0c-5.82.29-12.67.34-19.28.38s-13.47.1-19.25.39Zm-1.38-2.09Zm0,0Zm1.63-40.49c0,3,.34,11.07.62,18.33.5,13.14.68,18.7.68,21.18,5.47-.23,11.7-.28,17.74-.32s12.37-.08,17.83-.32c0-5.4-.12-25.36-.18-34.53l0-4.63v-.25c-.57,0-1.29,0-2.2,0C1393.13,669.12,1375.48,669,1366.42,669.72Z"/><path class="cls-1" d="M1385.67,695.78a6.5,6.5,0,1,1,6.5-6.5A6.51,6.51,0,0,1,1385.67,695.78Zm0-10a3.5,3.5,0,1,0,3.5,3.5A3.51,3.51,0,0,0,1385.67,685.78Z"/><path class="cls-1" d="M1389,669.13h-.15a1.5,1.5,0,0,1-1.34-1.64c8-82.79,33.22-342.33,35.23-363-1.55-.29-4.43-.78-6.36-1.11l-2.62-.45c-4.69,61.36-10.58,122.62-16.28,181.89-5.73,59.59-11.65,121.21-16.36,182.94a1.5,1.5,0,1,1-3-.23c4.71-61.76,10.64-123.4,16.37-183,5.74-59.78,11.69-121.6,16.4-183.49a1.49,1.49,0,0,1,1.8-1.36c.53.11,2.31.42,4.19.74,6.1,1,7.6,1.33,8.06,1.53a1.5,1.5,0,0,1,.91,1.52s-27,278.07-35.37,364.32A1.5,1.5,0,0,1,1389,669.13Z"/></g><g id="Écrans_clairs" data-name="Écrans clairs"><path class="cls-4" d="M379.43,628.88c-52.12-3.81-105.45-8.65-157-13.33l-.16,0a1.5,1.5,0,0,0-1.63,1.35,656.2,656.2,0,0,0-2.78,78.36,1.48,1.48,0,0,0,1.26,1.44c47.12,7.56,99.12,13.13,159,17.05h.1a1.49,1.49,0,0,0,1-.38,1.51,1.51,0,0,0,.51-1c1.48-27.18,1.87-54.76,1.16-82A1.51,1.51,0,0,0,379.43,628.88Z"/><path class="cls-4" d="M388.78,622.88a1.5,1.5,0,0,0-1.38-1.46c-57.42-4.65-116.09-10.55-172.84-16.26a1.51,1.51,0,0,0-1.64,1.37,883.08,883.08,0,0,0-3.06,95.36,1.52,1.52,0,0,0,1.24,1.45c51.81,9.2,109,16,174.79,20.75H386a1.5,1.5,0,0,0,1.5-1.43C389.12,689.58,389.55,656,388.78,622.88ZM384.58,721C320,716.27,263.82,709.6,212.84,700.6a878.91,878.91,0,0,1,2.94-92.3c55.84,5.61,113.53,11.4,170,16C386.53,656.4,386.12,688.91,384.58,721Z"/><path class="cls-4" d="M429.43,374.7c-1-.78-2.26-1.84-145.61,4.59a1.49,1.49,0,0,0-1.42,1.62c2,24.25.34,48.76-1.24,72.48-.19,2.76-.21,5.89,1.83,8.1s4.73,2.39,7.45,2.55l140.33,7.88h.09a1.5,1.5,0,0,0,1.5-1.51C432.26,377,430.49,375.56,429.43,374.7Z"/><path class="cls-4" d="M439,481.35h-.09L282.35,472c-3-.18-6.12-.56-8.22-3s-2.16-6.17-2-9.38c1.77-28.21,3.59-57.37,1.38-86.24a1.49,1.49,0,0,1,1.42-1.61c159.9-7.64,161.39-6.35,162.38-5.49s3.06,2.65,3.17,113.57a1.5,1.5,0,0,1-.47,1.09A1.52,1.52,0,0,1,439,481.35ZM276.65,374.69c2.06,28.57.25,57.31-1.49,85.11-.17,2.74-.22,5.56,1.24,7.23s3.66,1.8,6.13,2l155,9.28c-.11-88.71-1.5-106.42-2.24-109.56C428.63,368,375.3,370,276.65,374.69Z"/><path class="cls-4" d="M473.24,349.36c30.56.7,61.32,1.05,92.09,1.05,36.35,0,72.72-.49,108.82-1.47a1.5,1.5,0,0,0,1.46-1.49l.53-102.9a1.49,1.49,0,0,0-.43-1.06,1.53,1.53,0,0,0-1.06-.45c-67.88-.18-136.67-1.83-204.47-4.91a1.51,1.51,0,0,0-1.57,1.55c1.23,36.77,2.22,73.09,3.17,108.22A1.5,1.5,0,0,0,473.24,349.36Z"/><path class="cls-4" d="M684.84,233.41a1.5,1.5,0,0,0-1.06-.44c-74-.22-149-2.15-222.93-5.75a1.48,1.48,0,0,0-1.13.42,1.51,1.51,0,0,0-.44,1.12c1.33,42.89,2.41,85.4,3.44,126.51v.24a1.5,1.5,0,0,0,1.46,1.47c33.32.82,66.85,1.23,100.41,1.23,39.63,0,79.29-.57,118.64-1.72A1.5,1.5,0,0,0,684.7,355l.58-120.52A1.52,1.52,0,0,0,684.84,233.41ZM681.7,353.53c-71.67,2.06-144.33,2.22-216,.48-1-40.22-2.06-81.78-3.36-123.72,72.94,3.53,146.92,5.44,219.94,5.67Z"/><path class="cls-4" d="M721.16,456.94a1.51,1.51,0,0,0-1.46-1.39c-53-1.13-106.8-1.3-159.87-.49a1.48,1.48,0,0,0-1.06.46,1.5,1.5,0,0,0-.42,1.07c.55,29.24.89,58,1.21,85.89A1.5,1.5,0,0,0,561,544l159.91,8.33H721a1.48,1.48,0,0,0,1-.39,1.5,1.5,0,0,0,.5-1A756.71,756.71,0,0,0,721.16,456.94Zm-1.62,92.27-3.33-.17a1.35,1.35,0,0,0,0-.28,667.17,667.17,0,0,0-1.2-84.72,1.5,1.5,0,0,0-1.47-1.38c-48.93-1-98.54-1.17-147.47-.45a1.48,1.48,0,0,0-1.05.46,1.46,1.46,0,0,0-.42,1.07c.5,26.32.81,52.31,1.11,77.45h0l-3.21-.17c-.31-26.93-.63-54.75-1.16-83,52.09-.77,104.86-.61,156.89.48A754,754,0,0,1,719.54,549.21Z"/><path class="cls-4" d="M1058.77,271.67a1.5,1.5,0,0,0-1.48-1.48l-193-2.81a1.53,1.53,0,0,0-1.51,1.34c-4.67,45.55-6.67,89.62-8.6,132.24a1.51,1.51,0,0,0,1.41,1.57c50.24,3.08,101.06,4.63,151.61,4.63q21.06,0,42-.35c2.12,0,5-.09,7.3-1.73,3.31-2.39,3.72-6.66,3.67-10.92Z"/><path class="cls-4" d="M1069.7,401.73l-1.58-138.79a1.5,1.5,0,0,0-1.48-1.48l-211-3.19h0a1.5,1.5,0,0,0-1.49,1.36c-5.11,51.59-7.29,101.53-9.4,149.82a1.5,1.5,0,0,0,1.41,1.56c54.93,3.5,110.5,5.26,165.78,5.26q23,0,45.95-.41c2.31,0,5.48-.1,7.93-1.93C1069.31,411.27,1069.75,406.5,1069.7,401.73Zm-5.73,9.8c-1.55,1.16-3.72,1.29-6.18,1.33-69.75,1.24-140.4-.36-210-4.75,2.07-47.36,4.24-96.31,9.19-146.82l208.19,3.15,1.56,137.33C1066.74,405.74,1066.44,409.67,1064,411.53Z"/><path class="cls-4" d="M1332.49,455.58h0l-175.87,4a1.5,1.5,0,0,0-1.47,1.45c-1.1,39-1,76.5.44,114.69a1.5,1.5,0,0,0,1.41,1.44c39.46,2.35,79.3,3.52,119,3.52q29.61,0,59.08-.87a1.5,1.5,0,0,0,1.46-1.46c1-40.31.11-81.15-2.56-121.39A1.51,1.51,0,0,0,1332.49,455.58Z"/><path class="cls-4" d="M1341.46,448.05a1.49,1.49,0,0,0-1.53-1.4l-191,4.6a1.5,1.5,0,0,0-1.46,1.46c-1.2,44.68-1,87.68.47,131.45a1.51,1.51,0,0,0,1.41,1.45c42.86,2.68,86.13,4,129.29,4q32.16,0,64.16-1a1.5,1.5,0,0,0,1.45-1.46C1345.29,541,1344.36,494.16,1341.46,448.05Zm-.19,137.64c-63.21,1.92-127.25.92-190.39-3-1.46-42.78-1.61-84.84-.46-128.49l188.14-4.53C1341.35,494.76,1342.26,540.5,1341.27,585.69Z"/></g><g id="Écrans"><path class="cls-5" d="M463.56,228.34c178.74,72.59,385.47,63.15,557.73,6.18.31-1.18.3-120.83-.15-123.29-191.51,63.35-394.84,48.54-546,6.76C474.85,126.94,463.56,227.58,463.56,228.34Z"/><path class="cls-5" d="M204.47,232.73c57.17-1.82,114.4-1.37,177.81-.22l.56,103.8c-20.8.75-59,6.65-99.76,4.22-19.87-1.18-62.13.73-81.74-2.85C201.46,301.85,203,261,204.47,232.73Z"/><path class="cls-5" d="M440.34,583.36,443.11,452c-71.19-4.14-142.18-7.66-213.38-11.55-1,45.67.39,91.39,3.51,137.25C302.26,580.55,371.31,582.79,440.34,583.36Z"/><path class="cls-5" d="M472.28,532.39q136.66.25,273.33.44c.93,65.53-.74,125.1-5.73,191.79-9,.44-261.62-2-266.59-2.27C471.39,718.71,472.28,541.14,472.28,532.39Z"/><path class="cls-5" d="M1240.77,319.18c-1.72.31-92.42,6-137.87-.41a512.43,512.43,0,0,1,1.54-80c2.28.08,135.29-.49,136.71-.49C1241.1,238.56,1241,315.83,1240.77,319.18Z"/><path class="cls-5" d="M968.28,488.86c-1.1-44.65-2.21-96.79-3.31-141.44-63.59,3.35-127.42,6.07-191.26,8.79,2,43.66,4.26,89.65,5.62,139.74C843,497.19,906.61,503.53,968.28,488.86Z"/><path class="cls-5" d="M988.39,692.77c-19.42,1.63-170,4-185.58-.87-2.44-7.13-6.91-100.57-6.91-123,4.51,0,163.35-5.08,191.6-6.59C987.31,562.43,988.39,687.3,988.39,692.77Z"/><path class="cls-5" d="M1289.92,714.23c0-39.62-1.05-150-3.26-188-31.32,0-248.06,7.94-269.42,5.6,3.78,65.31,7.34,116.85,11.71,184.44C1115.51,716,1202.07,713.63,1289.92,714.23Z"/><path class="cls-1" d="M288.61,333.48c-5.55,0-11.1-.14-16.63-.47-6.66-.41-13.35-.52-19.83-.64-12.71-.22-25.87-.45-39-2.89a1.51,1.51,0,0,1-1.23-1.48c.12-36.16,1.15-78.1,2.64-106.84a1.5,1.5,0,0,1,1.45-1.42c60.56-2,121.29-1.27,177.88-.23a1.5,1.5,0,0,1,1.47,1.5l.56,105.69a1.48,1.48,0,0,1-.44,1.07,1.64,1.64,0,0,1-1.08.43c-18.37-.28-37.05,1.2-55.13,2.63C322.67,332.14,305.62,333.48,288.61,333.48Zm-73.67-6.73c12.44,2.19,24.51,2.4,37.27,2.62,6.5.12,13.23.23,20,.64,22.25,1.35,44.94-.44,66.88-2.18,17.64-1.39,35.88-2.83,53.87-2.65l-.54-102.69c-55.71-1-115.36-1.69-174.89.2C216.07,251,215.07,291.5,214.94,326.75Z"/><path class="cls-6" d="M321.33,321.12c-3.09-7.07-6.81-14.62-10.39-21.92s-7.28-14.81-10.34-21.81a1.5,1.5,0,0,0-2-.78c-.72.31-4.45,2.52-10.51,6.12-2.5,1.48-4.89,2.9-6.42,3.79-3.73-6.73-11-19.36-12.2-21.37a1.5,1.5,0,0,0-2.06-.51c-4.37,2.68-11.95,7.19-20,12-8.51,5.07-17.32,10.31-22.71,13.61a1.49,1.49,0,0,0-.72,1.28c0,11.62.15,20.17.72,29.48a1.5,1.5,0,0,0,1.39,1.4c11.08.81,80.09.85,93.81.85a1.5,1.5,0,0,0,1.37-2.1Z"/><path class="cls-1" d="M451.42,572.09h0c-59.82-.5-125.65-2.3-207.16-5.66a1.49,1.49,0,0,1-1.43-1.4c-3.31-48.73-4.46-93.66-3.51-137.38a1.5,1.5,0,0,1,1.58-1.46c26.55,1.45,53.52,2.87,79.59,4.25,43.83,2.31,89.15,4.7,133.8,7.3a1.49,1.49,0,0,1,1.41,1.53l-2.77,131.35A1.5,1.5,0,0,1,451.42,572.09Zm-205.7-8.6c80.19,3.3,145.17,5.07,204.23,5.59l2.71-128.43c-44.17-2.56-89-4.93-132.33-7.22-25.58-1.34-52-2.74-78.06-4.16C241.4,472,242.53,515.94,245.72,563.49Z"/><path class="cls-1" d="M882.4,485.54c-18.5,0-37-.64-55.19-1.29-12.25-.43-24.92-.87-37.38-1.11a1.5,1.5,0,0,1-1.47-1.46C787.07,434,785,390.39,783,348.22l-.29-6.26a1.5,1.5,0,0,1,1.43-1.57h.16c62.71-2.68,127.56-5.44,191.08-8.78a1.52,1.52,0,0,1,1.1.39,1.5,1.5,0,0,1,.48,1.07c.55,22.26,1.11,46.79,1.65,70.51.54,23.87,1.11,48.54,1.66,70.92a1.49,1.49,0,0,1-1.15,1.5C947.45,483.55,914.86,485.54,882.4,485.54Zm-91.08-5.37c12,.24,24.2.67,36,1.09,49.64,1.74,101,3.55,150-7.9-.54-22.06-1.09-46.28-1.63-69.71-.53-23.18-1.07-47.12-1.61-69-62.6,3.29-126.43,6-188.23,8.65l.23,4.75C788,389.84,790,433,791.32,480.17Z"/><path class="cls-1" d="M1174.08,313.14c-21.84,0-44.07-.76-60.49-3.08a1.49,1.49,0,0,1-1.28-1.39,508.65,508.65,0,0,1,1.54-80.29,1.54,1.54,0,0,1,1.55-1.36c1.8.07,88.84-.29,121.61-.43l15-.06a1.5,1.5,0,0,1,1.5,1.59c0,.6,0,9.33-.07,20.36-.09,30.73-.18,58.49-.31,60.59a1.5,1.5,0,0,1-1.23,1.39C1250.3,310.76,1212.8,313.14,1174.08,313.14Zm-58.86-5.88c42.45,5.71,123.69,1.24,135,.35.12-6.88.21-38,.27-59.14,0-11.77,0-16.77.06-18.93l-13.51.05c-33.49.14-108.93.46-120.32.44A507.39,507.39,0,0,0,1115.22,307.26ZM1251.68,309h0Z"/><path class="cls-1" d="M889.26,685.81c-36.83,0-70.38-.73-77.53-2.95a1.51,1.51,0,0,1-1-1c-2.53-7.42-7-102.13-7-123.53a1.5,1.5,0,0,1,1.5-1.5c4.41,0,162.92-5.06,191.52-6.59a1.55,1.55,0,0,1,1.48,1,1.51,1.51,0,0,1,.09.73c-.1,2.53.37,61.24.65,96.41.14,18,.25,32.16.25,33.91a1.5,1.5,0,0,1-1.37,1.5C987.79,684.63,935.91,685.81,889.26,685.81Zm-75.85-5.61c18.68,4.39,160.19,2.16,182.85.7,0-4.31-.13-17-.25-32.5-.16-19.34-.35-43.47-.48-62.77-.07-9.65-.13-18.09-.16-24.13,0-4.12,0-6.6,0-8.13-30.94,1.55-172,6.07-188.6,6.48C806.94,584.79,811.16,669.54,813.41,680.2Zm184.35,2.09h0Z"/><path class="cls-1" d="M1042.08,706.46a1.51,1.51,0,0,1-1.5-1.4c-1.15-17.95-2.26-34.76-3.32-51-3-45.86-5.6-85.47-8.39-133.44a1.51,1.51,0,0,1,.47-1.17,1.46,1.46,0,0,1,1.19-.41c13.64,1.5,107.06-1.22,182.13-3.4,40.74-1.19,75.93-2.21,87.14-2.21a1.49,1.49,0,0,1,1.49,1.41c2.26,39,3.27,151.77,3.27,188.07a1.47,1.47,0,0,1-.45,1.06,1.49,1.49,0,0,1-1,.44h0c-52.35-.36-105,.33-156,1-34.42.46-70,.93-105,1.06ZM1032,522.16c2.74,47.18,5.31,86.39,8.28,131.7,1,15.81,2.11,32.18,3.24,49.6,34.51-.15,69.6-.61,103.56-1.06,50.46-.66,102.63-1.35,154.51-1,0-37.34-1-145.36-3.18-185-12.5.08-46.5,1.07-85.64,2.2C1140.24,520.73,1050.63,523.34,1032,522.16Z"/><path class="cls-1" d="M741.91,712.66c-44.33,0-257.67-2.26-259-2.33a1.5,1.5,0,0,1-1.25-.81c-.56-1.06-1.86-3.55-1.21-181.59,0-4.87,0-8.07,0-9.06a1.54,1.54,0,0,1,.44-1.07,1.49,1.49,0,0,1,1.06-.43h0c89,.16,181.05.34,273.33.44a1.49,1.49,0,0,1,1.5,1.47c1,67.09-.82,126.28-5.73,191.93a1.5,1.5,0,0,1-1.42,1.38C748.73,712.64,746.05,712.66,741.91,712.66Zm-257.72-5.31c18.26.25,242.51,2.58,264,2.28,4.79-64.53,6.54-122.9,5.64-188.83-91.28-.09-182.29-.27-270.35-.43,0,1.59,0,4.17,0,7.57C482.91,662.76,483.53,700.8,484.19,707.35Zm.14.94Z"/><path class="cls-1" d="M740.14,264.5c-93.84,0-180.87-16-259-47.77a1.5,1.5,0,0,1-.94-1.39c0-.24.14-1.59,1.94-18,3.3-30,9.44-85.9,9.67-92.45a1.5,1.5,0,0,1,.62-1.15,1.47,1.47,0,0,1,1.28-.24c181.65,50.22,380.33,47.77,545.1-6.73a1.49,1.49,0,0,1,1.94,1.15c.46,2.49-.09,113.47-.57,115.29a1.47,1.47,0,0,1-1,1c-91.4,30.24-187,47.49-276.51,49.9Q751.36,264.51,740.14,264.5ZM483.32,214.37c213.28,86.17,438.17,35.57,554-2.61.33-10.28.76-97.53.56-111.48-85.64,28.09-178.4,42.31-275.88,42.31q-5.41,0-10.84-.06c-86.26-.93-174.88-13.23-256.44-35.61-.9,11.88-6.48,62.66-9.56,90.78C484.29,205.47,483.58,211.91,483.32,214.37Z"/><path class="cls-1" d="M290.07,431.82h0a1.49,1.49,0,0,1-1.47-1.52l1.58-98.46a1.53,1.53,0,0,1,1.52-1.48,1.51,1.51,0,0,1,1.48,1.53l-1.58,98.45A1.51,1.51,0,0,1,290.07,431.82Z"/><path class="cls-1" d="M296.58,431.4h0a1.5,1.5,0,0,1-1.46-1.54c.84-32.37,1.06-65.19.65-97.56a1.5,1.5,0,1,1,3,0c.41,32.41.19,65.27-.65,97.68A1.5,1.5,0,0,1,296.58,431.4Z"/><path class="cls-1" d="M344.75,773.62a1.48,1.48,0,0,1-1.49-1.35c-.2-2.14-2.33-186.9-2.33-201.73a1.5,1.5,0,0,1,3,0c0,14.17,2.12,198.69,2.32,201.47a1.51,1.51,0,0,1-1.38,1.61Z"/><path class="cls-1" d="M350.73,773.63a1.49,1.49,0,0,1-1.5-1.44c-.21-5.87-.51-30.28-.89-61.19-.6-48.51-1.43-115-2.3-140a1.5,1.5,0,1,1,3-.1c.87,25.13,1.7,91.59,2.3,140.12.38,30.88.68,55.28.89,61.11a1.51,1.51,0,0,1-1.45,1.55Z"/><path class="cls-1" d="M352.59,775.39A85.9,85.9,0,0,1,337,774a1.5,1.5,0,1,1,.54-3,83,83,0,0,0,18.94,1.29,1.5,1.5,0,1,1,.14,3C355.27,775.36,353.93,775.39,352.59,775.39Z"/><path class="cls-1" d="M609.27,774.5a1.51,1.51,0,0,1-1.5-1.49l-.31-62.81a1.49,1.49,0,0,1,1.49-1.5h0a1.49,1.49,0,0,1,1.5,1.49l.31,62.8a1.49,1.49,0,0,1-1.49,1.51Z"/><path class="cls-1" d="M618.05,773.68a1.5,1.5,0,0,1-1.5-1.49l-.59-61a1.5,1.5,0,0,1,1.48-1.51h0a1.5,1.5,0,0,1,1.5,1.48l.59,61a1.5,1.5,0,0,1-1.48,1.52Z"/><path class="cls-1" d="M629.55,775l-3.22,0-11.52-.14c-16.94-.23-17.36-.33-17.62-.39a1.5,1.5,0,0,1,.57-2.94c1.65.15,32.2.55,33.73.51l.07,1.5,1.32.72C632.53,774.87,632.45,775,629.55,775Z"/><path class="cls-1" d="M1171.57,782.88a1.5,1.5,0,0,1-1.5-1.44l-3.11-77.6a1.5,1.5,0,0,1,1.44-1.56,1.52,1.52,0,0,1,1.56,1.44l3.11,77.6a1.5,1.5,0,0,1-1.44,1.56Z"/><path class="cls-1" d="M1180.35,783.08a1.49,1.49,0,0,1-1.49-1.43l-3.48-77.83a1.51,1.51,0,0,1,1.43-1.57,1.48,1.48,0,0,1,1.57,1.43l3.47,77.84a1.49,1.49,0,0,1-1.43,1.56Z"/><path class="cls-1" d="M1164.15,784.41a1.5,1.5,0,0,1-.09-3l23.94-1.5a1.5,1.5,0,1,1,.19,3l-23.94,1.51Z"/><path class="cls-1" d="M1188.78,518.67a1.49,1.49,0,0,1-1.49-1.42c-2-34.14-3.27-68.86-4.52-102.42s-2.56-68.25-4.52-102.37a1.5,1.5,0,0,1,3-.17c2,34.15,3.26,68.86,4.51,102.43s2.56,68.24,4.52,102.36a1.49,1.49,0,0,1-1.41,1.58Z"/><path class="cls-1" d="M1195.73,518.67a1.5,1.5,0,0,1-1.5-1.44c-.74-16.18-2.49-58.25-4.18-98.94-2.11-50.67-4.29-103-4.5-105.31a1.5,1.5,0,0,1,2.9-.73c.16.48.4,5.11,4.59,105.91,1.7,40.69,3.45,82.76,4.18,98.94a1.48,1.48,0,0,1-1.43,1.56Z"/><path class="cls-1" d="M884.88,557.6a1.5,1.5,0,0,1-1.5-1.48c-.43-24-1.34-48.38-2.73-72.39a1.5,1.5,0,0,1,1.41-1.58,1.46,1.46,0,0,1,1.58,1.41c1.39,24,2.31,48.44,2.74,72.51a1.51,1.51,0,0,1-1.48,1.53Z"/><path class="cls-1" d="M892.14,557.31a1.5,1.5,0,0,1-1.49-1.39c-1.81-23.78-2.91-47.94-3.27-71.79a1.5,1.5,0,0,1,1.48-1.52h0a1.49,1.49,0,0,1,1.5,1.47c.36,23.8,1.45,47.89,3.26,71.61a1.5,1.5,0,0,1-1.38,1.61Z"/><path class="cls-1" d="M729.13,520.84a1.5,1.5,0,0,1-1.5-1.5c0-22.76.16-75.82.31-127.13.16-52,.32-105.82.32-129.21a1.5,1.5,0,0,1,3,0c0,23.4-.16,77.19-.32,129.22-.15,51.31-.31,104.36-.31,127.12A1.5,1.5,0,0,1,729.13,520.84Z"/><path class="cls-1" d="M736.85,520.37a1.5,1.5,0,0,1-1.5-1.5c0-39,.49-85.23,1-130,.47-43.65.95-88.79.95-125.91a1.5,1.5,0,0,1,3,0c0,37.14-.48,82.29-.95,126-.48,44.71-1,90.95-1,129.92A1.51,1.51,0,0,1,736.85,520.37Z"/></g><g id="Post-it"><path class="cls-7" d="M590.29,459.74a593.25,593.25,0,0,0,88.39-71.29c-27.12-13.09-55.3-27-73.42-51.09-23.86,15.19-51.38,29-81.18,38.13C541,407.51,563.44,436.59,590.29,459.74Z"/><path class="cls-1" d="M592.11,444.09a1.48,1.48,0,0,1-1-.36c-26.23-22.61-49.25-51.9-66.56-84.69a1.51,1.51,0,0,1,.88-2.14c27.09-8.29,54.28-21.06,80.82-38a1.49,1.49,0,0,1,2,.37c18.3,24.29,47.29,38.29,72.87,50.64a1.51,1.51,0,0,1,.4,2.43,597,597,0,0,1-88.61,71.47A1.53,1.53,0,0,1,592.11,444.09Zm-64-84.86c16.85,31.47,39,59.59,64.16,81.49a594,594,0,0,0,85.68-69c-25-12.09-52.9-25.92-71.19-49.51C580.89,338.53,554.44,351,528.07,359.23Z"/><path class="cls-1" d="M571.31,374.81l-.66-.79a1.49,1.49,0,0,0-1.6-.46c-2.73-1.31-5.52-2.51-8.34-3.61l2.43-6.44a1.5,1.5,0,1,0-2.81-1.06l-2.43,6.45c-2.83-1-5.7-1.94-8.59-2.74a1.5,1.5,0,1,0-.8,2.89c2.8.78,5.59,1.66,8.33,2.65l-3,7.84a1.5,1.5,0,0,0,.87,1.93,1.46,1.46,0,0,0,.53.1,1.51,1.51,0,0,0,1.41-1l2.95-7.84c3.35,1.3,6.64,2.75,9.84,4.36a1.64,1.64,0,0,0,.67.16,1.48,1.48,0,0,0,1.18-.58A1.49,1.49,0,0,0,571.31,374.81Z"/><path class="cls-1" d="M605.12,400A43.06,43.06,0,0,1,594,398.56c-10.41-2.76-19.44-8.91-25.33-13.3a1.5,1.5,0,1,1,1.79-2.41c5.69,4.24,14.4,10.18,24.31,12.81,9.51,2.53,19.06,1.57,26.19-2.64,8-4.75,12.72-13.84,11.34-22.1a1.5,1.5,0,1,1,3-.5c1.57,9.47-3.68,19.82-12.78,25.19A34.17,34.17,0,0,1,605.12,400Z"/><path class="cls-1" d="M635.29,360.14c-2-.42-3.91-.91-5.84-1.44l.83-1.77a1.5,1.5,0,0,0-2.72-1.27l-1,2.19c-1.34-.4-2.68-.83-4-1.29a1.5,1.5,0,0,0-1,2.83c1.22.43,2.45.83,3.69,1.21l-2.48,5.29a1.5,1.5,0,0,0,.72,2,1.41,1.41,0,0,0,.63.14,1.49,1.49,0,0,0,1.36-.86l2.68-5.71q3.24.9,6.51,1.61a1.63,1.63,0,0,0,.31,0,1.5,1.5,0,0,0,.32-3Z"/><path class="cls-3" d="M588.83,335.12c-.51-2.65-3.43-4.63-6.24-4.58a37.76,37.76,0,0,0-5.68.46L569,315.62a2.73,2.73,0,0,0-3.52-1.25c-1,.46-2.28,1-3.48,1.48a2.51,2.51,0,0,0-1.33,3.42l7.36,15.4a22.5,22.5,0,0,0-4.12,3.89c-1.7,2.05-2.74,5.64-1.48,8,1.35,2.5,4.88,3,7.8,2.71a26,26,0,0,0,7.28-1.89l3,7.11a1.5,1.5,0,0,0,2.76-1.16l-3-7.27a24.53,24.53,0,0,0,6.12-4.8C587.9,339.53,589.26,337.36,588.83,335.12Z"/><path class="cls-7" d="M729.73,484.06c17.36-15.14,29.25-44.95,31.13-67.91-16.78-5.89-33.32-11.71-49.94-18.32A107.33,107.33,0,0,1,678.4,460.1C695.36,467.43,712.4,480.59,729.73,484.06Z"/><path class="cls-1" d="M724.73,478.4l-.29,0c-11.15-2.23-22.2-8.4-32.89-14.37-6.16-3.44-12.54-7-18.75-9.68a1.51,1.51,0,0,1-.88-1.12,1.49,1.49,0,0,1,.45-1.35,105.62,105.62,0,0,0,32.06-61.4,1.52,1.52,0,0,1,.74-1.08,1.49,1.49,0,0,1,1.3-.09c16.76,6.66,33.6,12.58,49.88,18.3a1.49,1.49,0,0,1,1,1.54C755.55,431.23,744.1,462,725.72,478A1.52,1.52,0,0,1,724.73,478.4Zm-48.68-25.92c5.68,2.6,11.41,5.8,17,8.9,10.25,5.73,20.85,11.64,31.29,13.9,17.15-15.36,27.93-44.07,30-65.26-15.41-5.41-31.3-11-47.15-17.26A108.71,108.71,0,0,1,676.05,452.48Z"/><path class="cls-1" d="M745.29,426.31a1.47,1.47,0,0,1-.67-.16A377.89,377.89,0,0,0,709.39,411a1.5,1.5,0,1,1,1-2.81A377.61,377.61,0,0,1,746,423.46a1.5,1.5,0,0,1-.66,2.85Z"/><path class="cls-1" d="M742.44,437.7a1.76,1.76,0,0,1-.45-.07A178.81,178.81,0,0,1,706.21,422a1.5,1.5,0,0,1,1.49-2.6,175.59,175.59,0,0,0,35.18,15.32,1.5,1.5,0,0,1-.44,2.94Z"/><path class="cls-1" d="M736.18,454.63a1.5,1.5,0,0,1-.76-.21,221.65,221.65,0,0,0-36.69-17.27,1.5,1.5,0,1,1,1-2.82,225.34,225.34,0,0,1,37.2,17.5,1.5,1.5,0,0,1-.77,2.8Z"/><path class="cls-1" d="M726.23,464.15a1.37,1.37,0,0,1-.52-.1A209.26,209.26,0,0,1,691,447.64a1.5,1.5,0,0,1,1.53-2.58,206.47,206.47,0,0,0,34.21,16.18,1.5,1.5,0,0,1-.51,2.91Z"/><path class="cls-3" d="M730.48,389a32.43,32.43,0,0,0-4.62-1.26L724,373.32a2.29,2.29,0,0,0-2.43-2c-.94.06-2.09.13-3.17.17a2.12,2.12,0,0,0-2,2.33l1.41,14.29A19.06,19.06,0,0,0,713.4,390c-1.93,1.13-3.78,3.67-3.45,5.89s3,3.78,5.4,4.38a22.18,22.18,0,0,0,6.06.61l.32,6.47a1.5,1.5,0,0,0,1.5,1.42h.08a1.5,1.5,0,0,0,1.42-1.57l-.33-6.65a20.75,20.75,0,0,0,6-2c1.72-.91,3.42-2.24,3.72-4.13C734.47,392.19,732.73,389.78,730.48,389Z"/><path class="cls-7" d="M1065.65,496.88c-21.44-15.52-46.44-33-67.89-48.55,29.79-26.9,57.56-55.82,75.35-90.09,21.22,14.12,43,30.42,65,46.83C1123.82,442.76,1097.59,475.82,1065.65,496.88Z"/><path class="cls-1" d="M1079.65,498.38a1.49,1.49,0,0,1-.87-.29l-64.34-46.54a1.51,1.51,0,0,1-.62-1.13,1.53,1.53,0,0,1,.49-1.2c29.83-26.94,53.87-57.78,71.47-91.67a1.49,1.49,0,0,1,1-.76,1.52,1.52,0,0,1,1.21.2c20.87,13.89,42.73,30.22,63.87,46l1.16.87a1.5,1.5,0,0,1,.5,1.73c-14.22,37.59-40.83,71.32-73,92.53A1.55,1.55,0,0,1,1079.65,498.38Zm-62-48.18,62,44.85c31-20.7,56.62-53.21,70.58-89.46l-.24-.18c-20.64-15.42-42-31.35-62.36-45C1070.25,393.52,1046.72,423.71,1017.7,450.2Z"/><path class="cls-1" d="M1091.57,462.31a1.83,1.83,0,0,1-.4-.05,1.51,1.51,0,0,1-1.05-1.85c3.74-13.49,8.79-32.93,12.25-50.8-14.93,8.34-30.53,17.83-45.64,27a1.5,1.5,0,1,1-1.56-2.57c16.08-9.79,32.72-19.92,48.55-28.64a1.5,1.5,0,0,1,2.2,1.58c-3.48,18.8-8.94,39.85-12.9,54.19A1.5,1.5,0,0,1,1091.57,462.31Z"/><path class="cls-1" d="M1064.61,446.67a1.46,1.46,0,0,1-1-.37l-12.52-10.9a1.5,1.5,0,0,1,2-2.26L1065.6,444a1.5,1.5,0,0,1,.15,2.11A1.52,1.52,0,0,1,1064.61,446.67Z"/><path class="cls-1" d="M1093.91,465.2a1.51,1.51,0,0,1-.92-.32l-9.38-7.31a1.5,1.5,0,0,1,1.85-2.37l9.37,7.31a1.5,1.5,0,0,1,.26,2.11A1.48,1.48,0,0,1,1093.91,465.2Z"/><path class="cls-1" d="M1059.17,443.55a1.5,1.5,0,0,1-.81-2.76c14-9,28.67-17.44,43.49-25.09a1.5,1.5,0,1,1,1.37,2.66c-14.74,7.61-29.29,16-43.24,25A1.54,1.54,0,0,1,1059.17,443.55Z"/><path class="cls-1" d="M1098.15,445.21a1.5,1.5,0,0,1-1-.36l-15.86-13.8a1.5,1.5,0,1,1,2-2.26l15.87,13.79a1.5,1.5,0,0,1-1,2.63Z"/><path class="cls-3" d="M1132.43,353.37c-1-.54-2.24-1.19-3.38-1.84a2.56,2.56,0,0,0-3.57,1.1l-7.66,15.6a23,23,0,0,0-5.72-.83c-2.7-.07-6.23,1.37-7.3,3.85-1.15,2.66.67,5.81,2.76,7.95a26.55,26.55,0,0,0,6.13,4.64l-3.8,6.87a1.5,1.5,0,0,0,2.62,1.45l3.89-7a25.13,25.13,0,0,0,7.73,1.87c2.35.16,4.94-.12,6.46-1.88,1.8-2.07,1.54-5.66-.28-7.88a38.81,38.81,0,0,0-4-4.24l7.29-16A2.79,2.79,0,0,0,1132.43,353.37Z"/><path class="cls-7" d="M490.38,333.76Q467.24,322.6,444.1,311.5c-5.65,20.11-18.44,36.68-34,52.59,15.4,11.38,34.79,21.71,52.56,27.53C474.12,373.54,483.92,354.41,490.38,333.76Z"/><path class="cls-1" d="M484.6,347.14a1.48,1.48,0,0,1-.8-.23,193.73,193.73,0,0,0-29.66-15.19,1.5,1.5,0,1,1,1.14-2.78,198.43,198.43,0,0,1,30.12,15.43,1.5,1.5,0,0,1-.8,2.77Z"/><path class="cls-1" d="M479.71,356.11a1.5,1.5,0,0,1-.62-.13c-9.69-4.33-19.35-9.09-28.69-14.14a1.5,1.5,0,1,1,1.43-2.64c9.27,5,18.86,9.74,28.49,14a1.5,1.5,0,0,1-.61,2.87Z"/><path class="cls-1" d="M474,364.73a1.58,1.58,0,0,1-.47-.07,133.58,133.58,0,0,1-30.17-14.28,1.5,1.5,0,0,1,1.62-2.53,129.89,129.89,0,0,0,29.49,13.95,1.5,1.5,0,0,1-.47,2.93Z"/><path class="cls-1" d="M468.94,375.3a1.59,1.59,0,0,1-.43-.06,112.28,112.28,0,0,1-34.25-16.88,1.5,1.5,0,0,1,1.76-2.42,109.5,109.5,0,0,0,33.34,16.42,1.5,1.5,0,0,1-.42,2.94Z"/><path class="cls-1" d="M470.56,389.72a1.48,1.48,0,0,1-.46-.08c-19.53-6.39-36.77-15.05-51.24-25.75a1.5,1.5,0,0,1-.18-2.25c15.57-15.92,26.29-34.07,31.88-53.95a1.49,1.49,0,0,1,.82-1,1.52,1.52,0,0,1,1.27,0q23.13,11.08,46.28,22.27a1.49,1.49,0,0,1,.78,1.79c-5.91,18.9-15,37.95-27.88,58.22A1.51,1.51,0,0,1,470.56,389.72ZM422,362.49c13.65,9.84,29.74,17.89,47.89,23.94,12.1-19.24,20.79-37.35,26.53-55.29Q474.7,320.65,453,310.22C447.26,329.4,436.86,347,422,362.49Z"/><path class="cls-3" d="M488.05,295.35c-1-.41-2.05-.86-2.92-1.25a2.31,2.31,0,0,0-3,1.06l-6.65,12.94a32.16,32.16,0,0,0-4.78-.39c-2.37,0-4.83,1.63-5.25,3.86-.36,1.88.78,3.71,2.09,5.15a20.57,20.57,0,0,0,4.95,3.93l-2.58,6.14a1.49,1.49,0,0,0,.81,2,1.47,1.47,0,0,0,.58.12,1.49,1.49,0,0,0,1.38-.92l2.5-6a21.47,21.47,0,0,0,5.91,1.49c2.46.26,5.44-.17,6.57-2.28s.19-5-1.24-6.71a18.84,18.84,0,0,0-3.47-3.28l6.19-13A2.11,2.11,0,0,0,488.05,295.35Z"/></g><g id="Tunnel"><path class="cls-1" d="M715.57,683.57l-.23-12c-.06-2.94-.26-6-2.1-8.05-2.19-2.48-5.46-2-7.21-1.82-2,.26-4,.56-6,.9a98.89,98.89,0,0,0-3-25.53l4.58-2.05c1.77-.8,4.2-1.88,5.59-4,1.6-2.47,1.37-5.46,1-8.07-.53-4-1.26-8.1-2.16-12.07-.35-1.5-1.39-6.07-5.13-6.93-2.23-.51-4.32.62-5.7,1.37l-2.37,1.29a74.17,74.17,0,0,0-14.33-25s-.09-.06-.12-.09l4.57-8.07c.88-1.56,2.71-4.79,1.29-7.71s-12.71-10-16.94-10.22c-2.31-.12-4.69.79-7.29,2.78a31.8,31.8,0,0,0-4.74,4.61,54.27,54.27,0,0,0-20.52-6l-.64-6.59c-.14-1.5-.38-4-2.26-5.49-1.58-1.25-3.71-1.22-5-1.2-4.41,0-8.9.26-13.33.6-2.75.22-5.51.73-7.11,3-1.46,2-1.19,4.64-1,6.36l.47,4.53A68.26,68.26,0,0,0,582,571.35l-7.25-7.74a1.56,1.56,0,0,0-1.13-.48c-5.2.1-10.21,3.44-13.5,6.23-1.52,1.29-3.29,3.09-3.4,5.54s1.43,4.31,2.44,5.6l5.1,6.45a95.84,95.84,0,0,0-11.61,25.89c-2.11-.72-4.24-1.41-6.38-2-1.94-.56-4.16-1-5.92.43a6.48,6.48,0,0,0-2,3.47l-2.62,8.63c-.87,2.87-1.49,6.12.57,8.5a8.81,8.81,0,0,0,4.58,2.38l8.17,2.23a81.35,81.35,0,0,0-.4,28.27,75.53,75.53,0,0,0-7.76,1.4c-2.07.48-4.41,1.14-6.07,2.93-2.14,2.3-2.33,5.54-2.34,8.4,0,5.07.11,10.2.4,15.26.07,1.25.22,3.87,2.24,5.16a5,5,0,0,0,2.8.71c.37,0,.71,0,1,0a205.5,205.5,0,0,0,24.33-3q14.13.06,28.54.07c29.08,0,58.78-.19,87.92-.38a1.47,1.47,0,0,0,1,.38h.13l4.54-.41h2.14a1.47,1.47,0,0,0,.77-.25l20.34-1.84c1.43-.13,3.82-.35,5.38-2.29S715.62,686.15,715.57,683.57ZM697,663.18q-3.65.68-7.25,1.48-.3-11.8-1.55-23.6l6-2.71A95.7,95.7,0,0,1,697,663.18Zm-.35-55.2c1.3-.71,2.56-1.32,3.6-1.08,1.28.29,2.22,1.82,2.87,4.67.88,3.88,1.6,7.85,2.12,11.8.27,2.07.48,4.42-.57,6-.84,1.3-2.37,2.06-4.3,2.92l-12.53,5.61q-.52-4.45-1.18-8.9c-.67-4.5-1.5-9.31-2.69-14.18Zm-6.47.09-7,3.79A74.22,74.22,0,0,0,677,596a56.66,56.66,0,0,0-3.58-5.69l3.45-6.09A71.24,71.24,0,0,1,690.17,608.07Zm-28.32-47.41c2-1.54,3.73-2.25,5.3-2.16,3.47.19,13.51,6.92,14.4,8.53.64,1.32-.2,3.14-1.2,4.92l-8.94,15.78A60.23,60.23,0,0,0,652.51,572C655,567.84,658,563.64,661.85,560.66Zm-8.47,4.63c-1.29,1.75-2.47,3.57-3.56,5.38a58.82,58.82,0,0,0-8.18-3.1,56.66,56.66,0,0,0-6-1.43l-.6-6.26A51.68,51.68,0,0,1,653.38,565.29Zm-44.5-16.41c.88-1.24,2.88-1.56,4.91-1.72,4.36-.34,8.78-.54,13.13-.59a5.12,5.12,0,0,1,3.08.56c.81.63,1,2,1.14,3.41l.66,7a1.5,1.5,0,0,0,.16,1.64l.63,6.52a60.07,60.07,0,0,0-22.7,1.39l-1.47-13.88C608.24,551.5,608.14,549.9,608.88,548.88Zm-2.64,12.19.72,6.82a58.45,58.45,0,0,0-10.43,4.38,60.31,60.31,0,0,0-8.47,5.57l-4-4.3A65.42,65.42,0,0,1,606.24,561.07ZM559.7,575c.06-1.3,1.28-2.49,2.34-3.39,3.86-3.28,7.73-5.2,11-5.48l7.21,7.69a1.39,1.39,0,0,0,1.11,1.18l4.4,4.7a72.08,72.08,0,0,0-12.37,14l-11.88-15.05C560.52,577.4,559.65,576.2,559.7,575Zm6.51,14.41,5.43,6.88a91.31,91.31,0,0,0-9.33,20.19q-3.37-1.44-6.84-2.7A93,93,0,0,1,566.21,589.45Zm-27.65,40.44c-1.1-1.27-.6-3.58,0-5.67l2.62-8.63a4.07,4.07,0,0,1,1-2c.7-.55,2.1-.24,3.24.09a140.22,140.22,0,0,1,16,5.69c-.72,2.49-1.37,5-1.92,7.62-.62,2.91-1.12,5.84-1.53,8.77l-16.31-4.44A6.23,6.23,0,0,1,538.56,629.89ZM552,637.25l5.63,1.53a184.71,184.71,0,0,0-1,25.32q-2.46.07-4.92.3A78.11,78.11,0,0,1,552,637.25Zm-13.23,58.31a3.76,3.76,0,0,1-2-.2c-.65-.42-.8-1.72-.87-2.81-.28-5-.41-10.07-.39-15.08,0-2.39.13-4.86,1.53-6.37,1.09-1.17,2.93-1.67,4.56-2.05a76.42,76.42,0,0,1,15.06-1.95c.28,8.8,1,17.56,1.64,26.21C551.79,694.37,545.24,695.13,538.72,695.56Zm172.94-6.67c-.7.87-1.91,1-3.31,1.17l-19.22,1.74q.84-12,.66-24.08c5.51-1.27,11.08-2.28,16.63-3,2.12-.27,3.63-.23,4.58.84,1.15,1.29,1.3,3.84,1.34,6.12l.23,12C712.61,685.57,712.57,687.74,711.66,688.89Z"/></g><g id="Détails_écrans" data-name="Détails écrans"><path class="cls-1" d="M1004.69,154.61a1.5,1.5,0,0,0-2.11-.22c-23.37,19-46.56,38.77-68.94,58.92L886.89,194.8c7.85-6.73,15.65-13.08,23.52-19.16l9.89,5.16c3,1.55,5.35,2.78,5.59,2.92l.78-1.28-1.41-.53,2.82,1c.43-1.23-.25-1.59-2.27-2.64l-4.12-2.15L913,173.63c5.78-4.42,11.6-8.69,17.52-12.86a1.49,1.49,0,0,0,.36-2.09,1.51,1.51,0,0,0-2.09-.36c-6.33,4.45-12.55,9-18.72,13.77C900.29,167,889,161,887.57,159.93a1.48,1.48,0,0,0-1.12-.51c-.35,0-8.48.87-51.91,5.62l-10.35,1.13a1.51,1.51,0,0,0-1.36,1.53l0,1.26c.47,16.3.81,28.28,1,44-13.11-5.39-25.51-10.87-37.35-16.51,6.43-3.16,12.85-6.36,19.2-9.63a1.5,1.5,0,0,0-1.37-2.67q-10.56,5.43-21.28,10.66C770,188.53,757.58,182,745.7,175.23a1.5,1.5,0,1,0-1.49,2.6c11.3,6.46,23,12.66,35.41,18.68-24.88,12.06-50.29,23.29-75.85,33.49l-.4,0-2.13-.1c-54.91-2.59-76.86-4.58-85.56-5.81-2.15-3.17-4.43-6.49-6.79-9.89l4.59.24c6.66.34,16.72.86,25.07,1.22,6.58.29,10.47.45,12.8.45,3.39,0,3.52-.34,3.82-1.11a1.55,1.55,0,0,0-.46-1.73,1.5,1.5,0,0,0-1.58-.21c-3.32.25-28.55-1-39.5-1.62l-5.5-.28-1.41-.06c-1.12-1.61-2.27-3.24-3.43-4.88,20.61-12.88,56.38-37.85,61.18-41.6h.09c3.37,0,22.23.86,36.22,1.51,22.59,1,22.62,1,23.06.87a1.5,1.5,0,0,0-.63-2.91h-.06c-1.35,0-12-.49-22.24-1-8.38-.39-17.58-.81-24.7-1.11-12.12-.51-12.86-.54-13.39.08-2.74,2.26-40,28.37-61.27,41.66-11.41-16.08-24.2-33.38-35.91-48.53-.34-.59-.58-.62-5.22-1.34L550,152.26c-14.54-2.22-38.74-5.92-41.13-6.61a1.5,1.5,0,0,0-2.08,1.9c.49,1.17.5,1.21,42.76,7.68,6.54,1,12.3,1.88,14,2.17,11.17,14.46,23.29,30.85,34.26,46.24-14.68-1.51-66.38-7.31-68.18-7.67l-.36,1.45,1.41-.51-1.41.51-1.13,1c.54.61.55.62,37.12,4.69,23.07,2.57,31.56,3.51,34.83,3.76,4.82,6.8,9.38,13.37,13.48,19.43a1.51,1.51,0,0,0,1,.65c8.3,1.24,30,3.28,86.51,5.94l2.75.13H704a1.55,1.55,0,0,0,.61-.13c26.44-10.55,52.71-22.2,78.41-34.72,13.16,6.32,27,12.44,41.73,18.45a1.38,1.38,0,0,0,.56.12,1.51,1.51,0,0,0,1.5-1.52c-.12-16.87-.47-29.19-1-46.22l9-1c15.58-1.7,47.17-5.16,51.18-5.56,1.78,1.23,6.79,4,21.43,11.65-8.17,6.35-16.27,13-24.42,20a1.48,1.48,0,0,0-.5,1.38,1.53,1.53,0,0,0,.92,1.15c16.79,6.65,33.57,13.3,49.92,19.76a1.54,1.54,0,0,0,.55.11,1.47,1.47,0,0,0,1-.39c22.55-20.33,45.94-40.33,69.51-59.44A1.5,1.5,0,0,0,1004.69,154.61Z"/><path class="cls-6" d="M562.09,170.65c-12.22-2-24.66-3.55-37-4.75a1.49,1.49,0,0,0-1.5.85,22.52,22.52,0,0,0-1.51,12.45,1.51,1.51,0,0,0,1.28,1.28,329.35,329.35,0,0,0,38.42,3.07h0a1.5,1.5,0,0,0,1.5-1.5v-9.92A1.48,1.48,0,0,0,562.09,170.65Z"/><path class="cls-2" d="M722.91,173.91a1.48,1.48,0,0,0-1.08-.47l-42.38-.17h0a1.51,1.51,0,0,0-1.5,1.42c-.18,3.34-.25,6.91-.19,10.05a1.49,1.49,0,0,0,1.41,1.46c11,.69,22.25,1.4,33.71,1.4q4.23,0,8.51-.14a1.51,1.51,0,0,0,1.45-1.44l.49-11A1.48,1.48,0,0,0,722.91,173.91Z"/><path class="cls-6" d="M875.8,185c-.24-2.53-.48-5.14-.48-6.76a1.84,1.84,0,0,0-.05-.41c-.33-1.14-1.27-1.12-2.47-1.1l-2.69.08-8.79.3c-8.84.32-22.05.78-24.15.68a1.57,1.57,0,0,0-1.6.45,1.49,1.49,0,0,0-.38,1.09,1.58,1.58,0,0,0,.24.73c.29,1.59.69,8.41.76,13.15a1.51,1.51,0,0,0,1.43,1.47c.38,0,3.53,0,7.79,0,3.21,0,7.06,0,10.81,0,18.4-.18,18.83-.63,19.43-1.26C876.43,192.62,876.39,191.32,875.8,185Zm-39.41-4.32h0Z"/><path class="cls-2" d="M701.63,203c-12.37-.63-24.93-.76-37.33-.38a1.49,1.49,0,0,0-1.45,1.5c0,3.85,0,8.07,0,12.29a1.49,1.49,0,0,0,1.37,1.49c10.72.93,22.7,1,34.29,1.15h.24a4,4,0,0,0,2.84-.9,4.33,4.33,0,0,0,1.15-3.22l.3-10.4A1.49,1.49,0,0,0,701.63,203Z"/><path class="cls-2" d="M982.45,138.51a1.49,1.49,0,0,0-1.16-.39l-40.7,3.73a1.5,1.5,0,0,0-1.35,1.7c.67,4.72.88,9.32,1.09,13.76a1.48,1.48,0,0,0,1.33,1.42,134.75,134.75,0,0,0,14.82.72c7.3,0,14.8-.4,22.16-.79a3.78,3.78,0,0,0,4.08-4.41l.21-14.62A1.5,1.5,0,0,0,982.45,138.51Z"/><path class="cls-6" d="M1026.85,185.68a1.5,1.5,0,0,0-1.5-1l-49.19,2.53a1.5,1.5,0,0,0-1.41,1.33,127,127,0,0,0-.49,14.21,1.51,1.51,0,0,0,1.49,1.5h3.47c16.19,0,32.54-.64,48.65-1.89a1.5,1.5,0,0,0,1.39-1.48A45.64,45.64,0,0,0,1026.85,185.68Z"/><path class="cls-6" d="M801.27,218.46c-12.39-.63-24.94-.76-37.33-.38a1.5,1.5,0,0,0-1.46,1.5c0,3.85,0,8.07,0,12.29a1.5,1.5,0,0,0,1.37,1.5c10.72.92,22.7,1,34.29,1.15h.23a4.05,4.05,0,0,0,2.84-.89,4.33,4.33,0,0,0,1.15-3.23l.31-10.4A1.5,1.5,0,0,0,801.27,218.46Z"/><path class="cls-7" d="M1228,489.83c-24-2.21-47.77-6.15-70.11-10.24a101.6,101.6,0,0,0-20.89,8.78,166.39,166.39,0,0,1,17.29,21.72l72.54,7.07"/><path class="cls-2" d="M1228.2,524.34c24.4-2.55,48.8-5.11,72.4-7.18a116.08,116.08,0,0,1,20.91,14.92c-5.51,5.83-11.14,11.55-17.27,17.94a500.71,500.71,0,0,1-79.46.62"/><path class="cls-7" d="M1225.85,562c-24-2.21-47.76-6.15-70.11-10.24a101.28,101.28,0,0,0-20.88,8.78,167.24,167.24,0,0,1,17.28,21.72l72.54,7.07"/><path class="cls-2" d="M1228,454.35c23.82-5.9,47.63-11.8,70.72-17.11a116.33,116.33,0,0,1,22.77,11.89c-4.65,6.54-9.44,13-14.63,20.15a502.53,502.53,0,0,1-78.61,11.59"/><path class="cls-1" d="M1218.15,702.68h0a1.5,1.5,0,0,1-1.49-1.5c.08-34.7.78-87.33,1.46-138.22.71-52.91,1.43-107.62,1.49-143.5a1.51,1.51,0,0,1,1.5-1.5h12.48a1.5,1.5,0,0,1,0,3h-11c-.08,35.91-.79,89.85-1.49,142-.68,50.88-1.38,103.5-1.46,138.19A1.49,1.49,0,0,1,1218.15,702.68Z"/><path class="cls-1" d="M1231.31,705.25h0a1.5,1.5,0,0,1-1.49-1.51c.24-35.72.86-89.92,1.46-142.33s1.23-106.61,1.47-142.32a1.5,1.5,0,0,1,1.5-1.49h0a1.5,1.5,0,0,1,1.49,1.51c-.24,35.72-.86,89.92-1.47,142.33s-1.22,106.61-1.46,142.32A1.5,1.5,0,0,1,1231.31,705.25Z"/><path class="cls-1" d="M1234.27,471.64a1.5,1.5,0,0,1-.1-3A501.14,501.14,0,0,0,1312,457.21c2-2.75,3.93-5.4,5.82-8,2.62-3.58,5.11-7,7.57-10.43a114.94,114.94,0,0,0-20.77-10.71c-22.91,5.27-46.92,11.22-70.15,17l-.45-1.43-.28-1.48c23.4-5.8,47.59-11.79,70.66-17.09a1.47,1.47,0,0,1,.88.07,117.59,117.59,0,0,1,23.06,12,1.51,1.51,0,0,1,.39,2.12c-2.76,3.89-5.54,7.69-8.49,11.72-2,2.73-4,5.52-6.14,8.44a1.51,1.51,0,0,1-.88.58,503.22,503.22,0,0,1-78.85,11.62Zm-.25-28h0Z"/><path class="cls-1" d="M1268.19,545.12c-12,0-24-.42-35.9-1.28a1.5,1.5,0,1,1,.22-3,501.38,501.38,0,0,0,78.66-.57c2.35-2.45,4.63-4.81,6.86-7.11,3.09-3.19,6-6.22,8.94-9.29a115.53,115.53,0,0,0-19.08-13.48c-23.45,2.06-48.09,4.64-71.92,7.14a1.5,1.5,0,0,1-.31-3c24-2.51,48.81-5.11,72.43-7.18a1.51,1.51,0,0,1,.86.19,117.71,117.71,0,0,1,21.18,15.11,1.49,1.49,0,0,1,.09,2.14c-3.27,3.47-6.56,6.86-10,10.45-2.35,2.42-4.76,4.91-7.24,7.5a1.5,1.5,0,0,1-1,.46C1297.47,544.49,1282.83,545.12,1268.19,545.12Z"/><path class="cls-1" d="M1219.94,509.12h-.15L1147.26,502a1.49,1.49,0,0,1-1.11-.67A166.28,166.28,0,0,0,1129,479.83a1.49,1.49,0,0,1,.38-2.31,103.07,103.07,0,0,1,21.2-8.92,1.6,1.6,0,0,1,.69,0c19.29,3.53,44.68,7.89,70,10.22a1.5,1.5,0,1,1-.28,3c-25.26-2.33-50.58-6.66-69.89-10.2a99.7,99.7,0,0,0-18.58,7.66,161.17,161.17,0,0,1,15.76,19.88l71.83,7a1.5,1.5,0,0,1-.15,3Z"/><path class="cls-1" d="M1217.81,582.7h-.14l-72.54-7.08A1.48,1.48,0,0,1,1144,575a165.26,165.26,0,0,0-17.15-21.53,1.51,1.51,0,0,1-.37-1.25,1.54,1.54,0,0,1,.75-1.07,102.64,102.64,0,0,1,21.19-8.91,1.51,1.51,0,0,1,.7,0c19.29,3.53,44.68,7.89,70,10.22a1.5,1.5,0,1,1-.28,3c-25.26-2.33-50.58-6.66-69.89-10.19a99,99,0,0,0-18.58,7.65,160.59,160.59,0,0,1,15.76,19.89l71.83,7a1.5,1.5,0,0,1-.15,3Z"/><path class="cls-1" d="M269.3,482.38a1.5,1.5,0,0,1-.07-3l58.15-2.66a1.5,1.5,0,1,1,.14,3l-58.15,2.66Z"/><path class="cls-2" d="M334.7,522.24h-.08c-23.45-1.24-47.25-1.72-70.73-1.41a1.5,1.5,0,0,1-1.07-.43,1.47,1.47,0,0,1-.45-1.06c0-6.71-.06-13.64,2.54-19.62a1.51,1.51,0,0,1,1.4-.91l68.66.93a1.5,1.5,0,0,1,1.48,1.52l-.25,19.5a1.48,1.48,0,0,1-.47,1.08A1.52,1.52,0,0,1,334.7,522.24Zm-56.76-4.51c18.42,0,36.95.48,55.28,1.43l.21-16.45-66.14-.89c-1.81,4.78-1.94,10.23-1.93,16Q271.65,517.74,277.94,517.73Z"/><path class="cls-1" d="M265.48,534.84a1.5,1.5,0,0,1,0-3l65.21-.49a1.5,1.5,0,1,1,0,3l-65.21.49Z"/><path class="cls-1" d="M329.07,549.34h0l-61.17-1a1.5,1.5,0,0,1,.05-3l61.17,1a1.5,1.5,0,0,1,0,3Z"/><path class="cls-1" d="M322.64,467.38h-.14a457.41,457.41,0,0,0-52.74-1.61,1.5,1.5,0,1,1-.08-3,461.23,461.23,0,0,1,53.09,1.62,1.5,1.5,0,0,1-.13,3Z"/><path class="cls-1" d="M1064.78,656.38a1.5,1.5,0,0,1-.11-3l58.59-4.51a1.5,1.5,0,1,1,.23,3l-58.59,4.51Z"/><path class="cls-1" d="M1085.67,599.24a186.16,186.16,0,0,1-22.13-1.32,1.5,1.5,0,1,1,.35-3,185,185,0,0,0,54.62-1.65,1.5,1.5,0,1,1,.53,3A188.22,188.22,0,0,1,1085.67,599.24Z"/><path class="cls-1" d="M1064.06,617.57a1.5,1.5,0,0,1-.06-3l58.22-2.64a1.49,1.49,0,0,1,1.57,1.43,1.5,1.5,0,0,1-1.43,1.56l-58.23,2.65Z"/><path class="cls-1" d="M1064.78,638.32a1.5,1.5,0,0,1-.11-3l58.59-4.51a1.5,1.5,0,1,1,.23,3l-58.59,4.51Z"/><path class="cls-3" d="M1092.65,569.29l-8.3-6.68,5.25-5.29a1.5,1.5,0,1,0-2.13-2.11l-5.47,5.51-6.35-5.09a1.49,1.49,0,0,0-1.87,2.33l6.09,4.9-7.46,7.53a1.51,1.51,0,0,0,1.06,2.56,1.48,1.48,0,0,0,1.07-.45l7.69-7.75,8.55,6.87a1.43,1.43,0,0,0,.93.34,1.51,1.51,0,0,0,1.17-.56A1.5,1.5,0,0,0,1092.65,569.29Z"/><path class="cls-2" d="M825.55,452.06c-9.49,0-9.92-.75-10.33-1.48a1.57,1.57,0,0,1-.19-.71c-.1-5.46-.21-11.37-.31-17.27s-.21-11.81-.32-17.27a1.52,1.52,0,0,1,.45-1.11,1.45,1.45,0,0,1,1.11-.42l16.94.71a1.5,1.5,0,0,1,1.44,1.45l1,34.42a1.5,1.5,0,0,1-1.46,1.55C830.51,452,827.78,452.06,825.55,452.06Zm-7.54-3.3a119.92,119.92,0,0,0,14.27.2l-.9-31.51-14-.59c.1,5,.19,10.35.28,15.68C817.81,438.07,817.91,443.59,818,448.76Z"/><path class="cls-1" d="M852.69,452.06c-9.71,0-10.15-1-10.51-1.76a1.55,1.55,0,0,1-.14-.6c-.1-6.78-.21-14.11-.31-21.43s-.21-14.65-.32-21.43a1.53,1.53,0,0,1,.46-1.11,1.51,1.51,0,0,1,1.12-.42l16.94.89a1.5,1.5,0,0,1,1.43,1.46l1,42.7a1.51,1.51,0,0,1-1.45,1.54C857.6,452,854.91,452.06,852.69,452.06ZM845,448.69c1.78.31,6.8.47,14.28.26l-.92-39.83-13.95-.73c.1,6.33.19,13.08.29,19.83C844.83,435.2,844.93,442.18,845,448.69Z"/><path class="cls-1" d="M882.16,452.06c-9.85,0-10.29-1.25-10.61-2.13a1.51,1.51,0,0,1-.08-.48c-.11-8.69-.21-18.08-.32-27.46s-.21-18.77-.31-27.46a1.51,1.51,0,0,1,1.6-1.52l16.94,1.13a1.5,1.5,0,0,1,1.4,1.47l1,54.72a1.49,1.49,0,0,1-1.43,1.52C887.06,452,884.38,452.06,882.16,452.06Zm-7.7-3.48c1.65.4,6.7.62,14.28.34L887.8,397l-13.94-.93c.1,8.23.19,17,.29,25.84C874.25,431,874.36,440.12,874.46,448.58Z"/><path class="cls-1" d="M937.83,452.07c-9.9,0-10.33-1.67-10.59-2.65a1.57,1.57,0,0,1,0-.37c-.1-12-.21-24.92-.32-37.86-.1-12.52-.2-25-.31-36.63a1.53,1.53,0,0,1,.49-1.12,1.48,1.48,0,0,1,1.15-.39l16.94,1.53a1.51,1.51,0,0,1,1.36,1.48l1,74.21a1.5,1.5,0,0,1-1.41,1.52C942.78,452,940.06,452.07,937.83,452.07Zm-7.64-3.68c1.44.56,6.52.88,14.28.48l-1-71.42-13.94-1.26c.1,11.13.19,23.05.29,35C930,423.87,930.08,436.6,930.19,448.39Z"/><path class="cls-1" d="M910.12,452.06c-9.72,0-10.15-1-10.52-1.76a1.54,1.54,0,0,1-.13-.6c-.11-6.78-.21-14.11-.32-21.43s-.21-14.65-.31-21.43a1.51,1.51,0,0,1,1.58-1.53l16.94.89a1.5,1.5,0,0,1,1.42,1.46l1,42.7a1.5,1.5,0,0,1-1.45,1.54C915,452,912.33,452.06,910.12,452.06Zm-7.67-3.37c1.78.31,6.8.47,14.28.26l-.92-39.83-13.95-.73c.1,6.33.19,13.08.29,19.83C902.25,435.2,902.35,442.18,902.45,448.69Z"/><path class="cls-1" d="M1173.47,305a25.26,25.26,0,0,1-14.83-4.68c-8.88-6.47-13-19-9.71-29.85,3.15-10.46,12.74-18.79,23.86-20.72a1.48,1.48,0,0,1,1.2.31,1.51,1.51,0,0,1,.56,1.11c.12,3.25.24,8,.36,12.63.1,3.91.21,7.94.31,11l7.53-.13c6.19-.1,14.63-.23,15.26-.26a1.51,1.51,0,0,1,1.62,1.51c-.1,10.22-3,16.92-9.9,23.13A24.44,24.44,0,0,1,1173.47,305Zm-1.86-51.95c-9.3,2.25-17.14,9.42-19.8,18.29-2.9,9.64.71,20.81,8.59,26.55,8.09,5.89,20.09,5.43,27.33-1.05,6-5.33,8.52-10.86,8.86-19.37l-13.79.23-9,.16a1.51,1.51,0,0,1-1.56-1.45c-.12-3.22-.25-8-.37-12.53C1171.81,260.06,1171.71,256.13,1171.61,253.05Z"/><path class="cls-2" d="M1185.83,244.83c-5.31-1.69-6-.89-6.31-.46s-.46.57-.79,16.82c-.06,2.58-.11,5-.13,5.49a1.87,1.87,0,0,0,0,.47,1.6,1.6,0,0,0,.2.51,1,1,0,0,0,.52.51,1.48,1.48,0,0,0,.88.19h0c.86.09,2.34.12,4.94.12l6,0c3.68,0,11.1-.08,11.56-.14a1.49,1.49,0,0,0,1.32-1.58C1203.16,251.93,1191,246.48,1185.83,244.83Z"/><path class="cls-1" d="M405.2,514.43a1.5,1.5,0,0,1-1.5-1.44c-.12-3.24-.24-8-.36-12.59-.1-3.93-.21-8-.31-11.08l-7.67.13-15.12.26a1.47,1.47,0,0,1-1.06-.33,1.52,1.52,0,0,1-.56-1.18c.1-10.22,3-16.92,9.9-23.12,8.25-7.39,21.91-7.94,31.09-1.25,8.88,6.47,13,19,9.71,29.85-3.15,10.47-12.74,18.79-23.86,20.73Zm-.74-28.13a1.51,1.51,0,0,1,1.52,1.44c.12,3.24.24,8,.36,12.58.1,3.81.2,7.72.3,10.78,9.3-2.25,17.14-9.41,19.81-18.28,2.9-9.65-.72-20.82-8.6-26.56-8.08-5.89-20.09-5.43-27.33,1.05-6,5.34-8.52,10.86-8.86,19.37l13.65-.23,9.1-.15Z"/><path class="cls-2" d="M398.16,497.29c-.05-.27-.38,21.29-.59,21.55s-20.74-2.7-21.91-21.52C376.18,497.26,398,497.06,398.16,497.29Z"/><path class="cls-2" d="M397.23,520.35a17.11,17.11,0,0,1-4.8-1c-5.18-1.65-17.34-7.1-18.27-21.92a1.5,1.5,0,0,1,1.32-1.58c.47-.05,7.88-.11,11.56-.13,6.63,0,9.56-.05,10.95.09h0a1.47,1.47,0,0,1,.88.2,1,1,0,0,1,.52.51,1.33,1.33,0,0,1,.2.51,1.44,1.44,0,0,1,0,.46c0,.46-.07,2.9-.13,5.48-.32,16.26-.32,16.26-.79,16.83C398.55,520,398.27,520.35,397.23,520.35ZM377.3,498.78c1.77,13.71,14.82,17.53,18.88,18.38.12-3,.26-10.11.35-14.27l.08-4v-.15C392.72,498.64,381.46,498.72,377.3,498.78Z"/><path class="cls-1" d="M901.52,627.08A12.08,12.08,0,1,1,913.59,615,12.09,12.09,0,0,1,901.52,627.08Zm0-21.15a9.08,9.08,0,1,0,9.07,9.08A9.09,9.09,0,0,0,901.52,605.93Z"/><path class="cls-1" d="M901.52,636.5A21.5,21.5,0,1,1,923,615,21.52,21.52,0,0,1,901.52,636.5Zm0-40A18.5,18.5,0,1,0,920,615,18.52,18.52,0,0,0,901.52,596.51Z"/><path class="cls-1" d="M901.52,645.74A30.74,30.74,0,1,1,932.25,615,30.77,30.77,0,0,1,901.52,645.74Zm0-58.47A27.74,27.74,0,1,0,929.25,615,27.77,27.77,0,0,0,901.52,587.27Z"/><g id="Calque_8" data-name="Calque 8"><circle class="cls-2" cx="901.52" cy="615.01" r="6.52"/></g><path class="cls-1" d="M315.32,315.64a1.2,1.2,0,0,1-.38-.05c-1.51-.22-15.74-.19-29.51-.17-37.84.08-50-.08-52.93-.78a1.25,1.25,0,0,1-.37-.09,1.52,1.52,0,0,1-.95-1.24,2.25,2.25,0,0,1,0-.26c0-1.75-.37-62-.82-64.86a1.46,1.46,0,0,1,.26-1.23,1.48,1.48,0,0,1,1.14-.57l5.49-.28c28.72-1.46,47.69-2.43,77.94.11a1.48,1.48,0,0,1,1.37,1.48c.15,17.08.26,59.14.26,66.44a1.48,1.48,0,0,1-1.5,1.5Zm-.5-.08.09,0Zm-16-3.15c8.52,0,12.84,0,15,.12,0-10.21-.12-46.65-.25-63.44-29.25-2.38-48-1.42-76.16,0l-4,.2c.12,2.84.3,10.48.51,31.87.08,8,.14,16,.18,22,0,4.62.05,7.23,0,8.74,5.63.6,32.85.54,51.28.5Z"/><path class="cls-1" d="M293.14,268.17a7.1,7.1,0,0,1-4.42-1.51,7,7,0,0,1,4.87-12.44h0a7,7,0,0,1,3.33,12.87A7,7,0,0,1,293.14,268.17Zm0-11a4,4,0,1,0,.24,0Z"/><path class="cls-2" d="M387.76,245.82a1.51,1.51,0,0,0-1.06-.45l-55.53-.73a1.48,1.48,0,0,0-1.39.89c-2.14,4.75-2.11,10.22-2.09,15.51a1.49,1.49,0,0,0,.45,1.07,1.43,1.43,0,0,0,1.07.43c19-.25,38.23.12,57.2,1.1h.08a1.49,1.49,0,0,0,1-.4,1.52,1.52,0,0,0,.48-1.08l.2-15.27A1.53,1.53,0,0,0,387.76,245.82ZM385,260.57c-14.74-.74-29.64-1.11-44.44-1.11q-4.95,0-9.89.06c0-4.27.13-8.32,1.47-11.86l53,.69Z"/><path class="cls-2" d="M375.77,272l-47.33-.73a1.57,1.57,0,0,0-1.42,1c-1.81,4.72-1.79,10.16-1.77,15.43a1.53,1.53,0,0,0,.45,1.07,1.49,1.49,0,0,0,1.08.43c16.17-.25,32.56.13,48.71,1.1h.09a1.49,1.49,0,0,0,1-.4,1.52,1.52,0,0,0,.48-1.08l.17-15.27A1.5,1.5,0,0,0,375.77,272Z"/><path class="cls-2" d="M359.78,298.59l-31.87-.72a1.52,1.52,0,0,0-1.49,1.12c-1.19,4.65-1.18,10.05-1.17,15.27a1.51,1.51,0,0,0,.45,1.07,1.45,1.45,0,0,0,1.09.43,295.48,295.48,0,0,1,32.71,1.1h.13a1.5,1.5,0,0,0,1.5-1.49l.12-15.28A1.51,1.51,0,0,0,359.78,298.59Zm-1.63,15.14c-8.25-.69-16.59-1-24.87-1-1.68,0-3.36,0-5,0a60.88,60.88,0,0,1,.81-11.84l29.18.67Z"/></g><g id="Train"><g id="Rails"><path class="cls-1" d="M1228.08,812.71A589.56,589.56,0,0,1,1167,809.4a1.5,1.5,0,0,1,.31-3c101,10.49,182.68-3.85,265-46.51a1.49,1.49,0,0,1,2,.64,1.5,1.5,0,0,1-.64,2C1368.06,796.58,1302.82,812.71,1228.08,812.71Z"/><path class="cls-1" d="M1241.77,860.44c-45.29,0-95-4.77-148.8-14.31a1.5,1.5,0,1,1,.52-3c89.43,15.86,167.71,18.51,232.65,7.87,63.38-10.39,100.25-31.26,120-46.93a1.5,1.5,0,0,1,1.86,2.35c-20,15.9-57.39,37-121.41,47.54A526,526,0,0,1,1241.77,860.44Z"/><path class="cls-2" d="M1184.76,875.62c-2.42,0-4.79-1.22-6.81-2.25l-.45-.23a30.82,30.82,0,0,0-3.65-1.47,16.52,16.52,0,0,1-4.8-2.26,1.51,1.51,0,0,1-.44-1.67l27.29-74.09a1.51,1.51,0,0,1,1.33-1,44.75,44.75,0,0,1,16.6,2.24,1.51,1.51,0,0,1,1,1.75,447.5,447.5,0,0,1-22.73,72.41c-.94,2.29-2.15,4.82-4.6,6A6.36,6.36,0,0,1,1184.76,875.62Zm-12.92-8a32.35,32.35,0,0,0,3,1.19,34.66,34.66,0,0,1,4,1.63l.45.23c2.42,1.24,4.93,2.53,6.89,1.61,1.47-.68,2.34-2.54,3.09-4.38a443.87,443.87,0,0,0,22.28-70.58,41.57,41.57,0,0,0-13.21-1.73Z"/><path class="cls-2" d="M1229.26,878.6a1.5,1.5,0,0,1-1.48-1.7l10.64-79.75a1.49,1.49,0,0,1,.92-1.19c4.19-1.71,11.76-2.27,18.48.52a1.49,1.49,0,0,1,.9,1.63l-13.06,78.52a1.49,1.49,0,0,1-1.41,1.25l-14.91.72Zm12-80.15L1231,875.51l11.91-.57,12.66-76.11A24,24,0,0,0,1241.27,798.45Z"/><path class="cls-2" d="M1278,878.6a1.49,1.49,0,0,1-1-.38,1.46,1.46,0,0,1-.5-1.13l.31-79.38a1.56,1.56,0,0,1,.22-.78c2.68-4.36,11.13-5,14.64-5.12a1.57,1.57,0,0,1,1.07.41,1.53,1.53,0,0,1,.47,1.06l1.46,81.78a1.51,1.51,0,0,1-1.3,1.52l-15.18,2Zm1.81-80.41-.31,77.2,12.15-1.61-1.42-78.91C1285.11,795.19,1281.17,796.44,1279.76,798.19Z"/><path class="cls-2" d="M1320.1,878.55a1.32,1.32,0,0,1-.87-.18,1.48,1.48,0,0,1-.68-1c-4.37-29.42-8.67-60.55-10.62-88.86a1.46,1.46,0,0,1,.39-1.11,1.5,1.5,0,0,1,1.08-.49c1.75,0,4-.23,6.38-.44,3-.26,6.43-.56,9.85-.63h0a1.5,1.5,0,0,1,1.48,1.27c3.92,25,8.09,55.16,9.37,88.75a1.49,1.49,0,0,1-1.09,1.5c-.2.06-.38.11-7.9.72C1322.84,878.4,1321,878.55,1320.1,878.55ZM1311,789.8c2,27.35,6.07,57.29,10.28,85.7,2.82-.21,9.33-.73,12.15-1-1.32-32.29-5.29-61.36-9.08-85.69-2.88.1-5.76.35-8.33.58C1314.26,789.57,1312.55,789.72,1311,789.8Z"/><path class="cls-2" d="M1369.39,861.94a1.51,1.51,0,0,1-1.43-1,709.63,709.63,0,0,1-21-80.55h0a1.58,1.58,0,0,1,.64-1.54c.26-.19.66-.47,7.9-2.91,7.56-2.55,7.57-2.55,8.22-2.18a1.53,1.53,0,0,1,.72,1L1381,857.79a1.51,1.51,0,0,1-1.13,1.76l-10.14,2.35A2,2,0,0,1,1369.39,861.94Zm-19.25-81a707.47,707.47,0,0,0,20.25,77.72l7.38-1.71-16-80C1358.86,777.91,1352.56,780,1350.14,780.94Z"/><path class="cls-2" d="M1410.5,839.6a1.47,1.47,0,0,1-.58-.12,1.52,1.52,0,0,1-.82-.83c-8.9-22.62-17.27-45.79-24.89-68.87a1.51,1.51,0,0,1,.31-1.48,45.41,45.41,0,0,1,11.73-8.85,1.53,1.53,0,0,1,1.29-.07,1.5,1.5,0,0,1,.86,1c7.52,24.28,15.65,48.74,24.15,72.69a1.51,1.51,0,0,1-.82,1.88l-10.64,4.58A1.52,1.52,0,0,1,1410.5,839.6Zm-23.17-69.92c7.37,22.26,15.44,44.6,24,66.43l7.92-3.41c-8.14-23-15.92-46.41-23.16-69.71A42,42,0,0,0,1387.33,769.68Z"/></g><g id="Traits_vitesse" data-name="Traits vitesse"><path class="cls-1" d="M693,763.56l-.3,0A85.08,85.08,0,0,0,681.38,762a87,87,0,0,1-11.71-1.62,1.5,1.5,0,1,1,.6-2.94A83.45,83.45,0,0,0,681.62,759a88.66,88.66,0,0,1,11.71,1.62,1.5,1.5,0,0,1-.3,3Z"/><path class="cls-1" d="M730.74,787.85h-.15l-28.73-3a1.49,1.49,0,0,1-1.34-1.64,1.5,1.5,0,0,1,1.65-1.34l28.72,3a1.5,1.5,0,0,1-.15,3Z"/><path class="cls-1" d="M791.47,797.93h-.05l-34.65-1.26a1.5,1.5,0,0,1,.11-3l34.64,1.27a1.5,1.5,0,0,1,0,3Z"/><path class="cls-1" d="M803.72,810.51a1.5,1.5,0,0,1-.14-3l21.12-2.11a1.48,1.48,0,0,1,1.64,1.34,1.5,1.5,0,0,1-1.34,1.64l-21.12,2.11Z"/><path class="cls-1" d="M739.25,811.28c-5.28,0-9.65-.08-13.91-.16-5.5-.11-11.19-.21-18.77-.14h0a1.5,1.5,0,0,1,0-3c7.63-.07,13.34,0,18.86.14s11.19.21,18.77.13h0a1.5,1.5,0,0,1,0,3Z"/><path class="cls-1" d="M767,837.62a1.5,1.5,0,0,1-.23-3l6.38-1c17.61-2.7,39.53-6.06,55.63-11.24a1.5,1.5,0,0,1,.92,2.85c-16.33,5.26-38.38,8.64-56.09,11.36l-6.38,1Z"/><path class="cls-1" d="M839.69,844.12a1.5,1.5,0,0,1-.36-3L889.1,829a1.5,1.5,0,0,1,.71,2.92l-49.76,12.19A1.49,1.49,0,0,1,839.69,844.12Z"/><path class="cls-1" d="M911.88,846a1.5,1.5,0,0,1-.54-2.9l18.59-7.18a1.5,1.5,0,0,1,1.08,2.8l-18.59,7.18A1.47,1.47,0,0,1,911.88,846Z"/></g><g id="Train-2" data-name="Train"><path class="cls-2" d="M604.07,692.19c164.18,116.54,498.85,155.52,508.83,158.35,0,0,34.34,2.1,46.09-13.32-1.5-42.87-27.32-86.86-66.52-104.3-39.41-17.53-225.53-32.66-438.89-127.58,0,0-12-3.69-29.26,10.49S604.07,692.19,604.07,692.19Z"/><path class="cls-3" d="M637.1,706.54a235.55,235.55,0,0,1,14.75-49.17c8.65,2.94,17.3,5.89,25.65,10-5,16.26-10.64,36.26-14.06,52.91"/><path class="cls-3" d="M754.54,760.32a235.58,235.58,0,0,1,14.76-49.17c8.64,2.94,17.29,5.89,25.64,10q-7.41,24.4-12.56,49.41"/><path class="cls-3" d="M895,801.09a263.64,263.64,0,0,1,15.71-53.84c9.2,3.23,18.4,6.45,27.29,10.91-5.26,17.81-9.73,33.36-13.37,51.59"/><path class="cls-4" d="M693.23,694.4c.22.23,47.07,16.75,49.35,16.75,3.21-9.42,5.56-16.8,7.9-24.18,0-.25-50.16-17-49.66-17.52C700.7,669.53,693,694.07,693.23,694.4Z"/><path class="cls-4" d="M818.64,740.8c.25.24,52.09,18.07,54.62,18.07,3.55-10.16,6.14-18.13,8.74-26.09,0-.27-55.51-18.29-55-18.91C826.91,714,818.44,740.44,818.64,740.8Z"/><path class="cls-4" d="M953.38,776.93c.25.24,54.59,15.07,57.12,15.07,3.55-10.16,4.14-20.13,6.74-28.1,0-.26-57-16-56.46-16.65C960.65,747.34,953.17,776.56,953.38,776.93Z"/><path class="cls-1" d="M750.49,709.4c-1.86,0-49.45-16.22-50.42-17.18a1.52,1.52,0,0,1-.26-.35c-.39-.73-.42-.77,3.57-13.73,2.46-8,3.39-11,3.87-12.2a1.55,1.55,0,0,1,.34-.72h0a1,1,0,0,1,.29-.26,1.48,1.48,0,0,1,1.84.12c2.33,1.14,22.14,7.9,34.09,12l10.69,3.66c5.31,1.84,5.31,1.84,5.38,2.9a1.49,1.49,0,0,1-.07.55c-2.3,7.26-4.69,14.78-7.9,24.21A1.51,1.51,0,0,1,750.49,709.4Zm-47.6-19.16c6.76,2.51,39.85,14,46.61,15.92,2.79-8.25,5-15,7-21.54-2.39-.85-7.91-2.74-13.69-4.71-21.48-7.33-29.87-10.24-33.22-11.65C708.17,672.79,704,686.2,702.89,690.24Z"/><path class="cls-1" d="M725.31,700.25a1.74,1.74,0,0,1-.39,0,1.51,1.51,0,0,1-1-1.85c.32-1.19,7.66-22.21,8.31-23.51a1.5,1.5,0,0,1,2.68,1.35c-.63,1.32-7.82,21.94-8.1,23A1.51,1.51,0,0,1,725.31,700.25Z"/><path class="cls-3" d="M1025.57,828.87a506,506,0,0,1,7.26-50.77,61.22,61.22,0,0,1,23.87,6.41c-2.54,17.3-3.58,31.48-6.12,48.77"/><path class="cls-1" d="M1017.75,787.57c-2.77,0-56.54-13.15-57.7-14.12a1.4,1.4,0,0,1-.28-.32c-.46-.7-.51-.77,2.64-15.52,2-9.3,2.71-12.67,3.1-14a1.56,1.56,0,0,1,.28-.74h0a.87.87,0,0,1,.25-.28,1.5,1.5,0,0,1,1.88,0c2.61,1,25.46,6.64,39.22,10l12.26,3c6,1.49,6,1.49,6.15,2.55a1.7,1.7,0,0,1,0,.55c-1.85,8.32-3.77,16.93-6.42,27.75a1.48,1.48,0,0,1-1.32,1.14Zm-55.07-16.35c7.46,2,46.46,11.88,53.84,13.21,2.34-9.6,4.1-17.47,5.78-25-2.64-.69-9.1-2.28-15.86-3.93-25.22-6.19-34.7-8.57-38.37-9.77C966.88,750.86,963.48,766.8,962.68,771.22Z"/><path class="cls-1" d="M988.71,779.87l-.27,0a1.5,1.5,0,0,1-1.21-1.74c.25-1.37,6.34-25.49,6.93-27a1.5,1.5,0,1,1,2.79,1.1c-.56,1.48-6.55,25.23-6.77,26.41A1.5,1.5,0,0,1,988.71,779.87Z"/><path class="cls-1" d="M883.63,756.43c-2.32,0-55.82-16.07-56.93-17.1a2.16,2.16,0,0,1-.27-.33c-.42-.72-.46-.79,3.45-15.36,2.46-9.18,3.36-12.51,3.83-13.83a1.5,1.5,0,0,1,.31-.72h0a.86.86,0,0,1,.27-.27,1.5,1.5,0,0,1,1.87.07c2.56,1.16,25.08,7.94,38.65,12,4.76,1.44,9,2.72,12.09,3.66,5.9,1.8,5.9,1.8,6,2.86a1.71,1.71,0,0,1,0,.55c-2.28,8.19-4.62,16.66-7.85,27.38a1.49,1.49,0,0,1-1.38,1.07Zm-54.19-19.18c7.35,2.43,45.78,14.26,53.09,16,2.85-9.52,5-17.26,7.07-24.69-2.61-.83-9-2.75-15.65-4.75-24.86-7.49-34.2-10.36-37.8-11.74C834.7,717.13,830.47,732.87,829.44,737.25Z"/><path class="cls-1" d="M855.07,747.23a2.09,2.09,0,0,1-.35,0,1.51,1.51,0,0,1-1.12-1.81c.32-1.35,7.65-25.11,8.32-26.58a1.5,1.5,0,0,1,2.73,1.24c-.63,1.45-7.85,24.86-8.13,26A1.49,1.49,0,0,1,855.07,747.23Z"/><path class="cls-1" d="M1123.37,842.47h0a1.51,1.51,0,0,1-1.49-1.51c.29-32.4-16.3-75.09-44.54-90.46-12.06-6.56-46.57-14.45-90.26-24.44-92.48-21.14-232.24-53.1-333.4-109.74a1.5,1.5,0,0,1,1.47-2.62C755.92,670.14,895.42,702,987.74,723.14c45.63,10.43,78.6,18,91,24.73,29.24,15.9,46.4,59.83,46.11,93.11A1.49,1.49,0,0,1,1123.37,842.47Z"/><path class="cls-1" d="M1127.78,844.27c-2.84,0-4.6-.12-4.67-.13q-10-1.77-23.83-4.1c-54.35-9.25-145.3-24.73-238.64-50-113.48-30.67-196.6-66.88-247-107.6a1.5,1.5,0,0,1,1.88-2.33c117,94.42,374.38,138.22,484.3,156.93q13.76,2.34,23.77,4.09c1.68.09,33.22,1.51,44.4-12.32-1.58-39.8-23.78-89.07-63.36-106.69-11.35-5-40.07-10.44-79.81-17.91C930.84,686.59,773.61,657,665.56,594.51a1.5,1.5,0,1,1,1.5-2.6c107.61,62.27,264.52,91.76,358.27,109.39,40,7.51,68.81,12.93,80.48,18.12,18.77,8.36,35,24.05,47,45.38A144.8,144.8,0,0,1,1171,829.29a1.49,1.49,0,0,1-.31,1C1161.08,842.82,1137.77,844.27,1127.78,844.27Z"/><path class="cls-1" d="M1128.92,741.18c-1.05-.13-3.47.49-10.71,2.45-10.94,3-27.46,7.48-34.91,6.69a1.51,1.51,0,0,0-1.53.89,1.48,1.48,0,0,0,.39,1.73,117,117,0,0,1,37.37,62.3,1.51,1.51,0,0,0,1.46,1.18h.11a114.23,114.23,0,0,0,42.42-11.48,1.5,1.5,0,0,0,.82-1.53C1160.71,773.73,1132.81,741.7,1128.92,741.18Z"/><path class="cls-1" d="M1056.33,830.19l-.22,0a1.5,1.5,0,0,1-1.27-1.7l7.47-50.81a59,59,0,0,0-21-5.67c-3.1,16-5.88,35.66-7.47,52.81a1.5,1.5,0,0,1-3-.28c1.65-17.71,4.56-38.06,7.78-54.42a1.48,1.48,0,0,1,1.58-1.21,62.23,62.23,0,0,1,24.44,6.58,1.49,1.49,0,0,1,.8,1.55l-7.62,51.89A1.5,1.5,0,0,1,1056.33,830.19Z"/><path class="cls-1" d="M934.76,807.94l-.3,0a1.51,1.51,0,0,1-1.17-1.77c3.49-17,8.5-36.52,14.15-55.22A237.88,237.88,0,0,0,922,741.1a325,325,0,0,0-17.51,58.7,1.5,1.5,0,0,1-2.95-.55,327.57,327.57,0,0,1,18.23-60.61,1.5,1.5,0,0,1,1.87-.83c9.34,3.18,19,6.47,28.23,11a1.51,1.51,0,0,1,.78,1.79c-5.78,19-10.91,38.93-14.45,56.17A1.51,1.51,0,0,1,934.76,807.94Z"/><path class="cls-1" d="M918.23,803.87a1.58,1.58,0,0,1-.38,0,1.5,1.5,0,0,1-1.08-1.83l1.28-4.89c4.45-17.06,9.49-36.39,15.3-52.19a1.52,1.52,0,0,1,1.93-.89,1.5,1.5,0,0,1,.89,1.93c-5.77,15.66-10.79,34.92-15.22,51.91l-1.27,4.89A1.51,1.51,0,0,1,918.23,803.87Z"/><path class="cls-1" d="M935.66,759.46c-2,6.86-5,15.82-7,22.69-.14.48,3.88,1.93,4.26,2,2.26-8,4.56-15.48,6.82-23.5C939.28,760.55,936.11,759.53,935.66,759.46Z"/><path class="cls-1" d="M912.67,775.9c.3.07,4.43,2,4.67,1.76,2.57-7.43,5.25-14.81,7.94-22.2a23.07,23.07,0,0,0-5.22-1.76C919.88,754,912.59,775.71,912.67,775.9Z"/><path class="cls-1" d="M791.94,768.47l-.3,0a1.5,1.5,0,0,1-1.17-1.77c3.64-17.71,8.13-35.46,13.36-52.78a236.24,236.24,0,0,0-25.32-9.79,255.82,255.82,0,0,0-15.45,52,1.5,1.5,0,0,1-2.95-.54,258.57,258.57,0,0,1,16.18-53.94,1.5,1.5,0,0,1,1.87-.83c9.31,3.17,18.94,6.45,28.14,10.94a1.49,1.49,0,0,1,.77,1.78c-5.36,17.62-10,35.7-13.66,53.75A1.5,1.5,0,0,1,791.94,768.47Z"/><path class="cls-1" d="M774.71,762.42a1.28,1.28,0,0,1-.38,0,1.5,1.5,0,0,1-1.07-1.83c4.64-17.72,10.2-35.44,16.54-52.65a1.5,1.5,0,1,1,2.81,1c-6.3,17.12-11.83,34.74-16.45,52.37A1.48,1.48,0,0,1,774.71,762.42Z"/><path class="cls-1" d="M792.1,722.39c-2.05,6.84-4.94,15.78-7,22.61-.14.49,3.87,1.94,4.25,2,2.25-8,4.55-15.44,6.79-23.43C795.7,723.48,792.55,722.46,792.1,722.39Z"/><path class="cls-1" d="M769.19,738.78c.29.07,4.41,2,4.65,1.76,2.56-7.41,5.24-14.77,7.91-22.13a22.78,22.78,0,0,0-5.2-1.76C776.38,716.91,769.11,738.59,769.19,738.78Z"/><path class="cls-1" d="M673.54,719.49a1.63,1.63,0,0,1-.31,0,1.51,1.51,0,0,1-1.17-1.78c3.42-16.65,9.55-38,14.23-53.46a217.9,217.9,0,0,0-23-8.89,234.76,234.76,0,0,0-14.12,47.57,1.5,1.5,0,1,1-2.95-.54,236.88,236.88,0,0,1,14.85-49.49,1.49,1.49,0,0,1,1.86-.83c8.55,2.91,17.39,5.92,25.82,10a1.49,1.49,0,0,1,.78,1.79c-4.7,15.46-11,37.44-14.53,54.43A1.49,1.49,0,0,1,673.54,719.49Z"/><path class="cls-1" d="M658.73,711.7a1.73,1.73,0,0,1-.38-.05,1.5,1.5,0,0,1-1.07-1.83c4.13-15.78,10.17-34.92,16.17-51.21a1.5,1.5,0,0,1,1.93-.89,1.52,1.52,0,0,1,.89,1.93c-6,16.2-12,35.24-16.09,50.93A1.5,1.5,0,0,1,658.73,711.7Z"/><path class="cls-1" d="M675.68,672c-1.88,6.27-4.53,14.47-6.41,20.74-.13.44,3.55,1.77,3.9,1.8,2.06-7.32,4.17-14.15,6.23-21.48C679,673,676.09,672,675.68,672Z"/><path class="cls-1" d="M654.67,687c.27.07,4.05,1.79,4.26,1.61,2.35-6.8,4.81-13.54,7.26-20.29a20.45,20.45,0,0,0-4.77-1.61C661.26,666.93,654.59,686.81,654.67,687Z"/><path class="cls-7" d="M1133,828.8a1.49,1.49,0,0,1-1.48-1.28,127,127,0,0,0-50.78-83.87,1.5,1.5,0,1,1,1.76-2.43,130,130,0,0,1,52,85.86,1.51,1.51,0,0,1-1.26,1.71Z"/><path class="cls-7" d="M1165.07,822.84a1.5,1.5,0,0,1-1.48-1.25A134.15,134.15,0,0,0,1115,739.75a1.5,1.5,0,0,1,1.86-2.35,137.15,137.15,0,0,1,49.66,83.69,1.51,1.51,0,0,1-1.23,1.73Z"/></g></g></svg>