<svg id="sncf_illu" data-name="sncf illu" xmlns="http://www.w3.org/2000/svg" viewBox="0 0 843.98 593.88"><defs><style>.cls-1{fill:#81f0cd;}.cls-2{fill:#f1852b;}.cls-3{fill:#f1c401;}.cls-4{fill:#fff;}.cls-5{fill:#231f20;}.cls-6{fill:#078cf9;}.cls-7{fill:#282828;}.cls-8{fill:#cf4227;}.cls-9{opacity:0.3;}.cls-10{opacity:0.7;}</style></defs><path class="cls-1" d="M786.1,551.92a22.27,22.27,0,0,1,17.69,2.54c1.3.81,2.66,2.19,2.17,3.64a3.12,3.12,0,0,1-1,1.32c-3.26,2.88-7.93,3.39-12.27,3.55a131.45,131.45,0,0,1-18.4-.6c-2.38-.24-5.2-.88-6-3.13a1.61,1.61,0,0,1,0-1.2,2.22,2.22,0,0,1,1.58-1l16.56-4.79"/><path class="cls-1" d="M787.8,564.06a134,134,0,0,1-13.6-.69c-1.41-.14-5.69-.58-6.87-3.78a2.63,2.63,0,0,1,0-1.93,3.17,3.17,0,0,1,2.23-1.61l15.66-4.53a1,1,0,0,1,.64-.56,23.31,23.31,0,0,1,18.5,2.65c2.17,1.36,3.14,3.16,2.59,4.81a4.12,4.12,0,0,1-1.28,1.75c-3.44,3.05-8.23,3.62-12.89,3.8C791.1,564,789.45,564.06,787.8,564.06Zm-.54-11.41a1,1,0,0,1-.62.54L770.07,558c-.56.17-.87.32-.93.46a.8.8,0,0,0,.06.47c.51,1.36,2.21,2.17,5.2,2.48a132.58,132.58,0,0,0,18.26.59c4.29-.16,8.67-.67,11.65-3.3a2.26,2.26,0,0,0,.7-.88c.28-.85-.77-1.87-1.75-2.48A21.34,21.34,0,0,0,787.26,552.65Z"/><path class="cls-1" d="M776.91,574.15a34.1,34.1,0,0,1-7.17-.69,3.32,3.32,0,0,1-2.14-1.21,3.23,3.23,0,0,1-.46-1.5,3,3,0,0,0-.09-.51c-.21-.71-1.12-1.19-2.88-1.5l-19.67-3.47c-1.55-.28-2.45-.94-2.66-2s.52-2.22,2-2.89a33.47,33.47,0,0,1,7.61-2.13,37.48,37.48,0,0,0,6.28-1.6,2.29,2.29,0,0,0,1.19-.77,2.79,2.79,0,0,0,.15-1c0-.21,0-.42,0-.62a6.89,6.89,0,0,1,4-5.29,16.79,16.79,0,0,1,6.08-1.41A151.67,151.67,0,0,1,788.6,547a1,1,0,0,1,.67-.36,66.45,66.45,0,0,1,29.3,3.43,4.52,4.52,0,0,1,2.16,1.31,3,3,0,0,1,.62,2.35,4.19,4.19,0,0,1-1.7,2.76,8.93,8.93,0,0,1-4.47,1.22,6.4,6.4,0,0,0-3.5,1,.76.76,0,0,0-.24.28s.09.27.89.67l10.24,5.07c.52.26,2.12,1.05,2.08,2.61,0,.66-.36,1.86-2.46,2.49-4.59,1.36-9.54.78-13.78,0l-.34-.06a14.45,14.45,0,0,0-5.25-.32,14.11,14.11,0,0,0-3.05,1.12l-1.15.5c-4.18,1.76-8.67,2.17-13,2.57C782.75,573.88,779.83,574.15,776.91,574.15Zm6.69-25.26c-4.75,0-9.51.23-14.23.68a15.52,15.52,0,0,0-5.38,1.21,5,5,0,0,0-2.9,3.68,4.1,4.1,0,0,0,0,.5,4.06,4.06,0,0,1-.39,1.89,3.9,3.9,0,0,1-2.23,1.69,39.19,39.19,0,0,1-6.61,1.71,31.18,31.18,0,0,0-7.17,2c-.63.28-.86.59-.87.67s.12.23,1.05.4l19.67,3.47c1,.19,3.8.67,4.45,2.92a4.4,4.4,0,0,1,.15.82,1.9,1.9,0,0,0,.14.62c.14.21.69.33.9.37,5,1.07,10.21.59,15.26.12,4.19-.39,8.53-.79,12.43-2.42.37-.15.73-.32,1.1-.48a15.82,15.82,0,0,1,3.48-1.26,16,16,0,0,1,6,.31l.34.06c4,.71,8.67,1.28,12.86,0,.7-.21,1-.49,1-.62s0-.3-1-.77l-10.24-5.07c-1.85-.92-2.09-2-2-2.77a2.52,2.52,0,0,1,.95-1.51,7.94,7.94,0,0,1,4.54-1.43,7.39,7.39,0,0,0,3.55-.87,2.18,2.18,0,0,0,.87-1.4,1,1,0,0,0-.19-.81,3,3,0,0,0-1.28-.69,64.6,64.6,0,0,0-27.09-3.45,1,1,0,0,1-.94.55Q786.73,548.89,783.6,548.89Z"/><path class="cls-1" d="M818.13,576.13a1,1,0,0,1,0-2l11-.3c2-.05,4-.28,4.86-1.58a3.51,3.51,0,0,0-.57-4,12.4,12.4,0,0,0-4.19-2.86,1,1,0,0,1-.45-1.35,1,1,0,0,1,1.35-.44A14.06,14.06,0,0,1,835,567c1.29,1.58,2,4.24.68,6.32s-3.92,2.4-6.48,2.47l-11,.3Z"/><path class="cls-1" d="M747.26,570.44a.92.92,0,0,1-.36-.07l-9.82-3.88a7,7,0,0,1-3.76-2.68c-1.18-2.09-.15-4.67,1.41-6a11.67,11.67,0,0,1,5.31-2.26,86.49,86.49,0,0,1,10-1.64,1,1,0,1,1,.21,2,84.31,84.31,0,0,0-9.75,1.6,10,10,0,0,0-4.43,1.82c-1,.85-1.62,2.41-1,3.54a5.12,5.12,0,0,0,2.76,1.8l9.81,3.88a1,1,0,0,1-.37,1.93Z"/><path class="cls-2" d="M613,162.88c-61.39-3.31-36.12,81-44.19,91a24.37,24.37,0,0,1-1.74,1.94,299.18,299.18,0,0,1-5.33,40,235.57,235.57,0,0,1-14.65,44.76c-12.55,28.7-30.82,55.58-55.9,74.7-5.12,3.91-10.1-4.78-5.05-8.63,23.62-18,40.56-44.17,52.31-71.11a223.79,223.79,0,0,0,13.65-42.38A276.41,276.41,0,0,0,557,256.67a19.94,19.94,0,0,1-3-2.33c-9.88-9.3-17.1-24-30.6-25.26-7.26-.67-14.37,3.18-19.22,8.61S496.48,250,494,256.86a190.44,190.44,0,0,0-10.83,69.5c.12,4,.34,8.11-1.27,11.74a9.89,9.89,0,0,1-1.64,2.53,194,194,0,0,1-1.73,25.71c-2.56,21-8.32,42.4-22.23,58.85-4.16,4.93-11.2-2.18-7.07-7.07,12.54-14.84,17.54-35.29,19.58-54.21a190.43,190.43,0,0,0,1.08-22.27c-4.62-4.55-9.24-15.43-19.23-10.76-20.67,9.67-1.82,80.23-37.92,114.17-12.5,11.75-24.65,19.47-39,25.1l-8.93,2.4c24.36,5.65,60.63,2.14,85.06-3.14,40.58-8.76,76.38-15.65,113.52-34.19s73.37-51.83,91.49-89.18c6.54-13.47,11-27.86,15.1-42.25,4.79-16.65,9.29-33.62,9.41-50.94C679.59,229.56,662.36,165.55,613,162.88Z"/><path class="cls-3" d="M643.1,326a172.94,172.94,0,0,1-26.33,45.12C603.26,388,587,402.51,569.56,415.33c-18.41,13.56-38,25.65-59.09,34.69-21.43,9.21-43.8,15.49-66.57,20.05a550.77,550.77,0,0,0,62.39-10.14c48.69-10.76,96.8-27.25,140.33-51.81,30.54-17.23,60.82-39.47,80.54-69-1.42-22.79,3.4-46.67-6.36-67.15-3.43-7.18-10.27-18.39-27.27-18.39-20.5,0-32.2,32.82-37,48.56-2,6.45-3.13,13.37-7.14,18.79A16.65,16.65,0,0,1,643.1,326Z"/><path class="cls-3" d="M530.07,380.17c-27.9,45.21-78.24,77.64-129.41,92,17.25-2.16,36-5.37,53-9.23,21.11-4.8,41.92-11.29,61.57-20.45s38.08-21,55.31-34.06C598.75,387,623.62,360,637.19,327.25a9.27,9.27,0,0,1-5.37-1.81c-4.55-3.39-5-9.88-5.62-15.53-1.23-11-6.45-23.45-17.27-25.81S583,290.65,576,299.36C562.28,316.6,547.54,364.49,530.07,380.17Z"/><path class="cls-3" d="M524.17,381.09c-2.48-8.77-14.06-15-23.52-12.89-10.75,2.36-19.77,10-26.79,18.47C449.53,416.05,458,439.1,376,472.13h1.63C434.81,462.25,492.26,430.64,524.17,381.09Z"/><path class="cls-3" d="M742.9,356c-4.1.21-8.77,2-11.88-.66-1.82-1.56-2.41-4.09-2.8-6.46-.11-.71-.22-1.43-.31-2.15a189.7,189.7,0,0,1-28.48,30.71c-36.55,32-81.85,53.48-127.44,69.23a572.5,572.5,0,0,1-106.33,25.82l238.26,1c15.89.06,102,2,102,2C818.14,415.55,791.52,353.47,742.9,356Z"/><path class="cls-1" d="M76.57,548.92a22.29,22.29,0,0,0-17.7,2.54c-1.29.81-2.65,2.19-2.17,3.64a3.12,3.12,0,0,0,1,1.32C61,559.3,65.62,559.81,70,560a131.45,131.45,0,0,0,18.4-.6c2.39-.24,5.21-.88,6-3.13a1.66,1.66,0,0,0,0-1.2,2.24,2.24,0,0,0-1.58-1L76.3,549.22"/><path class="cls-1" d="M74.86,561.06c-1.65,0-3.29,0-4.93-.09-4.66-.18-9.45-.75-12.9-3.8a4.12,4.12,0,0,1-1.28-1.75c-.55-1.65.42-3.45,2.59-4.81A23.31,23.31,0,0,1,76.84,548a1,1,0,0,1,.64.56l15.67,4.53a3.19,3.19,0,0,1,2.22,1.6,2.61,2.61,0,0,1,0,1.94c-1.18,3.2-5.46,3.64-6.87,3.78A134,134,0,0,1,74.86,561.06Zm-4.2-11.95a21.27,21.27,0,0,0-11.26,3.2c-1,.61-2,1.64-1.75,2.48a2.36,2.36,0,0,0,.7.88c3,2.63,7.36,3.14,11.65,3.3a132.58,132.58,0,0,0,18.26-.59c3-.31,4.69-1.12,5.2-2.48a1,1,0,0,0,.07-.47c-.06-.14-.38-.29-.94-.46L76,550.19a1,1,0,0,1-.62-.54A21,21,0,0,0,70.66,549.11Z"/><path class="cls-1" d="M85.75,571.15c-2.92,0-5.83-.27-8.69-.54-4.35-.4-8.84-.81-13-2.57l-1.14-.5a14.19,14.19,0,0,0-3.06-1.12,14.41,14.41,0,0,0-5.24.32l-.34.06c-4.24.76-9.2,1.34-13.79,0-2.1-.63-2.44-1.83-2.46-2.49,0-1.56,1.56-2.35,2.09-2.61l10.23-5.07c.8-.4.89-.67.89-.68h0a.8.8,0,0,0-.24-.27,6.28,6.28,0,0,0-3.43-1A9,9,0,0,1,43,553.46a4.14,4.14,0,0,1-1.69-2.76,3,3,0,0,1,.62-2.36,4.55,4.55,0,0,1,2.15-1.3,66.47,66.47,0,0,1,29.3-3.43,1,1,0,0,1,.67.36,151.67,151.67,0,0,1,19.42.61A16.74,16.74,0,0,1,99.56,546a6.91,6.91,0,0,1,4,5.29l0,.61a2.47,2.47,0,0,0,.15,1,2.26,2.26,0,0,0,1.18.77,37.48,37.48,0,0,0,6.28,1.6,33.47,33.47,0,0,1,7.61,2.13c1.48.67,2.23,1.75,2,2.89s-1.11,1.69-2.66,2l-19.67,3.47c-1.76.31-2.67.79-2.88,1.5a3,3,0,0,0-.08.51,3.37,3.37,0,0,1-.47,1.5,3.28,3.28,0,0,1-2.14,1.21A34.1,34.1,0,0,1,85.75,571.15Zm-27.42-6.87a9.47,9.47,0,0,1,1.9.18,15.91,15.91,0,0,1,3.49,1.26l1.09.48c3.9,1.63,8.24,2,12.43,2.42,5.05.47,10.27,1,15.26-.12.21,0,.77-.16.9-.37a1.67,1.67,0,0,0,.14-.62,4.4,4.4,0,0,1,.15-.82c.65-2.25,3.41-2.73,4.45-2.92l19.67-3.47c.93-.17,1-.4,1-.4s-.24-.39-.87-.67a31,31,0,0,0-7.16-2,39.05,39.05,0,0,1-6.62-1.71,3.9,3.9,0,0,1-2.23-1.69,4.19,4.19,0,0,1-.38-1.9c0-.16,0-.33,0-.49a5,5,0,0,0-2.9-3.68,15.47,15.47,0,0,0-5.38-1.21A149.13,149.13,0,0,0,72.8,546a1,1,0,0,1-.94-.55,64.48,64.48,0,0,0-27.1,3.45,3,3,0,0,0-1.28.69,1,1,0,0,0-.18.81,2.13,2.13,0,0,0,.86,1.4,7.34,7.34,0,0,0,3.5.87,8,8,0,0,1,4.59,1.43,2.49,2.49,0,0,1,1,1.51c.12.76-.13,1.85-2,2.77L41,563.47c-.95.47-1,.74-1,.77s.33.41,1,.62c4.2,1.25,8.86.68,12.87,0l.33-.06A23.32,23.32,0,0,1,58.33,564.28Z"/><path class="cls-1" d="M213.51,553.55a4.8,4.8,0,0,0-2.84-3,25.34,25.34,0,0,0-11.93-2.69,1,1,0,0,0-.9-.74,53.23,53.23,0,0,0-11.14.45,12.5,12.5,0,0,0-6.1,2.18,3.52,3.52,0,0,0-1.47,2.28c-.2,1.62,1.08,3,3.41,3.83,7.62,2.52,15.67,2.64,23.45,2.74h.54c2.08,0,4.33-.22,5.87-1.76A3.66,3.66,0,0,0,213.51,553.55Z"/><path class="cls-1" d="M205.17,568.77a20.07,20.07,0,0,1-2.25-.15l-28.15-2.88a88.51,88.51,0,0,1-13.29-2c-.94-.25-3.82-1-4.42-3.41a1,1,0,0,1,.61-1.17,101.91,101.91,0,0,1,13.79-4.29,8.35,8.35,0,0,1-2-4.19,7.15,7.15,0,0,1,2.84-6.2,15.64,15.64,0,0,1,5.91-2.66,51.7,51.7,0,0,1,19.89-1.29,1.28,1.28,0,0,1,.28.07,71.58,71.58,0,0,1,19,2.35c2.29.61,2.65,1.85,2.67,2.54a3,3,0,0,1-1,2.06,4.34,4.34,0,0,0-.43.52,1.93,1.93,0,0,0,.59,2.2,7.72,7.72,0,0,0,3,1.39l13.36,4a1,1,0,0,1,.7.79c.44,2.55-2,4.46-4.58,5.24-4.2,1.24-8.59,1.22-12.84,1.2-2,0-4.18,0-6.24.11-.54,0-1.28.13-1.5.47a2.12,2.12,0,0,0-.16.86,8,8,0,0,1-.11.84,4.76,4.76,0,0,1-3.53,3.42A8.17,8.17,0,0,1,205.17,568.77Zm-45.72-8.21a5.51,5.51,0,0,0,2.54,1.19,86.65,86.65,0,0,0,13,2l28.16,2.88a10.14,10.14,0,0,0,3.69,0,2.82,2.82,0,0,0,2.1-1.89,3.81,3.81,0,0,0,.07-.59,3.68,3.68,0,0,1,.47-1.78,3.74,3.74,0,0,1,3.06-1.39c2.13-.14,4.29-.14,6.38-.12,4.29,0,8.35,0,12.26-1.12,1.21-.36,2.88-1.26,3.16-2.41l-12.64-3.75a9.32,9.32,0,0,1-3.82-1.85,3.87,3.87,0,0,1-.93-4.7,5.07,5.07,0,0,1,.64-.82c.22-.24.48-.54.48-.68s-.3-.41-1.19-.64a69,69,0,0,0-20.29-2.24,1,1,0,0,1-.81-.36,49.56,49.56,0,0,0-17.07,1.46,13.78,13.78,0,0,0-5.17,2.29,5.16,5.16,0,0,0-2.11,4.4c.19,1.55,1.31,2.89,2.66,4.36a1,1,0,0,1,.21,1,1,1,0,0,1-.74.67A101.63,101.63,0,0,0,159.45,560.56Z"/><path class="cls-1" d="M336.33,540.72a8.14,8.14,0,0,0-3.76-1.87,27.74,27.74,0,0,0-8.06-.92,68.78,68.78,0,0,0-19.9.43c-1.7.29-4.05.91-4.77,3a4.12,4.12,0,0,0,1.21,4.23,9.1,9.1,0,0,0,3.43,1.88,45.15,45.15,0,0,0,29.66,0,5.15,5.15,0,0,0,3.12-2.2A3.94,3.94,0,0,0,336.33,540.72Z"/><path class="cls-1" d="M327.88,557.38c-1.35,0-2.73-.1-4.06-.23l-35-3.5a14.62,14.62,0,0,1-6.16-1.58,4.47,4.47,0,0,1-1.77-1.73,3.49,3.49,0,0,1,0-3.12,6,6,0,0,1,4-3.11,16.63,16.63,0,0,1,3.19-.3,11.62,11.62,0,0,0,3.4-.41,1.65,1.65,0,0,0,.74-.42c.38-.44.15-1.09-.43-2.39a9.23,9.23,0,0,1-.78-2.21,5.47,5.47,0,0,1,3-5.46,13.39,13.39,0,0,1,5.61-1.34A209.67,209.67,0,0,1,325,531a1,1,0,0,1,.67-.31,30,30,0,0,1,8.55.7,4.27,4.27,0,0,1,3,1.77,4.57,4.57,0,0,1,.51,2,2.49,2.49,0,0,0,.26,1.16,2.25,2.25,0,0,0,.92.55,53.72,53.72,0,0,0,7.47,2.26c4.2,1,8.53,2.14,12.11,4.81,1.62,1.21,2.32,2.62,2,4-.53,2-3,2.44-3.79,2.57a67.17,67.17,0,0,1-13.73.82c-1.44-.06-3.08-.13-4,.71a5.45,5.45,0,0,0-.82,1c-.14.22-.29.43-.44.64C335.4,556.59,331.72,557.38,327.88,557.38Zm-10.75-24.53c-5.8,0-11.61.24-17.36.72a11.63,11.63,0,0,0-4.81,1.1,3.53,3.53,0,0,0-2,3.36,8.2,8.2,0,0,0,.63,1.74c.62,1.37,1.37,3.06.13,4.51a3.51,3.51,0,0,1-1.62,1,13.11,13.11,0,0,1-4,.52,14.91,14.91,0,0,0-2.81.25,4,4,0,0,0-2.63,2,1.44,1.44,0,0,0,0,1.35,2.62,2.62,0,0,0,1,.94,12.89,12.89,0,0,0,5.34,1.3l35,3.51c4.58.46,9.59.49,12-2.75.14-.18.26-.36.39-.55a6.94,6.94,0,0,1,1.15-1.4c1.55-1.37,3.7-1.28,5.44-1.2a65.34,65.34,0,0,0,13.32-.8c.9-.15,2-.46,2.17-1.1s-.89-1.62-1.23-1.87c-3.25-2.43-7.21-3.42-11.39-4.47a53.67,53.67,0,0,1-7.76-2.35,3.89,3.89,0,0,1-1.75-1.21,4,4,0,0,1-.66-2.16,3.13,3.13,0,0,0-.23-1.13,2.71,2.71,0,0,0-1.69-.83,28.67,28.67,0,0,0-5.91-.71,1,1,0,0,1-.89.45C323.73,532.93,320.43,532.85,317.13,532.85Z"/><path class="cls-1" d="M457.15,537.4a4.65,4.65,0,0,0-2.54-1.37,77.26,77.26,0,0,0-12.17-2.2,1,1,0,0,0-.57-.26,96.25,96.25,0,0,0-23.44.29c-1.51.21-3.6.7-4.25,2.57a3.6,3.6,0,0,0,1.4,3.92,7.9,7.9,0,0,0,3.36,1.3,112.15,112.15,0,0,0,23.45,2.22q4.38,0,9.18-.24a8.34,8.34,0,0,0,4.53-1.15,4.09,4.09,0,0,0,1.67-2.73A3,3,0,0,0,457.15,537.4Z"/><path class="cls-1" d="M458.22,553.11c-4.88,0-9.76-.42-14.52-.82-6.64-.57-13.5-1.15-20.2-.58l-.3,0c-3.26.28-6.95.6-9.55-1.74a11.55,11.55,0,0,1-1.55-1.84c-.26-.35-.52-.71-.8-1-2.28-2.64-6.19-3.36-8.94-3.67-.69-.08-1.39-.15-2.09-.21a26,26,0,0,1-8.61-1.81c-2.18-1-4-3.14-3.18-5.3s3.31-2.54,4.41-2.72l22.23-3.84a2.13,2.13,0,0,0,.9-.27,2.2,2.2,0,0,0,.34-.47,4.28,4.28,0,0,1,.37-.57,5.19,5.19,0,0,1,2.41-1.54A30.77,30.77,0,0,1,436,525.33a1,1,0,0,1,.79,1.18l0,.11,10.36,1.62a78,78,0,0,1,14.56,3.27,8.21,8.21,0,0,1,3.33,2,3.81,3.81,0,0,1,.75,4.3,6,6,0,0,1-2.3,2c-1,.61-1.45.94-1.4,1.36a1.4,1.4,0,0,0,.5.75,11.82,11.82,0,0,0,2.25,1.57A14.86,14.86,0,0,1,467,545c1.85,1.54,2.86,4.28,1.37,6.2a5.47,5.47,0,0,1-4.09,1.69C462.27,553,460.24,553.11,458.22,553.11Zm-28.88-3.63c4.88,0,9.76.41,14.52.82,6.66.56,13.55,1.15,20.26.57a3.79,3.79,0,0,0,2.68-.93c.7-.91,0-2.54-1.07-3.44a15.11,15.11,0,0,0-2-1.29,13.56,13.56,0,0,1-2.64-1.85,3.33,3.33,0,0,1-1.09-1.94c-.22-1.74,1.26-2.65,2.34-3.31A4.57,4.57,0,0,0,464,536.8a1.87,1.87,0,0,0-.46-2,6.45,6.45,0,0,0-2.54-1.43,76.43,76.43,0,0,0-14.19-3.17L435,528.38a1,1,0,0,1-.83-1.15,1,1,0,0,1,0-.17,29.33,29.33,0,0,0-14.41,1.52,3.52,3.52,0,0,0-1.53.9,2.92,2.92,0,0,0-.24.37,3.88,3.88,0,0,1-.75,1,3.72,3.72,0,0,1-1.86.72l-22.23,3.84c-1.17.2-2.55.54-2.87,1.43-.4,1.08,1,2.29,2.13,2.81a24.47,24.47,0,0,0,8,1.63c.72.06,1.43.13,2.14.21,3.08.35,7.48,1.19,10.22,4.35.32.38.62.78.91,1.18A9.65,9.65,0,0,0,415,548.5c2,1.77,5.05,1.5,8,1.24l.3,0C425.33,549.55,427.34,549.48,429.34,549.48Z"/><path class="cls-1" d="M571.69,538.83a3.45,3.45,0,0,0-1.22-.74,19.28,19.28,0,0,0-8-1.3,1,1,0,0,0-.59.23,72.93,72.93,0,0,0-14.4-.15,8.44,8.44,0,0,0-4.79,1.56,4.22,4.22,0,0,0-1.48,3.06,3.12,3.12,0,0,0,1,2.4,4.74,4.74,0,0,0,2.39,1,75.74,75.74,0,0,0,13.85,1.16l1.67,0c3.84,0,7.47-.37,10.43-2.52a4.36,4.36,0,0,0,1.81-2.9A2.28,2.28,0,0,0,571.69,538.83Z"/><path class="cls-1" d="M555.64,555.56h-.4a111.47,111.47,0,0,1-25.58-3.22,9.89,9.89,0,0,1-5-2.34c-1.51-1.53-2-4.27-.36-5.91a5.81,5.81,0,0,1,2.87-1.32l5.15-1.21c.38-.09,1-.25,1.2-.53a.47.47,0,0,0,0-.36,2.06,2.06,0,0,0-.87-1.1c-.3-.18-.63-.34-1-.51a6.56,6.56,0,0,1-2.14-1.41,4,4,0,0,1-1-3.06,5.54,5.54,0,0,1,2.05-3.8c1.86-1.46,4.26-1.73,6.37-1.88a85.06,85.06,0,0,1,24,1.75,1.06,1.06,0,0,1,.6-.26,60.47,60.47,0,0,1,22.22,2.21c1.74.51,2.7,1.37,2.85,2.54.24,1.83-1.41,2.58-2.61,3.12-.78.36-1.58.72-1.78,1.22a1.2,1.2,0,0,0,.09.89,6,6,0,0,0,1.94,2.11c.37.3.74.61,1.09.93,1.56,1.47,2.44,3.92,1,5.57a4.5,4.5,0,0,1-2.29,1.25,33.41,33.41,0,0,1-14.58.87l-.12,0c-1.12-.19-2.28-.38-3,.11a4.23,4.23,0,0,0-.84.85l-.42.49C562.82,555.15,559.07,555.56,555.64,555.56ZM543,530.71c-1.92,0-3.83.06-5.75.2s-3.86.35-5.28,1.46a3.51,3.51,0,0,0-1.29,2.38,2,2,0,0,0,.46,1.55,4.9,4.9,0,0,0,1.52,1,12.1,12.1,0,0,1,1.17.62,4,4,0,0,1,1.76,2.35,2.4,2.4,0,0,1-.3,1.86,3.69,3.69,0,0,1-2.44,1.41l-5.14,1.22a4,4,0,0,0-1.93.79c-.75.75-.42,2.28.38,3.09a8.28,8.28,0,0,0,4,1.8,109.6,109.6,0,0,0,25.12,3.16c3.07,0,6.52-.24,8.49-2.37l.36-.42a5.71,5.71,0,0,1,1.29-1.25c1.4-.91,3.09-.63,4.44-.41l.12,0a31.59,31.59,0,0,0,13.71-.81,2.86,2.86,0,0,0,1.33-.64c.61-.71-.11-2.09-.87-2.8-.31-.29-.65-.57-1-.84a7.6,7.6,0,0,1-2.53-2.89,3.19,3.19,0,0,1-.1-2.38,4.81,4.81,0,0,1,2.82-2.32c1-.48,1.49-.73,1.45-1,0-.14-.2-.52-1.43-.88a58.58,58.58,0,0,0-20.43-2.22,1,1,0,0,1-1.14.56A82.92,82.92,0,0,0,543,530.71Z"/><path class="cls-1" d="M692.12,541.47c-2.19-1.67-4.57-3.16-7.12-2.93a4.81,4.81,0,0,0-2-.45c-3.6-.23-7.25-.34-10.86-.34-4.88,0-10.32.53-13.52,4.37a3.09,3.09,0,0,0-.82,1.79c-.07,1.31.93,2.38,2.74,2.94,3.81,1.18,7.77,1.27,11.6,1.36l8.5.2c.64,0,1.32,0,2,0,3.1,0,6.74-.3,9.59-2.33a2.94,2.94,0,0,0,1.41-2.2A3.13,3.13,0,0,0,692.12,541.47Z"/><path class="cls-1" d="M692,556.69c-12.43,0-24.91-1.6-37-3.15-3.93-.51-8.83-1.14-12.58-3.84a3.47,3.47,0,0,1-1.7-2.7c0-.88.5-2.45,3.62-3l4.65-.82a2.51,2.51,0,0,0,.42-.11,1.09,1.09,0,0,0-.38-.66,4.85,4.85,0,0,0-.88-.51,6.29,6.29,0,0,1-1.42-.89,3.69,3.69,0,0,1-1.19-2.77,5.19,5.19,0,0,1,1.57-3.69c1.6-1.51,3.78-1.95,5.71-2.25a75,75,0,0,1,18.33-.61,1.07,1.07,0,0,1,.44-.06l13.17.92c1.85.13,3.93.4,5.16,2a6.87,6.87,0,0,1,.69,1.17,3.41,3.41,0,0,0,.6,1,3.65,3.65,0,0,0,1.75.7l15.36,3.51c3.43.79,5.28,2.25,5.48,4.35.23,2.43-2,4.24-4.33,5a28.08,28.08,0,0,1-7.36.93,34.59,34.59,0,0,0-5.31.45,1.76,1.76,0,0,0-.53.18l.1.13a4.23,4.23,0,0,1,.33.53,2.87,2.87,0,0,1-1.33,3.62,6.19,6.19,0,0,1-3.16.61ZM664.43,533.4a74,74,0,0,0-11.31.88c-1.62.26-3.45.62-4.63,1.73a3.15,3.15,0,0,0-1,2.22,1.75,1.75,0,0,0,.53,1.3,4.46,4.46,0,0,0,1,.59,7.25,7.25,0,0,1,1.23.72,3,3,0,0,1,1.12,2.25,2,2,0,0,1-.78,1.59,2.7,2.7,0,0,1-1.27.47l-4.65.83c-1,.17-2,.56-2,1,0,.27.3.65.86,1.05,3.35,2.4,7.77,3,11.67,3.47,12,1.55,24.43,3.14,36.73,3.14h.22a4.64,4.64,0,0,0,2.18-.34c.39-.23.66-.73.53-1,0-.09-.11-.17-.17-.26a2.3,2.3,0,0,1-.54-1.31c0-1,.83-1.86,2.22-2.12a35.86,35.86,0,0,1,5.62-.49,26.33,26.33,0,0,0,6.84-.84c1.5-.46,3-1.55,2.93-2.85s-1.44-2-3.94-2.6l-15.36-3.51a5.44,5.44,0,0,1-2.71-1.23,5.28,5.28,0,0,1-1-1.52,5.34,5.34,0,0,0-.47-.83c-.73-.95-2.24-1.13-3.72-1.23L673,533.74a1,1,0,0,1-.56.1A73.86,73.86,0,0,0,664.43,533.4Z"/><path class="cls-1" d="M409.7,139.7a10.9,10.9,0,0,0-.07-2.12,4.72,4.72,0,0,0-1.36-2.49,3.53,3.53,0,0,0-2.49-1.08c-.48,0-.57.21-.51.39s-.17.41,0,.62a1.22,1.22,0,0,0,.51.33,5.16,5.16,0,0,1,1.22.76c.35.27.76.87.47.79h-.07a2.89,2.89,0,0,0-2.23-1.28l-1.18,0a18.93,18.93,0,0,0-6.71-1.24h0c-4.12,0-8.24.12-12.36.09-10.76-.07-21.52-.24-32.28-.59-3.82-.12-7.65-.4-11.54-.32-1.73,0-3.47-.06-5.27-.1h0a3.81,3.81,0,0,0-3.5,2.8,3.6,3.6,0,0,0-.12.78v.61c0,1.51-.09,3-.09,4.54,0,2.93-.14,5.89-.21,8.84a53.87,53.87,0,0,1-.18,6.28,21.83,21.83,0,0,0-.28,2.84l0,1.38v.69a8,8,0,0,0,0,.83,4,4,0,0,0,1.8,3.07,4.16,4.16,0,0,0,1.71.63l1.29.11,10.95,1,.58.5L358,177.16l0-6.77V168.3l0-.46h.18l10.12-.05c3.64,0,7.28,0,10.92.09,6.06.11,12.2,0,18.21.2,1.35,0,2.7.07,4.05.08l2,0h1.52a4.06,4.06,0,0,0,.77-.06,4.52,4.52,0,0,0,3.79-4.33l0-4.08c0-3.08-.23-6.14-.16-9.2h0v-.28h0c0-2.35.06-4.68.13-7Q409.66,141.47,409.7,139.7Z"/><path class="cls-4" d="M365,141.66V142a.83.83,0,0,0,.29.53.47.47,0,0,0,.42.18c1-.05,2-.09,3-.12.61,0,1.22,0,1.82,0a4.9,4.9,0,0,0,.95,0c.5-.06,1-.07,1.51-.1s1.14,0,1.7,0a3.81,3.81,0,0,1,.59,0c.76,0,1.52,0,2.29,0l3.34,0c.11,0,.23,0,.34,0,1.09-.06,2.19,0,3.28,0,.92,0,1.83.12,2.76.06.54,0,1.09,0,1.62,0,.92-.06,1.83,0,2.75,0,.62,0,1.24,0,1.87,0a20.1,20.1,0,0,0,2.45-.12,5.07,5.07,0,0,1,1.23,0c.27,0,.42,0,.46-.18a1.22,1.22,0,0,0,0-.57c-.08-.34-.16-.68-.23-1s0-.23-.38-.22h-.17c-.61,0-1.21.1-1.82.07a2.07,2.07,0,0,0-.71.08,1.37,1.37,0,0,1-.49.05,2.34,2.34,0,0,0-1.09.09.13.13,0,0,1-.12,0,.69.69,0,0,0-.45,0,2.82,2.82,0,0,1-.59,0,12.2,12.2,0,0,0-1.71,0c-.74.06-1.45-.17-2.2-.06a.15.15,0,0,1-.11,0,1.75,1.75,0,0,0-1-.06,1.91,1.91,0,0,1-.89,0,.75.75,0,0,0-.42,0,2,2,0,0,1-.6,0,4.56,4.56,0,0,0-1.43.06.22.22,0,0,1-.16,0,.83.83,0,0,0-.6,0,4.41,4.41,0,0,1-.6,0c-.24.05-.37-.1-.57-.07a8.78,8.78,0,0,1-1.54.06,2.89,2.89,0,0,0-.88,0,.39.39,0,0,1-.28-.05.7.7,0,0,0-.29,0l-2.24,0c-.81,0-1.62.07-2.42,0-.07,0-.17,0-.2,0s-.23.08-.36,0a2.43,2.43,0,0,0-.38,0c-.29,0-.57.07-.85,0a6,6,0,0,0-1.27-.06H369l-1.92,0c-.53,0-1.06.06-1.59.08-.37,0-.44,0-.51.27A1.56,1.56,0,0,0,365,141.66Z"/><path class="cls-4" d="M340.78,141.22l0,.38a1.18,1.18,0,0,0,.09.56.31.31,0,0,0,.24.23c.63.05,1.25.09,1.88.12a10.56,10.56,0,0,1,1.12.09,1.88,1.88,0,0,0,.58,0,7.22,7.22,0,0,1,.92-.06c.35,0,.69,0,1,0a2.09,2.09,0,0,1,.36,0c.46,0,.92.07,1.38.08l2,0,.2,0c.66,0,1.32,0,2,.07s1,.18,1.6.19c.36,0,.7.08,1,.07.57,0,1.12.05,1.68,0a7.13,7.13,0,0,1,1.13,0,6.74,6.74,0,0,0,1.49-.08,1.9,1.9,0,0,1,.75,0c.16,0,.25,0,.28-.18a2.72,2.72,0,0,0,0-.57l-.13-1c0-.22,0-.23-.23-.23H360c-.37,0-.73.09-1.1.05a.72.72,0,0,0-.43.07.52.52,0,0,1-.3,0c-.22,0-.45-.11-.65.07h-.07c-.1-.08-.18,0-.27,0a1.08,1.08,0,0,1-.36.05,4.37,4.37,0,0,0-1-.06c-.45,0-.86-.21-1.29-.13,0,0-.05,0-.07,0-.16-.18-.35-.15-.57-.13a.86.86,0,0,1-.57-.05.3.3,0,0,0-.26,0c-.13.06-.24,0-.37,0a1.75,1.75,0,0,0-.88,0s-.06,0-.09,0-.28-.06-.36,0-.26,0-.37,0-.22-.11-.34-.09a3,3,0,0,1-.94,0,1.06,1.06,0,0,0-.53,0,.16.16,0,0,1-.17,0,.34.34,0,0,0-.17-.05c-.45,0-.91,0-1.36,0a8.76,8.76,0,0,1-1.45,0s-.1,0-.12,0-.14.07-.22,0a.85.85,0,0,0-.23,0c-.17,0-.34,0-.5,0a2.45,2.45,0,0,0-.76-.11c-.32,0-.64,0-.95-.07l-1.13-.09c-.31,0-.61,0-.92-.06s-.25,0-.33.21A3.1,3.1,0,0,0,340.78,141.22Z"/><path class="cls-5" d="M371.27,150.11l0,.39a.85.85,0,0,0,.16.55.39.39,0,0,0,.33.22l2.41.12c.48,0,1,0,1.45.1a2.71,2.71,0,0,0,.75,0c.41,0,.81,0,1.21,0s.91.06,1.36,0a3.71,3.71,0,0,1,.47,0c.6,0,1.21.09,1.82.1.89,0,1.78,0,2.66,0l.27,0c.88-.05,1.75,0,2.62,0s1.46.12,2.2.06c.43,0,.87,0,1.3,0,.73-.07,1.45,0,2.18-.07a12.49,12.49,0,0,1,1.5,0,11.71,11.71,0,0,0,1.95-.19,3.22,3.22,0,0,1,1,0c.22,0,.33,0,.35-.2a1.56,1.56,0,0,0,0-.57c-.09-.34-.17-.68-.25-1s0-.22-.3-.21h-.14c-.48,0-.94.16-1.43.14a1.33,1.33,0,0,0-.56.1.83.83,0,0,1-.38.07c-.29,0-.6-.07-.86.12a.17.17,0,0,1-.1,0c-.12-.07-.23,0-.35,0a1.43,1.43,0,0,1-.46.07,7.6,7.6,0,0,0-1.35,0c-.59.08-1.16-.15-1.74,0l-.09,0a1.06,1.06,0,0,0-.78-.07,1.15,1.15,0,0,1-.71,0,.47.47,0,0,0-.33,0,1.06,1.06,0,0,1-.47,0,2.86,2.86,0,0,0-1.13.06.15.15,0,0,1-.13,0,.49.49,0,0,0-.47,0c-.17,0-.33,0-.48,0s-.28-.11-.44-.08a5.53,5.53,0,0,1-1.22,0,1.83,1.83,0,0,0-.7,0,.3.3,0,0,1-.22,0,.33.33,0,0,0-.22-.05l-1.77-.05a15.18,15.18,0,0,1-1.91-.08c-.05,0-.13,0-.16,0s-.18.07-.29,0a1.45,1.45,0,0,0-.29,0,4.86,4.86,0,0,1-.67,0,4.22,4.22,0,0,0-1-.13c-.43,0-.85-.05-1.28-.09l-1.51-.1c-.41,0-.83,0-1.24-.05s-.34,0-.42.22A2.19,2.19,0,0,0,371.27,150.11Z"/><path class="cls-5" d="M341.36,149.76v.38a1,1,0,0,0,.21.54.38.38,0,0,0,.35.19l2.43,0c.49,0,1,0,1.47,0a3.25,3.25,0,0,0,.77,0c.41-.06.81-.06,1.22-.08s.92,0,1.38,0a3.43,3.43,0,0,1,.47,0c.61,0,1.23,0,1.84.06h2.7a2.44,2.44,0,0,0,.27,0c.89,0,1.77,0,2.65,0s1.48.15,2.23.11c.43,0,.87,0,1.3,0,.74,0,1.48,0,2.21,0a12.55,12.55,0,0,1,1.5.07,12.94,12.94,0,0,0,2,0,2.78,2.78,0,0,1,1,.09c.2.06.32,0,.37-.16a1.51,1.51,0,0,0,.06-.56l-.09-1c0-.23,0-.23-.3-.25h-.15c-.51,0-1,.05-1.5,0a1.27,1.27,0,0,0-.58.06.9.9,0,0,1-.4,0,1.5,1.5,0,0,0-.89.06h-.09c-.13-.08-.24,0-.36,0a1.54,1.54,0,0,1-.48,0,7.19,7.19,0,0,0-1.39-.05,17.5,17.5,0,0,0-1.77-.1.14.14,0,0,1-.09,0,1.17,1.17,0,0,0-.8-.08,1.26,1.26,0,0,1-.72,0,.56.56,0,0,0-.34,0,1.11,1.11,0,0,1-.48,0,3.23,3.23,0,0,0-1.16,0,.1.1,0,0,1-.12,0,.53.53,0,0,0-.49,0c-.17,0-.34,0-.49,0s-.29-.11-.45-.09a5.82,5.82,0,0,1-1.25,0,1.7,1.7,0,0,0-.71,0,.32.32,0,0,1-.23,0,.43.43,0,0,0-.23-.05h-1.81a15.86,15.86,0,0,1-1.95,0c-.06,0-.14,0-.17,0s-.18.08-.29,0a2.77,2.77,0,0,0-.3,0c-.23,0-.46.07-.69,0a3.88,3.88,0,0,0-1-.09c-.44,0-.88,0-1.31,0h-1.55c-.43,0-.85,0-1.28,0s-.35,0-.41.25A1.94,1.94,0,0,0,341.36,149.76Z"/><path class="cls-5" d="M341.37,158.23v.38c0,.2.16.38.35.54a.81.81,0,0,0,.58.2l4.12,0c.83,0,1.66,0,2.48,0a9.19,9.19,0,0,0,1.29,0c.69-.06,1.38-.07,2.07-.08s1.54,0,2.32,0c.26,0,.51-.05.79,0,1,0,2.08.06,3.12.06H363l.47,0c1.49-.05,3,0,4.47,0,1.25,0,2.49.15,3.75.11.74,0,1.49,0,2.21,0,1.25-.05,2.49,0,3.74,0,.84,0,1.69,0,2.54.08,1.12.07,2.23,0,3.34-.05a8.83,8.83,0,0,1,1.64.09c.34.07.53,0,.6-.14a.94.94,0,0,0,.07-.57l-.23-1c-.05-.23,0-.23-.52-.26h-.25c-.84,0-1.66,0-2.5,0a3.45,3.45,0,0,0-1,.06,2.54,2.54,0,0,1-.68,0,4.3,4.3,0,0,0-1.48.06.29.29,0,0,1-.16,0,1.25,1.25,0,0,0-.61,0,4.21,4.21,0,0,1-.8,0c-.78,0-1.56-.08-2.34,0-1,0-2-.19-3-.09a.41.41,0,0,1-.16,0,3.17,3.17,0,0,0-1.34-.08,3.13,3.13,0,0,1-1.22,0,1.51,1.51,0,0,0-.56,0,2.88,2.88,0,0,1-.83,0,9,9,0,0,0-1.94,0,.28.28,0,0,1-.21,0,1.53,1.53,0,0,0-.82,0c-.3.05-.58,0-.83,0s-.49-.11-.77-.08a16.29,16.29,0,0,1-2.1,0,5.35,5.35,0,0,0-1.2,0,.71.71,0,0,1-.38,0,1.2,1.2,0,0,0-.39,0l-3.05,0c-1.1,0-2.2,0-3.3,0-.09,0-.23,0-.27,0a.59.59,0,0,1-.49,0,4.53,4.53,0,0,0-.52,0c-.39,0-.77.06-1.15,0a10,10,0,0,0-1.73-.08l-2.21,0h-2.62c-.71,0-1.43,0-2.14,0-.49,0-.6,0-.7.25A1.21,1.21,0,0,0,341.37,158.23Z"/><path class="cls-6" d="M79.94,495a102.93,102.93,0,0,1-12.16-.72,1.7,1.7,0,0,1-1.59-1.45l0-.13a2.71,2.71,0,0,0-.54-.79,4.85,4.85,0,0,1-.8-1.19,4.9,4.9,0,0,1-.31-2.1l0-7a1,1,0,0,1,1-1h0a1,1,0,0,1,1,1l0,7a3.26,3.26,0,0,0,.14,1.29,3.54,3.54,0,0,0,.51.71,4.22,4.22,0,0,1,.9,1.48l.06.19a99.73,99.73,0,0,0,12.57.7c1.32,0,2.92-.15,3.52-1.12.47-.76.24-1.87,0-3.05l-.09-.47a32.65,32.65,0,0,1-.29-7.82,1,1,0,0,1,1-.95,1,1,0,0,1,1,1,31,31,0,0,0,.25,7.34l.09.45c.28,1.37.63,3.07-.26,4.51C84.8,494.71,82.54,495,80.7,495Zm-11.77-2.51h0Z"/><path class="cls-6" d="M194.36,494.58q-3,0-5.91-.24a1,1,0,0,1-.92-1V479.05a1,1,0,0,1,1-1h0a1,1,0,0,1,1,1v13.37a70,70,0,0,0,16.55-.83,102.63,102.63,0,0,0,.44-12.27,1,1,0,0,1,1-1h0a1,1,0,0,1,1,1,106.15,106.15,0,0,1-.46,12.6,1.64,1.64,0,0,1-1.54,1.66A70.89,70.89,0,0,1,194.36,494.58Zm11.69-2.76Z"/><path class="cls-6" d="M313.5,493.08c-1.12,0-2.24,0-3.35,0a4.21,4.21,0,0,1-1.68-.3,3.4,3.4,0,0,1-1.32-1.18c-1.16-1.68-1.15-3.83-1.15-5.4l0-7.2a1,1,0,0,1,1-1h0a1,1,0,0,1,1,1l0,7.2c0,1.69.05,3.18.8,4.26a1.35,1.35,0,0,0,.51.49,2.63,2.63,0,0,0,.89.12c4.2.11,8.45,0,12.63-.3.76-.05.84-.18.85-.19a2,2,0,0,0,0-.51l-.25-10.71a1,1,0,0,1,1-1,1,1,0,0,1,1,1l.25,10.71a2.42,2.42,0,0,1-2.74,2.75C319.84,493,316.66,493.08,313.5,493.08Z"/><path class="cls-6" d="M427.57,493.19a2.84,2.84,0,0,1-1.75-.49,3.1,3.1,0,0,1-1-1.44,19.34,19.34,0,0,1-.84-6.79v-6.66a1,1,0,0,1,1-1h0a1,1,0,0,1,1,1v6.66a17.45,17.45,0,0,0,.72,6.1,1.5,1.5,0,0,0,.29.54,2,2,0,0,0,.9.08c6.6-.32,13.28-.74,19.86-1.26a3.11,3.11,0,0,0,.32,0s0-.08.06-.24a12.49,12.49,0,0,0,.45-4.08,26.09,26.09,0,0,0-1.66-6.84,1,1,0,0,1,1.89-.65,27.74,27.74,0,0,1,1.77,7.38,14.32,14.32,0,0,1-.53,4.74,2.44,2.44,0,0,1-.75,1.27,2.47,2.47,0,0,1-1.39.45c-6.6.52-13.3.95-19.92,1.27Z"/><path class="cls-6" d="M555.15,493.5h-.95c-2.27,0-4.82-.29-6.49-2a8.46,8.46,0,0,1-2-4.82,40.55,40.55,0,0,1-.47-6.87,1,1,0,0,1,1-1,1,1,0,0,1,1,1,37.54,37.54,0,0,0,.45,6.53,6.7,6.7,0,0,0,1.42,3.73c1.17,1.2,3.13,1.39,5.09,1.41a72,72,0,0,0,13.67-1.12,1,1,0,0,0,1.1-1,18,18,0,0,0,.73-9.17,1,1,0,0,1,2-.36,19.88,19.88,0,0,1-.8,10.2,2.92,2.92,0,0,1-2.64,2.29A74.63,74.63,0,0,1,555.15,493.5Z"/><path class="cls-6" d="M671.22,492.61q-1.71,0-3.42-.12c-.94-.07-3.83-.28-4.87-2.45a5.56,5.56,0,0,1-.41-2.52l0-7.22a1,1,0,0,1,1-1h0a1,1,0,0,1,1,1l0,7.23a4,4,0,0,0,.21,1.64c.37.76,1.42,1.19,3.22,1.32a45,45,0,0,0,15.53-1.58,2.17,2.17,0,0,0,.93-.43,2.29,2.29,0,0,0,.19-.76,60.14,60.14,0,0,0,.44-8.16,1,1,0,0,1,1-1,1,1,0,0,1,1,1,62.33,62.33,0,0,1-.46,8.43,2.9,2.9,0,0,1-2.56,2.87A47.08,47.08,0,0,1,671.22,492.61Z"/><path class="cls-7" d="M110,466.55a1,1,0,0,1-1-1V434.3a1,1,0,0,1,2,0v31.25A1,1,0,0,1,110,466.55Z"/><path class="cls-7" d="M370.7,465.22a1,1,0,0,1-1-1v-29a1,1,0,0,1,2,0v29A1,1,0,0,1,370.7,465.22Z"/><path class="cls-8" d="M123.36,464.93c.64-4.34.76-8.68,1.34-13h9a71,71,0,0,1-.78,12.18.79.79,0,0,1-.13.4.82.82,0,0,1-.68.19c-2.34-.07-4.48.94-6.81.87Z"/><path class="cls-8" d="M181.11,464.93c.65-4.34.77-8.68,1.34-13h9a73,73,0,0,1-.78,12.18.62.62,0,0,1-.82.59c-2.33-.07-4.52.32-6.85.25Z"/><path class="cls-8" d="M348.36,464.55l0-12.24c4-.28,7.06,0,11.05-.28.24,1.55.05,11.16.1,12.88a71.69,71.69,0,0,1-11.16.28"/><path class="cls-8" d="M293.11,464.9l.48-12a1.26,1.26,0,0,1,.18-.73.85.85,0,0,1,.73-.24l6.4,0a1,1,0,0,1,.71.22,1.35,1.35,0,0,1,.25.79q.6,5.55.75,11.15a1.54,1.54,0,0,1-.27,1.14,1,1,0,0,1-.8.16l-7.34-.62"/><path class="cls-7" d="M91.54,464.7,92,447.78a2.33,2.33,0,0,1,.18-1,.71.71,0,0,1,.73-.34l6.4,0a.76.76,0,0,1,.71.3,2.49,2.49,0,0,1,.25,1.11q.6,7.81.75,15.7a2.81,2.81,0,0,1-.27,1.59.78.78,0,0,1-.8.24c-2.44-.28-4.89-.58-7.34-.88"/><path class="cls-7" d="M381.78,464.7l.48-16.92a2.33,2.33,0,0,1,.18-1,.71.71,0,0,1,.73-.34l6.4,0a.76.76,0,0,1,.71.3,2.49,2.49,0,0,1,.25,1.11q.6,7.81.75,15.7a2.81,2.81,0,0,1-.27,1.59.78.78,0,0,1-.8.24c-2.45-.28-4.89-.58-7.34-.88"/><path class="cls-8" d="M236.36,464.9l.48-12a1.26,1.26,0,0,1,.18-.73.85.85,0,0,1,.73-.24l6.4,0a1,1,0,0,1,.71.22,1.35,1.35,0,0,1,.25.79q.6,5.55.75,11.15a1.54,1.54,0,0,1-.27,1.14,1,1,0,0,1-.8.16l-7.34-.62"/><path class="cls-7" d="M68,447.42H53.5v-2H68a4.12,4.12,0,0,0,3-1.3l10.5-11.25,1.46,1.36L72.44,445.48A6.12,6.12,0,0,1,68,447.42Z"/><path class="cls-7" d="M426,447.42H411.51a6.12,6.12,0,0,1-4.45-1.94l-10.49-11.25,1.46-1.36,10.49,11.25a4.12,4.12,0,0,0,3,1.3H426Z"/><path class="cls-7" d="M431,466.55H49.31A8.56,8.56,0,0,1,40.74,458v-2.21a2.63,2.63,0,0,1,.83-1.9c.4-.37.8-.74,1.22-1.11l0,0c.43-.38.86-.75,1.31-1.11l.35-.28.29-.23.46-.36.72-.56.12-.09.53-.39.46-.33.84-.6c.23-.17.4-.28.58-.4l.43-.28,1.05-.7,1-.64.78-.48,1.13-.67c1.21-1.1,15.55-13.74,34.29-13h306l1.47,0c18,0,31.64,12,32.82,13.07l1.14.67.77.48,1,.64,1,.67.48.32.55.38.85.61.46.33.53.39.12.09c.25.18.48.37.72.56l.46.36.31.24.32.26c.46.37.9.75,1.34,1.13h0c.41.37.82.74,1.21,1.11a2.55,2.55,0,0,1,.83,1.89.38.38,0,0,1,0,.1V458a8.46,8.46,0,0,1-1.63,5A8.57,8.57,0,0,1,431,466.55ZM42.74,456v2a6.56,6.56,0,0,0,6.57,6.57H431a6.59,6.59,0,0,0,5.32-2.72,6.51,6.51,0,0,0,1.25-3.85v-2a.92.92,0,0,1,0-.24.58.58,0,0,0-.19-.44c-.38-.36-.77-.71-1.16-1.06a.18.18,0,0,1-.07,0c-.37-.33-.79-.69-1.23-1l-1.08-.85-.68-.54.48-.88-.6.8-.49-.36-.47-.34-.8-.58-.1-.07-.44-.3-.45-.29-1-.68-1-.63-.74-.46-1.22-.72a.78.78,0,0,1-.24-.2c-1.16-1-15.17-13.11-32.78-12.51H87C69.45,434,55.4,446.06,54.25,447.08a.91.91,0,0,1-.24.2l-1.22.72-.75.46-1,.63c-.35.22-.69.45-1,.68l-.43.28-.48.33-.87.63-.47.34-.5.36-.72-.72.61.8-.69.54-1.09.86c-.42.34-.85.7-1.27,1.07l0,0c-.39.34-.77.69-1.14,1a.64.64,0,0,0-.2.42s0,.05,0,.07A1.21,1.21,0,0,1,42.74,456Z"/><path class="cls-6" d="M71.09,554.39a1,1,0,0,1-1-1V493.58a1,1,0,0,1,2,0v59.81A1,1,0,0,1,71.09,554.39Z"/><path class="cls-6" d="M80.69,555.08a1,1,0,0,1-1-1V494a1,1,0,0,1,2,0v60.1A1,1,0,0,1,80.69,555.08Z"/><path class="cls-6" d="M193.24,553.11a1,1,0,0,1-1-1V493.58a1,1,0,1,1,2,0v58.53A1,1,0,0,1,193.24,553.11Z"/><path class="cls-6" d="M202.84,553.79a1,1,0,0,1-1-1V494a1,1,0,0,1,2,0v58.82A1,1,0,0,1,202.84,553.79Z"/><path class="cls-6" d="M311.65,543.28a1,1,0,0,1-1-1v-50.2a1,1,0,0,1,2,0v50.2A1,1,0,0,1,311.65,543.28Z"/><path class="cls-6" d="M320.71,543.87a1,1,0,0,1-1-1V492.41a1,1,0,0,1,2,0v50.46A1,1,0,0,1,320.71,543.87Z"/><path class="cls-6" d="M432.51,539.4a1,1,0,0,1-1-1v-46a1,1,0,0,1,2,0v46A1,1,0,0,1,432.51,539.4Z"/><path class="cls-6" d="M442.11,539.15a1,1,0,0,1-1-1V491.88a1,1,0,0,1,2,0v46.27A1,1,0,0,1,442.11,539.15Z"/><path class="cls-6" d="M553.84,542.34a1,1,0,0,1-1-1v-48.7a1,1,0,0,1,2,0v48.7A1,1,0,0,1,553.84,542.34Z"/><path class="cls-6" d="M563.44,542.08a1,1,0,0,1-1-1v-49a1,1,0,0,1,2,0v49A1,1,0,0,1,563.44,542.08Z"/><path class="cls-6" d="M670,542.34a1,1,0,0,1-1-1V491.65a1,1,0,0,1,2,0v49.69A1,1,0,0,1,670,542.34Z"/><path class="cls-6" d="M679.58,542.07a1,1,0,0,1-1-1V491.13a1,1,0,0,1,2,0v49.94A1,1,0,0,1,679.58,542.07Z"/><path class="cls-6" d="M785.22,492.61q-1.71,0-3.42-.12c-.94-.07-3.83-.28-4.87-2.45a5.56,5.56,0,0,1-.41-2.52l0-7.22a1,1,0,0,1,1-1h0a1,1,0,0,1,1,1l0,7.23a4,4,0,0,0,.21,1.64c.37.76,1.42,1.19,3.22,1.32a45,45,0,0,0,15.53-1.58,2.17,2.17,0,0,0,.93-.43,2.29,2.29,0,0,0,.19-.76,60.14,60.14,0,0,0,.44-8.16,1,1,0,0,1,1-1,1,1,0,0,1,1,1,62.33,62.33,0,0,1-.46,8.43,2.9,2.9,0,0,1-2.56,2.87A47.08,47.08,0,0,1,785.22,492.61Z"/><path class="cls-6" d="M784,559.34a1,1,0,0,1-1-1V491.65a1,1,0,0,1,2,0v66.69A1,1,0,0,1,784,559.34Z"/><path class="cls-6" d="M793.58,559.07a1,1,0,0,1-1-1V491.13a1,1,0,0,1,2,0v66.94A1,1,0,0,1,793.58,559.07Z"/><path class="cls-7" d="M142.7,442.94a2.69,2.69,0,0,1-2.18-.87,3.13,3.13,0,0,1-.61-1.91,15.66,15.66,0,0,1,.17-2.48,6.59,6.59,0,0,0-.15-3.51,1,1,0,1,1,1.81-.86,8.12,8.12,0,0,1,.33,4.62,13.67,13.67,0,0,0-.16,2.16,1.35,1.35,0,0,0,.15.71c.16.18.8.14,1.05.13l9.83-.68.19-5.12a3.12,3.12,0,0,0,0-.89,1,1,0,0,1,1.91-.59,4.84,4.84,0,0,1,.14,1.56l-.2,5.38a1.78,1.78,0,0,1-.31,1,1.67,1.67,0,0,1-1.29.62l-10.09.69Zm10.22-2.32Z"/><path class="cls-7" d="M160.72,443.18a1,1,0,0,1-.72-.3,1,1,0,0,1-.28-.75,44.93,44.93,0,0,0-.29-7.95,1,1,0,1,1,2-.25,47,47,0,0,1,.34,7.22c3.24-.12,6.52-.28,9.77-.48,0-1.9,0-3.79-.06-5.69a1,1,0,0,1,1-1h0a1,1,0,0,1,1,1q0,3.33.06,6.65a1,1,0,0,1-.93,1c-3.94.25-7.93.45-11.85.57Z"/><path class="cls-7" d="M208.14,442.27h0c-2.65,0-5.28,0-7.92-.07a1.27,1.27,0,0,1-.7-.18,1.34,1.34,0,0,1-.6-1.16,10.87,10.87,0,0,0-.52-2.71,10.57,10.57,0,0,1-.55-3.95,1,1,0,1,1,2,.21,9.09,9.09,0,0,0,.5,3.21,15.46,15.46,0,0,1,.56,2.59q3.49,0,7,.06a43.4,43.4,0,0,0-.07-5.48,1,1,0,1,1,2-.16,43.24,43.24,0,0,1,0,6.13,1.69,1.69,0,0,1-.27.89A1.66,1.66,0,0,1,208.14,442.27Zm-7.25-1.46h0Z"/><path class="cls-7" d="M216.59,442a1.26,1.26,0,0,1-.71-.21,1.32,1.32,0,0,1-.49-.71,28,28,0,0,1-.86-4.55l-.33-2.6a1,1,0,0,1,2-.26l.34,2.6a30.34,30.34,0,0,0,.64,3.72l9.06-.13h.17c0-.07,0-.17,0-.33a14.27,14.27,0,0,0-.07-4.57,1,1,0,1,1,1.94-.47,15.87,15.87,0,0,1,.12,5.22,2.32,2.32,0,0,1-.88,1.83,2.26,2.26,0,0,1-1.29.32l-9.61.14Z"/><path class="cls-7" d="M265.47,442.07h-.13l-8.94-.34a2.26,2.26,0,0,1-1.55-.53,2.29,2.29,0,0,1-.6-1.74,29.51,29.51,0,0,0-.41-4.4,1,1,0,0,1,2-.33,32.08,32.08,0,0,1,.43,4.7c0,.06,0,.19,0,.29h.21l8.47.33c0-1.73,0-3.41,0-5.08a1,1,0,0,1,1-1h0a1,1,0,0,1,1,1c0,1.84,0,3.68,0,5.52a1.56,1.56,0,0,1-.6,1.33A1.45,1.45,0,0,1,265.47,442.07Z"/><path class="cls-7" d="M282.82,441.56h-.1l-9.3-.16a1.84,1.84,0,0,1-1-.24,1.81,1.81,0,0,1-.74-1.16,15.86,15.86,0,0,1-.36-3.25c0-.59,0-1.15-.11-1.7l0,0a1,1,0,0,1-.18-1.4,1.09,1.09,0,0,1,1.17-.4,1.42,1.42,0,0,1,1,1.17,22.35,22.35,0,0,1,.18,2.27,16,16,0,0,0,.27,2.75l8.9.15.54-4.77a1,1,0,0,1,1.11-.88A1,1,0,0,1,285,435l-.55,4.89a1.82,1.82,0,0,1-.82,1.46A1.7,1.7,0,0,1,282.82,441.56Z"/><path class="cls-7" d="M313.69,443c-1,0-2,0-2.93-.07a2.31,2.31,0,0,1-2.72-2.51l0-6a1,1,0,0,1,1-1h0a1,1,0,0,1,1,1l0,6a2.12,2.12,0,0,0,0,.38h0a1.65,1.65,0,0,0,.79.15,61.1,61.1,0,0,0,8.87-.24,49.06,49.06,0,0,0,0-6.3,1,1,0,0,1,2-.11,51.08,51.08,0,0,1-.07,6.66,1.86,1.86,0,0,1-.48,1.23,1.84,1.84,0,0,1-1.21.5A60.51,60.51,0,0,1,313.69,443Z"/><path class="cls-7" d="M329.54,442.75a3,3,0,0,1-1.17-.2,2.65,2.65,0,0,1-1.52-1.88,5.74,5.74,0,0,1-.08-1.87l.3-4.15a1,1,0,0,1,1.06-.92,1,1,0,0,1,.93,1.06l-.3,4.15a4.29,4.29,0,0,0,0,1.25.75.75,0,0,0,.33.51,2.1,2.1,0,0,0,.6.05l9.25-.16a27.52,27.52,0,0,0,.16-6.21,1,1,0,0,1,.91-1.08,1,1,0,0,1,1.08.91,30.36,30.36,0,0,1-.21,7,1.61,1.61,0,0,1-.56,1.07,1.54,1.54,0,0,1-1,.31l-9.6.16Z"/><path class="cls-6" d="M173.05,451.92a.53.53,0,0,0-.37-.15c-9.88.25-19.9,0-29.77-.69a.29.29,0,0,0-.13,0c-.07-.12-.87-.1-.91.17a14.27,14.27,0,0,0,.18,5.89.5.5,0,0,0,.45.38c6.81.46,13.7.69,20.57.69,2.64,0,5.28,0,7.9-.11a2.28,2.28,0,0,0,1.82-.66,2.21,2.21,0,0,0,.37-1.44l0-3.73A.51.51,0,0,0,173.05,451.92Z"/><path class="cls-6" d="M230.45,451.92a.53.53,0,0,0-.37-.15c-6.76,0-26.8,0-29.77.07h-.13c-.07-.11-.87-.09-.92.18a14,14,0,0,0,.3,5.82.5.5,0,0,0,.45.38c6.81.45,13.59,0,20.46,0q4,0,7.9-.11a1.84,1.84,0,0,0,2.19-2.1l0-3.73A.47.47,0,0,0,230.45,451.92Z"/><path class="cls-6" d="M285.6,451.92a.53.53,0,0,0-.37-.15c-6.76,0-26.8,0-29.77.07h-.13c-.07-.11-.87-.09-.92.18a14,14,0,0,0,.3,5.82.5.5,0,0,0,.45.38c6.81.45,13.59,0,20.46,0q4,0,7.9-.11a1.84,1.84,0,0,0,2.19-2.1l0-3.73A.51.51,0,0,0,285.6,451.92Z"/><path class="cls-6" d="M309.1,458.28a.57.57,0,0,0,.37.14c6.76,0,26.8,0,29.77-.06h.13c.07.12.87.1.91-.18a13.75,13.75,0,0,0-.29-5.81.49.49,0,0,0-.45-.38c-6.82-.46-13.59,0-20.46,0-2.64,0-5.28,0-7.9.1a2.32,2.32,0,0,0-1.82.66,2.29,2.29,0,0,0-.37,1.45l0,3.73A.55.55,0,0,0,309.1,458.28Z"/><rect class="cls-7" x="236.36" y="420.88" width="26.34" height="2"/><rect class="cls-7" x="274.7" y="426.22" width="12.67" height="2"/><rect class="cls-7" x="297.86" y="418.88" width="20.79" height="2"/><path class="cls-6" d="M80.69,523.94a1,1,0,0,1-.46-.11,1,1,0,0,1-.42-1.35c6.56-12.54,19.38-19.33,26.44-22.27,9.3-3.87,20-5.87,33.59-6.3,6.11-.2,13.26-.12,20.12,1.87,6.68,2,12.65,5.58,18.43,9.08s12.24,7.86,15.75,15.07a1,1,0,1,1-1.8.88c-3.27-6.72-9.45-10.87-15-14.24s-11.52-7-17.94-8.87c-6.6-1.92-13.56-2-19.5-1.79-13.37.42-23.82,2.38-32.89,6.15-11.59,4.81-20.86,12.6-25.44,21.35A1,1,0,0,1,80.69,523.94Z"/><path class="cls-6" d="M442.11,522.09a.93.93,0,0,1-.46-.12,1,1,0,0,1-.43-1.35c5.09-9.71,14-17.62,25.23-22.27,9.29-3.86,20-5.87,33.59-6.3,6.11-.19,13.26-.12,20.12,1.88,6.68,1.94,12.65,5.57,18.42,9.08,6,3.64,12.69,8.12,16.16,15.25a1,1,0,1,1-1.8.87c-3.23-6.63-9.64-10.92-15.4-14.41s-11.51-7-17.94-8.87c-6.59-1.92-13.55-2-19.5-1.8-13.37.43-23.82,2.38-32.89,6.15-10.75,4.47-19.35,12.05-24.22,21.35A1,1,0,0,1,442.11,522.09Z"/><path class="cls-6" d="M203,521.37a1,1,0,0,1-.59-.19,1,1,0,0,1-.22-1.4c8-10.92,21.4-16.63,28.68-19.06,9.3-3.11,19.86-4.59,33.24-4.66h.1c7.51,0,38.94,4,48.3,23.05a1,1,0,1,1-1.79.88c-8.91-18.09-39.24-21.93-46.51-21.93h-.09c-13.16.06-23.52,1.51-32.62,4.55-7.05,2.36-20,7.88-27.69,18.35A1,1,0,0,1,203,521.37Z"/><path class="cls-6" d="M321,520.1a1.15,1.15,0,0,1-.41-.08,1,1,0,0,1-.51-1.33c8.29-18.49,43.29-25.64,64.37-24.66,18.91.88,37.16,9,48.8,21.72a1,1,0,1,1-1.47,1.35c-11.3-12.33-29-20.21-47.43-21.07-20.49-1-54.53,5.83-62.44,23.48A1,1,0,0,1,321,520.1Z"/><path class="cls-6" d="M784,518.51a1,1,0,0,1-.85-.47c-6.52-10.35-26.78-25.28-55.86-24a65.57,65.57,0,0,0-46.94,22.2,1,1,0,1,1-1.5-1.32,67.54,67.54,0,0,1,48.35-22.88c29.91-1.33,50.87,14.17,57.65,24.91a1,1,0,0,1-.32,1.38A.94.94,0,0,1,784,518.51Z"/><path class="cls-6" d="M563.44,519.7a1,1,0,0,1-.88-1.47c10.52-19.8,45.09-26.86,61.26-26.25,17.43.67,33.64,8.5,46.89,22.64a1,1,0,0,1-1.46,1.36c-12.88-13.74-28.61-21.35-45.51-22-18.46-.69-50.21,7.86-59.42,25.19A1,1,0,0,1,563.44,519.7Z"/><path class="cls-3" d="M96.28,511.3a1,1,0,0,1-1-1v-26a1,1,0,0,1,2,0v26A1,1,0,0,1,96.28,511.3Z"/><path class="cls-3" d="M111.78,502.8a1,1,0,0,1-1-1V484.55a1,1,0,0,1,2,0V501.8A1,1,0,0,1,111.78,502.8Z"/><path class="cls-3" d="M125.78,499.55a1,1,0,0,1-1-1v-14a1,1,0,0,1,2,0v14A1,1,0,0,1,125.78,499.55Z"/><path class="cls-3" d="M140.28,498.55a1,1,0,0,1-1-1V484.3a1,1,0,0,1,2,0v13.25A1,1,0,0,1,140.28,498.55Z"/><path class="cls-3" d="M161,500.55a1,1,0,0,1-1-1v-15.5a1,1,0,0,1,2,0v15.5A1,1,0,0,1,161,500.55Z"/><path class="cls-3" d="M178,509.05a1,1,0,0,1-1-1v-24.5a1,1,0,0,1,2,0v24.5A1,1,0,0,1,178,509.05Z"/><path class="cls-3" d="M218.72,513.3a1,1,0,0,1-1-1V482.74a1,1,0,0,1,2,0V512.3A1,1,0,0,1,218.72,513.3Z"/><path class="cls-3" d="M234.22,503.64a1,1,0,0,1-1-1V483a1,1,0,0,1,2,0v19.62A1,1,0,0,1,234.22,503.64Z"/><path class="cls-3" d="M248.22,499.94a1,1,0,0,1-1-1V483a1,1,0,0,1,2,0v15.92A1,1,0,0,1,248.22,499.94Z"/><path class="cls-3" d="M262.72,498.8a1,1,0,0,1-1-1V482.74a1,1,0,0,1,2,0V497.8A1,1,0,0,1,262.72,498.8Z"/><path class="cls-3" d="M283.47,501.08a1,1,0,0,1-1-1V482.45a1,1,0,0,1,2,0v17.63A1,1,0,0,1,283.47,501.08Z"/><path class="cls-3" d="M300.47,510.74a1,1,0,0,1-1-1V481.88a1,1,0,0,1,2,0v27.86A1,1,0,0,1,300.47,510.74Z"/><path class="cls-3" d="M336.73,509.89a1,1,0,0,1-1-1V482.74a1,1,0,0,1,2,0v26.15A1,1,0,0,1,336.73,509.89Z"/><path class="cls-3" d="M352.23,503.64a1,1,0,0,1-1-1V483a1,1,0,0,1,2,0v19.62A1,1,0,0,1,352.23,503.64Z"/><path class="cls-3" d="M366.23,499.94a1,1,0,0,1-1-1V483a1,1,0,0,1,2,0v15.92A1,1,0,0,1,366.23,499.94Z"/><path class="cls-3" d="M380.73,498.8a1,1,0,0,1-1-1V482.74a1,1,0,0,1,2,0V497.8A1,1,0,0,1,380.73,498.8Z"/><path class="cls-3" d="M401.48,501.08a1,1,0,0,1-1-1V482.45a1,1,0,0,1,2,0v17.63A1,1,0,0,1,401.48,501.08Z"/><path class="cls-3" d="M418.48,510.74a1,1,0,0,1-1-1V481.88a1,1,0,0,1,2,0v27.86A1,1,0,0,1,418.48,510.74Z"/><path class="cls-3" d="M457.07,509.89a1,1,0,0,1-1-1V482.74a1,1,0,0,1,2,0v26.15A1,1,0,0,1,457.07,509.89Z"/><path class="cls-3" d="M472.57,503.64a1,1,0,0,1-1-1V483a1,1,0,0,1,2,0v19.62A1,1,0,0,1,472.57,503.64Z"/><path class="cls-3" d="M486.57,499.94a1,1,0,0,1-1-1V483a1,1,0,0,1,2,0v15.92A1,1,0,0,1,486.57,499.94Z"/><path class="cls-3" d="M501.07,498.8a1,1,0,0,1-1-1V482.74a1,1,0,0,1,2,0V497.8A1,1,0,0,1,501.07,498.8Z"/><path class="cls-3" d="M521.82,501.08a1,1,0,0,1-1-1V482.45a1,1,0,1,1,2,0v17.63A1,1,0,0,1,521.82,501.08Z"/><path class="cls-3" d="M538.82,509.89a1,1,0,0,1-1-1v-27a1,1,0,0,1,2,0v27A1,1,0,0,1,538.82,509.89Z"/><path class="cls-3" d="M578.39,508.89a1,1,0,0,1-1-1V481.74a1,1,0,0,1,2,0v26.15A1,1,0,0,1,578.39,508.89Z"/><path class="cls-3" d="M593.4,502.64a1,1,0,0,1-1-1V482a1,1,0,0,1,2,0v19.62A1,1,0,0,1,593.4,502.64Z"/><path class="cls-3" d="M607,498.94a1,1,0,0,1-1-1V482a1,1,0,0,1,2,0v15.92A1,1,0,0,1,607,498.94Z"/><path class="cls-3" d="M621,497.8a1,1,0,0,1-1-1V481.74a1,1,0,0,1,2,0V496.8A1,1,0,0,1,621,497.8Z"/><path class="cls-3" d="M641.07,500.08a1,1,0,0,1-1-1V481.45a1,1,0,1,1,2,0v17.63A1,1,0,0,1,641.07,500.08Z"/><path class="cls-3" d="M657.53,508.89a1,1,0,0,1-1-1v-27a1,1,0,1,1,2,0v27A1,1,0,0,1,657.53,508.89Z"/><path class="cls-3" d="M692.64,508.89a1,1,0,0,1-1-1V481.74a1,1,0,0,1,2,0v26.15A1,1,0,0,1,692.64,508.89Z"/><path class="cls-3" d="M707.64,502.64a1,1,0,0,1-1-1V482a1,1,0,1,1,2,0v19.62A1,1,0,0,1,707.64,502.64Z"/><path class="cls-3" d="M721.2,498.94a1,1,0,0,1-1-1V482a1,1,0,0,1,2,0v15.92A1,1,0,0,1,721.2,498.94Z"/><path class="cls-3" d="M735.23,497.8a1,1,0,0,1-1-1V481.74a1,1,0,0,1,2,0V496.8A1,1,0,0,1,735.23,497.8Z"/><path class="cls-3" d="M755.32,500.08a1,1,0,0,1-1-1V481.45a1,1,0,1,1,2,0v17.63A1,1,0,0,1,755.32,500.08Z"/><path class="cls-3" d="M771.78,508.89a1,1,0,0,1-1-1v-27a1,1,0,1,1,2,0v27A1,1,0,0,1,771.78,508.89Z"/><rect class="cls-6" x="17.03" y="472.13" width="806.62" height="11.42" rx="5.71"/><path class="cls-1" d="M44.53,573.13h0l-11-.3c-2.56-.07-5.11-.41-6.48-2.47s-.61-4.74.69-6.32a13.88,13.88,0,0,1,4.85-3.39,1,1,0,0,1,1.34.44,1,1,0,0,1-.45,1.35,12.28,12.28,0,0,0-4.19,2.86c-.87,1.07-1.35,2.77-.57,4s2.85,1.53,4.86,1.58l11,.3a1,1,0,0,1,0,2Z"/><path class="cls-1" d="M121.4,567.44a1,1,0,0,1-.37-1.93l9.82-3.88a5.13,5.13,0,0,0,2.75-1.8,3.07,3.07,0,0,0-1-3.54,10.06,10.06,0,0,0-4.44-1.82,84.49,84.49,0,0,0-9.74-1.6,1,1,0,0,1-.89-1.1,1,1,0,0,1,1.09-.89,86.14,86.14,0,0,1,10,1.64,11.67,11.67,0,0,1,5.31,2.26c1.56,1.36,2.59,3.94,1.41,6a7,7,0,0,1-3.76,2.68l-9.81,3.88A1,1,0,0,1,121.4,567.44Z"/><path class="cls-1" d="M153.53,566.09h0a3.08,3.08,0,0,1-2.47-1.29,5.81,5.81,0,0,1-.71-4.86,10.7,10.7,0,0,1,8.53-7.5,1,1,0,0,1,1.14.84,1,1,0,0,1-.84,1.14,8.79,8.79,0,0,0-6.91,6.07,3.85,3.85,0,0,0,.4,3.11,1,1,0,0,0,.88.49,1,1,0,0,1,0,2Z"/><path class="cls-1" d="M222,569.08a1,1,0,0,1-.25-2A52.46,52.46,0,0,1,235,565.52a1,1,0,0,1,0,2h0a49.65,49.65,0,0,0-12.74,1.53A1,1,0,0,1,222,569.08Z"/><path class="cls-1" d="M282,558.19a1.07,1.07,0,0,1-.25,0l-10-2.63c-4.12-1.08-6.29-2.89-6.46-5.39-.18-2.74,2.24-4.61,3.71-5.49a19.45,19.45,0,0,1,5.75-2.27,1,1,0,0,1,.42,2,17.09,17.09,0,0,0-5.15,2c-.86.52-2.85,1.9-2.73,3.63.1,1.55,1.78,2.76,5,3.6l10,2.63a1,1,0,0,1-.26,2Z"/><path class="cls-1" d="M313.22,561.36h0l-25.5-.46a1,1,0,0,1-1-1,1,1,0,0,1,1-1l25.5.46a1,1,0,0,1,0,2Z"/><path class="cls-1" d="M352.52,558.06a1,1,0,0,1-.15-2l12.37-1.94c1.78-.28,4-.63,5.42-1.9a3.59,3.59,0,0,0,1.13-2.61,1.94,1.94,0,0,0-.65-1.49,1,1,0,0,1,1.26-1.55,3.91,3.91,0,0,1,1.39,3,5.58,5.58,0,0,1-1.8,4.14c-1.86,1.66-4.4,2.06-6.44,2.38l-12.37,1.94Z"/><path class="cls-1" d="M427,559.13h0a100.17,100.17,0,0,1-20.86-2.24c-2.7-.58-4.21-1.87-4.25-3.63a4.34,4.34,0,0,1,.4-1.76,5.39,5.39,0,0,0,.22-.64,2.43,2.43,0,0,0-3-2.62,1,1,0,0,1-.76-1.85,4.41,4.41,0,0,1,5.72,5,5.71,5.71,0,0,1-.3.88,2.91,2.91,0,0,0-.26,1c0,1.07,2.05,1.59,2.67,1.72a97.58,97.58,0,0,0,20.44,2.2,1,1,0,0,1,0,2Z"/><path class="cls-1" d="M476.61,554.69a1,1,0,0,1-.46-1.89l3.69-1.92a2.15,2.15,0,0,0,.46-.3s.06-.15-.22-.73a17,17,0,0,0-8-7.9,1,1,0,0,1,.85-1.81,18.68,18.68,0,0,1,8.91,8.85,2.39,2.39,0,0,1-1.12,3.66l-3.69,1.93A1.07,1.07,0,0,1,476.61,554.69Z"/><path class="cls-1" d="M522.51,555.67h-.11a19.57,19.57,0,0,1-7.36-1.84c-2.26-1.25-4.39-3.84-4.06-6.83.3-2.73,2.4-4.63,4.52-6.34,2.77-2.24,4.45-1.53,5.19-.91a1,1,0,0,1,.14,1.4,1,1,0,0,1-1.41.14c-.55-.45-1.74.18-2.66.93-1.8,1.45-3.58,3-3.8,5s1.42,4,3,4.85a17.8,17.8,0,0,0,6.62,1.61,1,1,0,0,1-.11,2Z"/><path class="cls-1" d="M568.49,558.48a1,1,0,0,1-1-1,1,1,0,0,1,1-1l15.12-.59a22.54,22.54,0,0,0,7.11-1,7,7,0,0,0,4.53-4.43,4.37,4.37,0,0,0-.51-3.26,3.14,3.14,0,0,0-1.92-1.49,1,1,0,0,1-.75-1.2,1,1,0,0,1,1.2-.75,5.11,5.11,0,0,1,3.18,2.41,6.32,6.32,0,0,1,.73,4.79,9,9,0,0,1-5.76,5.81,25,25,0,0,1-7.74,1.15l-15.11.59Z"/><path class="cls-1" d="M651.05,558h-.14l-14.76-2c-1.46-.2-5.9-.8-6.63-4.23a5.66,5.66,0,0,1,1.25-4.47,14.39,14.39,0,0,1,9.58-5.9,1,1,0,0,1,.29,2,12.44,12.44,0,0,0-8.24,5.07,3.86,3.86,0,0,0-.93,2.9c.29,1.36,2,2.26,4.95,2.67l14.76,2a1,1,0,0,1,.86,1.12A1,1,0,0,1,651.05,558Z"/><path class="cls-1" d="M685.58,564.61c-2.86,0-5.73,0-8.58-.11a1,1,0,0,1-1-1,1,1,0,0,1,1-1h0c7.48.19,15,.13,22.48-.17,1.51-.06,5-.42,5.42-2.55a5.66,5.66,0,0,0,.06-.87,3.53,3.53,0,0,1,.85-2.67,3.66,3.66,0,0,1,1.87-.83,49.15,49.15,0,0,1,12.87-.81,1,1,0,0,1,.93,1.06,1,1,0,0,1-1.07.93,47.29,47.29,0,0,0-12.34.78,2,2,0,0,0-.87.31c-.22.21-.23.72-.24,1.27a8,8,0,0,1-.09,1.18c-.45,2.54-3,4-7.31,4.2C695,564.52,690.27,564.61,685.58,564.61Z"/><path class="cls-1" d="M647,563.58h0a172.11,172.11,0,0,1-26.14-2.09,1,1,0,0,1,.31-2A170.74,170.74,0,0,0,647,561.58a1,1,0,0,1,1,1A1,1,0,0,1,647,563.58Z"/><polygon class="cls-6" points="344.08 188.71 344.1 188.71 344.1 188.71 344.08 188.71"/><polygon class="cls-6" points="329.33 192.13 329.33 192.12 329.33 192.1 329.33 192.13"/><path class="cls-6" d="M397.79,221.08a39,39,0,0,1-.38-4.06c-.14-4.32-.17-8.65-.34-13-.08-2-.07-4.07-.32-6.15a40.28,40.28,0,0,1-.12-4.37v0a.52.52,0,0,0,.08-.25c0-.11,0-.21,0-.31a2.43,2.43,0,0,0-.1-.61h0l-.12-4.5-4.75.15-7.15.25-6.8.21c-4.16.09-8.35.51-12.46-.07h0l-9.77.25h-.21c-.78-.3-1.52.43-2.07.14a3,3,0,0,0-2.13-.13h0l-3.46.2-.05,0,0,0c-.24-.19-.46-.06-.68,0h0a10,10,0,0,0-2.91-.19l-.16.18-.62.12h0c-.23.22-.47.11-.72,0h-4.38a28,28,0,0,0-3.3,0l-5.52.24,0,1.4s0,.05,0,.07a.24.24,0,0,0,0,.08v0l-.14,1.27.13,2.38.1,1.48a23.39,23.39,0,0,1,0,2.78l-.1,0a.29.29,0,0,1,0,.1l.14,1.32v0a3,3,0,0,1,.13.74,31.94,31.94,0,0,0,0,6.41,30.39,30.39,0,0,1,.13,3c0,.82,0,1.64,0,2.46a19.78,19.78,0,0,1,.08,4.07h0l0,3.31.28,14.59,3.16,0c.65,0,1.33,0,2-.08l.72-.05.59,0a12.38,12.38,0,0,1,2.16-.06c1.83.17,3.65.26,5.47.25,3.41,0,6.82-.32,10.22,0h0c.08-.09.17-.11.26,0h0c2.44,0,4.89,0,7.33,0,4.75-.13,9.49,0,14.24,0,5.22-.07,10.41-.51,15.59-.93,2.72-.23,3.52-1,1.64-2.1l-.12-.07,1.13,0,0-2.55c1.33.63,1.31-1.6,1.2-2.84-.21-2.33.35-3,1.3-3.36C397.66,222.63,398,222.25,397.79,221.08Zm-68.18-22.34.19-.39a.92.92,0,0,1,0,.2A1.8,1.8,0,0,1,329.61,198.74Zm22.22-9.93-.11.09-.51-.19Zm-7.37.1,0,.08-.43-.09Zm-6.25.14-.12.12-.1-.06Zm58.35,3.53s0-.09,0-.12l0,0Z"/><polygon class="cls-6" points="638.42 167.54 638.44 167.54 638.44 167.54 638.42 167.54"/><polygon class="cls-6" points="623.66 170.97 623.67 170.95 623.66 170.93 623.66 170.97"/><path class="cls-6" d="M692.12,199.92c-.18-1.33-.33-2.7-.38-4.07-.13-4.31-.17-8.64-.34-13-.08-2-.07-4.07-.31-6.15a40,40,0,0,1-.13-4.36v0l0,0a.63.63,0,0,0,.07-.26,1.61,1.61,0,0,0,0-.31,2.5,2.5,0,0,0-.09-.61h0l-.12-4.5-4.75.16-7.14.25-6.81.2c-4.16.09-8.35.52-12.45-.06h0l-9.77.25h0a.81.81,0,0,1-.22,0h0c-.79-.3-1.53.42-2.08.13a3,3,0,0,0-2.13-.12h0l-3.46.2,0,0h0c-.24-.19-.45-.07-.67,0h0a10,10,0,0,0-2.91-.2l-.17.19-.62.12,0,0c-.23.23-.48.12-.73,0h-4.38a25.8,25.8,0,0,0-3.29,0l-5.53.24,0,1.39a.25.25,0,0,0,0,.07.19.19,0,0,0,0,.08v0l0,0-.14,1.26.12,2.39.11,1.48a21.32,21.32,0,0,1,0,2.77l-.09,0,0,.1.13,1.32h0a2.81,2.81,0,0,1,.13.74,31.84,31.84,0,0,0,0,6.4c.12,1,.11,2,.14,3,0,.82,0,1.64,0,2.46a19.78,19.78,0,0,1,.08,4.07h0l0,3.31.28,14.58,3.17-.05c.64,0,1.32,0,2-.07.4,0,.49,0,.72-.06l.59-.05a12.41,12.41,0,0,1,2.16-.06c1.84.17,3.65.26,5.48.25,3.4,0,6.81-.31,10.21,0h0c.09-.09.17-.11.26,0h0c2.45,0,4.89,0,7.33,0,4.76-.12,9.5,0,14.24,0,5.23-.07,10.41-.5,15.59-.93,2.73-.22,3.52-1.05,1.64-2.1l-.12-.07,1.13,0,0-2.54c1.34.62,1.31-1.6,1.2-2.84-.2-2.34.36-3,1.31-3.36C692,201.47,692.29,201.09,692.12,199.92ZM624,177.57l.18-.39a.92.92,0,0,1,0,.2A1.19,1.19,0,0,1,624,177.57Zm22.21-9.93-.1.1-.51-.19Zm-7.37.1,0,.09-.43-.09Zm-6.24.14-.12.12-.11-.06Zm58.35,3.53s0-.09,0-.11l0,0Z"/><path class="cls-6" d="M669.56,372.28c-.82-.31-10.86,21.48-15.53,29.87a310.08,310.08,0,0,0,31.46,11.3c6.35-8.4,11.4-22.7,15.31-32.48C700.8,381,678,375.39,669.56,372.28Z"/><path class="cls-7" d="M664.34,373.26a3,3,0,0,1-.22.39c-.14.2.28.6.76,1a4.58,4.58,0,0,0,1.62.88,124.89,124.89,0,0,0,12.34,3.63l7.49,1.82c1.33.32,2.73.62,3.91.83l2.28.42,1,.19.14,0v.1l-.12.52c-.53,2.3-1.2,4.59-1.84,6.87-.22.78-.41,1.54-.68,2.35q-1.51,4.53-3.34,8.95a103.94,103.94,0,0,1-6.13,12.49l-.32.53a.22.22,0,0,0,0,.08h-.11l-.8-.14c-.57-.1-1.13-.22-1.69-.33-1.12-.23-2.23-.49-3.34-.75-2.23-.52-4.44-1.12-6.63-1.74-3.71-1.05-7.27-2.41-10.91-3.71-2.12-.77-4.21-1.7-6.28-2.56l-.16-.07h-.08s0,0,0-.06l.67-1.24.68-1.29c.88-1.73,1.74-3.46,2.55-5.21l3.37-7.15c1.49-3.13,2.78-6.34,4.07-9.55.64-1.62,1.3-3.22,2-4.82.46-1.06.6-1.7.47-1.93a.45.45,0,0,0-.62-.23,10.82,10.82,0,0,1-1.46.53c-.31.08-.29,0-.8,1.35l-.25.67c-.95,2.35-1.82,4.71-2.89,7.06a26.52,26.52,0,0,0-1.11,2.76c-.22.66-.51,1.27-.8,1.92a35.83,35.83,0,0,0-1.81,4.21,3.58,3.58,0,0,1-.21.45,9.82,9.82,0,0,0-.77,1.7c-.31.75-.61,1.48-1,2.26l-3.22,6.43c-.17.34-.35.67-.54,1l-.19.35-.25.42-.5.82-.26.42,0,.05.06,0,.11,0,.21.1.87.4,1.4.66c1.4.65,2.81,1.27,4.29,1.79a3.34,3.34,0,0,1,.46.2,21,21,0,0,0,3.87,1.54,33,33,0,0,1,3.59,1.23,14.18,14.18,0,0,0,1.67.55,25.23,25.23,0,0,1,2.46.73,47.74,47.74,0,0,0,5.87,1.51,2.7,2.7,0,0,1,.63.17,10.79,10.79,0,0,0,2.49.6c.9.14,1.74.36,2.52.48a10.19,10.19,0,0,1,1.21.27l.54.15.14,0,.26.05.56.1.73.13a4.65,4.65,0,0,0,.38-.62l.6-1.06.79-1.43,1.58-2.89a30.77,30.77,0,0,0,1.65-3.36,5.78,5.78,0,0,1,.56-1.05,9,9,0,0,0,.55-1.08c1.3-2.91,2.49-5.86,3.54-8.85,1.13-3.24,2.1-6.53,3.06-9.81a4.11,4.11,0,0,0,.2-.84,4.26,4.26,0,0,1,.32-1.49,7.78,7.78,0,0,0,.22-.77c.09-.39.19-.78.28-1.15l.37-1.58-2.47-.46c-.44-.08-.88-.17-1.31-.28-1.69-.45-3.44-.83-5.19-1.22-2.22-.48-4.42-1-6.62-1.57-2.59-.66-5.18-1.33-7.74-2.08-2.09-.65-4.2-1.24-6.21-2-1.36-.53-1.63-.65-2-.53S664.39,373,664.34,373.26Z"/><path class="cls-7" d="M663.78,385.86l-.12.44a1.3,1.3,0,0,0,0,.65c0,.13.06.26.2.3l1.93.47a9.35,9.35,0,0,1,1.14.35,2.26,2.26,0,0,0,.6.14,6.26,6.26,0,0,1,1,.16c.37.07.72.22,1.09.27a2.65,2.65,0,0,1,.38.05c.47.17.95.32,1.43.45.7.2,1.4.38,2.11.57.07,0,.14.06.21.07.71.13,1.37.4,2.07.58s1.11.46,1.72.56c.35.05.67.22,1,.27.6.1,1.15.34,1.74.46a6.55,6.55,0,0,1,1.17.36,7,7,0,0,0,1.58.29,1.92,1.92,0,0,1,.77.24c.16.1.26.07.34-.13a2.25,2.25,0,0,0,.18-.64c0-.4.1-.8.16-1.2s0-.26-.16-.32l-.11,0c-.38-.12-.8-.09-1.17-.24a.76.76,0,0,0-.47,0,.61.61,0,0,1-.33,0c-.24-.06-.45-.24-.72-.09a.06.06,0,0,1-.07,0c-.08-.12-.19-.06-.29-.06a.81.81,0,0,1-.38,0,4.62,4.62,0,0,0-1.08-.32c-.48-.06-.86-.45-1.36-.45a.08.08,0,0,1-.07,0c-.14-.23-.38-.23-.6-.25s-.4,0-.56-.15a.29.29,0,0,0-.26-.09c-.16,0-.26-.05-.38-.1a1.73,1.73,0,0,0-.92-.18.07.07,0,0,1-.09-.05c-.09-.17-.28-.14-.38-.13s-.27-.06-.39,0-.2-.18-.33-.18a3.3,3.3,0,0,1-1-.21,1.08,1.08,0,0,0-.56-.14c-.07,0-.12,0-.16-.1s-.11-.08-.17-.1c-.47-.13-.94-.28-1.41-.39a9.91,9.91,0,0,1-1.53-.43s-.09-.06-.13,0-.16.05-.24,0-.15-.06-.23-.1-.38,0-.53-.14a2.28,2.28,0,0,0-.78-.31q-.51-.13-1-.3l-1.2-.34c-.33-.1-.68-.14-1-.23s-.28-.05-.4.19A3.47,3.47,0,0,0,663.78,385.86Z"/><path class="cls-7" d="M662.61,391.31l-.12.44a1.3,1.3,0,0,0,0,.65c0,.13.07.26.22.3l2,.49.66.18.6-2.23-.51-.17a1.52,1.52,0,0,0-.4-.12l-.62,2.31.22,0a8.18,8.18,0,0,1,1,.17c.38.08.73.23,1.11.28a1.84,1.84,0,0,1,.4.06c.48.16,1,.32,1.47.46l2.17.58a1.87,1.87,0,0,0,.22.07c.73.14,1.41.41,2.13.6s1.15.47,1.77.57c.36.06.69.23,1.05.28.61.1,1.18.35,1.79.47a7.24,7.24,0,0,1,1.2.37,7.44,7.44,0,0,0,1.63.3,2.36,2.36,0,0,1,.79.25c.16.1.27.07.35-.12a2.34,2.34,0,0,0,.18-.64l.16-1.2c0-.27,0-.27-.17-.33l-.12,0c-.39-.12-.81-.1-1.2-.24a.72.72,0,0,0-.48,0,.56.56,0,0,1-.34,0c-.24-.06-.46-.23-.74-.09a.06.06,0,0,1-.07,0c-.08-.12-.2-.06-.3-.06a1.09,1.09,0,0,1-.4,0,4.23,4.23,0,0,0-1.1-.33c-.5-.07-.89-.46-1.41-.47a.13.13,0,0,1-.07,0,.66.66,0,0,0-.61-.25c-.21,0-.42,0-.58-.17a.33.33,0,0,0-.27-.09c-.16,0-.26-.05-.39-.1a1.91,1.91,0,0,0-1-.19.08.08,0,0,1-.09-.05c-.09-.17-.28-.14-.38-.13s-.28-.06-.41-.05-.21-.18-.34-.19a3.26,3.26,0,0,1-1-.21,1.13,1.13,0,0,0-.57-.15.19.19,0,0,1-.17-.1c0-.07-.11-.08-.17-.1-.49-.14-1-.28-1.46-.4a9.64,9.64,0,0,1-1.57-.44s-.1-.06-.13,0-.17.05-.25,0a2.29,2.29,0,0,0-.23-.1c-.18-.08-.39,0-.56-.14a1.77,1.77,0,0,0-.48-.23l-.62,2.31.32.09.6.17.62-2.33-.44-.14-1.24-.35c-.34-.1-.7-.15-1-.24s-.28-.05-.41.19A3.47,3.47,0,0,0,662.61,391.31Z"/><path class="cls-7" d="M661.72,396.84l-.12.43a1.34,1.34,0,0,0,0,.66.31.31,0,0,0,.22.29c.66.16,1.32.32,2,.5a8,8,0,0,1,1.18.35,2.11,2.11,0,0,0,.63.14,6.66,6.66,0,0,1,1,.18c.38.07.74.22,1.12.28a2.6,2.6,0,0,1,.39.05c.49.17,1,.33,1.48.47l2.18.58c.08,0,.15.06.22.07.73.14,1.42.41,2.14.6s1.15.47,1.77.57c.37.06.7.23,1.06.29.62.1,1.19.34,1.8.47a6.73,6.73,0,0,1,1.21.37,7.33,7.33,0,0,0,1.63.3,2.49,2.49,0,0,1,.8.25c.16.1.27.07.35-.12a2.34,2.34,0,0,0,.18-.64c0-.4.09-.8.16-1.2s0-.27-.18-.33l-.11,0c-.4-.12-.82-.1-1.21-.24a.74.74,0,0,0-.49,0,.57.57,0,0,1-.34,0c-.24-.06-.46-.24-.73-.09a.08.08,0,0,1-.08,0c-.08-.11-.19-.05-.3-.05a.94.94,0,0,1-.4,0,4.58,4.58,0,0,0-1.11-.32c-.5-.07-.89-.47-1.41-.47a.1.1,0,0,1-.07-.05.68.68,0,0,0-.62-.25c-.21,0-.41,0-.58-.16a.29.29,0,0,0-.26-.09c-.16,0-.27-.06-.4-.1a1.83,1.83,0,0,0-1-.2.08.08,0,0,1-.09,0c-.09-.18-.29-.15-.39-.14s-.28-.06-.41,0-.2-.18-.34-.19a3.26,3.26,0,0,1-1-.21,1.07,1.07,0,0,0-.58-.15.19.19,0,0,1-.17-.1.21.21,0,0,0-.17-.1c-.49-.14-1-.29-1.46-.41a9.76,9.76,0,0,1-1.58-.44s-.1-.06-.13,0-.17.05-.25,0a.72.72,0,0,0-.24-.1c-.17-.09-.39,0-.55-.15a2.3,2.3,0,0,0-.8-.31c-.36-.09-.71-.21-1.06-.31s-.83-.23-1.24-.36-.7-.14-1-.23-.29-.06-.41.19A3.17,3.17,0,0,0,661.72,396.84Z"/><path class="cls-7" d="M657.62,401.64l-.12.44a1.59,1.59,0,0,0,0,.65c0,.12,0,.25.17.28l1.67.41a7,7,0,0,1,1,.3,1.7,1.7,0,0,0,.52.12,5.93,5.93,0,0,1,.86.13c.32.06.61.19.94.23a1.86,1.86,0,0,1,.33,0c.41.15.82.28,1.24.4.6.17,1.22.32,1.83.48a1.34,1.34,0,0,0,.18.07c.61.1,1.19.35,1.79.5a15.32,15.32,0,0,0,1.49.5c.3.05.58.2.88.24.52.07,1,.29,1.51.39a5.38,5.38,0,0,1,1,.32,5.32,5.32,0,0,0,1.38.24,1.42,1.42,0,0,1,.66.21c.14.09.23.06.31-.14a3.17,3.17,0,0,0,.18-.64c.05-.4.11-.79.18-1.19s0-.27-.14-.31l-.09,0c-.33-.1-.69-.06-1-.19a.53.53,0,0,0-.41,0,.48.48,0,0,1-.29,0c-.2-.05-.38-.21-.62-.06a0,0,0,0,1-.06,0c-.07-.11-.17-.05-.25,0a.78.78,0,0,1-.34,0,3.12,3.12,0,0,0-.93-.28c-.42-.05-.74-.42-1.18-.41a.08.08,0,0,1-.06,0c-.12-.22-.33-.22-.51-.23s-.36,0-.49-.13a.22.22,0,0,0-.22-.08c-.14,0-.23,0-.34-.08a1.27,1.27,0,0,0-.79-.16s-.07,0-.08,0-.24-.13-.33-.11-.23-.05-.34,0-.17-.17-.29-.17A2.48,2.48,0,0,1,666,403a.84.84,0,0,0-.49-.13c-.05,0-.1,0-.14-.09a.17.17,0,0,0-.14-.09c-.41-.12-.81-.25-1.22-.34a7.37,7.37,0,0,1-1.32-.37s-.09-.06-.12,0-.14.05-.21,0-.13-.06-.2-.09-.33,0-.46-.12a1.73,1.73,0,0,0-.67-.29c-.3-.07-.59-.17-.88-.26l-1.05-.3c-.28-.09-.58-.12-.87-.19s-.24,0-.35.2A4.12,4.12,0,0,0,657.62,401.64Z"/><path class="cls-6" d="M461.48,264.33c-.88.05-1.35,24-2.27,33.59a312.65,312.65,0,0,0,33.35-2.24c2.46-10.24,1.36-25.37,1-35.9C493.59,259.78,470.43,263.81,461.48,264.33Z"/><path class="cls-7" d="M457.09,267.32c0,.15,0,.3,0,.45s.5.44,1.11.62a4.37,4.37,0,0,0,1.83.17,127.8,127.8,0,0,0,12.76-1.62l7.59-1.34c1.36-.23,2.75-.52,3.92-.8l2.26-.53,1-.23.14,0,0,.1.11.52c.43,2.32.73,4.68,1.06,7,.11.81.24,1.57.32,2.43q.42,4.76.52,9.53a105.85,105.85,0,0,1-.61,13.91l-.08.6a.36.36,0,0,0,0,.1l-.11,0-.79.19-1.67.37c-1.12.24-2.24.45-3.37.66-2.25.41-4.51.74-6.77,1-3.82.53-7.62.71-11.48,1-2.25.15-4.54.13-6.78.17h-.25s0-.06,0-.07l.12-1.4.1-1.46c.11-1.94.21-3.86.25-5.8.08-2.61.15-5.25.23-7.9.11-3.45,0-6.92-.1-10.37-.06-1.74-.1-3.48-.11-5.22,0-1.15-.12-1.8-.33-2a.45.45,0,0,0-.66,0,12.35,12.35,0,0,1-1.13,1.07c-.26.2-.25.14-.19,1.56l0,.71c.08,2.54.22,5.05.19,7.63a28.59,28.59,0,0,0,.08,3c.06.7,0,1.37,0,2.09a34.89,34.89,0,0,0,0,4.58,2.69,2.69,0,0,1,0,.49,10.67,10.67,0,0,0,0,1.87c0,.81,0,1.6,0,2.47-.12,2.39-.25,4.79-.37,7.18,0,.39-.05.76-.09,1.14l0,.41-.07.48-.13.95-.06.48s0,0,0,.06h.42l.95,0,1.55,0c1.54,0,3.08,0,4.65-.08h.5a20.86,20.86,0,0,0,4.16-.14,34.17,34.17,0,0,1,3.79-.31,11.52,11.52,0,0,0,1.75-.17c.89-.18,1.68-.21,2.54-.31a47,47,0,0,0,6-1,2.39,2.39,0,0,1,.64-.1,10.61,10.61,0,0,0,2.52-.45c.89-.23,1.74-.36,2.5-.57a8.9,8.9,0,0,1,1.23-.23l.54-.08.14,0,.27-.05.55-.13.72-.18a5.21,5.21,0,0,0,.1-.72l.13-1.21.15-1.63c.09-1.09.19-2.18.28-3.27a29.25,29.25,0,0,0,.18-3.75,5.75,5.75,0,0,1,.09-1.19,7.65,7.65,0,0,0,.06-1.21c0-3.18-.06-6.36-.29-9.52-.26-3.42-.69-6.82-1.13-10.22a3.76,3.76,0,0,0-.15-.84,4.29,4.29,0,0,1-.3-1.5c0-.25-.07-.52-.11-.79L489.7,263c-.09-.53-.19-1.06-.28-1.59l-2.45.57c-.44.1-.88.2-1.32.26-1.72.26-3.48.62-5.24,1-2.23.44-4.46.83-6.69,1.21-2.64.43-5.29.85-7.93,1.18-2.18.25-4.34.55-6.5.65-1.46.05-1.75.05-2.08.33S457,267.06,457.09,267.32Z"/><path class="cls-7" d="M461.62,279.09c0,.15.05.3.06.45a1.55,1.55,0,0,0,.26.6.33.33,0,0,0,.31.19l1.95-.33a8.07,8.07,0,0,1,1.19-.15,2,2,0,0,0,.61-.11,6.42,6.42,0,0,1,1-.24c.37-.08.74-.09,1.1-.19.13,0,.24-.09.37-.11.5,0,1-.08,1.49-.15.72-.1,1.44-.23,2.16-.34h.23c.69-.17,1.41-.19,2.12-.3s1.21,0,1.8-.18c.34-.08.71-.07,1-.16.58-.15,1.19-.15,1.77-.27a6.25,6.25,0,0,1,1.22-.14,7.17,7.17,0,0,0,1.57-.37,2.15,2.15,0,0,1,.8-.09c.18,0,.27,0,.26-.25a2.5,2.5,0,0,0-.09-.66c-.12-.38-.23-.77-.33-1.16s-.06-.26-.28-.23l-.11,0c-.4,0-.77.24-1.17.26a.7.7,0,0,0-.44.16.55.55,0,0,1-.32.1c-.23,0-.5,0-.69.21,0,0-.05,0-.07,0s-.2,0-.29.07a.94.94,0,0,1-.37.11,4.63,4.63,0,0,0-1.11.14c-.47.14-1-.07-1.43.13a.11.11,0,0,1-.08,0,.63.63,0,0,0-.65,0c-.19.07-.36.18-.58.08a.29.29,0,0,0-.27,0c-.13.1-.26.06-.39.07a1.66,1.66,0,0,0-.92.2.08.08,0,0,1-.1,0c-.14-.12-.3,0-.39,0s-.27.05-.38.12-.26-.09-.38,0a3.06,3.06,0,0,1-1,.2,1.13,1.13,0,0,0-.57.1.19.19,0,0,1-.19,0,.32.32,0,0,0-.19,0c-.48.07-1,.13-1.45.21a9.27,9.27,0,0,1-1.57.22s-.11,0-.13,0-.13.11-.22.08a2.08,2.08,0,0,0-.25,0c-.19,0-.36.13-.55.09a2.16,2.16,0,0,0-.84,0c-.34.06-.7.09-1.05.13l-1.24.17c-.34,0-.67.14-1,.19s-.28.07-.29.34A3.4,3.4,0,0,0,461.62,279.09Z"/><path class="cls-7" d="M462.73,284.56l.06.44a1.43,1.43,0,0,0,.27.6.33.33,0,0,0,.32.19l2-.34.69-.11-.35-2.28-.54.05a1.84,1.84,0,0,0-.41.05l.36,2.37a1,1,0,0,0,.21-.07,7.26,7.26,0,0,1,1-.24c.37-.08.76-.09,1.13-.19a1.66,1.66,0,0,1,.38-.11c.51,0,1-.09,1.54-.16l2.22-.35h.23c.72-.17,1.46-.2,2.18-.31s1.25,0,1.85-.19c.36-.08.73-.07,1.09-.16.6-.15,1.22-.16,1.82-.28a7.49,7.49,0,0,1,1.25-.15,7.6,7.6,0,0,0,1.62-.37,1.91,1.91,0,0,1,.82-.09c.19,0,.28-.05.27-.26a2.37,2.37,0,0,0-.09-.65l-.34-1.17c-.07-.26-.06-.26-.29-.23l-.11,0c-.41.05-.78.24-1.2.26a.78.78,0,0,0-.46.16.52.52,0,0,1-.32.11c-.24,0-.51,0-.71.21a.11.11,0,0,1-.08,0c-.11-.07-.19,0-.29.06a.85.85,0,0,1-.38.12,4.48,4.48,0,0,0-1.15.15c-.48.13-1-.07-1.47.13a.11.11,0,0,1-.08,0,.69.69,0,0,0-.67,0c-.19.07-.37.19-.59.09a.31.31,0,0,0-.28,0c-.13.1-.26.06-.4.07a1.76,1.76,0,0,0-.95.2.08.08,0,0,1-.1,0,.34.34,0,0,0-.41,0c-.13.08-.27.05-.39.11s-.26-.08-.39,0a3.21,3.21,0,0,1-1,.22,1.06,1.06,0,0,0-.58.09.19.19,0,0,1-.2,0,.22.22,0,0,0-.19,0c-.5.07-1,.13-1.5.22a9.6,9.6,0,0,1-1.61.22s-.11,0-.13,0-.14.11-.23.08a1.11,1.11,0,0,0-.26,0c-.2,0-.37.13-.56.09a1.63,1.63,0,0,0-.54,0l.36,2.36.32,0,.62-.09-.36-2.38-.46.05-1.28.18c-.35,0-.69.14-1,.19s-.28.07-.3.34A3.49,3.49,0,0,0,462.73,284.56Z"/><path class="cls-7" d="M464.13,290l.06.45a1.41,1.41,0,0,0,.26.6c.08.11.17.21.32.19l2-.35a9.91,9.91,0,0,1,1.22-.15,1.81,1.81,0,0,0,.63-.12,7.26,7.26,0,0,1,1-.24c.37-.08.76-.09,1.13-.19a1.74,1.74,0,0,1,.39-.11c.51,0,1-.09,1.54-.17.74-.1,1.49-.22,2.23-.34a1.64,1.64,0,0,0,.23,0c.72-.17,1.47-.19,2.2-.31s1.24,0,1.85-.18c.36-.09.74-.07,1.09-.16.6-.16,1.22-.16,1.83-.29a7.48,7.48,0,0,1,1.26-.15,7.6,7.6,0,0,0,1.62-.37,2.1,2.1,0,0,1,.83-.09c.19,0,.28-.05.27-.26a2.37,2.37,0,0,0-.09-.65c-.12-.39-.23-.78-.34-1.17s-.06-.26-.29-.22l-.11,0c-.41.05-.79.24-1.21.26a.78.78,0,0,0-.46.16.56.56,0,0,1-.32.11c-.24,0-.52,0-.71.21a.08.08,0,0,1-.08,0c-.12-.07-.2,0-.29.07a1.36,1.36,0,0,1-.39.12,4.42,4.42,0,0,0-1.15.14c-.48.14-1-.07-1.48.13a.08.08,0,0,1-.08,0,.69.69,0,0,0-.67,0c-.2.07-.37.18-.6.08a.31.31,0,0,0-.28,0c-.13.1-.26.06-.4.07a1.86,1.86,0,0,0-1,.21.08.08,0,0,1-.1,0c-.15-.12-.32,0-.41,0s-.28.06-.4.12-.25-.09-.39,0a3.51,3.51,0,0,1-1,.22,1,1,0,0,0-.58.09.19.19,0,0,1-.2,0,.27.27,0,0,0-.2,0c-.5.07-1,.13-1.5.22a9.86,9.86,0,0,1-1.62.22s-.11,0-.13,0-.14.11-.23.08a1.11,1.11,0,0,0-.26,0c-.2,0-.37.13-.57.09a2.27,2.27,0,0,0-.86,0c-.36.06-.72.09-1.09.14s-.85.12-1.28.17-.7.15-1.05.2-.28.07-.29.34A3,3,0,0,0,464.13,290Z"/><path class="cls-7" d="M462.29,296c0,.15,0,.3.07.45a1.5,1.5,0,0,0,.23.6c.07.11.15.22.28.19l1.69-.29a7.09,7.09,0,0,1,1-.12,1.47,1.47,0,0,0,.53-.1,5,5,0,0,1,.84-.22c.31-.08.64-.08.95-.17a1.08,1.08,0,0,1,.32-.09c.43,0,.86-.07,1.29-.13l1.87-.29h.2c.6-.16,1.23-.16,1.84-.26s1.05,0,1.56-.14c.3-.08.61-.06.91-.14.5-.14,1-.13,1.53-.24a4.71,4.71,0,0,1,1.06-.11,5.42,5.42,0,0,0,1.36-.34,1.46,1.46,0,0,1,.69-.07c.16,0,.24,0,.23-.25a2.84,2.84,0,0,0-.1-.65c-.1-.39-.21-.78-.31-1.17s-.06-.27-.25-.24l-.09,0c-.35,0-.66.22-1,.24a.5.5,0,0,0-.38.15.5.5,0,0,1-.27.1c-.21,0-.44-.05-.6.19a.08.08,0,0,1-.07,0c-.1-.08-.16,0-.24.06a.72.72,0,0,1-.32.11,3.15,3.15,0,0,0-1,.11c-.4.13-.84-.09-1.24.1a.09.09,0,0,1-.07,0,.48.48,0,0,0-.56,0c-.17.06-.31.17-.51.07a.21.21,0,0,0-.23,0c-.11.1-.22.05-.34.06a1.3,1.3,0,0,0-.79.18.06.06,0,0,1-.09,0c-.13-.12-.27,0-.34,0s-.23,0-.33.1-.22-.09-.33-.05a2.34,2.34,0,0,1-.86.19.93.93,0,0,0-.49.08c-.05,0-.11,0-.16,0a.21.21,0,0,0-.17,0c-.42.05-.84.1-1.26.17a7,7,0,0,1-1.36.19s-.1,0-.11,0-.11.1-.19.08-.15,0-.22,0-.31.12-.47.08a1.63,1.63,0,0,0-.73,0c-.3,0-.61.08-.91.11l-1.08.14c-.3,0-.58.13-.88.18s-.23.06-.24.33A4.17,4.17,0,0,0,462.29,296Z"/><path class="cls-6" d="M601,304.86c-1.79,1.28-14.66,15.19-28.73,23A337.9,337.9,0,0,0,598.72,353a104,104,0,0,0,29.66-25.66Z"/><path class="cls-7" d="M596.47,303.55a3.52,3.52,0,0,1-.37.27c-.21.11,0,.69.36,1.3a5.25,5.25,0,0,0,1.23,1.58c3.41,3.28,7,6.2,10.71,9.08l6.68,5.12c1.19.92,2.45,1.83,3.54,2.56l2.09,1.44,1,.71.13.08a4.3,4.3,0,0,1-.46.64c-1.56,2.07-3.23,4.06-4.88,6.05-.58.69-1.1,1.35-1.73,2.05q-3.51,3.85-7.3,7.46a112.94,112.94,0,0,1-11.65,9.78l-.61.42-.09.06a.42.42,0,0,1-.13-.07l-.77-.52c-.52-.35-1-.72-1.54-1.08-1-.72-2-1.47-3-2.22-2-1.51-3.94-3.08-5.86-4.68-3.24-2.68-6.2-5.61-9.26-8.53-1.78-1.71-3.46-3.56-5.14-5.33l-.23-.25h0l0,0s0,0,.09-.08c.86-.65,1.69-1.31,2.52-2,1.64-1.34,3.26-2.68,4.85-4.08l6.53-5.64c2.86-2.47,5.57-5.1,8.28-7.73q2-2,4.12-3.94c.93-.85,1.35-1.42,1.34-1.69s-.16-.48-.47-.47a12.21,12.21,0,0,1-1.62,0c-.33,0-.28-.09-1.38,1l-.54.55c-2,1.93-3.92,3.9-6,5.78a31.6,31.6,0,0,0-2.34,2.25c-.52.56-1.07,1-1.65,1.56a41.94,41.94,0,0,0-3.68,3.4,2.89,2.89,0,0,1-.41.35,13.46,13.46,0,0,0-1.52,1.36c-.64.61-1.27,1.21-2,1.81l-6.06,5c-.32.27-.65.52-1,.78l-.29.21-.43.31-.87.6-.43.3a.1.1,0,0,0,0,0l0,.05.09.09.17.2.69.78,1,1.21c1.11,1.26,2.24,2.51,3.49,3.68a3.34,3.34,0,0,1,.37.41,25.06,25.06,0,0,0,3.2,3.24c1,1,2.06,1.75,3,2.81a13.33,13.33,0,0,0,1.42,1.29c.81.59,1.41,1.19,2.13,1.82A56,56,0,0,0,587,348.8a3.4,3.4,0,0,1,.55.44,12.94,12.94,0,0,0,2.22,1.69c.84.55,1.58,1.14,2.3,1.6a10.91,10.91,0,0,1,1.1.81l.46.38.31.23c.17.11.34.22.51.35l.68.45a5.26,5.26,0,0,0,.66-.46l1-.75,1.42-1.07,2.85-2.19a36.93,36.93,0,0,0,3.14-2.62,7.32,7.32,0,0,1,1-.81,8.22,8.22,0,0,0,1-.84q3.88-3.48,7.45-7.26c2.56-2.73,5-5.58,7.39-8.45a4.1,4.1,0,0,0,.56-.74,5.35,5.35,0,0,1,1-1.34c.19-.2.37-.44.55-.67s.5-.64.73-.95l1.07-1.41c-.73-.49-1.45-1-2.17-1.49-.41-.27-.81-.56-1.19-.86-1.49-1.19-3.08-2.34-4.66-3.5-2-1.47-4-3-5.91-4.5-2.3-1.81-4.59-3.62-6.81-5.51-1.81-1.57-3.65-3.1-5.32-4.77-1.13-1.13-1.34-1.37-1.79-1.45S596.62,303.32,596.47,303.55Z"/><path class="cls-7" d="M605.05,321l-.16,0c-1.24.46-2.3.8-3.44,1.13l-.63.16a2.74,2.74,0,0,0-.53.23.54.54,0,0,1-.35.06,1,1,0,0,0-.37.07c-.91.32-1.82.63-2.71,1s-1.9.83-2.88,1.17c-.09,0-.21.06-.24.12s-.23.19-.4.23a3.57,3.57,0,0,0-.46.16c-.35.12-.64.37-1,.46a7.59,7.59,0,0,0-1.52.62l-1.87.91c-.74.36-1.46.77-2.19,1.15s-1.16.7-1.74,1.05l-.06,0a.48.48,0,0,1-.2-.22s0,0,0,0-.09,0-.08,0,0,0,0-.06-.12,0-.11-.1A.2.2,0,0,0,584,329a1.71,1.71,0,0,1-.18-.2,2.39,2.39,0,0,0-.22-.23c-.05-.07-.15-.09-.22-.15s-.06,0-.25.16-.37.38-.55.57l-.3.33a4.31,4.31,0,0,0-.41.5c-.06.09-.13.19-.1.21l.39.31a.63.63,0,0,1,.2.23.13.13,0,0,0,.13.09.58.58,0,0,1,.24.1c.09.05.12.15.22.18s.09,0,.11,0a1.33,1.33,0,0,0,.23.3c.13.13.27.25.41.37s0,.05,0,.05c.18.08.25.27.39.39s.11.32.26.38.11.15.2.18.2.22.34.3a.42.42,0,0,1,.19.24c.06.14.25.13.39.18a.14.14,0,0,1,.12.16c0,.07.06.05.2-.1s.31-.32.45-.48l.8-.91c.17-.2.18-.2.13-.24h0c-.07-.08-.23-.05-.28-.15s-.06-.05-.14,0-.08,0-.1,0,0-.17-.2-.05c0,0,0,0,0,0s0,0-.07,0-.09,0-.11,0a.3.3,0,0,0-.15-.19c1-.62,2.07-1.22,3.14-1.79.67-.35,1.35-.71,2-1a7.91,7.91,0,0,0,1.05-.53,7.43,7.43,0,0,1,.73-.4l.19.14a1.67,1.67,0,0,1,.39.36.41.41,0,0,0,.23.16,1.74,1.74,0,0,1,.41.2,3,3,0,0,0,.4.3c.05,0,.12,0,.16.07a5.3,5.3,0,0,0,.48.47c.25.22.52.41.77.61,0,0,0,.06.07.08a5.33,5.33,0,0,1,.73.62c.22.16.32.46.57.58s.23.23.37.3.4.36.63.5a1.28,1.28,0,0,1,.4.37.71.71,0,0,0,.3.22c-.23.52-.47,1-.68,1.55a19.44,19.44,0,0,1-1.05,2.09c-.51.88-.87,1.84-1.32,2.76-.13.26-.28.52-.43.77a.8.8,0,0,1-.36-.27s0,0,0,0-.09.05-.09,0,0-.05,0-.08-.13,0-.14-.09a.28.28,0,0,0-.15-.23,1.83,1.83,0,0,1-.26-.21c-.09-.09-.2-.15-.3-.24a2.64,2.64,0,0,0-.29-.15s-.08,0-.24.18-.31.43-.45.65l-.26.37a3.51,3.51,0,0,0-.31.56c0,.1-.1.21-.06.24l.51.31a.92.92,0,0,1,.28.24.19.19,0,0,0,.16.09.76.76,0,0,1,.31.1c.1,0,.17.15.28.18s.1,0,.13,0a2,2,0,0,0,.33.32c.18.14.37.25.55.38,0,0,0,.05,0,.05.21.08.34.28.52.4s.21.34.39.39.16.16.27.19.28.23.45.31a.74.74,0,0,1,.28.25c.09.14.3.13.47.18a.2.2,0,0,1,.18.16c0,.08.07.05.2-.11s.27-.35.4-.54l.67-1c.15-.22.15-.22.1-.26l0,0c-.1-.08-.27,0-.35-.15s-.08-.05-.17,0-.09,0-.12,0-.06-.18-.24-.05c0,0,0,0,0,0s0,0-.09,0-.11,0-.13,0a.49.49,0,0,0-.27-.22c-.16,0-.11-.34-.31-.33t0,0a.22.22,0,0,0,0-.11h0c.41-.68.68-1.41,1.09-2.09a2.69,2.69,0,0,0,.35-.85,1.84,1.84,0,0,1,.24-.6,3.07,3.07,0,0,0,.53-1.3.24.24,0,0,1,.07-.13.92.92,0,0,0,.22-.53,3.83,3.83,0,0,1,.27-.71,13.87,13.87,0,0,0,.9-2,25.7,25.7,0,0,0,1.11-2.6.32.32,0,0,1,.08-.14,2.42,2.42,0,0,0,.5-1.16,2.55,2.55,0,0,1,.36-1.1,1,1,0,0,0,.18-.5,2.33,2.33,0,0,1,.22-.75,5.87,5.87,0,0,0,.44-1.79.77.77,0,0,1,.1-.29,3.24,3.24,0,0,0,.36-1.34c.05-.45.22-.93.26-1.3a3,3,0,0,1,.2-.69l.14-.36C605.19,321,605.09,321.05,605.05,321Zm-2.86,3.21a.66.66,0,0,1-.05.15l0,0s0,0,0,.1L602,325l-.29,1c-.33,1.11-.82,2.14-1.15,3.24-.15.5-.35,1-.54,1.45a.15.15,0,0,0-.1,0,.26.26,0,0,1-.17-.07.93.93,0,0,0-.37-.34c-.21-.08-.2-.43-.45-.47,0,0,0,0,0,0,0-.2-.07-.22-.17-.24s-.21,0-.2-.17,0-.1-.08-.09-.1-.06-.14-.11-.17-.25-.37-.22c0,0,0,0,0,0s-.06-.14-.12-.13-.1-.07-.17-.07,0-.16-.07-.18a.64.64,0,0,1-.39-.24c0-.07-.08-.16-.2-.15s-.05,0,0-.1a.08.08,0,0,0,0-.09c-.17-.14-.33-.29-.51-.42a1.84,1.84,0,0,1-.54-.46s0-.05-.06,0-.1,0-.11,0,0-.06-.06-.1-.18,0-.2-.15,0,0,0-.06l.61-.26a6.77,6.77,0,0,1,.66-.33l2.7-1,2-.69.79-.27s0,0,0,0S602.18,324.22,602.19,324.25Z"/><path class="cls-6" d="M589.1,393.42c-1.05.78-8.68,9.16-16.89,14a179.86,179.86,0,0,0,14.69,14.27,65.68,65.68,0,0,0,17.48-15.57Z"/><path class="cls-7" d="M583.68,392.9a4.29,4.29,0,0,1-.35.28c-.2.14-.12.52,0,.93a1.92,1.92,0,0,0,.63,1,78.41,78.41,0,0,0,6.06,5.11l3.74,2.89c.66.53,1.37,1,2,1.44l1.18.78.12.08.05,0,.09.05-.1.15,0,0-.16.2-.33.43-.68.84-1.37,1.68c-.32.38-.6.76-.95,1.15q-2,2.13-4.09,4.14a64.45,64.45,0,0,1-6.47,5.44c-.08.05-.09,0-.13.07l-.06,0a1.22,1.22,0,0,1-.17-.11l-.86-.6c-.57-.4-1.12-.82-1.68-1.24-1.1-.85-2.18-1.73-3.25-2.62-1.81-1.49-3.41-3.17-5.13-4.78-.5-.47-1-1-1.45-1.47l-.71-.76-.35-.37-.08-.08h0l0,0,1.42-1.13c.79-.65,1.57-1.3,2.34-2,1.2-1.06,2.43-2.11,3.67-3.15,1.63-1.37,3.11-2.89,4.62-4.39.75-.75,1.52-1.49,2.33-2.2.54-.47.77-.82.7-1a.69.69,0,0,0-.48-.46,9.72,9.72,0,0,1-1.29-.39c-.27-.1-.24-.13-.85.49l-.3.3c-1.12,1.08-2.15,2.22-3.34,3.25a12,12,0,0,0-1.28,1.29,7,7,0,0,1-.91.9,12.89,12.89,0,0,0-2,1.93,1.07,1.07,0,0,1-.22.2,3.71,3.71,0,0,0-.85.77,13.62,13.62,0,0,1-1.1,1c-1.15.92-2.29,1.85-3.39,2.78a23.86,23.86,0,0,1-2,1.47l1.93,2.25a16.73,16.73,0,0,0,1.44,1.48,1.07,1.07,0,0,1,.2.23,8.59,8.59,0,0,0,1.77,1.85,11.68,11.68,0,0,1,1.71,1.59,4,4,0,0,0,.8.73,10.92,10.92,0,0,1,1.2,1,20.81,20.81,0,0,0,2.94,2.3,1,1,0,0,1,.31.26,4.29,4.29,0,0,0,1.24,1c.48.29.89.63,1.31.88a3.14,3.14,0,0,1,.61.47,8,8,0,0,0,1,.74l.38.25a3.09,3.09,0,0,0,.37-.26l.73-.55.89-.68,1.61-1.24a12.51,12.51,0,0,0,1.77-1.48,2.75,2.75,0,0,1,.59-.44,3,3,0,0,0,.59-.45c1.46-1.31,2.87-2.67,4.21-4.1s2.78-3.16,4.17-4.76a1.65,1.65,0,0,0,.31-.42,1.66,1.66,0,0,1,.54-.77l.09-.08.13-.17.28-.36.55-.71c.2-.26.4-.51.59-.77l-1.31-.89-.63-.43c-.18-.14-.24-.18-.36-.29-.8-.7-1.69-1.34-2.57-2-1.12-.82-2.21-1.67-3.3-2.52-1.28-1-2.56-2-3.8-3.08-1-.88-2-1.71-3-2.63-.61-.62-.73-.74-1.07-.71S583.85,392.7,583.68,392.9Z"/><path class="cls-6" d="M738.5,411.53c-.57,1.17-3.53,12.11-8.63,20.14a179.08,179.08,0,0,0,19.59,6,65.83,65.83,0,0,0,8.43-21.84Z"/><path class="cls-7" d="M733.44,413.55c-.06.13-.11.28-.18.41s.14.51.42.82a2,2,0,0,0,1,.58c2.58.76,5.15,1.28,7.72,1.77l4.66.86a23.28,23.28,0,0,0,2.42.36l1.42.16h.29v.23l0,.25-.1.53c-.06.36-.14.71-.22,1.06l-.45,2.12c-.1.49-.18,1-.31,1.46q-.79,2.81-1.75,5.55a63.58,63.58,0,0,1-3.27,7.8c0,.09-.06.07-.08.12s0,0-.06,0l-.21,0-1-.14c-.69-.09-1.38-.21-2.07-.33-1.37-.25-2.73-.54-4.09-.84-2.29-.51-4.48-1.27-6.75-1.91-.65-.19-1.31-.41-2-.65l-1-.34-.49-.17-.1,0h0a.06.06,0,0,1-.06,0l.74-1.65c.41-.94.81-1.88,1.18-2.83.58-1.5,1.2-3,1.83-4.49.82-2,1.44-4,2.1-6,.32-1,.66-2,1.06-3,.27-.66.31-1.07.15-1.23a.69.69,0,0,0-.64-.19,9,9,0,0,1-1.32.25c-.29,0-.27,0-.54.82l-.12.41c-.5,1.46-.9,2.95-1.48,4.41a10.26,10.26,0,0,0-.55,1.74,9,9,0,0,1-.4,1.21,13.17,13.17,0,0,0-.92,2.64,1.08,1.08,0,0,1-.11.28,3.89,3.89,0,0,0-.4,1.07,14.46,14.46,0,0,1-.51,1.43c-.6,1.33-1.19,2.69-1.74,4-.28.63-.7,1.45-1.15,2.24l2.75,1.12a17.83,17.83,0,0,0,1.95.65,1.26,1.26,0,0,1,.29.12,8.45,8.45,0,0,0,2.42.83,12.76,12.76,0,0,1,2.25.63,4.24,4.24,0,0,0,1,.29,10.49,10.49,0,0,1,1.54.36,20.17,20.17,0,0,0,3.66.69.86.86,0,0,1,.39.1,4.32,4.32,0,0,0,1.55.28c.56,0,1.08.16,1.57.18a3,3,0,0,1,.75.15,9.86,9.86,0,0,0,1.21.21l.45,0a2.84,2.84,0,0,0,.21-.39l.4-.83.48-1c.29-.61.57-1.22.87-1.83a13.3,13.3,0,0,0,.89-2.13,2.4,2.4,0,0,1,.33-.66,2.85,2.85,0,0,0,.31-.68c.7-1.83,1.33-3.68,1.87-5.56.58-2,1-4.09,1.53-6.14a1.38,1.38,0,0,0,.09-.52,1.58,1.58,0,0,1,.13-.93l0-.11.05-.21.08-.45.17-.88c0-.33.11-.64.17-1l-1.58-.19-.75-.1a2.72,2.72,0,0,1-.45-.09c-1-.25-2.12-.42-3.2-.59-1.37-.22-2.73-.47-4.09-.74-1.6-.31-3.2-.62-4.78-1-1.29-.32-2.6-.58-3.83-1-.84-.27-1-.32-1.29-.14S733.51,413.29,733.44,413.55Z"/><path class="cls-6" d="M503.27,396.14c-.69,1.11-4.76,11.68-10.67,19.15a180.45,180.45,0,0,0,18.88,8,65.65,65.65,0,0,0,10.63-20.85Z"/><path class="cls-7" d="M516.37,402.47l-.74-.18-.43-.13c-1-.36-2.07-.64-3.13-.92-1.34-.36-2.67-.76-4-1.16-1.56-.48-3.12-.95-4.65-1.48-1.25-.46-2.52-.86-3.71-1.38-.81-.36-1-.42-1.26-.27s-.34.43-.42.68l-.17.27a7.82,7.82,0,0,1-1.07.08c-.29,0-.27,0-.62.76l-.17.39c-.65,1.41-1.2,2.85-1.93,4.25a11.27,11.27,0,0,0-.72,1.66,8.69,8.69,0,0,1-.52,1.17,12.59,12.59,0,0,0-1.19,2.53,1.38,1.38,0,0,1-.14.27,3.75,3.75,0,0,0-.51,1,14.15,14.15,0,0,1-.65,1.37c-.74,1.26-1.47,2.55-2.15,3.82-.34.6-.84,1.37-1.37,2.11l2.62,1.39a15.06,15.06,0,0,0,1.87.85,1.84,1.84,0,0,1,.28.15,8.22,8.22,0,0,0,2.32,1.08,12.56,12.56,0,0,1,2.17.86,4.4,4.4,0,0,0,1,.39,10.49,10.49,0,0,1,1.49.52,20.88,20.88,0,0,0,3.57,1.07,1,1,0,0,1,.38.13,4.21,4.21,0,0,0,1.51.44c.55.1,1.06.27,1.54.35a3.57,3.57,0,0,1,.73.21,8.17,8.17,0,0,0,1.19.34l.44.09a4,4,0,0,0,.25-.37l.48-.78.58-1,1.05-1.73a12,12,0,0,0,1.11-2,2.48,2.48,0,0,1,.39-.63,2.79,2.79,0,0,0,.39-.64c.88-1.74,1.7-3.52,2.43-5.34s1.45-4,2.16-5.94a1.58,1.58,0,0,0,.14-.51,1.59,1.59,0,0,1,.22-.91l.05-.12.06-.2.13-.43c.09-.29.18-.59.26-.87l.27-.93Zm-1.22,2.12v.05l-.07.25-.16.52c-.1.34-.21.69-.33,1l-.67,2.06c-.15.47-.27.93-.46,1.42q-1.07,2.7-2.3,5.34a65.1,65.1,0,0,1-4.07,7.42c-.05.08-.06.06-.09.11h-.06c-.05,0,0,0-.2,0l-1-.24c-.68-.17-1.35-.36-2-.55-1.34-.39-2.67-.82-4-1.26-2.22-.73-4.33-1.72-6.51-2.59-.64-.26-1.27-.55-1.89-.85l-.93-.44-.47-.22-.1,0h0a.07.07,0,0,1-.06,0l.91-1.56c.51-.89,1-1.79,1.47-2.69.73-1.43,1.5-2.86,2.28-4.28,1-1.86,1.85-3.82,2.71-5.76.42-1,.87-1.95,1.37-2.9a.25.25,0,0,1,0-.09,2.67,2.67,0,0,0,.57.3,78.11,78.11,0,0,0,7.5,2.57l4.54,1.33a23,23,0,0,0,2.37.61l1.39.3.14,0h.15Z"/><path class="cls-6" d="M396.23,296.54c.32,1.26,5.13,11.53,6.42,21a179.86,179.86,0,0,0,18.82-8.1,65.71,65.71,0,0,0-7.67-22.11Z"/><path class="cls-7" d="M393.68,301.34c0,.15.09.29.12.44s.44.3.86.35a1.89,1.89,0,0,0,1.14-.21,79.1,79.1,0,0,0,7-3.63l4.11-2.35c.73-.41,1.47-.87,2.08-1.29l1.18-.79c.14-.09.09-.06.12-.09l0,0,.08-.06.1.15,0,0,.13.22.27.47c.18.32.35.64.52,1l1,1.91c.23.43.48.84.7,1.31q1.21,2.65,2.25,5.36a64.62,64.62,0,0,1,2.54,8.08c0,.09,0,.09,0,.13l0,.05-.17.12-.88.56c-.59.37-1.19.72-1.79,1.07-1.21.7-2.44,1.36-3.67,2-2.07,1.1-4.24,1.94-6.38,2.91-.63.28-1.27.53-1.92.77l-1,.37-.48.18-.1,0h0a.09.09,0,0,1-.05,0l-.5-1.74c-.28-1-.59-1.95-.92-2.92-.52-1.52-1-3.06-1.5-4.6-.64-2-1.47-4-2.28-6-.41-1-.8-2-1.14-3-.23-.68-.46-1-.69-1a.64.64,0,0,0-.6.26,11.2,11.2,0,0,1-.86,1.05c-.2.2-.21.16.12,1l.17.4c.57,1.44,1.22,2.83,1.72,4.33a11.64,11.64,0,0,0,.7,1.67,7.22,7.22,0,0,1,.48,1.19,13.1,13.1,0,0,0,1,2.61.89.89,0,0,1,.09.29,3.88,3.88,0,0,0,.39,1.07,13.94,13.94,0,0,1,.53,1.42c.41,1.41.83,2.82,1.27,4.2.19.66.41,1.55.57,2.44l2.82-.92a14.89,14.89,0,0,0,1.91-.76,1.27,1.27,0,0,1,.3-.09,8.71,8.71,0,0,0,2.38-.93,11.7,11.7,0,0,1,2.13-1,4.16,4.16,0,0,0,1-.46,9.7,9.7,0,0,1,1.4-.71,20.65,20.65,0,0,0,3.25-1.84,1.1,1.1,0,0,1,.36-.18,4.34,4.34,0,0,0,1.36-.78c.46-.34.93-.58,1.32-.87a2.74,2.74,0,0,1,.67-.38,9,9,0,0,0,1.06-.62l.37-.26a2.73,2.73,0,0,0-.1-.44l-.22-.88-.29-1.09c-.18-.65-.35-1.3-.52-1.95a13.16,13.16,0,0,0-.69-2.21,2.32,2.32,0,0,1-.18-.71,3,3,0,0,0-.2-.72q-1-2.78-2.17-5.46c-.87-1.92-1.85-3.78-2.79-5.67a1.24,1.24,0,0,0-.27-.45,1.64,1.64,0,0,1-.5-.8l-.05-.11-.1-.19-.22-.39-.45-.79-.48-.84-1.33.88-.64.41-.4.22c-1,.48-1.89,1.05-2.83,1.62-1.18.71-2.39,1.4-3.59,2.07-1.43.79-2.85,1.59-4.3,2.33-1.19.59-2.36,1.23-3.56,1.72-.82.33-1,.4-1.07.72S393.56,301.11,393.68,301.34Z"/><path class="cls-5" d="M366.47,197.54c0,.4,0,.8,0,1.2a7.49,7.49,0,0,0,14.76.84c.11-.6.19-1.21.27-1.81a1.5,1.5,0,0,0,.37-.05,7.9,7.9,0,0,0,2.71-2.13,8.51,8.51,0,0,0-.14-3.78,1.44,1.44,0,0,0-1.26-.85,2.13,2.13,0,0,0-1.09.5l-.13.09c-.43-5.83-3.38-8.92-7.51-9s-7.26,2.8-7.72,7.27c-.06.53-.1,1.07-.14,1.61a2.17,2.17,0,0,0-1.08-.49,1.43,1.43,0,0,0-1.25.85,8.36,8.36,0,0,0-.14,3.78A8.08,8.08,0,0,0,366.47,197.54Z"/><path class="cls-5" d="M373.86,205.8h-.35a7.76,7.76,0,0,1-7.37-7c0-.29,0-.58,0-.87v-.13a7.88,7.88,0,0,1-2.28-2,8.66,8.66,0,0,1,.14-4.11,1.83,1.83,0,0,1,1.61-1,1.73,1.73,0,0,1,.73.21c0-.34.06-.67.1-1,.47-4.61,3.75-7.69,8.1-7.6s7.22,3.29,7.82,8.69a1.75,1.75,0,0,1,.88-.3,1.8,1.8,0,0,1,1.61,1,8.42,8.42,0,0,1,.14,4.11,8,8,0,0,1-2.95,2.34l-.13,0c-.06.51-.14,1-.23,1.54A7.76,7.76,0,0,1,373.86,205.8Zm-8.35-14.46a1.11,1.11,0,0,0-.88.64,8.46,8.46,0,0,0-.13,3.45,7.84,7.84,0,0,0,2.15,1.78.37.37,0,0,1,.19.32v.34l0,.84a7.12,7.12,0,0,0,14,.81c.11-.6.19-1.2.27-1.79a.37.37,0,0,1,.35-.33l.31,0a8.45,8.45,0,0,0,2.45-1.93,8.63,8.63,0,0,0-.14-3.45,1.07,1.07,0,0,0-.9-.64,1.79,1.79,0,0,0-.89.42.5.5,0,0,1-.44.08c-.13-.05-.27-.12-.28-.26-.41-5.42-3-8.57-7.14-8.63s-6.91,2.73-7.35,6.93c-.05.46-.09.93-.12,1.4l0,.2a.37.37,0,0,1-.22.31.36.36,0,0,1-.37,0,1.76,1.76,0,0,0-.87-.41Z"/><path class="cls-5" d="M436.72,191.5a1.18,1.18,0,0,0-.64-.17c-2.2-.14-6.5,1.15-8.7,1.23a.91.91,0,0,1-.86-.28c-.18-.28,0-.64.12-.94l1.33-2.59c-2.11-2.12-5.69,5.23-7.28,8.78-2.53,5.65-10.5,14.1-14.28,15-5.63,1.38-20.94-3.4-25.55-3.92a3.09,3.09,0,0,0-2.6.44c-1.09.7-2.24,1.32-3.36,2-1.33.78-2.56,1.35-3.87,0-.71-.7-1.86-1-2.69-1.58a3.8,3.8,0,0,0-3.81-.5c-2.34.86-4.74,1.57-7,2.58-2.82,1.25-4.86,3.31-4.58,6.52.31,3.52.17,7,.78,10.47a2.67,2.67,0,0,0,1.46,1.67,7.29,7.29,0,0,0,2.85.51c4.33,0,9.36,0,13.69,0,6.4,0,7.7,0,14.1-.11,3.36,0,3.75-1.63,4.25-4.86a35.44,35.44,0,0,1,1.09-3.8c4.91-.18,17-2.07,20.33-4.06,8.55-5,14.17-16.62,17.12-17.38a4.09,4.09,0,0,0,1.42-.51,1,1,0,0,0,.34-1.32,1.93,1.93,0,0,0,1.71-.74c.34-.55-.06-1.47-.7-1.39a1,1,0,1,0,0-2,1.47,1.47,0,0,1,1.31-.89,22.59,22.59,0,0,0,3.76-.88C436.93,192.61,437.16,191.84,436.72,191.5Z"/><path class="cls-5" d="M366.54,231.19c-2.84,0-5.83,0-8.52-.05a7.35,7.35,0,0,1-3-.54,3,3,0,0,1-1.68-1.94,50.65,50.65,0,0,1-.56-6.57c0-1.29-.1-2.62-.22-3.94-.26-3,1.4-5.39,4.8-6.9,1.54-.68,3.15-1.23,4.71-1.77.78-.26,1.56-.53,2.33-.81a4.17,4.17,0,0,1,4.16.55,7.68,7.68,0,0,0,1.14.63,5.58,5.58,0,0,1,1.59,1c1.12,1.1,2.12.65,3.42-.11l1.12-.65c.74-.42,1.51-.86,2.23-1.32a3.47,3.47,0,0,1,2.91-.49c1.39.15,3.88.73,6.77,1.4,6.24,1.45,14.79,3.44,18.58,2.52,3.64-.89,11.51-9.2,14-14.81,2.64-5.9,4.83-9,6.5-9.36a1.55,1.55,0,0,1,1.39.46.38.38,0,0,1,.06.44L427,191.51c-.15.29-.2.48-.14.57s.13.12.53.11a27.17,27.17,0,0,0,3.71-.58,24.14,24.14,0,0,1,5-.66,1.5,1.5,0,0,1,.84.25h0a1,1,0,0,1,.39.87,1.52,1.52,0,0,1-.69,1.15,22.93,22.93,0,0,1-3.9.93,1.78,1.78,0,0,0-.72.26,1.47,1.47,0,0,1,.37.24,1.35,1.35,0,0,1,.47,1,1.41,1.41,0,0,1-.48,1l-.07.06,0,0a1.4,1.4,0,0,1,.05,1.46,2.06,2.06,0,0,1-1.52.88.89.89,0,0,1,0,.28,1.57,1.57,0,0,1-.62,1,3.53,3.53,0,0,1-1.29.5l-.26.06c-1.1.29-2.85,2.56-4.88,5.18-3,3.88-7.08,9.18-12.14,12.16-3.39,2-15.26,3.87-20.24,4.1a31.4,31.4,0,0,0-1,3.5c-.51,3.28-1,5.14-4.62,5.18l-1.79,0c-4.92,0-6.55.07-12.31.09Zm-.48-22.09a4,4,0,0,0-1.4.27c-.78.29-1.56.56-2.34.82-1.55.53-3.15,1.08-4.66,1.75-3.12,1.39-4.59,3.45-4.35,6.14.12,1.34.17,2.68.22,4a48.83,48.83,0,0,0,.55,6.47,2.3,2.3,0,0,0,1.25,1.39,6.78,6.78,0,0,0,2.7.47c4.41.06,9.63.05,13.68,0,5.75,0,7.38,0,12.3-.09l1.79,0c3.06,0,3.39-1.34,3.89-4.55a33.73,33.73,0,0,1,1.1-3.86.39.39,0,0,1,.35-.26c4.74-.17,16.79-2,20.15-4,4.93-2.91,9-8.15,11.92-12,2.29-3,3.94-5.11,5.29-5.45l.28-.07a2.81,2.81,0,0,0,1-.38.8.8,0,0,0,.32-.51.32.32,0,0,0-.06-.28.38.38,0,0,1,0-.4.37.37,0,0,1,.33-.2h0a1.68,1.68,0,0,0,1.39-.56.66.66,0,0,0,0-.66.43.43,0,0,0-.19-.16h-.2a.37.37,0,0,1-.32-.37.36.36,0,0,1,.32-.37h.23a.57.57,0,0,0,.33-.16.54.54,0,0,0,0-.88.63.63,0,0,0-.47-.17.36.36,0,0,1-.32-.13.35.35,0,0,1-.08-.34,1.8,1.8,0,0,1,1.61-1.16,24.73,24.73,0,0,0,3.62-.83.73.73,0,0,0,.33-.55.24.24,0,0,0-.09-.23h0a.91.91,0,0,0-.43-.1,23,23,0,0,0-4.84.65,29.45,29.45,0,0,1-3.83.59,1.31,1.31,0,0,1-1.19-.46,1.32,1.32,0,0,1,.11-1.31l1.19-2.32a.7.7,0,0,0-.51-.09c-1.35.25-3.53,3.5-6,8.93-2.64,5.88-10.65,14.28-14.54,15.23s-12.25-1-18.92-2.52c-2.86-.67-5.34-1.24-6.75-1.4a2.81,2.81,0,0,0-2.35.39c-.74.47-1.52.91-2.26,1.34l-1.12.64c-1.08.64-2.71,1.59-4.32,0a5.37,5.37,0,0,0-1.39-.85,7.71,7.71,0,0,1-1.26-.69A3.39,3.39,0,0,0,366.06,209.1Z"/><path class="cls-5" d="M677.15,196.49c.28-3.2-1.75-5.26-4.58-6.52-2.28-1-4.68-1.72-7-2.57a3.78,3.78,0,0,0-3.81.5c-.83.61-2,.87-2.69,1.58-1.31,1.3-2.54.72-3.87-.06-1.12-.65-2.27-1.27-3.36-2a3.13,3.13,0,0,0-2.6-.45c-2.88.87-5.72,1.85-8.57,2.81a4.57,4.57,0,0,0-2.5,1.91c-7,6-9.75,12.71-15.56,11.83-9.47-1.44-13.06-16.67-14.68-18.5-.42-.49-1,.19-1,.83,0,1.5.14,3.9,0,4.15s-1,.33-1.33.36c-2.19.23-1.79-.1-3.95.33-.22.05-.66.68-.58.89.24.7.65.91.86,1.42a1,1,0,0,0-1,1.13,1,1,0,0,0,1.23.81c-.65,0-.91,1-.5,1.48a2,2,0,0,0,1.8.49,1,1,0,0,0,.52,1.27,4.11,4.11,0,0,0,1.48.3c3,.34,8.4,10.68,16.15,11.46,6.48.65,11-2.32,18.46-5.48.48,3,.94,4.54,4.2,4.58,6.41.07,7.7.09,14.1.11,4.33,0,10.16,0,14.49,0a7.11,7.11,0,0,0,2.85-.51,2.66,2.66,0,0,0,1.46-1.66C677.78,203.5,676.84,200,677.15,196.49Z"/><path class="cls-5" d="M623.38,210.43q-.89,0-1.8-.09c-4.92-.49-9-4.76-11.88-7.88-1.75-1.86-3.26-3.46-4.28-3.58l-.27,0a3.65,3.65,0,0,1-1.35-.32,1.57,1.57,0,0,1-.75-.91,1.51,1.51,0,0,1,0-.28,2,2,0,0,1-1.63-.66,1.4,1.4,0,0,1-.14-1.45l0-.05-.08-.05a1.33,1.33,0,0,1-.61-.93,1.36,1.36,0,0,1,.32-1.06,1.41,1.41,0,0,1,.43-.34l-.09-.11a3.06,3.06,0,0,1-.56-1,.88.88,0,0,1,.14-.7c.06-.1.36-.6.72-.67a8.67,8.67,0,0,1,2.26-.25,15,15,0,0,0,1.73-.09h.13a2.53,2.53,0,0,0,.93-.18c0-.11,0-1.11-.05-1.92s0-1.43,0-2a1.46,1.46,0,0,1,.81-1.32.8.8,0,0,1,.9.24,15.73,15.73,0,0,1,1.59,3.3c2,4.9,5.83,14,12.86,15.08,3.69.56,6.09-2.12,9.42-5.83a61.08,61.08,0,0,1,5.8-5.88,5,5,0,0,1,2.66-2L642,189c2.34-.78,4.75-1.6,7.16-2.33a3.5,3.5,0,0,1,2.91.49c.72.46,1.49.9,2.23,1.32l1.12.65c1.3.76,2.3,1.21,3.42.11a5.81,5.81,0,0,1,1.59-1,6.49,6.49,0,0,0,1.14-.63,4.17,4.17,0,0,1,4.16-.55c.77.29,1.55.55,2.33.82,1.56.53,3.17,1.09,4.71,1.77,3.41,1.51,5.07,3.89,4.8,6.89h0a30.17,30.17,0,0,0,.09,4.66,24.39,24.39,0,0,1-.07,5.85,3,3,0,0,1-1.68,1.94,7.51,7.51,0,0,1-3,.55c-3.39,0-8.27,0-14.49,0-5.75,0-7.38,0-12.3-.09l-1.8,0c-3.42,0-4-1.69-4.5-4.42-1.37.59-2.63,1.16-3.86,1.72C631.43,208.77,627.77,210.43,623.38,210.43Zm-19.92-13.86a.37.37,0,0,1,.32.56.38.38,0,0,0,0,.28.78.78,0,0,0,.39.47,2.9,2.9,0,0,0,1.06.23l.28,0c1.3.14,2.82,1.76,4.74,3.8,3,3.21,6.77,7.19,11.41,7.65,5,.51,8.77-1.18,14-3.53,1.36-.62,2.76-1.26,4.32-1.91a.38.38,0,0,1,.33,0,.4.4,0,0,1,.19.27c.5,3.13.93,4.23,3.84,4.26l1.8,0c4.91.06,6.54.07,12.29.09,6.22,0,11.1,0,14.48,0a6.76,6.76,0,0,0,2.7-.48,2.3,2.3,0,0,0,1.25-1.39,22.84,22.84,0,0,0,.06-5.67,30.26,30.26,0,0,1-.09-4.77c.24-2.69-1.22-4.76-4.35-6.15-1.51-.66-3.11-1.21-4.65-1.74l-2.35-.82a3.41,3.41,0,0,0-3.46.45,8.12,8.12,0,0,1-1.25.7,4.74,4.74,0,0,0-1.39.85c-1.49,1.47-2.9.84-4.33,0l-1.11-.65c-.75-.42-1.52-.86-2.26-1.34a2.76,2.76,0,0,0-2.29-.4c-2.4.72-4.81,1.54-7.14,2.33l-1.42.47a4.21,4.21,0,0,0-2.3,1.76.27.27,0,0,1-.07.08,61.63,61.63,0,0,0-5.77,5.85c-3.35,3.74-6,6.69-10.09,6.07-7.45-1.13-11.35-10.5-13.44-15.53a17.11,17.11,0,0,0-1.47-3.09s-.09,0-.15,0a.83.83,0,0,0-.24.57c0,.59,0,1.32,0,2a8.25,8.25,0,0,1,0,2.29c-.2.42-.83.51-1.52.58h-.12a16.84,16.84,0,0,1-1.82.09,8.07,8.07,0,0,0-2.1.23,1.56,1.56,0,0,0-.29.47,2.74,2.74,0,0,0,.43.67,2.78,2.78,0,0,1,.42.66.37.37,0,0,1,0,.34.39.39,0,0,1-.31.18.62.62,0,0,0-.44.23.65.65,0,0,0-.15.47.61.61,0,0,0,.28.4.59.59,0,0,0,.35.12c.08,0,.12-.06.23,0a.37.37,0,0,1,.37.32.38.38,0,0,1-.27.42l-.19,0a.37.37,0,0,0-.16.19.63.63,0,0,0,0,.65,1.65,1.65,0,0,0,1.46.36Zm73.69-.08h0Z"/><path class="cls-5" d="M648.17,176.1a2.35,2.35,0,0,0,.37.05c.08.6.16,1.2.27,1.81a7.49,7.49,0,0,0,14.76-.85c0-.4,0-.8,0-1.19a8.25,8.25,0,0,0,2.31-2,8.32,8.32,0,0,0-.13-3.77,1.44,1.44,0,0,0-1.26-.85,2.07,2.07,0,0,0-1.08.48c0-.53-.08-1.07-.14-1.61-.46-4.47-3.64-7.32-7.72-7.26s-7.07,3.14-7.51,9l-.13-.1a2.08,2.08,0,0,0-1.09-.49,1.44,1.44,0,0,0-1.26.85,8.46,8.46,0,0,0-.13,3.77A7.91,7.91,0,0,0,648.17,176.1Z"/><path class="cls-5" d="M656.22,184.18a7.77,7.77,0,0,1-7.78-6.15c-.09-.52-.16-1-.23-1.54l-.13,0h0a8,8,0,0,1-3-2.34,8.5,8.5,0,0,1,.14-4.1,1.81,1.81,0,0,1,1.61-1.06,2,2,0,0,1,.89.3c.59-5.39,3.48-8.62,7.81-8.69h.14c4.3,0,7.49,3,8,7.6l.09,1a1.77,1.77,0,0,1,.73-.21,1.82,1.82,0,0,1,1.61,1.06,8.38,8.38,0,0,1,.14,4.1,7.91,7.91,0,0,1-2.28,2v.18l0,.82a7.78,7.78,0,0,1-7.38,7Zm-8-8.45a1,1,0,0,0,.3,0,.39.39,0,0,1,.36.33c.07.59.15,1.19.26,1.79a7.12,7.12,0,0,0,14-.8l0-.8v-.39a.36.36,0,0,1,.19-.31,8.27,8.27,0,0,0,2.16-1.79,8.58,8.58,0,0,0-.14-3.44,1.1,1.1,0,0,0-.91-.65,1.79,1.79,0,0,0-.87.42.35.35,0,0,1-.37,0,.35.35,0,0,1-.22-.31c0-.53-.08-1.07-.14-1.6-.43-4.2-3.43-7-7.34-6.93-4.14.06-6.74,3.21-7.14,8.64a.39.39,0,0,1-.22.31.4.4,0,0,1-.38,0l-.13-.09a1.79,1.79,0,0,0-.88-.43,1,1,0,0,0-.91.65,8.41,8.41,0,0,0-.13,3.44,8,8,0,0,0,2.45,1.93Z"/><path class="cls-7" d="M395.81,371.07c1.25-.05,2.43-.17,3.58-.28,1-.1,2-.2,3-.26.36.56,1.05,1.77,1.72,3a28.27,28.27,0,0,0-4.55,4.8,1,1,0,0,0,.23,1.4,1.05,1.05,0,0,0,.58.19,1,1,0,0,0,.82-.42,26.6,26.6,0,0,1,4.5-4.66l.22-.08a1,1,0,0,0,.38-.4,17.25,17.25,0,0,1,8.62-3.71,1,1,0,1,0-.2-2,18.86,18.86,0,0,0-9,3.63c-2.07-3.78-2.28-3.78-2.91-3.76-1.24.05-2.43.17-3.58.29s-2.27.23-3.46.27a1,1,0,0,0-1,1A1,1,0,0,0,395.81,371.07Z"/><path class="cls-7" d="M383,404.69c-2.43-.41-6-1.4-7.1-1.7a4.92,4.92,0,0,0-2.2-.25,5,5,0,0,0-1.23.46,12.34,12.34,0,0,0-2.93,2.25,13.7,13.7,0,0,1-1.95,1.63,1,1,0,0,0,.54,1.85.94.94,0,0,0,.53-.16A15.93,15.93,0,0,0,371,406.9a10.62,10.62,0,0,1,2.43-1.91,3.54,3.54,0,0,1,.71-.28,3.42,3.42,0,0,1,1.32.21c1.07.3,4.76,1.32,7.29,1.74a1,1,0,0,0,.33-2Z"/><path class="cls-7" d="M425,394.43c-14.94.75-27.92,15-34.72,38.09a1,1,0,0,0,.68,1.25,1.35,1.35,0,0,0,.28,0,1,1,0,0,0,1-.72c2.45-8.34,12.08-35.62,32.9-36.67a1,1,0,1,0-.1-2Z"/><path class="cls-7" d="M438.72,372.65s0-.08,0-.12l.92-12.32a1,1,0,0,0-.56-1c-1.41-.67-4.59-2.68-6.69-4s-2.14-1.35-2.43-1.39a1,1,0,0,0-.51,1.92c.22.12,1.06.65,1.87,1.16,1.88,1.2,4.61,2.93,6.28,3.82l-.8,10.59a12,12,0,0,0-4.16-1.74,1,1,0,1,0-.36,2c5.59,1,11.87,9.71,12.4,10.66a1,1,0,0,0,.88.54,1.12,1.12,0,0,0,.47-.11,1,1,0,0,0,.42-1.35A41.78,41.78,0,0,0,438.72,372.65Z"/><path class="cls-7" d="M456.08,419.89a1,1,0,0,0,1-1,83.2,83.2,0,0,0-1.88-14.34c1.38-1.94,4-5.09,5.73-7.2l1.35-1.65a1,1,0,0,0,.51-.32,1,1,0,0,0,.13-1c-4.48-11-4.71-11-5.25-11.21-1.31-.44-2.49-.87-3.67-1.3s-2.4-.88-3.73-1.32a1,1,0,1,0-.63,1.9c1.31.43,2.49.87,3.67,1.3s2.2.8,3.4,1.21c.51,1,2,4.56,3.56,8.23l-3.5-1.1a1,1,0,1,0-.6,1.9c1.85.59,3.08,1,3.91,1.23-.21.27-.45.56-.69.84-1.41,1.72-3.38,4.1-4.85,6a24.74,24.74,0,0,0-1.3-3.49,1,1,0,1,0-1.8.86c2.77,5.8,3.6,17.44,3.64,19.49a1,1,0,0,0,1,1Z"/><path class="cls-7" d="M467.08,422.78a5.08,5.08,0,0,0-1.93-1.35c-1.92-.91-3.92-1.75-5.93-2.5a1,1,0,0,0-.69,1.88c2,.72,3.89,1.54,5.76,2.43a3.86,3.86,0,0,1,1.18.74c.6,1.46,3.12,12.77,3.1,14.43,0,.49-.08.64-.12.68s-.24.18-1.15,0c-.65-.13-1.64-.4-2.6-.66s-2-.54-2.72-.68a1,1,0,1,0-.4,2c.65.13,1.64.4,2.6.65l1.77.47c-2.28,1.48-5.83,3.81-7.71,5.06,0-1.93-.09-3.54-.16-4.4a1,1,0,0,0-1.07-.92,1,1,0,0,0-.92,1.07c.28,3.64.27,15.92-.09,17.14a1,1,0,0,0,.67,1.24,1,1,0,0,0,.29,0,1,1,0,0,0,1-.71c.32-1.09.4-6.41.36-11.07.84-.61,10.13-6.7,10.73-7a.93.93,0,0,0,.35-.36,2.12,2.12,0,0,0,.58-.44,2.94,2.94,0,0,0,.63-2C470.59,436.8,467.83,423.7,467.08,422.78Z"/><path class="cls-6" d="M465.28,472.8s-.6-10.62-1.65-12.87c-.94-2-7.31-1.53-11.12-1.5.14-4.86.27-10.05.29-15.37,3.33-1.15,9.44-3.31,10-3.76.75-.62.5-7.5,0-11.5s-2-7.87-3.62-8.37c-1.05-.33-4.69.49-7.16,1.11a118.14,118.14,0,0,0-3-18.65c2.48-2.64,7.52-8.27,7.52-10.34,0-2.75-6.62-11.5-8.12-11.5-1,0-4.14,3.48-6,5.7a28.89,28.89,0,0,0-10-9.73c.05-3.48.2-14.69,0-17.11-.25-2.88-1.38-4.88-3.25-5.13s-13.63,2.4-14.5,3.52-.2,12.36,0,15.3l-1.32.12c-4.29.47-8.74,3.33-12.74,7.06-1.08-2.43-4.42-9.79-5.15-10.1-.88-.38-8.75,1.87-11.25,2.76s-2.63,1.74-2.63,3.11c0,1.15,5.83,14.21,7.76,18.51-2,3.45-5.1,9.51-8.11,15.89-2.88-.83-9.93-2.85-11-3.15a2.67,2.67,0,0,0-3.13,1c-.37.88-4.12,13.5-4.12,13.5L374,426.75a22.37,22.37,0,0,0-1.51,5.93l12.58-.13c1.63-5,7.89-15.49,10.26-21,4-9.36,16.81-18.12,23.11-18.12,18.83,0,12.84,72.86,12.18,80.13,7,0,13.64.46,20.63,0v1.92Z"/><g class="cls-9"><circle class="cls-6" cx="632.21" cy="242.54" r="11.01"/></g><g class="cls-10"><circle class="cls-6" cx="632.21" cy="242.54" r="6.03"/></g><g class="cls-9"><circle class="cls-6" cx="477.04" cy="253.94" r="11.01"/></g><g class="cls-10"><circle class="cls-6" cx="477.04" cy="253.94" r="6.03"/></g><g class="cls-9"><circle class="cls-6" cx="459.21" cy="192.82" r="11.01"/></g><g class="cls-10"><circle class="cls-6" cx="459.21" cy="192.82" r="6.03"/></g><g class="cls-9"><circle class="cls-6" cx="415.03" cy="284.68" r="11.01"/></g><g class="cls-10"><circle class="cls-6" cx="415.03" cy="284.68" r="6.03"/></g><g class="cls-9"><circle class="cls-6" cx="617.97" cy="308.93" r="11.01"/></g><g class="cls-10"><circle class="cls-6" cx="617.97" cy="308.93" r="6.03"/></g><polygon class="cls-1" points="528.55 248.9 528.59 248.89 528.59 248.89 528.55 248.9"/><polygon class="cls-1" points="502.01 250.91 502.03 250.91 502.05 250.91 502.01 250.91"/><path class="cls-1" d="M616.93,308.66c-.35.11-.44-.57.22-3.65,1.77-8.29,3.74-16.37,5.53-24.62h0l.11-.49v0c1.22-5.38,2.22-10.8,3.41-16.13,1.42-6.58,2.84-13.14,4.26-19.73h-.24l-1.37.09-3.47.21c-10.77.63-21.73,1.55-32.58,2.28-13,.86-26,1.87-39.06,2.89l-33.07,2.6c-7.67.58-15.35,1-23,1.57l-8.4.62c-3.39.24-6.53.53-10.07.52h-.48l-.64,0-1.72.09c-.26-.9-.53-1.86-.82-2.85l-.67-2.24-1.37-4.5c-1.48-5.08-2.91-10.19-4.44-15.22s-3-10.47-4.71-15.51v0c-.88-3-1.72-6.09-2.65-9-.66-2.1-1.29-4.19-1.9-6.29l-.45-1.57-.28-1-.33-1.28-.7,1.33-1.57,3.19q-12.71,26-25.06,52.19c-3.16,6.68-6.23,13.39-9.34,20.09l0,0A67.21,67.21,0,0,1,415.82,283c-2,2.93-1.71,1.38.42-3.29,4-8.85,8.08-17.72,12.31-26.58L440.17,229l6-12.4v0a.85.85,0,0,0,.21-.45h0c2.9-5.67,5.56-11.5,8.33-17.27l4.5-9.19q.68,2.39,1.35,4.82l.76,2.63c.2.65.42,1.33.64,2,.44,1.4.92,2.87,1.33,4.26l7.6,25.63,1.75,6h0c.6,2.48,1.45,4.89,2.18,7.33l1.29,4.44c.54,1.82,1.08,3.7,1.65,5.46l.16.43.43-.05,1.34-.11,2.66-.18c1.77-.12,3.53-.21,5.3-.29.42,0,.93-.11,1.39-.16h0l2.48-.23.18,0,.08,0c3.49-.18,6.9-.53,10.34-.82l1.5,0h.11a.33.33,0,0,1,.1,0c4.61-.36,9.2-.83,13.84-1.06h0l8.22-.56h0a3.81,3.81,0,0,0,1.35-.1h0l1.16-.14.3-.12c1.87-.13,3.75-.29,5.46-.27h0a3.76,3.76,0,0,1,1.26-.1h0l6.47-.54h0a19.32,19.32,0,0,1,4-.21c1,.07,2.42-.39,3.89-.34h0a2.56,2.56,0,0,0,.39,0h0L568.35,246h0c7.7-.24,15.55-1,23.33-1.56l25.49-2,10.15-.81h0a5,5,0,0,1,1.34-.09h0l5-.36c-.29,1.37-.57,2.72-.84,4-.16.79-.3,1.53-.43,2.18-.71,3.85-1.53,7.58-2.31,11.33q-2.49,11.89-5,23.82c-.52,2.51-1,5-1.44,7.5-.39,2.17-.68,2.83-1,3.11-.61.56-1.14,1.7-2,6-.46,2.35-1.37,6.58-1.75,5-.09-.39-.32.79-.48,1.49C617.48,310,617.3,308.53,616.93,308.66ZM492.46,251.78l-.74,0a2.61,2.61,0,0,0,.35.08Zm24.87-1.89.22-.08-.42.06Zm11.92-.94-.84.05h.8Zm13.81-1-1.16,0,1,0Zm84.5-6.23h0Z"/><polygon class="cls-7" points="622.72 103.84 622.75 103.84 622.75 103.84 622.72 103.84"/><polygon class="cls-7" points="600.62 111.02 600.64 111.01 600.65 111 600.62 111.02"/><path class="cls-7" d="M712.53,190.18c-.34.09-.46-.5,0-3.12a86.7,86.7,0,0,0,1-10.63,72.12,72.12,0,0,0-.55-10.68v0l-.07-.42h0a70.13,70.13,0,0,0-3.36-13.57,70.67,70.67,0,0,0-33.19-39A70.2,70.2,0,0,0,661,106.57a71,71,0,0,0-16.48-2.31,87.54,87.54,0,0,0-14.1.85,114.8,114.8,0,0,0-13.84,3A132.92,132.92,0,0,0,598,114.88c-1.09.51-2.19,1-3.27,1.55l-3.22,1.64c-2.58,1.35-4.91,2.71-7.67,4a91.35,91.35,0,0,0-8.28,5.07c-3.82,2.49-7.64,5-11.3,7.71s-7.65,5.47-11.17,8.45l0,0c-2.16,1.63-4.39,3.26-6.47,4.93-4.72,3.77-9.55,7.24-14.36,10.74-13.49,9.87-27.53,19.21-42.93,26a125,125,0,0,1-18.16,6.51h0c-1.22.3-2.32.56-3.33.72s-1.94.24-2.79.3a36.81,36.81,0,0,1-4.56,0c-3.07-.1-1.81-.69,2.51-1.42a121.78,121.78,0,0,0,23.88-7.48,153.38,153.38,0,0,0,20.45-10.38c3.39-2,6.71-4.15,10-6.32h0a.58.58,0,0,0,.35-.24h0c4.65-2.93,9.06-6.27,13.5-9.56,2.38-1.76,4.76-3.49,7.19-5.21,1.65-1.18,3.82-3,5.8-4.55,6.12-4.7,12.24-9.41,18.51-13.94,1.47-1,2.93-2.1,4.41-3.12h0c1.89-1.16,3.64-2.52,5.48-3.75,1.11-.76,2.25-1.45,3.38-2.18l4.19-2.67a86.67,86.67,0,0,1,9.11-5.16c.33-.17.69-.43,1.05-.63l0,0,1.92-1,.13-.09.08,0,4.09-2c1.35-.68,2.71-1.31,4.1-1.91l1.23-.44,0,0,0,0,.06,0,.05,0,.08,0a92.77,92.77,0,0,1,11.4-4.13h0c2.29-.71,4.63-1.27,7-1.85h0a3.44,3.44,0,0,0,1.16-.26h0l1-.27.25-.14,2.4-.5c.79-.12,1.58-.21,2.32-.26h0a2.84,2.84,0,0,1,1.09-.18h0l.09,0c.93-.18,1.87-.31,2.81-.41l2.83-.35h0a14.24,14.24,0,0,1,3.5-.14,7.47,7.47,0,0,0,1.57-.12,9.45,9.45,0,0,1,1.85,0h0c.12,0,.24,0,.35,0h0a78.4,78.4,0,0,1,16,1.5h0a88.68,88.68,0,0,1,19.22,7.09,76.3,76.3,0,0,1,18.07,13.19c1.06,1.05,2.08,2.14,3.09,3.23s2,2.23,2.89,3.43h0a3.88,3.88,0,0,1,.71.94l0,0,0,0c1.47,1.94,3,4.29,4.09,5.95l.71,1.08.64,1.11c.42.74.84,1.47,1.24,2.22.74,1.53,1.53,3,2.17,4.58a68.08,68.08,0,0,1,3.55,10.11A72.6,72.6,0,0,1,716,166.8c.3,2.24.52,4.5.68,6.71.1,1.94,0,2.57-.28,2.88a3,3,0,0,0-.6,1.52c-.14.82-.2,2-.34,3.94,0,.52-.07,1.15-.14,1.77s-.19,1.25-.3,1.76c-.21,1-.47,1.61-.74.91-.13-.34-.23.7-.37,1.31C713.15,191.35,712.89,190.08,712.53,190.18Zm-119.44-75.5-.61.2.32,0Zm20.14-8.19.18-.12-.35.14Zm10.11-2.67-.73.14.7-.09Zm12-1.7c-.34,0-.68,0-1,0,.28,0,.56,0,.84,0Zm65.55,28.33-.07-.11v0Z"/><polygon class="cls-1" points="683.19 156.47 683.17 156.48 683.17 156.48 683.19 156.47"/><polygon class="cls-1" points="693.22 154.04 693.21 154.04 693.2 154.04 693.22 154.04"/><path class="cls-1" d="M700.76,146.05c-.07-.81-.07-1.67-.08-2.51v-2a22.16,22.16,0,0,1,0-3.36h0l0-2.73-.08-5.87,0-2.94,0-1.47v-.73a4.47,4.47,0,0,0,0-.47,3.35,3.35,0,0,0-.08-.54,3.69,3.69,0,0,0-1.68-2.27,4,4,0,0,0-1.27-.5,6.8,6.8,0,0,0-1.11-.11c-1.51-.08-3-.12-4.51-.09-2.81,0-5.63.23-8.43.1h0a.17.17,0,0,1-.22,0h0c-2,0-4,0-6,.08-3.92.11-7.83.06-11.75.14-4.31.08-8.59.38-12.86.66-2.25.15-2.91.63-1.36,1.21l.1,0-.93,0a2.92,2.92,0,0,0-1.88.86c-.06-.45-.43-.42-.88,0a2.9,2.9,0,0,0-.68,2c.1,1.92-.22,2.46-.76,2.76-.28.15-.45.46-.37,1.43s.18,2.22.19,3.35c0,3.56,0,7.11,0,10.67,0,1.7,0,3.39.12,5.11,0,.49.05,1.09.06,1.72a4.38,4.38,0,0,0,.8,2.55h0l0,0a1.32,1.32,0,0,0,.57.64h0a4.32,4.32,0,0,0,3,1.09l2.23,0,11.23-.17,5.16-.08c.86,0,1.71,0,2.57,0l1.27.07.64,0a1.85,1.85,0,0,1,.5.06h.46l.1,7.21v0a1.5,1.5,0,0,1,0,.3h0a4.77,4.77,0,0,0,0,1.46,4.89,4.89,0,0,1,1.11-1,8.88,8.88,0,0,0,2.23-1.83h0l1.83-1.65,1.05-1,0,0v0c.22,0,.31-.21.41-.37v0a11.62,11.62,0,0,0,1.89-1.47l0-.17.35-.39v0c.07-.22.26-.31.45-.4h0l.73-.62.41-.34h.13l.29,0,.84-.05h0c2,0,4-.33,6.06-.5h0a.05.05,0,0,0,0,0h0l.66,0,2.26-.26,1.13-.1.6,0a4.12,4.12,0,0,0,.82-.11l.07,0,.11,0a4,4,0,0,0,1.37-.88v0a8.55,8.55,0,0,0,.54-.73,3.78,3.78,0,0,0,.72-1.78c0-.37,0-.57,0-.78v-.66C700.86,147.83,700.83,147,700.76,146.05Zm-53.37,7.69.05.06v0Zm29.87,7.72.12-.17.53-.32Zm5.62-4.88,0-.05.3-.19Zm3.53-2.08.1-.08.08,0Zm11.1-1,.24,0,.25.06A2,2,0,0,1,697.51,153.51Z"/><path class="cls-5" d="M679.13,117.94l-.83-.33a2.83,2.83,0,0,0-1.31-.15c-.26,0-.53.06-.64.33L675,121.37a16,16,0,0,1-.93,2.12,3.36,3.36,0,0,0-.41,1.13,13.11,13.11,0,0,1-.55,1.85c-.22.68-.59,1.31-.78,2a3.54,3.54,0,0,1-.18.73c-.43.87-.84,1.75-1.22,2.64l-1.58,3.93c-.05.14-.15.25-.19.39a17,17,0,0,1-.77,1.94l-.43.94-.07.13c-.09.22-.24-.18-.22-.05s0-.13,0-.06-.05,0-.06,0l-.49-.53c-.38-.43-.75-.87-1.17-1.27a12,12,0,0,1-1.52-1.79,13.85,13.85,0,0,0-2.25-2.14,3.68,3.68,0,0,1-1-1.21c-.14-.32-.35-.39-.69-.16a5.18,5.18,0,0,0-1,.85l-1.63,1.79c-.37.39-.38.38-.09.72l.15.16c.5.61,1.2,1,1.67,1.66a1.36,1.36,0,0,0,.74.56,1.07,1.07,0,0,1,.51.4c.32.34.49.86,1.09.9,0,0,.1.07.1.11,0,.27.26.29.42.39a1.84,1.84,0,0,1,.6.47,8.22,8.22,0,0,0,1.46,1.65c.87.73,1.93,2.61,3.11,3.44a.77.77,0,0,1,.18.25,4.56,4.56,0,0,0,.8,1.18,4.62,4.62,0,0,0,.41.38c.13.07.29.35.33,0,.24-.81.38-1.59.79-1.88a1.57,1.57,0,0,0,.39-.84,4,4,0,0,1,.51-1.31c.23-.49.48-1,.69-1.51l.15-.39.07-.2,0-.12a1.88,1.88,0,0,0,0-.48.14.14,0,0,1,.12-.16c.35-.11.34-.49.33-.69s.18-.51.19-.76.4-.33.45-.59a5.82,5.82,0,0,1,.63-1.87,2.06,2.06,0,0,0,.41-1.05.34.34,0,0,1,.24-.29.48.48,0,0,0,.23-.29c.37-.88.76-1.76,1.1-2.65a18.24,18.24,0,0,1,1.19-2.85c0-.07.14-.17.07-.25s-.06-.33.08-.46.16-.29.25-.42c.21-.31.13-.73.4-1a4.18,4.18,0,0,0,.79-1.43c.25-.64.54-1.27.83-1.9s.62-1.51,1-2.25.43-1.28.68-1.9c.17-.42.17-.52-.29-.81A7,7,0,0,0,679.13,117.94Z"/><path class="cls-7" d="M709.23,206.89c-1,.3-1.91.5-2.9.81-.34.11-.65.24-1,.32l-1.31.31-.89.22-.11-.16-1.91-2.83c-.52-.78-1.08-1.52-1.61-2.29-.36-.52-.46-.62-.76-.59a1.33,1.33,0,0,0-.68.41l-.3.19a8.17,8.17,0,0,1-.85.09c-.27,0-.27,0-.4.59l-.07.3c-.25,1.06-.36,2.12-.65,3.18a5.06,5.06,0,0,0-.19,1.25,3.67,3.67,0,0,1-.14.87,6.16,6.16,0,0,0-.34,1.91.52.52,0,0,1,0,.21,1.81,1.81,0,0,0-.16.77,7.76,7.76,0,0,1-.17,1c-.28,1-.54,2-.72,3-.23,1.3-.78,2.47-1,3.79a.48.48,0,0,1-.07.2,4.34,4.34,0,0,0-.47,1.68,11.07,11.07,0,0,1-.56,2.39,7.81,7.81,0,0,0-.32,1.34,8.83,8.83,0,0,1-.25,1.22l.59-.25,2.14-.91a13.58,13.58,0,0,0,1.78-.89.56.56,0,0,1,.26-.1,2.12,2.12,0,0,0,1-.41c.32-.21.67-.31,1-.49s.63-.14,1-.32a24.42,24.42,0,0,1,2.48-1.17,7.35,7.35,0,0,0,1.43-.64,1.12,1.12,0,0,1,.48-.15,2,2,0,0,0,.49-.16l3.77-1.67,2.31-1-1.58-2.31c-.29-.42-.55-.82-.81-1.25-.06-.1-.14-.26-.21-.29-.22-.07-.3-.28-.4-.5s-.25-.38-.36-.57a5.2,5.2,0,0,0-.51-.72l2.25-2.9c.68-.88,1.34-1.73,2.13-2.65a12.54,12.54,0,0,0,1-1.34l.14-.2C710.8,206.45,710,206.66,709.23,206.89Zm-4.37,3.46.28-.08.19-.06.07,0s.09,0,.08,0,0,0,0,0,.16-.14.11-.08,0,0,0,0,.22-.14.1,0l-.12.09-.14.1s0,0-.07.05h0l-.32.4c-.08.09-.15.2-.23.3l-.17-.26-.22-.32Zm-8.17,3.54c.22-1.08.49-2.16.79-3.23.39-1.41.59-2.86.85-4.3,0-.15.07-.29.1-.44l2.3,3.33.45.65-.84,1.37c-.06.09-.14.17-.19.26-.49.91-1.11,1.75-1.65,2.63s-1,1.39-1.46,2.16c-.24.45-.58.86-.81,1.31s-.4.69-.62,1C695.91,217.05,696.36,215.49,696.69,213.89Zm9.92,3.8c.1.15.06.08.09.11s.13.09.16.15v0l-.18.06-.09,0-.42.18-1.8.78L699,221.44c-.19.09-.38.15-.56.24-.88.42-1.77.81-2.67,1.19l-.25.11a1.59,1.59,0,0,1,.13-.22c.18-.3.47-.55.46-.93a.15.15,0,0,1,.06-.1c.15-.08.15-.24.2-.37a1.77,1.77,0,0,1,.24-.5,8.53,8.53,0,0,0,.88-1.36c.32-.63.91-1.05,1.17-1.72a.2.2,0,0,1,.08-.08,1.26,1.26,0,0,0,.56-.74,1.48,1.48,0,0,1,.45-.72.62.62,0,0,0,.23-.32,1.28,1.28,0,0,1,.29-.49,3.44,3.44,0,0,0,.66-1.18.16.16,0,0,1,.1-.11c.21-.08.28-.34.32-.47s.2-.34.26-.52.28-.22.36-.4a6.72,6.72,0,0,1,.52-.95,1.3,1.3,0,0,0,.1.15,15.8,15.8,0,0,0,1,1.38c.57.7,1.08,1.44,1.6,2.17.3.41.58.83.86,1.25l.43.63Z"/><path class="cls-3" d="M707.1,194l-.36-.28a4.14,4.14,0,0,0-.54-.33c-.11-.06-.21-.11-.24-.06s-.25.38-.39.57a1.14,1.14,0,0,1-.27.31.25.25,0,0,0-.12.19,1,1,0,0,1-.13.33c-.06.12-.17.19-.22.32s0,.1,0,.14a3.23,3.23,0,0,0-.37.37l-.45.61s-.05,0-.06.05a3.33,3.33,0,0,1-.46.59c-.13.17-.38.24-.46.44s-.18.18-.22.3-.27.31-.37.5a1,1,0,0,1-.29.32c-.17.11-.17.33-.24.52s-.07.18-.19.2-.06.08.1.21.35.28.53.4l1,.69c.22.15.22.15.27.09l0,0c.09-.11.07-.3.18-.38s.07-.09,0-.19,0-.09,0-.12.19-.07.07-.26c0,0,0,0,0,0s0-.05,0-.1,0-.11,0-.14a.53.53,0,0,0,.26-.29c0-.18.37-.14.37-.35h0c.2.06.2,0,.21-.12s0-.19.13-.16.08,0,.07-.07,0-.08.07-.11.21-.12.15-.3c0,0,0,0,0,0s.12,0,.1-.09.05-.09,0-.15.15,0,.16,0a.4.4,0,0,1,.16-.32c.06,0,.14-.06.12-.16s0,0,.08,0,.07,0,.08,0,.22-.26.32-.4a1.18,1.18,0,0,1,.34-.43s0,0,0-.05,0-.09,0-.09,0,0,.08,0,0-.15.11-.16a.3.3,0,0,0,.25-.17,2.18,2.18,0,0,1,.25-.28c.1-.1.17-.23.27-.33s.12-.22.19-.31,0-.1-.16-.27S707.31,194.14,707.1,194Z"/><path class="cls-3" d="M717.63,196.87l-.36-.27a3,3,0,0,0-.54-.34c-.11,0-.21-.1-.24-.06-.13.19-.25.39-.39.57a1.14,1.14,0,0,1-.27.31.26.26,0,0,0-.12.19.88.88,0,0,1-.13.33c-.06.12-.17.19-.22.32s0,.11,0,.14a4.31,4.31,0,0,0-.37.37l-.45.62s0,0-.06,0a3.66,3.66,0,0,1-.46.58c-.13.17-.38.24-.46.45s-.18.17-.22.29-.27.32-.37.51a1.06,1.06,0,0,1-.29.31c-.17.11-.17.34-.24.52a.26.26,0,0,1-.19.21c-.08,0-.06.08.1.21s.35.27.53.4l1,.68c.22.15.22.16.27.09l0,0c.09-.1.07-.29.18-.38s.07-.09,0-.18,0-.1,0-.13.19-.07.07-.26c0,0,0,0,0,0s0,0,0-.09,0-.12,0-.15a.53.53,0,0,0,.26-.29c.05-.17.37-.13.37-.35h0c.19.05.19,0,.2-.13s0-.18.13-.16.08,0,.07-.06,0-.09.07-.12.21-.12.15-.29,0,0,0,0,.12,0,.1-.09,0-.08,0-.14.15,0,.16-.05a.38.38,0,0,1,.16-.31c.06,0,.14-.06.12-.17s0,0,.08,0,.07,0,.08,0a4.31,4.31,0,0,0,.32-.4,1.18,1.18,0,0,1,.34-.43s0,0,0,0,0-.1,0-.1.05,0,.08,0,0-.14.11-.15a.32.32,0,0,0,.25-.17,1.67,1.67,0,0,1,.25-.28c.1-.11.17-.23.27-.34a3.21,3.21,0,0,0,.19-.31c0-.07,0-.09-.16-.27S717.84,197,717.63,196.87Z"/><path class="cls-3" d="M719.05,209l-.35-.27a4.84,4.84,0,0,0-.55-.34c-.1-.05-.21-.1-.24-.06-.12.2-.25.39-.38.58a1.18,1.18,0,0,1-.28.31.27.27,0,0,0-.11.18,1,1,0,0,1-.13.33c-.06.12-.18.2-.22.33s0,.1,0,.13a2.65,2.65,0,0,0-.37.38c-.16.2-.3.41-.45.61,0,0,0,0-.06.05a3.8,3.8,0,0,1-.47.59c-.12.17-.38.23-.45.44s-.18.17-.23.29-.27.32-.37.51a.72.72,0,0,1-.29.31c-.16.11-.17.34-.23.53a.27.27,0,0,1-.2.2c-.08,0,0,.08.11.21a5.25,5.25,0,0,0,.53.4l1,.68c.22.16.22.16.26.1s0,0,0,0,.07-.29.19-.38.06-.09,0-.18a.1.1,0,0,1,0-.12c.05-.07.19-.08.07-.26,0,0,0,0,0,0s0-.06,0-.1,0-.11,0-.14a.53.53,0,0,0,.25-.3c0-.17.37-.13.37-.34h0c.19.06.19,0,.2-.13s0-.18.13-.15.09,0,.07-.07,0-.08.08-.11.2-.12.15-.3c0,0,0,0,0,0s.11-.05.1-.1,0-.08,0-.14.15,0,.15,0a.41.41,0,0,1,.17-.31c.06,0,.14-.06.11-.16s0,0,.09,0,.06,0,.08,0,.22-.26.31-.4a1,1,0,0,1,.35-.43s.05,0,0-.05,0-.09,0-.09,0,0,.08,0,0-.15.11-.16a.33.33,0,0,0,.26-.17,3.22,3.22,0,0,1,.24-.28c.1-.1.18-.23.28-.34a3.14,3.14,0,0,0,.18-.31c0-.06,0-.09-.16-.26A7.57,7.57,0,0,0,719.05,209Z"/></svg>